<?xml version="1.0" encoding="UTF-8" standalone="no"?>
<svg
   xmlns:dc="http://purl.org/dc/elements/1.1/"
   xmlns:cc="http://creativecommons.org/ns#"
   xmlns:rdf="http://www.w3.org/1999/02/22-rdf-syntax-ns#"
   xmlns:svg="http://www.w3.org/2000/svg"
   xmlns="http://www.w3.org/2000/svg"
   viewBox="0 0 979.40442 350.77344"
   height="350.77344"
   width="979.40442"
   xml:space="preserve"
   version="1.1"
   id="svg2"><metadata
     id="metadata8"><rdf:RDF><cc:Work
         rdf:about=""><dc:format>image/svg+xml</dc:format><dc:type
           rdf:resource="http://purl.org/dc/dcmitype/StillImage" /></cc:Work></rdf:RDF></metadata><defs
     id="defs6"><clipPath
       id="clipPath20"
       clipPathUnits="userSpaceOnUse"><path
         id="path22"
         d="m 9.98125,38.95 210.7548,0 0,221.5 -210.7548,0 0,-221.5 z" /></clipPath><clipPath
       id="clipPath38"
       clipPathUnits="userSpaceOnUse"><path
         id="path40"
         d="m 9.98125,38.95 210.7548,0 0,221.5 -210.7548,0 0,-221.5 z" /></clipPath><clipPath
       id="clipPath56"
       clipPathUnits="userSpaceOnUse"><path
         id="path58"
         d="m 9.98125,38.95 210.7548,0 0,221.5 -210.7548,0 0,-221.5 z" /></clipPath><clipPath
       id="clipPath74"
       clipPathUnits="userSpaceOnUse"><path
         id="path76"
         d="m 9.98125,38.95 210.7548,0 0,221.5 -210.7548,0 0,-221.5 z" /></clipPath><clipPath
       id="clipPath92"
       clipPathUnits="userSpaceOnUse"><path
         id="path94"
         d="m 9.98125,38.95 210.7548,0 0,221.5 -210.7548,0 0,-221.5 z" /></clipPath><clipPath
       id="clipPath110"
       clipPathUnits="userSpaceOnUse"><path
         id="path112"
         d="m 9.98125,38.95 210.7548,0 0,221.5 -210.7548,0 0,-221.5 z" /></clipPath><clipPath
       id="clipPath132"
       clipPathUnits="userSpaceOnUse"><path
         id="path134"
         d="m 9.98125,38.95 210.7548,0 0,221.5 -210.7548,0 0,-221.5 z" /></clipPath><clipPath
       id="clipPath146"
       clipPathUnits="userSpaceOnUse"><path
         id="path148"
         d="m 9.98125,38.95 210.7548,0 0,221.5 -210.7548,0 0,-221.5 z" /></clipPath><clipPath
       id="clipPath160"
       clipPathUnits="userSpaceOnUse"><path
         id="path162"
         d="m 9.98125,38.95 210.7548,0 0,221.5 -210.7548,0 0,-221.5 z" /></clipPath><clipPath
       id="clipPath174"
       clipPathUnits="userSpaceOnUse"><path
         id="path176"
         d="m 9.98125,38.95 210.7548,0 0,221.5 -210.7548,0 0,-221.5 z" /></clipPath><clipPath
       id="clipPath188"
       clipPathUnits="userSpaceOnUse"><path
         id="path190"
         d="m 9.98125,38.95 210.7548,0 0,221.5 -210.7548,0 0,-221.5 z" /></clipPath><clipPath
       id="clipPath202"
       clipPathUnits="userSpaceOnUse"><path
         id="path204"
         d="m 9.98125,38.95 210.7548,0 0,221.5 -210.7548,0 0,-221.5 z" /></clipPath><clipPath
       id="clipPath216"
       clipPathUnits="userSpaceOnUse"><path
         id="path218"
         d="m 9.98125,38.95 210.7548,0 0,221.5 -210.7548,0 0,-221.5 z" /></clipPath><clipPath
       id="clipPath230"
       clipPathUnits="userSpaceOnUse"><path
         id="path232"
         d="m 9.98125,38.95 210.7548,0 0,221.5 -210.7548,0 0,-221.5 z" /></clipPath><clipPath
       id="clipPath244"
       clipPathUnits="userSpaceOnUse"><path
         id="path246"
         d="m 9.98125,38.95 210.7548,0 0,221.5 -210.7548,0 0,-221.5 z" /></clipPath><clipPath
       id="clipPath254"
       clipPathUnits="userSpaceOnUse"><path
         id="path256"
         d="m 9.98125,38.95 210.7548,0 0,221.5 -210.7548,0 0,-221.5 z" /></clipPath><clipPath
       id="clipPath264"
       clipPathUnits="userSpaceOnUse"><path
         id="path266"
         d="m 9.98125,38.95 210.7548,0 0,221.5 -210.7548,0 0,-221.5 z" /></clipPath><clipPath
       id="clipPath274"
       clipPathUnits="userSpaceOnUse"><path
         id="path276"
         d="m 9.98125,38.95 210.7548,0 0,221.5 -210.7548,0 0,-221.5 z" /></clipPath><clipPath
       id="clipPath292"
       clipPathUnits="userSpaceOnUse"><path
         id="path294"
         d="m 251.39049,38.95 210.7548,0 0,221.5 -210.7548,0 0,-221.5 z" /></clipPath><clipPath
       id="clipPath310"
       clipPathUnits="userSpaceOnUse"><path
         id="path312"
         d="m 251.39049,38.95 210.7548,0 0,221.5 -210.7548,0 0,-221.5 z" /></clipPath><clipPath
       id="clipPath328"
       clipPathUnits="userSpaceOnUse"><path
         id="path330"
         d="m 251.39049,38.95 210.7548,0 0,221.5 -210.7548,0 0,-221.5 z" /></clipPath><clipPath
       id="clipPath346"
       clipPathUnits="userSpaceOnUse"><path
         id="path348"
         d="m 251.39049,38.95 210.7548,0 0,221.5 -210.7548,0 0,-221.5 z" /></clipPath><clipPath
       id="clipPath364"
       clipPathUnits="userSpaceOnUse"><path
         id="path366"
         d="m 251.39049,38.95 210.7548,0 0,221.5 -210.7548,0 0,-221.5 z" /></clipPath><clipPath
       id="clipPath382"
       clipPathUnits="userSpaceOnUse"><path
         id="path384"
         d="m 251.39049,38.95 210.7548,0 0,221.5 -210.7548,0 0,-221.5 z" /></clipPath><clipPath
       id="clipPath404"
       clipPathUnits="userSpaceOnUse"><path
         id="path406"
         d="m 251.39049,38.95 210.7548,0 0,221.5 -210.7548,0 0,-221.5 z" /></clipPath><clipPath
       id="clipPath418"
       clipPathUnits="userSpaceOnUse"><path
         id="path420"
         d="m 251.39049,38.95 210.7548,0 0,221.5 -210.7548,0 0,-221.5 z" /></clipPath><clipPath
       id="clipPath432"
       clipPathUnits="userSpaceOnUse"><path
         id="path434"
         d="m 251.39049,38.95 210.7548,0 0,221.5 -210.7548,0 0,-221.5 z" /></clipPath><clipPath
       id="clipPath446"
       clipPathUnits="userSpaceOnUse"><path
         id="path448"
         d="m 251.39049,38.95 210.7548,0 0,221.5 -210.7548,0 0,-221.5 z" /></clipPath><clipPath
       id="clipPath460"
       clipPathUnits="userSpaceOnUse"><path
         id="path462"
         d="m 251.39049,38.95 210.7548,0 0,221.5 -210.7548,0 0,-221.5 z" /></clipPath><clipPath
       id="clipPath474"
       clipPathUnits="userSpaceOnUse"><path
         id="path476"
         d="m 251.39049,38.95 210.7548,0 0,221.5 -210.7548,0 0,-221.5 z" /></clipPath><clipPath
       id="clipPath488"
       clipPathUnits="userSpaceOnUse"><path
         id="path490"
         d="m 251.39049,38.95 210.7548,0 0,221.5 -210.7548,0 0,-221.5 z" /></clipPath><clipPath
       id="clipPath502"
       clipPathUnits="userSpaceOnUse"><path
         id="path504"
         d="m 251.39049,38.95 210.7548,0 0,221.5 -210.7548,0 0,-221.5 z" /></clipPath><clipPath
       id="clipPath516"
       clipPathUnits="userSpaceOnUse"><path
         id="path518"
         d="m 251.39049,38.95 210.7548,0 0,221.5 -210.7548,0 0,-221.5 z" /></clipPath><clipPath
       id="clipPath526"
       clipPathUnits="userSpaceOnUse"><path
         id="path528"
         d="m 251.39049,38.95 210.7548,0 0,221.5 -210.7548,0 0,-221.5 z" /></clipPath><clipPath
       id="clipPath536"
       clipPathUnits="userSpaceOnUse"><path
         id="path538"
         d="m 251.39049,38.95 210.7548,0 0,221.5 -210.7548,0 0,-221.5 z" /></clipPath><clipPath
       id="clipPath546"
       clipPathUnits="userSpaceOnUse"><path
         id="path548"
         d="m 251.39049,38.95 210.7548,0 0,221.5 -210.7548,0 0,-221.5 z" /></clipPath><clipPath
       id="clipPath564"
       clipPathUnits="userSpaceOnUse"><path
         id="path566"
         d="m 492.79972,38.95 210.7548,0 0,221.5 -210.7548,0 0,-221.5 z" /></clipPath><clipPath
       id="clipPath582"
       clipPathUnits="userSpaceOnUse"><path
         id="path584"
         d="m 492.79972,38.95 210.7548,0 0,221.5 -210.7548,0 0,-221.5 z" /></clipPath><clipPath
       id="clipPath600"
       clipPathUnits="userSpaceOnUse"><path
         id="path602"
         d="m 492.79972,38.95 210.7548,0 0,221.5 -210.7548,0 0,-221.5 z" /></clipPath><clipPath
       id="clipPath618"
       clipPathUnits="userSpaceOnUse"><path
         id="path620"
         d="m 492.79972,38.95 210.7548,0 0,221.5 -210.7548,0 0,-221.5 z" /></clipPath><clipPath
       id="clipPath636"
       clipPathUnits="userSpaceOnUse"><path
         id="path638"
         d="m 492.79972,38.95 210.7548,0 0,221.5 -210.7548,0 0,-221.5 z" /></clipPath><clipPath
       id="clipPath654"
       clipPathUnits="userSpaceOnUse"><path
         id="path656"
         d="m 492.79972,38.95 210.7548,0 0,221.5 -210.7548,0 0,-221.5 z" /></clipPath><clipPath
       id="clipPath676"
       clipPathUnits="userSpaceOnUse"><path
         id="path678"
         d="m 492.79972,38.95 210.7548,0 0,221.5 -210.7548,0 0,-221.5 z" /></clipPath><clipPath
       id="clipPath690"
       clipPathUnits="userSpaceOnUse"><path
         id="path692"
         d="m 492.79972,38.95 210.7548,0 0,221.5 -210.7548,0 0,-221.5 z" /></clipPath><clipPath
       id="clipPath704"
       clipPathUnits="userSpaceOnUse"><path
         id="path706"
         d="m 492.79972,38.95 210.7548,0 0,221.5 -210.7548,0 0,-221.5 z" /></clipPath><clipPath
       id="clipPath718"
       clipPathUnits="userSpaceOnUse"><path
         id="path720"
         d="m 492.79972,38.95 210.7548,0 0,221.5 -210.7548,0 0,-221.5 z" /></clipPath><clipPath
       id="clipPath732"
       clipPathUnits="userSpaceOnUse"><path
         id="path734"
         d="m 492.79972,38.95 210.7548,0 0,221.5 -210.7548,0 0,-221.5 z" /></clipPath><clipPath
       id="clipPath746"
       clipPathUnits="userSpaceOnUse"><path
         id="path748"
         d="m 492.79972,38.95 210.7548,0 0,221.5 -210.7548,0 0,-221.5 z" /></clipPath><clipPath
       id="clipPath760"
       clipPathUnits="userSpaceOnUse"><path
         id="path762"
         d="m 492.79972,38.95 210.7548,0 0,221.5 -210.7548,0 0,-221.5 z" /></clipPath><clipPath
       id="clipPath774"
       clipPathUnits="userSpaceOnUse"><path
         id="path776"
         d="m 492.79972,38.95 210.7548,0 0,221.5 -210.7548,0 0,-221.5 z" /></clipPath><clipPath
       id="clipPath788"
       clipPathUnits="userSpaceOnUse"><path
         id="path790"
         d="m 492.79972,38.95 210.7548,0 0,221.5 -210.7548,0 0,-221.5 z" /></clipPath><clipPath
       id="clipPath798"
       clipPathUnits="userSpaceOnUse"><path
         id="path800"
         d="m 492.79972,38.95 210.7548,0 0,221.5 -210.7548,0 0,-221.5 z" /></clipPath><clipPath
       id="clipPath808"
       clipPathUnits="userSpaceOnUse"><path
         id="path810"
         d="m 492.79972,38.95 210.7548,0 0,221.5 -210.7548,0 0,-221.5 z" /></clipPath><clipPath
       id="clipPath818"
       clipPathUnits="userSpaceOnUse"><path
         id="path820"
         d="m 492.79972,38.95 210.7548,0 0,221.5 -210.7548,0 0,-221.5 z" /></clipPath></defs><g
     transform="matrix(1.25,0,0,-1.25,0,350.77344)"
     id="g10"><path
       id="path12"
       style="fill:#ffffff;fill-opacity:1;fill-rule:nonzero;stroke:none"
       d="m 0,0 783.52352,0 0,280.61875 L 0,280.61875 0,0 Z" /><path
       id="path14"
       style="fill:#eaeaf2;fill-opacity:1;fill-rule:nonzero;stroke:none"
       d="m 9.98125,38.95 210.7548,0 0,221.5 -210.7548,0 0,-221.5 z" /><g
       id="g16"><g
         clip-path="url(#clipPath20)"
         id="g18"><path
           id="path24"
           style="fill:none;stroke:#ffffff;stroke-width:1;stroke-linecap:round;stroke-linejoin:round;stroke-miterlimit:10;stroke-dasharray:none;stroke-opacity:1"
           d="m 9.98125,38.95 0,221.5" /></g></g><g
       id="g26"><path
         id="path28"
         style="fill:#262626;fill-opacity:1;fill-rule:nonzero;stroke:#262626;stroke-width:1;stroke-linecap:butt;stroke-linejoin:round;stroke-miterlimit:10;stroke-dasharray:none;stroke-opacity:1"
         d="m 9.98125,38.95 0,0" /><text
         id="text30"
         style="font-variant:normal;font-weight:normal;font-size:10px;font-family:'Liberation Sans';-inkscape-font-specification:LiberationSans;writing-mode:lr-tb;fill:#262626;fill-opacity:1;fill-rule:nonzero;stroke:none"
         transform="matrix(1,0,0,-1,7.2,24.7)"><tspan
           id="tspan32"
           y="0"
           x="0">0</tspan></text>
</g><g
       id="g34"><g
         clip-path="url(#clipPath38)"
         id="g36"><path
           id="path42"
           style="fill:none;stroke:#ffffff;stroke-width:1;stroke-linecap:round;stroke-linejoin:round;stroke-miterlimit:10;stroke-dasharray:none;stroke-opacity:1"
           d="m 52.13221,38.95 0,221.5" /></g></g><g
       id="g44"><path
         id="path46"
         style="fill:#262626;fill-opacity:1;fill-rule:nonzero;stroke:#262626;stroke-width:1;stroke-linecap:butt;stroke-linejoin:round;stroke-miterlimit:10;stroke-dasharray:none;stroke-opacity:1"
         d="m 52.13221,38.95 0,0" /><text
         id="text48"
         style="font-variant:normal;font-weight:normal;font-size:10px;font-family:'Liberation Sans';-inkscape-font-specification:LiberationSans;writing-mode:lr-tb;fill:#262626;fill-opacity:1;fill-rule:nonzero;stroke:none"
         transform="matrix(1,0,0,-1,44.06971,24.7)"><tspan
           id="tspan50"
           y="0"
           x="0 5.5599999 11.12">40k</tspan></text>
</g><g
       id="g52"><g
         clip-path="url(#clipPath56)"
         id="g54"><path
           id="path60"
           style="fill:none;stroke:#ffffff;stroke-width:1;stroke-linecap:round;stroke-linejoin:round;stroke-miterlimit:10;stroke-dasharray:none;stroke-opacity:1"
           d="m 94.283171,38.95 0,221.5" /></g></g><g
       id="g62"><path
         id="path64"
         style="fill:#262626;fill-opacity:1;fill-rule:nonzero;stroke:#262626;stroke-width:1;stroke-linecap:butt;stroke-linejoin:round;stroke-miterlimit:10;stroke-dasharray:none;stroke-opacity:1"
         d="m 94.283171,38.95 0,0" /><text
         id="text66"
         style="font-variant:normal;font-weight:normal;font-size:10px;font-family:'Liberation Sans';-inkscape-font-specification:LiberationSans;writing-mode:lr-tb;fill:#262626;fill-opacity:1;fill-rule:nonzero;stroke:none"
         transform="matrix(1,0,0,-1,86.220671,24.7)"><tspan
           id="tspan68"
           y="0"
           x="0 5.5599999 11.12">80k</tspan></text>
</g><g
       id="g70"><g
         clip-path="url(#clipPath74)"
         id="g72"><path
           id="path78"
           style="fill:none;stroke:#ffffff;stroke-width:1;stroke-linecap:round;stroke-linejoin:round;stroke-miterlimit:10;stroke-dasharray:none;stroke-opacity:1"
           d="m 136.43413,38.95 0,221.5" /></g></g><g
       id="g80"><path
         id="path82"
         style="fill:#262626;fill-opacity:1;fill-rule:nonzero;stroke:#262626;stroke-width:1;stroke-linecap:butt;stroke-linejoin:round;stroke-miterlimit:10;stroke-dasharray:none;stroke-opacity:1"
         d="m 136.43413,38.95 0,0" /><text
         id="text84"
         style="font-variant:normal;font-weight:normal;font-size:10px;font-family:'Liberation Sans';-inkscape-font-specification:LiberationSans;writing-mode:lr-tb;fill:#262626;fill-opacity:1;fill-rule:nonzero;stroke:none"
         transform="matrix(1,0,0,-1,125.59038,24.7)"><tspan
           id="tspan86"
           y="0"
           x="0 5.5599999 11.12 16.68">120k</tspan></text>
</g><g
       id="g88"><g
         clip-path="url(#clipPath92)"
         id="g90"><path
           id="path96"
           style="fill:none;stroke:#ffffff;stroke-width:1;stroke-linecap:round;stroke-linejoin:round;stroke-miterlimit:10;stroke-dasharray:none;stroke-opacity:1"
           d="m 178.58509,38.95 0,221.5" /></g></g><g
       id="g98"><path
         id="path100"
         style="fill:#262626;fill-opacity:1;fill-rule:nonzero;stroke:#262626;stroke-width:1;stroke-linecap:butt;stroke-linejoin:round;stroke-miterlimit:10;stroke-dasharray:none;stroke-opacity:1"
         d="m 178.58509,38.95 0,0" /><text
         id="text102"
         style="font-variant:normal;font-weight:normal;font-size:10px;font-family:'Liberation Sans';-inkscape-font-specification:LiberationSans;writing-mode:lr-tb;fill:#262626;fill-opacity:1;fill-rule:nonzero;stroke:none"
         transform="matrix(1,0,0,-1,167.74134,24.7)"><tspan
           id="tspan104"
           y="0"
           x="0 5.5599999 11.12 16.68">160k</tspan></text>
</g><g
       id="g106"><g
         clip-path="url(#clipPath110)"
         id="g108"><path
           id="path114"
           style="fill:none;stroke:#ffffff;stroke-width:1;stroke-linecap:round;stroke-linejoin:round;stroke-miterlimit:10;stroke-dasharray:none;stroke-opacity:1"
           d="m 220.73605,38.95 0,221.5" /></g></g><g
       id="g116"><path
         id="path118"
         style="fill:#262626;fill-opacity:1;fill-rule:nonzero;stroke:#262626;stroke-width:1;stroke-linecap:butt;stroke-linejoin:round;stroke-miterlimit:10;stroke-dasharray:none;stroke-opacity:1"
         d="m 220.73605,38.95 0,0" /><text
         id="text120"
         style="font-variant:normal;font-weight:normal;font-size:10px;font-family:'Liberation Sans';-inkscape-font-specification:LiberationSans;writing-mode:lr-tb;fill:#262626;fill-opacity:1;fill-rule:nonzero;stroke:none"
         transform="matrix(1,0,0,-1,209.8923,24.7)"><tspan
           id="tspan122"
           y="0"
           x="0 5.5599999 11.12 16.68">200k</tspan></text>
<text
         id="text124"
         style="font-variant:normal;font-weight:normal;font-size:11px;font-family:'Liberation Sans';-inkscape-font-specification:LiberationSans;writing-mode:lr-tb;fill:#262626;fill-opacity:1;fill-rule:nonzero;stroke:none"
         transform="matrix(1,0,0,-1,33.944589,9.48125)"><tspan
           id="tspan126"
           y="0"
           x="0 9.1630001 15.279 21.395 27.511 30.569 37.905998 44.021999 47.685001 53.800999 56.243 62.359001 68.474998 73.974998 77.032997 80.695999 86.811996 90.474998 93.532997 99.649002 102.707 105.765 111.881 115.544 118.602 124.718 130.834 133.892 141.229 147.345 153.461 157.12399">Mean Earnings ($) after 10 Years</tspan></text>
</g><g
       id="g128"><g
         clip-path="url(#clipPath132)"
         id="g130"><path
           id="path136"
           style="fill:none;stroke:#ffffff;stroke-width:1;stroke-linecap:round;stroke-linejoin:round;stroke-miterlimit:10;stroke-dasharray:none;stroke-opacity:1"
           d="m 9.98125,38.95 210.7548,0" /></g></g><g
       id="g138"><path
         id="path140"
         style="fill:#262626;fill-opacity:1;fill-rule:nonzero;stroke:#262626;stroke-width:1;stroke-linecap:butt;stroke-linejoin:round;stroke-miterlimit:10;stroke-dasharray:none;stroke-opacity:1"
         d="m 9.98125,38.95 0,0" /></g><g
       id="g142"><g
         clip-path="url(#clipPath146)"
         id="g144"><path
           id="path150"
           style="fill:none;stroke:#ffffff;stroke-width:1;stroke-linecap:round;stroke-linejoin:round;stroke-miterlimit:10;stroke-dasharray:none;stroke-opacity:1"
           d="m 9.98125,70.592857 210.7548,0" /></g></g><g
       id="g152"><path
         id="path154"
         style="fill:#262626;fill-opacity:1;fill-rule:nonzero;stroke:#262626;stroke-width:1;stroke-linecap:butt;stroke-linejoin:round;stroke-miterlimit:10;stroke-dasharray:none;stroke-opacity:1"
         d="m 9.98125,70.592857 0,0" /></g><g
       id="g156"><g
         clip-path="url(#clipPath160)"
         id="g158"><path
           id="path164"
           style="fill:none;stroke:#ffffff;stroke-width:1;stroke-linecap:round;stroke-linejoin:round;stroke-miterlimit:10;stroke-dasharray:none;stroke-opacity:1"
           d="m 9.98125,102.23571 210.7548,0" /></g></g><g
       id="g166"><path
         id="path168"
         style="fill:#262626;fill-opacity:1;fill-rule:nonzero;stroke:#262626;stroke-width:1;stroke-linecap:butt;stroke-linejoin:round;stroke-miterlimit:10;stroke-dasharray:none;stroke-opacity:1"
         d="m 9.98125,102.23571 0,0" /></g><g
       id="g170"><g
         clip-path="url(#clipPath174)"
         id="g172"><path
           id="path178"
           style="fill:none;stroke:#ffffff;stroke-width:1;stroke-linecap:round;stroke-linejoin:round;stroke-miterlimit:10;stroke-dasharray:none;stroke-opacity:1"
           d="m 9.98125,133.87857 210.7548,0" /></g></g><g
       id="g180"><path
         id="path182"
         style="fill:#262626;fill-opacity:1;fill-rule:nonzero;stroke:#262626;stroke-width:1;stroke-linecap:butt;stroke-linejoin:round;stroke-miterlimit:10;stroke-dasharray:none;stroke-opacity:1"
         d="m 9.98125,133.87857 0,0" /></g><g
       id="g184"><g
         clip-path="url(#clipPath188)"
         id="g186"><path
           id="path192"
           style="fill:none;stroke:#ffffff;stroke-width:1;stroke-linecap:round;stroke-linejoin:round;stroke-miterlimit:10;stroke-dasharray:none;stroke-opacity:1"
           d="m 9.98125,165.52143 210.7548,0" /></g></g><g
       id="g194"><path
         id="path196"
         style="fill:#262626;fill-opacity:1;fill-rule:nonzero;stroke:#262626;stroke-width:1;stroke-linecap:butt;stroke-linejoin:round;stroke-miterlimit:10;stroke-dasharray:none;stroke-opacity:1"
         d="m 9.98125,165.52143 0,0" /></g><g
       id="g198"><g
         clip-path="url(#clipPath202)"
         id="g200"><path
           id="path206"
           style="fill:none;stroke:#ffffff;stroke-width:1;stroke-linecap:round;stroke-linejoin:round;stroke-miterlimit:10;stroke-dasharray:none;stroke-opacity:1"
           d="m 9.98125,197.16429 210.7548,0" /></g></g><g
       id="g208"><path
         id="path210"
         style="fill:#262626;fill-opacity:1;fill-rule:nonzero;stroke:#262626;stroke-width:1;stroke-linecap:butt;stroke-linejoin:round;stroke-miterlimit:10;stroke-dasharray:none;stroke-opacity:1"
         d="m 9.98125,197.16429 0,0" /></g><g
       id="g212"><g
         clip-path="url(#clipPath216)"
         id="g214"><path
           id="path220"
           style="fill:none;stroke:#ffffff;stroke-width:1;stroke-linecap:round;stroke-linejoin:round;stroke-miterlimit:10;stroke-dasharray:none;stroke-opacity:1"
           d="m 9.98125,228.80714 210.7548,0" /></g></g><g
       id="g222"><path
         id="path224"
         style="fill:#262626;fill-opacity:1;fill-rule:nonzero;stroke:#262626;stroke-width:1;stroke-linecap:butt;stroke-linejoin:round;stroke-miterlimit:10;stroke-dasharray:none;stroke-opacity:1"
         d="m 9.98125,228.80714 0,0" /></g><g
       id="g226"><g
         clip-path="url(#clipPath230)"
         id="g228"><path
           id="path234"
           style="fill:none;stroke:#ffffff;stroke-width:1;stroke-linecap:round;stroke-linejoin:round;stroke-miterlimit:10;stroke-dasharray:none;stroke-opacity:1"
           d="m 9.98125,260.45 210.7548,0" /></g></g><g
       id="g236"><path
         id="path238"
         style="fill:#262626;fill-opacity:1;fill-rule:nonzero;stroke:#262626;stroke-width:1;stroke-linecap:butt;stroke-linejoin:round;stroke-miterlimit:10;stroke-dasharray:none;stroke-opacity:1"
         d="m 9.98125,260.45 0,0" /></g><g
       id="g240"><g
         clip-path="url(#clipPath244)"
         id="g242"><path
           id="path248"
           style="fill:#4878cf;fill-opacity:0.25;fill-rule:nonzero;stroke:#4878cf;stroke-width:0.30000001;stroke-linecap:butt;stroke-linejoin:round;stroke-miterlimit:10;stroke-dasharray:none;stroke-opacity:0.25"
           d="m 27.951024,38.977743 0,-0.02774 0.605667,0 0.605666,0 0.605667,0 0.605666,0 0.605667,0 0.605666,0 0.605667,0 0.605666,0 0.605667,0 0.605666,0 0.605667,0 0.605666,0 0.605667,0 0.605666,0 0.605667,0 0.605666,0 0.605667,0 0.605666,0 0.605667,0 0.605667,0 0.605666,0 0.605667,0 0.605666,0 0.605667,0 0.605666,0 0.605667,0 0.605666,0 0.605667,0 0.605666,0 0.605667,0 0.605666,0 0.605667,0 0.605666,0 0.605667,0 0.605666,0 0.605667,0 0.605666,0 0.605667,0 0.605666,0 0.605667,0 0.605667,0 0.605666,0 0.605667,0 0.605666,0 0.605667,0 0.605666,0 0.605667,0 0.605666,0 0.605667,0 0.605666,0 0.605667,0 0.605666,0 0.605667,0 0.605666,0 0.605667,0 0.605666,0 0.605667,0 0.605666,0 0.605667,0 0.605666,0 0.605667,0 0.605667,0 0.605666,0 0.605667,0 0.605666,0 0.605667,0 0.605666,0 0.605667,0 0.605666,0 0.605667,0 0.605666,0 0.605667,0 0.605666,0 0.605667,0 0.605666,0 0.605667,0 0.605666,0 0.605667,0 0.605666,0 0.605667,0 0.605666,0 0.605667,0 0.605667,0 0.605666,0 0.605667,0 0.605666,0 0.605667,0 0.605666,0 0.605667,0 0.605666,0 0.605667,0 0.605666,0 0.605667,0 0.605666,0 0.605667,0 0.605666,0 0.605667,0 0.605666,0 0.605667,0 0.605666,0 0.605667,0 0.605667,0 0.605666,0 0.605667,0 0.605666,0 0.605667,0 0.605666,0 0.605667,0 0.605666,0 0.605667,0 0.605666,0 0.605667,0 0.605666,0 0.605667,0 0.605666,0 0.605667,0 0.605666,0 0.605667,0 0.605666,0 0.60567,0 0.60566,0 0.60567,0 0.60567,0 0.60566,0 0.60567,0 0.60567,0 0.60566,0 0,0.01963 0,0 -0.60566,0.0091 -0.60567,0.02877 -0.60567,0.05756 -0.60566,0.09983 -0.60567,0.155842 -0.60567,0.21954 -0.60566,0.277716 -0.60567,0.312386 -0.605666,0.306882 -0.605667,0.253506 -0.605666,0.158546 -0.605667,0.0412 -0.605666,-0.07363 -0.605667,-0.164605 -0.605666,-0.22018 -0.605667,-0.238989 -0.605666,-0.226078 -0.605667,-0.188857 -0.605666,-0.135475 -0.605667,-0.07519 -0.605666,-0.01829 -0.605667,0.02629 -0.605666,0.05505 -0.605667,0.07281 -0.605666,0.09148 -0.605667,0.124051 -0.605667,0.176223 -0.605666,0.240428 -0.605667,0.296289 -0.605666,0.318469 -0.605667,0.288489 -0.605666,0.204621 -0.605667,0.08474 -0.605666,-0.03937 -0.605667,-0.133323 -0.605666,-0.172095 -0.605667,-0.148062 -0.605666,-0.07286 -0.605667,0.02707 -0.605666,0.119738 -0.605667,0.179104 -0.605666,0.194545 -0.605667,0.174104 -0.605666,0.139313 -0.605667,0.113911 -0.605667,0.112627 -0.605666,0.136748 -0.605667,0.179097 -0.605666,0.234934 -0.605667,0.311185 -0.605666,0.427234 -0.605667,0.60548 -0.605666,0.855665 -0.605667,1.160454 -0.605666,1.469628 -0.605667,1.707412 -0.605666,1.793113 -0.605667,1.670378 -0.605666,1.335702 -0.605667,0.854165 -0.605666,0.351855 -0.605667,-0.01796 -0.605666,-0.125268 -0.605667,0.09088 -0.605666,0.604758 -0.605667,1.325043 -0.605667,2.143002 -0.605666,2.977953 -0.605667,3.790525 -0.605666,4.555679 -0.605667,5.217748 -0.605666,5.66799 -0.605667,5.775112 -0.605666,5.462438 -0.605667,4.784605 -0.605666,3.943566 -0.605667,3.2153 -0.605666,2.81897 -0.605667,2.8069 -0.605666,3.04793 -0.605667,3.31795 -0.605666,3.43951 -0.605667,3.3827 -0.605666,3.26977 -0.605667,3.29505 -0.605666,3.62065 -0.605667,4.30998 -0.605667,5.31994 -0.605666,6.53077 -0.605667,7.78143 -0.605666,8.89532 -0.605667,9.7028 -0.605666,10.07042 -0.605667,9.93373 -0.605666,9.31742 -0.605667,8.32787 -0.605666,7.11536 -0.605667,5.81618 -0.605666,4.49333 -0.605667,3.09925 -0.605666,1.48408 -0.605667,-0.53889 -0.605666,-3.08822 -0.605667,-6.11864 -0.605666,-9.39085 -0.605667,-12.53074 -0.605666,-15.15015 -0.605667,-16.96624 -0.605667,-17.86301 -0.605666,-17.8798 -0.605667,-17.15316 -0.605666,-15.8542 -0.605667,-14.150438 -0.605666,-12.195764 -0.605667,-10.134717 -0.605666,-8.10417 -0.605667,-6.225072 -0.605666,-4.588138 -0.605667,-3.24288 -0.605666,-2.19679 -0.605667,-1.424607 -0.605666,-0.882313 -0.605667,-0.519925 -0.605666,-0.290049 -0.605667,-0.152171 -0.605666,-0.07412 -0.605667,-0.03182 z" /></g></g><g
       id="g250"><g
         clip-path="url(#clipPath254)"
         id="g252"><path
           id="path258"
           style="fill:#6acc65;fill-opacity:0.25;fill-rule:nonzero;stroke:#6acc65;stroke-width:0.30000001;stroke-linecap:butt;stroke-linejoin:round;stroke-miterlimit:10;stroke-dasharray:none;stroke-opacity:0.25"
           d="m 31.183098,38.959984 0,-0.01 1.502334,0 1.502335,0 1.502334,0 1.502335,0 1.502335,0 1.502334,0 1.502335,0 1.502334,0 1.502335,0 1.502335,0 1.502334,0 1.502335,0 1.502334,0 1.502335,0 1.502335,0 1.502334,0 1.502335,0 1.502334,0 1.502335,0 1.502334,0 1.502335,0 1.502335,0 1.502334,0 1.502335,0 1.502334,0 1.502335,0 1.502335,0 1.502334,0 1.502335,0 1.502334,0 1.502335,0 1.502335,0 1.502334,0 1.502335,0 1.502334,0 1.502335,0 1.502335,0 1.502334,0 1.502335,0 1.502334,0 1.502335,0 1.502335,0 1.502334,0 1.502335,0 1.502334,0 1.502336,0 1.50233,0 1.50234,0 1.50233,0 1.50234,0 1.50233,0 1.50234,0 1.50233,0 1.50234,0 1.50233,0 1.50233,0 1.50234,0 1.50233,0 1.50234,0 1.50233,0 1.50234,0 1.50233,0 1.50234,0 1.50233,0 1.50234,0 1.50233,0 1.50233,0 1.50234,0 1.50233,0 1.50234,0 1.50233,0 1.50234,0 1.50233,0 1.50234,0 1.50233,0 1.50234,0 1.50233,0 1.50234,0 1.50233,0 1.50233,0 1.50234,0 1.50233,0 1.50234,0 1.50233,0 1.50234,0 1.50233,0 1.50234,0 1.50233,0 1.50234,0 1.50233,0 1.50234,0 1.50233,0 1.50233,0 1.50234,0 1.50233,0 1.50234,0 1.50233,0 1.50234,0 1.50233,0 1.50234,0 1.50233,0 1.50234,0 1.50233,0 1.50233,0 1.50234,0 1.50233,0 1.50234,0 1.50233,0 1.50234,0 1.50233,0 1.50234,0 1.50233,0 1.50234,0 1.50233,0 1.50234,0 1.50233,0 1.50234,0 1.50233,0 1.50233,0 1.50234,0 1.50233,0 1.50234,0 1.50233,0 1.50234,0 1.50233,0 1.50234,0 1.50233,0 0,0.0062 0,0 -1.50233,0.01847 -1.50234,0.06229 -1.50233,0.130114 -1.50234,0.163781 -1.50233,0.08851 -1.50234,-0.06232 -1.50233,-0.157562 -1.50234,-0.140723 -1.50233,-0.07478 -1.50233,-0.0263 -1.50234,-0.0064 -1.50233,-0.0011 -1.50234,-1.35e-4 -1.50233,-1.2e-5 -1.50234,-1e-6 -1.50233,0 -1.50234,0 -1.50233,0 -1.50234,0 -1.50233,0 -1.50234,0 -1.50233,0 -1.50234,0 -1.50233,0 -1.50233,0 -1.50234,0 -1.50233,6e-6 -1.50234,7.9e-5 -1.50233,7.32e-4 -1.50234,0.0048 -1.50233,0.02201 -1.50234,0.06826 -1.50233,0.138502 -1.50234,0.16933 -1.50233,0.09408 -1.50233,-0.02517 -1.50234,-0.04725 -1.50233,0.0251 -1.50234,0.05028 -1.50233,-0.0026 -1.50234,0.0023 -1.50233,0.133742 -1.50234,0.255914 -1.50233,0.204476 -1.50234,0.006 -1.50233,-0.182757 -1.50234,-0.263108 -1.50233,-0.216756 -1.50233,-0.07447 -1.50234,0.05641 -1.50233,0.05599 -1.50234,-0.05989 -1.50233,-0.152315 -1.50234,-0.143452 -1.50233,-0.08061 -1.50234,-0.02942 -1.50233,-0.0031 -1.50234,0.02036 -1.50233,0.06768 -1.50234,0.137823 -1.50233,0.166191 -1.50233,0.0779 -1.50234,-0.07988 -1.50233,-0.166664 -1.50234,-0.137037 -1.50233,-0.06693 -1.50234,-0.02128 -1.50233,-0.0046 -1.50234,-6.73e-4 -1.50233,-2.8e-5 -1.50234,4.44e-4 -1.50233,0.0033 -1.50233,0.01777 -1.50234,0.06725 -1.50233,0.180252 -1.50234,0.340297 -1.50233,0.453696 -1.50234,0.438795 -1.50233,0.3232 -1.50234,0.162047 -1.50233,-0.02626 -1.502336,-0.180527 -1.502334,-0.224241 -1.502335,-0.158111 -1.502334,-0.02163 -1.502335,0.217839 -1.502335,0.691724 -1.502334,1.391761 -1.502335,1.927646 -1.502334,1.909619 -1.502335,1.55006 -1.502335,1.389856 -1.502334,1.604834 -1.502335,2.087099 -1.502334,3.025626 -1.502335,4.902885 -1.502335,7.383512 -1.502334,8.578656 -1.502335,7.041608 -1.502334,4.431865 -1.502335,3.946516 -1.502335,5.99631 -1.502334,7.826511 -1.502335,7.57045 -1.502334,6.49924 -1.502335,6.8968 -1.502335,9.35379 -1.502334,12.65727 -1.502335,15.11555 -1.502334,15.33727 -1.502335,12.55537 -1.502334,6.89004 -1.502335,-0.89186 -1.502335,-9.90841 -1.502334,-19.16919 -1.502335,-26.85759 -1.502334,-30.2355 L 44.704109,84.4296 43.201774,63.910575 41.69944,51.295555 40.197105,44.687186 38.694771,41.595501 37.192436,40.173379 35.690101,39.47135 34.187767,39.132118 32.685432,38.998254 31.183098,38.959984 Z" /></g></g><g
       id="g260"><g
         clip-path="url(#clipPath264)"
         id="g262"><path
           id="path268"
           style="fill:none;stroke:#4878cf;stroke-width:1.75;stroke-linecap:round;stroke-linejoin:round;stroke-miterlimit:10;stroke-dasharray:none;stroke-opacity:1"
           d="m 27.951024,38.977743 1.211333,0.105939 0.605667,0.152171 0.605666,0.290049 0.605667,0.519925 0.605666,0.882313 0.605667,1.424607 0.605666,2.19679 0.605667,3.24288 0.605666,4.588138 0.605667,6.225072 0.605666,8.10417 0.605667,10.134717 1.211333,26.346206 1.211333,33.00736 1.817,52.70905 1.211333,27.68089 0.605666,9.39085 0.605667,6.11864 0.605666,3.08822 0.605667,0.53889 0.605666,-1.48408 0.605667,-3.09925 0.605666,-4.49333 0.605667,-5.81618 1.211333,-15.44323 1.816999,-29.32157 1.211333,-18.59812 1.211333,-14.3122 0.605667,-5.31994 1.211333,-7.93063 4.239666,-22.55981 1.211333,-6.03427 0.605666,-3.94357 1.211333,-10.247043 1.817,-16.66085 1.211333,-8.346204 0.605666,-2.977953 0.605667,-2.143002 0.605667,-1.325043 0.605666,-0.604758 0.605667,-0.09088 1.211333,0.143224 0.605666,-0.351855 0.605667,-0.854165 0.605666,-1.335702 2.422666,-6.640531 0.605667,-1.160454 0.605666,-0.855665 0.605667,-0.60548 1.211333,-0.738419 1.211333,-0.414031 5.450999,-1.19716 1.211333,0.220918 1.211333,0.305418 0.605666,0.03937 0.605667,-0.08474 1.211333,-0.49311 1.816999,-0.855186 1.211334,-0.300274 1.816999,-0.219349 1.211333,-0.008 1.211333,0.210664 1.817,0.653924 1.211333,0.384785 0.605666,0.07363 0.605667,-0.0412 1.211333,-0.412052 2.422666,-1.116524 1.21133,-0.255675 1.817,-0.09545 0,0" /></g></g><g
       id="g270"><g
         clip-path="url(#clipPath274)"
         id="g272"><path
           id="path278"
           style="fill:none;stroke:#6acc65;stroke-width:1.75;stroke-linecap:round;stroke-linejoin:round;stroke-miterlimit:10;stroke-dasharray:none;stroke-opacity:1"
           d="m 31.183098,38.959984 3.004669,0.172134 1.502334,0.339232 1.502335,0.702029 1.502335,1.422122 1.502334,3.091685 1.502335,6.608369 1.502334,12.61502 1.502335,20.519025 1.502335,27.61392 1.502334,30.2355 1.502335,26.8576 1.502334,19.16919 1.502335,9.90841 1.502335,0.89186 1.502334,-6.89004 1.502335,-12.55537 3.004669,-30.45283 1.502334,-12.65726 1.502335,-9.3538 4.507004,-20.96648 1.502334,-7.826516 1.502335,-5.99631 1.502335,-3.946516 1.502334,-4.431865 1.502335,-7.041608 1.502334,-8.578656 1.502335,-7.383512 1.502335,-4.902885 1.502334,-3.025626 1.502335,-2.087099 1.502334,-1.604834 1.502335,-1.389856 1.502335,-1.55006 3.004669,-3.837265 1.502334,-1.391761 1.502335,-0.691724 1.502335,-0.217839 1.502334,0.02163 6.009335,0.589136 1.50234,-0.162047 1.50233,-0.3232 4.50701,-1.232788 1.50233,-0.180252 3.00467,-0.08501 9.01401,0.02277 3.00467,0.203964 3.00467,0.246545 3.00466,-0.244088 3.00467,-0.2055 4.50701,0.01212 3.00467,0.22406 3.00467,0.212203 3.00467,-0.112398 1.50233,0.07447 4.507,0.662621 1.50234,-0.006 4.507,-0.594132 10.51634,-0.09671 3.00467,-0.307832 4.50701,-0.09509 30.04669,0.03312 3.00467,0.215502 3.00467,0.219885 3.00467,-0.252292 3.00467,-0.192408 1.50233,-0.01847 0,0" /></g></g><g
       id="g280"><text
         id="text282"
         style="font-variant:normal;font-weight:normal;font-size:11px;font-family:'Liberation Sans';-inkscape-font-specification:LiberationSans;writing-mode:lr-tb;fill:#262626;fill-opacity:1;fill-rule:nonzero;stroke:none"
         transform="matrix(1,0,0,-1,100.37428,265.45)"><tspan
           id="tspan284"
           y="0"
           x="0 7.3369999 13.453 19.569 22.011 24.452999">Public</tspan></text>
<path
         id="path286"
         style="fill:#eaeaf2;fill-opacity:1;fill-rule:nonzero;stroke:none"
         d="m 251.39049,38.95 210.7548,0 0,221.5 -210.7548,0 0,-221.5 z" /></g><g
       id="g288"><g
         clip-path="url(#clipPath292)"
         id="g290"><path
           id="path296"
           style="fill:none;stroke:#ffffff;stroke-width:1;stroke-linecap:round;stroke-linejoin:round;stroke-miterlimit:10;stroke-dasharray:none;stroke-opacity:1"
           d="m 251.39049,38.95 0,221.5" /></g></g><g
       id="g298"><path
         id="path300"
         style="fill:#262626;fill-opacity:1;fill-rule:nonzero;stroke:#262626;stroke-width:1;stroke-linecap:butt;stroke-linejoin:round;stroke-miterlimit:10;stroke-dasharray:none;stroke-opacity:1"
         d="m 251.39049,38.95 0,0" /><text
         id="text302"
         style="font-variant:normal;font-weight:normal;font-size:10px;font-family:'Liberation Sans';-inkscape-font-specification:LiberationSans;writing-mode:lr-tb;fill:#262626;fill-opacity:1;fill-rule:nonzero;stroke:none"
         transform="matrix(1,0,0,-1,248.60924,24.7)"><tspan
           id="tspan304"
           y="0"
           x="0">0</tspan></text>
</g><g
       id="g306"><g
         clip-path="url(#clipPath310)"
         id="g308"><path
           id="path314"
           style="fill:none;stroke:#ffffff;stroke-width:1;stroke-linecap:round;stroke-linejoin:round;stroke-miterlimit:10;stroke-dasharray:none;stroke-opacity:1"
           d="m 293.54145,38.95 0,221.5" /></g></g><g
       id="g316"><path
         id="path318"
         style="fill:#262626;fill-opacity:1;fill-rule:nonzero;stroke:#262626;stroke-width:1;stroke-linecap:butt;stroke-linejoin:round;stroke-miterlimit:10;stroke-dasharray:none;stroke-opacity:1"
         d="m 293.54145,38.95 0,0" /><text
         id="text320"
         style="font-variant:normal;font-weight:normal;font-size:10px;font-family:'Liberation Sans';-inkscape-font-specification:LiberationSans;writing-mode:lr-tb;fill:#262626;fill-opacity:1;fill-rule:nonzero;stroke:none"
         transform="matrix(1,0,0,-1,285.47895,24.7)"><tspan
           id="tspan322"
           y="0"
           x="0 5.5599999 11.12">40k</tspan></text>
</g><g
       id="g324"><g
         clip-path="url(#clipPath328)"
         id="g326"><path
           id="path332"
           style="fill:none;stroke:#ffffff;stroke-width:1;stroke-linecap:round;stroke-linejoin:round;stroke-miterlimit:10;stroke-dasharray:none;stroke-opacity:1"
           d="m 335.69241,38.95 0,221.5" /></g></g><g
       id="g334"><path
         id="path336"
         style="fill:#262626;fill-opacity:1;fill-rule:nonzero;stroke:#262626;stroke-width:1;stroke-linecap:butt;stroke-linejoin:round;stroke-miterlimit:10;stroke-dasharray:none;stroke-opacity:1"
         d="m 335.69241,38.95 0,0" /><text
         id="text338"
         style="font-variant:normal;font-weight:normal;font-size:10px;font-family:'Liberation Sans';-inkscape-font-specification:LiberationSans;writing-mode:lr-tb;fill:#262626;fill-opacity:1;fill-rule:nonzero;stroke:none"
         transform="matrix(1,0,0,-1,327.62991,24.7)"><tspan
           id="tspan340"
           y="0"
           x="0 5.5599999 11.12">80k</tspan></text>
</g><g
       id="g342"><g
         clip-path="url(#clipPath346)"
         id="g344"><path
           id="path350"
           style="fill:none;stroke:#ffffff;stroke-width:1;stroke-linecap:round;stroke-linejoin:round;stroke-miterlimit:10;stroke-dasharray:none;stroke-opacity:1"
           d="m 377.84337,38.95 0,221.5" /></g></g><g
       id="g352"><path
         id="path354"
         style="fill:#262626;fill-opacity:1;fill-rule:nonzero;stroke:#262626;stroke-width:1;stroke-linecap:butt;stroke-linejoin:round;stroke-miterlimit:10;stroke-dasharray:none;stroke-opacity:1"
         d="m 377.84337,38.95 0,0" /><text
         id="text356"
         style="font-variant:normal;font-weight:normal;font-size:10px;font-family:'Liberation Sans';-inkscape-font-specification:LiberationSans;writing-mode:lr-tb;fill:#262626;fill-opacity:1;fill-rule:nonzero;stroke:none"
         transform="matrix(1,0,0,-1,366.99962,24.7)"><tspan
           id="tspan358"
           y="0"
           x="0 5.5599999 11.12 16.68">120k</tspan></text>
</g><g
       id="g360"><g
         clip-path="url(#clipPath364)"
         id="g362"><path
           id="path368"
           style="fill:none;stroke:#ffffff;stroke-width:1;stroke-linecap:round;stroke-linejoin:round;stroke-miterlimit:10;stroke-dasharray:none;stroke-opacity:1"
           d="m 419.99433,38.95 0,221.5" /></g></g><g
       id="g370"><path
         id="path372"
         style="fill:#262626;fill-opacity:1;fill-rule:nonzero;stroke:#262626;stroke-width:1;stroke-linecap:butt;stroke-linejoin:round;stroke-miterlimit:10;stroke-dasharray:none;stroke-opacity:1"
         d="m 419.99433,38.95 0,0" /><text
         id="text374"
         style="font-variant:normal;font-weight:normal;font-size:10px;font-family:'Liberation Sans';-inkscape-font-specification:LiberationSans;writing-mode:lr-tb;fill:#262626;fill-opacity:1;fill-rule:nonzero;stroke:none"
         transform="matrix(1,0,0,-1,409.15058,24.7)"><tspan
           id="tspan376"
           y="0"
           x="0 5.5599999 11.12 16.68">160k</tspan></text>
</g><g
       id="g378"><g
         clip-path="url(#clipPath382)"
         id="g380"><path
           id="path386"
           style="fill:none;stroke:#ffffff;stroke-width:1;stroke-linecap:round;stroke-linejoin:round;stroke-miterlimit:10;stroke-dasharray:none;stroke-opacity:1"
           d="m 462.14529,38.95 0,221.5" /></g></g><g
       id="g388"><path
         id="path390"
         style="fill:#262626;fill-opacity:1;fill-rule:nonzero;stroke:#262626;stroke-width:1;stroke-linecap:butt;stroke-linejoin:round;stroke-miterlimit:10;stroke-dasharray:none;stroke-opacity:1"
         d="m 462.14529,38.95 0,0" /><text
         id="text392"
         style="font-variant:normal;font-weight:normal;font-size:10px;font-family:'Liberation Sans';-inkscape-font-specification:LiberationSans;writing-mode:lr-tb;fill:#262626;fill-opacity:1;fill-rule:nonzero;stroke:none"
         transform="matrix(1,0,0,-1,451.30154,24.7)"><tspan
           id="tspan394"
           y="0"
           x="0 5.5599999 11.12 16.68">200k</tspan></text>
<text
         id="text396"
         style="font-variant:normal;font-weight:normal;font-size:11px;font-family:'Liberation Sans';-inkscape-font-specification:LiberationSans;writing-mode:lr-tb;fill:#262626;fill-opacity:1;fill-rule:nonzero;stroke:none"
         transform="matrix(1,0,0,-1,275.35382,9.48125)"><tspan
           id="tspan398"
           y="0"
           x="0 9.1630001 15.279 21.395 27.511 30.569 37.905998 44.021999 47.685001 53.800999 56.243 62.359001 68.474998 73.974998 77.032997 80.695999 86.811996 90.474998 93.532997 99.649002 102.707 105.765 111.881 115.544 118.602 124.718 130.834 133.892 141.229 147.345 153.461 157.12399">Mean Earnings ($) after 10 Years</tspan></text>
</g><g
       id="g400"><g
         clip-path="url(#clipPath404)"
         id="g402"><path
           id="path408"
           style="fill:none;stroke:#ffffff;stroke-width:1;stroke-linecap:round;stroke-linejoin:round;stroke-miterlimit:10;stroke-dasharray:none;stroke-opacity:1"
           d="m 251.39049,38.95 210.7548,0" /></g></g><g
       id="g410"><path
         id="path412"
         style="fill:#262626;fill-opacity:1;fill-rule:nonzero;stroke:#262626;stroke-width:1;stroke-linecap:butt;stroke-linejoin:round;stroke-miterlimit:10;stroke-dasharray:none;stroke-opacity:1"
         d="m 251.39049,38.95 0,0" /></g><g
       id="g414"><g
         clip-path="url(#clipPath418)"
         id="g416"><path
           id="path422"
           style="fill:none;stroke:#ffffff;stroke-width:1;stroke-linecap:round;stroke-linejoin:round;stroke-miterlimit:10;stroke-dasharray:none;stroke-opacity:1"
           d="m 251.39049,70.592857 210.7548,0" /></g></g><g
       id="g424"><path
         id="path426"
         style="fill:#262626;fill-opacity:1;fill-rule:nonzero;stroke:#262626;stroke-width:1;stroke-linecap:butt;stroke-linejoin:round;stroke-miterlimit:10;stroke-dasharray:none;stroke-opacity:1"
         d="m 251.39049,70.592857 0,0" /></g><g
       id="g428"><g
         clip-path="url(#clipPath432)"
         id="g430"><path
           id="path436"
           style="fill:none;stroke:#ffffff;stroke-width:1;stroke-linecap:round;stroke-linejoin:round;stroke-miterlimit:10;stroke-dasharray:none;stroke-opacity:1"
           d="m 251.39049,102.23571 210.7548,0" /></g></g><g
       id="g438"><path
         id="path440"
         style="fill:#262626;fill-opacity:1;fill-rule:nonzero;stroke:#262626;stroke-width:1;stroke-linecap:butt;stroke-linejoin:round;stroke-miterlimit:10;stroke-dasharray:none;stroke-opacity:1"
         d="m 251.39049,102.23571 0,0" /></g><g
       id="g442"><g
         clip-path="url(#clipPath446)"
         id="g444"><path
           id="path450"
           style="fill:none;stroke:#ffffff;stroke-width:1;stroke-linecap:round;stroke-linejoin:round;stroke-miterlimit:10;stroke-dasharray:none;stroke-opacity:1"
           d="m 251.39049,133.87857 210.7548,0" /></g></g><g
       id="g452"><path
         id="path454"
         style="fill:#262626;fill-opacity:1;fill-rule:nonzero;stroke:#262626;stroke-width:1;stroke-linecap:butt;stroke-linejoin:round;stroke-miterlimit:10;stroke-dasharray:none;stroke-opacity:1"
         d="m 251.39049,133.87857 0,0" /></g><g
       id="g456"><g
         clip-path="url(#clipPath460)"
         id="g458"><path
           id="path464"
           style="fill:none;stroke:#ffffff;stroke-width:1;stroke-linecap:round;stroke-linejoin:round;stroke-miterlimit:10;stroke-dasharray:none;stroke-opacity:1"
           d="m 251.39049,165.52143 210.7548,0" /></g></g><g
       id="g466"><path
         id="path468"
         style="fill:#262626;fill-opacity:1;fill-rule:nonzero;stroke:#262626;stroke-width:1;stroke-linecap:butt;stroke-linejoin:round;stroke-miterlimit:10;stroke-dasharray:none;stroke-opacity:1"
         d="m 251.39049,165.52143 0,0" /></g><g
       id="g470"><g
         clip-path="url(#clipPath474)"
         id="g472"><path
           id="path478"
           style="fill:none;stroke:#ffffff;stroke-width:1;stroke-linecap:round;stroke-linejoin:round;stroke-miterlimit:10;stroke-dasharray:none;stroke-opacity:1"
           d="m 251.39049,197.16429 210.7548,0" /></g></g><g
       id="g480"><path
         id="path482"
         style="fill:#262626;fill-opacity:1;fill-rule:nonzero;stroke:#262626;stroke-width:1;stroke-linecap:butt;stroke-linejoin:round;stroke-miterlimit:10;stroke-dasharray:none;stroke-opacity:1"
         d="m 251.39049,197.16429 0,0" /></g><g
       id="g484"><g
         clip-path="url(#clipPath488)"
         id="g486"><path
           id="path492"
           style="fill:none;stroke:#ffffff;stroke-width:1;stroke-linecap:round;stroke-linejoin:round;stroke-miterlimit:10;stroke-dasharray:none;stroke-opacity:1"
           d="m 251.39049,228.80714 210.7548,0" /></g></g><g
       id="g494"><path
         id="path496"
         style="fill:#262626;fill-opacity:1;fill-rule:nonzero;stroke:#262626;stroke-width:1;stroke-linecap:butt;stroke-linejoin:round;stroke-miterlimit:10;stroke-dasharray:none;stroke-opacity:1"
         d="m 251.39049,228.80714 0,0" /></g><g
       id="g498"><g
         clip-path="url(#clipPath502)"
         id="g500"><path
           id="path506"
           style="fill:none;stroke:#ffffff;stroke-width:1;stroke-linecap:round;stroke-linejoin:round;stroke-miterlimit:10;stroke-dasharray:none;stroke-opacity:1"
           d="m 251.39049,260.45 210.7548,0" /></g></g><g
       id="g508"><path
         id="path510"
         style="fill:#262626;fill-opacity:1;fill-rule:nonzero;stroke:#262626;stroke-width:1;stroke-linecap:butt;stroke-linejoin:round;stroke-miterlimit:10;stroke-dasharray:none;stroke-opacity:1"
         d="m 251.39049,260.45 0,0" /></g><g
       id="g512"><g
         clip-path="url(#clipPath516)"
         id="g514"><path
           id="path520"
           style="fill:#4878cf;fill-opacity:0.25;fill-rule:nonzero;stroke:#4878cf;stroke-width:0.30000001;stroke-linecap:butt;stroke-linejoin:round;stroke-miterlimit:10;stroke-dasharray:none;stroke-opacity:0.25"
           d="m 265.4452,39.106866 0,-0.156863 0.396,0 0.39599,0 0.39599,0 0.396,0 0.39599,0 0.396,0 0.39599,0 0.396,0 0.39599,0 0.396,0 0.39599,0 0.396,0 0.39599,0 0.396,0 0.39599,0 0.396,0 0.39599,0 0.396,0 0.39599,0 0.396,0 0.39599,0 0.396,0 0.39599,0 0.396,0 0.39599,0 0.396,0 0.39599,0 0.396,0 0.39599,0 0.396,0 0.39599,0 0.396,0 0.39599,0 0.396,0 0.39599,0 0.396,0 0.39599,0 0.396,0 0.39599,0 0.396,0 0.39599,0 0.396,0 0.39599,0 0.396,0 0.39599,0 0.396,0 0.39599,0 0.396,0 0.39599,0 0.396,0 0.39599,0 0.396,0 0.39599,0 0.396,0 0.39599,0 0.396,0 0.39599,0 0.396,0 0.39599,0 0.396,0 0.39599,0 0.396,0 0.39599,0 0.396,0 0.39599,0 0.396,0 0.39599,0 0.396,0 0.39599,0 0.396,0 0.39599,0 0.396,0 0.39599,0 0.396,0 0.39599,0 0.396,0 0.39599,0 0.396,0 0.39599,0 0.396,0 0.39599,0 0.396,0 0.39599,0 0.39599,0 0.396,0 0.39599,0 0.396,0 0.39599,0 0.396,0 0.39599,0 0.396,0 0.39599,0 0.396,0 0.39599,0 0.396,0 0.39599,0 0.396,0 0.39599,0 0.396,0 0.39599,0 0.396,0 0.39599,0 0.396,0 0.39599,0 0.396,0 0.39599,0 0.396,0 0.39599,0 0.396,0 0.39599,0 0.396,0 0.39599,0 0.396,0 0.39599,0 0.396,0 0.39599,0 0.396,0 0.39599,0 0.396,0 0.39599,0 0.396,0 0.39599,0 0.396,0 0.39599,0 0.396,0 0.39599,0 0.396,0 0,0.214092 0,0 -0.396,0.109947 -0.39599,0.181338 -0.396,0.28053 -0.39599,0.41777 -0.396,0.604208 -0.39599,0.851246 -0.396,1.169439 -0.39599,1.56694 -0.396,2.04755 -0.39599,2.608583 -0.396,3.238821 -0.39599,3.916933 -0.396,4.610754 -0.39599,5.277806 -0.396,5.867332 -0.39599,6.323872 -0.396,6.592227 -0.39599,6.623352 -0.396,6.380483 -0.39599,5.844694 -0.396,5.01901 -0.39599,3.93034 -0.396,2.62892 -0.39599,1.18477 -0.396,-0.31796 -0.39599,-1.78871 -0.396,-3.13882 -0.39599,-4.28976 -0.396,-5.18007 -0.39599,-5.770112 -0.396,-6.044269 -0.39599,-6.010521 -0.396,-5.697487 -0.39599,-5.149734 -0.396,-4.422088 -0.39599,-3.573749 -0.396,-2.663016 -0.39599,-1.74311 -0.396,-0.859386 -0.39599,-0.04792 -0.396,0.664661 -0.39599,1.260584 -0.396,1.729737 -0.39599,2.068455 -0.39599,2.278391 -0.396,2.36576 -0.39599,2.340963 -0.396,2.218586 -0.39599,2.017687 -0.396,1.762153 -0.39599,1.480942 -0.396,1.207962 -0.39599,0.981328 -0.396,0.841828 -0.39599,0.830458 -0.396,0.985034 -0.39599,1.336065 -0.396,1.902166 -0.39599,2.685573 -0.396,3.668365 -0.39599,4.81016 -0.396,6.047974 -0.39599,7.29886 -0.396,8.46553 -0.39599,9.44488 -0.396,10.13875 -0.39599,10.46555 -0.396,10.37139 -0.39599,9.83868 -0.396,8.89078 -0.39599,7.59137 -0.396,6.03845 -0.39599,4.35345 -0.396,2.66705 -0.39599,1.10391 -0.396,-0.23132 -0.39599,-1.26447 -0.396,-1.9577 -0.39599,-2.30976 -0.396,-2.35163 -0.39599,-2.13867 -0.396,-1.74102 -0.39599,-1.23405 -0.396,-0.69052 -0.39599,-0.17477 -0.396,0.26023 -0.39599,0.57393 -0.396,0.73753 -0.39599,0.73277 -0.396,0.55048 -0.39599,0.1896 -0.396,-0.3435 -0.39599,-1.03519 -0.396,-1.86479 -0.39599,-2.80469 -0.396,-3.82097 -0.39599,-4.8743 -0.396,-5.92145 -0.39599,-6.91724 -0.396,-7.81691 -0.39599,-8.57876 -0.396,-9.16693 -0.39599,-9.55405 -0.396,-9.72342 -0.39599,-9.67055 -0.396,-9.403615 -0.39599,-8.942908 -0.396,-8.319046 -0.39599,-7.570277 -0.396,-6.739094 -0.39599,-5.868622 -0.396,-4.999213 -0.39599,-4.165633 -0.396,-3.395142 -0.39599,-2.706563 -0.396,-2.11033 -0.39599,-1.609322 -0.396,-1.200268 -0.39599,-0.875406 -0.396,-0.624172 -0.39599,-0.43469 -0.396,-0.294959 -0.39599,-0.19365 -0.396,-0.120534 -0.39599,-0.06658 -0.39599,-0.02381 -0.396,0.0151 z" /></g></g><g
       id="g522"><g
         clip-path="url(#clipPath526)"
         id="g524"><path
           id="path530"
           style="fill:#6acc65;fill-opacity:0.25;fill-rule:nonzero;stroke:#6acc65;stroke-width:0.30000001;stroke-linecap:butt;stroke-linejoin:round;stroke-miterlimit:10;stroke-dasharray:none;stroke-opacity:0.25"
           d="m 271.59597,39.253742 0,-0.303739 0.47919,0 0.47919,0 0.47918,0 0.47919,0 0.47919,0 0.47918,0 0.47919,0 0.47919,0 0.47918,0 0.47919,0 0.47919,0 0.47918,0 0.47919,0 0.47919,0 0.47918,0 0.47919,0 0.47919,0 0.47918,0 0.47919,0 0.47919,0 0.47918,0 0.47919,0 0.47919,0 0.47918,0 0.47919,0 0.47919,0 0.47918,0 0.47919,0 0.47919,0 0.47918,0 0.47919,0 0.47919,0 0.47918,0 0.47919,0 0.47919,0 0.47918,0 0.47919,0 0.47919,0 0.47918,0 0.47919,0 0.47919,0 0.47918,0 0.47919,0 0.47919,0 0.47918,0 0.47919,0 0.47919,0 0.47918,0 0.47919,0 0.47919,0 0.47918,0 0.47919,0 0.47919,0 0.47918,0 0.47919,0 0.47919,0 0.47918,0 0.47919,0 0.47919,0 0.47918,0 0.47919,0 0.47919,0 0.47918,0 0.47919,0 0.47919,0 0.47918,0 0.47919,0 0.47919,0 0.47918,0 0.47919,0 0.47919,0 0.47918,0 0.47919,0 0.47919,0 0.47918,0 0.47919,0 0.47919,0 0.47918,0 0.47919,0 0.47919,0 0.47918,0 0.47919,0 0.47919,0 0.47918,0 0.47919,0 0.47919,0 0.47918,0 0.47919,0 0.47919,0 0.47918,0 0.47919,0 0.47919,0 0.47918,0 0.47919,0 0.47919,0 0.47918,0 0.47919,0 0.47919,0 0.47918,0 0.47919,0 0.47919,0 0.47918,0 0.47919,0 0.47919,0 0.47918,0 0.47919,0 0.47919,0 0.47918,0 0.47919,0 0.47919,0 0.47918,0 0.47919,0 0.47919,0 0.47918,0 0.47919,0 0.47919,0 0.47918,0 0.47919,0 0.47919,0 0.47918,0 0.47919,0 0.47919,0 0.47918,0 0.47919,0 0.47919,0 0.47918,0 0.47919,0 0,0.573948 0,0 -0.47919,0.493766 -0.47918,0.83906 -0.47919,1.342634 -0.47919,2.027334 -0.47918,2.886198 -0.47919,3.865782 -0.47919,4.855739 -0.47918,5.692583 -0.47919,6.183318 -0.47919,6.148558 -0.47918,5.476242 -0.47919,4.169822 -0.47919,2.372624 -0.47918,0.355517 -0.47919,-1.533392 -0.47919,-2.945019 -0.47918,-3.610478 -0.47919,-3.404787 -0.47919,-2.377379 -0.47918,-0.743876 -0.47919,1.156651 -0.47919,2.928729 -0.47918,4.198806 -0.47919,4.690616 -0.47919,4.282635 -0.47918,3.033747 -0.47919,1.168223 -0.47919,-0.978895 -0.47918,-3.04263 -0.47919,-4.712131 -0.47919,-5.793332 -0.47918,-6.233473 -0.47919,-6.104935 -0.47919,-5.559835 -0.47918,-4.774778 -0.47919,-3.904323 -0.47919,-3.05424 -0.47918,-2.275921 -0.47919,-1.57611 -0.47919,-0.933431 -0.47918,-0.31483 -0.47919,0.311292 -0.47919,0.965342 -0.47918,1.648952 -0.47919,2.33914 -0.47919,2.98569 -0.47918,3.514588 -0.47919,3.839962 -0.47919,3.884336 -0.47918,3.602997 -0.47919,3.004959 -0.47919,2.162328 -0.47918,1.203118 -0.47919,0.288435 -0.47919,-0.418842 -0.47918,-0.783744 -0.47919,-0.718443 -0.47919,-0.187429 -0.47918,0.7989 -0.47919,2.195829 -0.47919,3.934285 -0.47918,5.924825 -0.47919,8.054986 -0.47919,10.182374 -0.47918,12.1281 -0.47919,13.67683 -0.47919,14.59016 -0.47918,14.63897 -0.47919,13.65385 -0.47919,11.58486 -0.47918,8.55137 -0.47919,4.85919 -0.47919,0.96879 -0.47918,-2.58653 -0.47919,-5.31294 -0.47919,-6.86578 -0.47918,-7.12232 -0.47919,-6.19698 -0.47919,-4.39855 -0.47918,-2.14856 -0.47919,0.1119 -0.47919,2.00267 -0.47918,3.25817 -0.47919,3.7521 -0.47919,3.49714 -0.47918,2.62523 -0.47919,1.35222 -0.47919,-0.0697 -0.47918,-1.40601 -0.47919,-2.49047 -0.47919,-3.25829 -0.47918,-3.75183 -0.47919,-4.09452 -0.47919,-4.44075 -0.47918,-4.91784 -0.47919,-5.58015 -0.47919,-6.38974 -0.47918,-7.22904 -0.47919,-7.93856 -0.47919,-8.36591 -0.47918,-8.40995 -0.47919,-8.04771 -0.47919,-7.338944 -0.47918,-6.40914 -0.47919,-5.417739 -0.47919,-4.520364 -0.47918,-3.834434 -0.47919,-3.416149 -0.47919,-3.253859 -0.47918,-3.278607 -0.47919,-3.388079 -0.47919,-3.476448 -0.47918,-3.461243 -0.47919,-3.300022 -0.47919,-2.993562 -0.47918,-2.577016 -0.47919,-2.104031 -0.47919,-1.629962 -0.47918,-1.199149 -0.47919,-0.838591 -0.47919,-0.55768 -0.47918,-0.351905 -0.47919,-0.207985 -0.47919,-0.108257 -0.47918,-0.0332 -0.47919,0.03822 -0.47919,0.129827 z" /></g></g><g
       id="g532"><g
         clip-path="url(#clipPath536)"
         id="g534"><path
           id="path540"
           style="fill:none;stroke:#4878cf;stroke-width:1.75;stroke-linecap:round;stroke-linejoin:round;stroke-miterlimit:10;stroke-dasharray:none;stroke-opacity:1"
           d="m 265.4452,39.106866 0.396,-0.0151 0.39599,0.02381 0.79199,0.187118 0.79199,0.488609 0.39599,0.43469 0.396,0.624172 0.39599,0.875406 0.396,1.200268 0.39599,1.609322 0.79199,4.816893 0.79199,7.560775 0.79199,10.867835 0.79199,14.309371 1.18799,26.665575 1.97997,46.69371 0.79199,14.73415 0.79199,10.79575 0.79199,6.62566 0.396,1.86479 0.39599,1.03519 0.396,0.3435 0.39599,-0.1896 0.79199,-1.28325 0.79199,-1.31146 0.396,-0.26023 0.39599,0.17477 0.396,0.69052 0.39599,1.23405 0.79199,3.87969 1.18799,6.61909 0.39599,1.26447 0.396,0.23132 0.39599,-1.10391 0.396,-2.66705 0.39599,-4.35345 0.79199,-13.62982 1.18799,-29.10085 1.18798,-30.04918 0.79199,-15.76439 0.79199,-10.85814 0.79199,-6.353938 0.396,-1.902166 0.79199,-2.321099 1.18798,-2.653614 0.79199,-2.688904 0.79199,-3.77984 2.37597,-13.001892 0.39599,-1.260584 0.396,-0.664661 0.39599,0.04792 0.396,0.859386 0.39599,1.74311 0.396,2.663016 0.79199,7.995837 1.18798,16.857742 1.18799,16.994447 0.79199,7.42858 0.39599,1.78871 0.396,0.31796 0.39599,-1.18477 0.396,-2.62892 0.79199,-8.94935 1.18798,-18.848525 1.18799,-18.783431 0.79199,-9.88856 0.79199,-7.155754 0.79199,-4.656133 0.79199,-2.736379 0.79199,-1.455454 0.79199,-0.6983 0.79199,-0.291285 0,0" /></g></g><g
       id="g542"><g
         clip-path="url(#clipPath546)"
         id="g544"><path
           id="path550"
           style="fill:none;stroke:#6acc65;stroke-width:1.75;stroke-linecap:round;stroke-linejoin:round;stroke-miterlimit:10;stroke-dasharray:none;stroke-opacity:1"
           d="m 271.59597,39.253742 0.47919,-0.129827 0.47919,-0.03822 0.95837,0.141455 0.47919,0.207985 0.47918,0.351905 0.47919,0.55768 0.47919,0.838591 0.47918,1.199149 0.47919,1.629962 0.95837,4.681047 0.95838,6.293584 3.3543,24.108819 0.95838,9.938103 0.95837,13.748085 2.39593,39.99117 0.95838,11.96989 0.95837,9.35859 0.95837,7.84635 0.47919,3.25829 0.47919,2.49047 0.47918,1.40601 0.47919,0.0697 0.47919,-1.35222 0.47918,-2.62523 1.43756,-10.50741 0.47919,-2.00267 0.47919,-0.1119 0.47918,2.14856 0.47919,4.39855 0.95837,13.3193 0.95838,12.17872 0.47918,2.58653 0.47919,-0.96879 0.47919,-4.85919 0.47918,-8.55137 0.95838,-25.23871 1.43756,-42.90596 0.95837,-22.310475 0.47919,-8.054986 0.47918,-5.924825 0.47919,-3.934285 0.47919,-2.195829 0.47918,-0.7989 0.47919,0.187429 0.95837,1.502187 0.47919,0.418842 0.47919,-0.288435 0.47918,-1.203118 0.47919,-2.162328 0.95837,-6.607956 1.43756,-11.238886 0.95838,-5.32483 0.47918,-1.648952 0.47919,-0.965342 0.47919,-0.311292 0.47918,0.31483 0.47919,0.933431 0.47919,1.57611 0.47918,2.275921 0.47919,3.05424 0.95837,8.679101 1.43756,17.898243 0.95838,10.505463 0.47918,3.04263 0.47919,0.978895 0.47919,-1.168223 0.47918,-3.033747 1.43756,-13.172057 0.47919,-2.928729 0.47919,-1.156651 0.47918,0.743876 0.47919,2.377379 1.43756,9.960284 0.47919,1.533392 0.47918,-0.355517 0.47919,-2.372624 0.47919,-4.169822 0.95837,-11.6248 0.95837,-11.875901 0.95838,-8.721521 0.47918,-2.886198 0.47919,-2.027334 0.47919,-1.342634 0.47918,-0.83906 0.47919,-0.493766 0,0" /></g></g><g
       id="g552"><text
         id="text554"
         style="font-variant:normal;font-weight:normal;font-size:11px;font-family:'Liberation Sans';-inkscape-font-specification:LiberationSans;writing-mode:lr-tb;fill:#262626;fill-opacity:1;fill-rule:nonzero;stroke:none"
         transform="matrix(1,0,0,-1,317.59601,265.45)"><tspan
           id="tspan556"
           y="0"
           x="0 7.3369999 11 13.442 18.941999 25.058001 28.115999 34.231998 37.290001 40.348 46.464001 50.126999 53.790001 59.905998 63.569 69.684998 72.742996 75.184998">Private for­profit</tspan></text>
<path
         id="path558"
         style="fill:#eaeaf2;fill-opacity:1;fill-rule:nonzero;stroke:none"
         d="m 492.79972,38.95 210.7548,0 0,221.5 -210.7548,0 0,-221.5 z" /></g><g
       id="g560"><g
         clip-path="url(#clipPath564)"
         id="g562"><path
           id="path568"
           style="fill:none;stroke:#ffffff;stroke-width:1;stroke-linecap:round;stroke-linejoin:round;stroke-miterlimit:10;stroke-dasharray:none;stroke-opacity:1"
           d="m 492.79972,38.95 0,221.5" /></g></g><g
       id="g570"><path
         id="path572"
         style="fill:#262626;fill-opacity:1;fill-rule:nonzero;stroke:#262626;stroke-width:1;stroke-linecap:butt;stroke-linejoin:round;stroke-miterlimit:10;stroke-dasharray:none;stroke-opacity:1"
         d="m 492.79972,38.95 0,0" /><text
         id="text574"
         style="font-variant:normal;font-weight:normal;font-size:10px;font-family:'Liberation Sans';-inkscape-font-specification:LiberationSans;writing-mode:lr-tb;fill:#262626;fill-opacity:1;fill-rule:nonzero;stroke:none"
         transform="matrix(1,0,0,-1,490.01847,24.7)"><tspan
           id="tspan576"
           y="0"
           x="0">0</tspan></text>
</g><g
       id="g578"><g
         clip-path="url(#clipPath582)"
         id="g580"><path
           id="path586"
           style="fill:none;stroke:#ffffff;stroke-width:1;stroke-linecap:round;stroke-linejoin:round;stroke-miterlimit:10;stroke-dasharray:none;stroke-opacity:1"
           d="m 534.95068,38.95 0,221.5" /></g></g><g
       id="g588"><path
         id="path590"
         style="fill:#262626;fill-opacity:1;fill-rule:nonzero;stroke:#262626;stroke-width:1;stroke-linecap:butt;stroke-linejoin:round;stroke-miterlimit:10;stroke-dasharray:none;stroke-opacity:1"
         d="m 534.95068,38.95 0,0" /><text
         id="text592"
         style="font-variant:normal;font-weight:normal;font-size:10px;font-family:'Liberation Sans';-inkscape-font-specification:LiberationSans;writing-mode:lr-tb;fill:#262626;fill-opacity:1;fill-rule:nonzero;stroke:none"
         transform="matrix(1,0,0,-1,526.88818,24.7)"><tspan
           id="tspan594"
           y="0"
           x="0 5.5599999 11.12">40k</tspan></text>
</g><g
       id="g596"><g
         clip-path="url(#clipPath600)"
         id="g598"><path
           id="path604"
           style="fill:none;stroke:#ffffff;stroke-width:1;stroke-linecap:round;stroke-linejoin:round;stroke-miterlimit:10;stroke-dasharray:none;stroke-opacity:1"
           d="m 577.10164,38.95 0,221.5" /></g></g><g
       id="g606"><path
         id="path608"
         style="fill:#262626;fill-opacity:1;fill-rule:nonzero;stroke:#262626;stroke-width:1;stroke-linecap:butt;stroke-linejoin:round;stroke-miterlimit:10;stroke-dasharray:none;stroke-opacity:1"
         d="m 577.10164,38.95 0,0" /><text
         id="text610"
         style="font-variant:normal;font-weight:normal;font-size:10px;font-family:'Liberation Sans';-inkscape-font-specification:LiberationSans;writing-mode:lr-tb;fill:#262626;fill-opacity:1;fill-rule:nonzero;stroke:none"
         transform="matrix(1,0,0,-1,569.03914,24.7)"><tspan
           id="tspan612"
           y="0"
           x="0 5.5599999 11.12">80k</tspan></text>
</g><g
       id="g614"><g
         clip-path="url(#clipPath618)"
         id="g616"><path
           id="path622"
           style="fill:none;stroke:#ffffff;stroke-width:1;stroke-linecap:round;stroke-linejoin:round;stroke-miterlimit:10;stroke-dasharray:none;stroke-opacity:1"
           d="m 619.2526,38.95 0,221.5" /></g></g><g
       id="g624"><path
         id="path626"
         style="fill:#262626;fill-opacity:1;fill-rule:nonzero;stroke:#262626;stroke-width:1;stroke-linecap:butt;stroke-linejoin:round;stroke-miterlimit:10;stroke-dasharray:none;stroke-opacity:1"
         d="m 619.2526,38.95 0,0" /><text
         id="text628"
         style="font-variant:normal;font-weight:normal;font-size:10px;font-family:'Liberation Sans';-inkscape-font-specification:LiberationSans;writing-mode:lr-tb;fill:#262626;fill-opacity:1;fill-rule:nonzero;stroke:none"
         transform="matrix(1,0,0,-1,608.40885,24.7)"><tspan
           id="tspan630"
           y="0"
           x="0 5.5599999 11.12 16.68">120k</tspan></text>
</g><g
       id="g632"><g
         clip-path="url(#clipPath636)"
         id="g634"><path
           id="path640"
           style="fill:none;stroke:#ffffff;stroke-width:1;stroke-linecap:round;stroke-linejoin:round;stroke-miterlimit:10;stroke-dasharray:none;stroke-opacity:1"
           d="m 661.40356,38.95 0,221.5" /></g></g><g
       id="g642"><path
         id="path644"
         style="fill:#262626;fill-opacity:1;fill-rule:nonzero;stroke:#262626;stroke-width:1;stroke-linecap:butt;stroke-linejoin:round;stroke-miterlimit:10;stroke-dasharray:none;stroke-opacity:1"
         d="m 661.40356,38.95 0,0" /><text
         id="text646"
         style="font-variant:normal;font-weight:normal;font-size:10px;font-family:'Liberation Sans';-inkscape-font-specification:LiberationSans;writing-mode:lr-tb;fill:#262626;fill-opacity:1;fill-rule:nonzero;stroke:none"
         transform="matrix(1,0,0,-1,650.55981,24.7)"><tspan
           id="tspan648"
           y="0"
           x="0 5.5599999 11.12 16.68">160k</tspan></text>
</g><g
       id="g650"><g
         clip-path="url(#clipPath654)"
         id="g652"><path
           id="path658"
           style="fill:none;stroke:#ffffff;stroke-width:1;stroke-linecap:round;stroke-linejoin:round;stroke-miterlimit:10;stroke-dasharray:none;stroke-opacity:1"
           d="m 703.55452,38.95 0,221.5" /></g></g><g
       id="g660"><path
         id="path662"
         style="fill:#262626;fill-opacity:1;fill-rule:nonzero;stroke:#262626;stroke-width:1;stroke-linecap:butt;stroke-linejoin:round;stroke-miterlimit:10;stroke-dasharray:none;stroke-opacity:1"
         d="m 703.55452,38.95 0,0" /><text
         id="text664"
         style="font-variant:normal;font-weight:normal;font-size:10px;font-family:'Liberation Sans';-inkscape-font-specification:LiberationSans;writing-mode:lr-tb;fill:#262626;fill-opacity:1;fill-rule:nonzero;stroke:none"
         transform="matrix(1,0,0,-1,692.71077,24.7)"><tspan
           id="tspan666"
           y="0"
           x="0 5.5599999 11.12 16.68">200k</tspan></text>
<text
         id="text668"
         style="font-variant:normal;font-weight:normal;font-size:11px;font-family:'Liberation Sans';-inkscape-font-specification:LiberationSans;writing-mode:lr-tb;fill:#262626;fill-opacity:1;fill-rule:nonzero;stroke:none"
         transform="matrix(1,0,0,-1,516.76306,9.48125)"><tspan
           id="tspan670"
           y="0"
           x="0 9.1630001 15.279 21.395 27.511 30.569 37.905998 44.021999 47.685001 53.800999 56.243 62.359001 68.474998 73.974998 77.032997 80.695999 86.811996 90.474998 93.532997 99.649002 102.707 105.765 111.881 115.544 118.602 124.718 130.834 133.892 141.229 147.345 153.461 157.12399">Mean Earnings ($) after 10 Years</tspan></text>
</g><g
       id="g672"><g
         clip-path="url(#clipPath676)"
         id="g674"><path
           id="path680"
           style="fill:none;stroke:#ffffff;stroke-width:1;stroke-linecap:round;stroke-linejoin:round;stroke-miterlimit:10;stroke-dasharray:none;stroke-opacity:1"
           d="m 492.79972,38.95 210.7548,0" /></g></g><g
       id="g682"><path
         id="path684"
         style="fill:#262626;fill-opacity:1;fill-rule:nonzero;stroke:#262626;stroke-width:1;stroke-linecap:butt;stroke-linejoin:round;stroke-miterlimit:10;stroke-dasharray:none;stroke-opacity:1"
         d="m 492.79972,38.95 0,0" /></g><g
       id="g686"><g
         clip-path="url(#clipPath690)"
         id="g688"><path
           id="path694"
           style="fill:none;stroke:#ffffff;stroke-width:1;stroke-linecap:round;stroke-linejoin:round;stroke-miterlimit:10;stroke-dasharray:none;stroke-opacity:1"
           d="m 492.79972,70.592857 210.7548,0" /></g></g><g
       id="g696"><path
         id="path698"
         style="fill:#262626;fill-opacity:1;fill-rule:nonzero;stroke:#262626;stroke-width:1;stroke-linecap:butt;stroke-linejoin:round;stroke-miterlimit:10;stroke-dasharray:none;stroke-opacity:1"
         d="m 492.79972,70.592857 0,0" /></g><g
       id="g700"><g
         clip-path="url(#clipPath704)"
         id="g702"><path
           id="path708"
           style="fill:none;stroke:#ffffff;stroke-width:1;stroke-linecap:round;stroke-linejoin:round;stroke-miterlimit:10;stroke-dasharray:none;stroke-opacity:1"
           d="m 492.79972,102.23571 210.7548,0" /></g></g><g
       id="g710"><path
         id="path712"
         style="fill:#262626;fill-opacity:1;fill-rule:nonzero;stroke:#262626;stroke-width:1;stroke-linecap:butt;stroke-linejoin:round;stroke-miterlimit:10;stroke-dasharray:none;stroke-opacity:1"
         d="m 492.79972,102.23571 0,0" /></g><g
       id="g714"><g
         clip-path="url(#clipPath718)"
         id="g716"><path
           id="path722"
           style="fill:none;stroke:#ffffff;stroke-width:1;stroke-linecap:round;stroke-linejoin:round;stroke-miterlimit:10;stroke-dasharray:none;stroke-opacity:1"
           d="m 492.79972,133.87857 210.7548,0" /></g></g><g
       id="g724"><path
         id="path726"
         style="fill:#262626;fill-opacity:1;fill-rule:nonzero;stroke:#262626;stroke-width:1;stroke-linecap:butt;stroke-linejoin:round;stroke-miterlimit:10;stroke-dasharray:none;stroke-opacity:1"
         d="m 492.79972,133.87857 0,0" /></g><g
       id="g728"><g
         clip-path="url(#clipPath732)"
         id="g730"><path
           id="path736"
           style="fill:none;stroke:#ffffff;stroke-width:1;stroke-linecap:round;stroke-linejoin:round;stroke-miterlimit:10;stroke-dasharray:none;stroke-opacity:1"
           d="m 492.79972,165.52143 210.7548,0" /></g></g><g
       id="g738"><path
         id="path740"
         style="fill:#262626;fill-opacity:1;fill-rule:nonzero;stroke:#262626;stroke-width:1;stroke-linecap:butt;stroke-linejoin:round;stroke-miterlimit:10;stroke-dasharray:none;stroke-opacity:1"
         d="m 492.79972,165.52143 0,0" /></g><g
       id="g742"><g
         clip-path="url(#clipPath746)"
         id="g744"><path
           id="path750"
           style="fill:none;stroke:#ffffff;stroke-width:1;stroke-linecap:round;stroke-linejoin:round;stroke-miterlimit:10;stroke-dasharray:none;stroke-opacity:1"
           d="m 492.79972,197.16429 210.7548,0" /></g></g><g
       id="g752"><path
         id="path754"
         style="fill:#262626;fill-opacity:1;fill-rule:nonzero;stroke:#262626;stroke-width:1;stroke-linecap:butt;stroke-linejoin:round;stroke-miterlimit:10;stroke-dasharray:none;stroke-opacity:1"
         d="m 492.79972,197.16429 0,0" /></g><g
       id="g756"><g
         clip-path="url(#clipPath760)"
         id="g758"><path
           id="path764"
           style="fill:none;stroke:#ffffff;stroke-width:1;stroke-linecap:round;stroke-linejoin:round;stroke-miterlimit:10;stroke-dasharray:none;stroke-opacity:1"
           d="m 492.79972,228.80714 210.7548,0" /></g></g><g
       id="g766"><path
         id="path768"
         style="fill:#262626;fill-opacity:1;fill-rule:nonzero;stroke:#262626;stroke-width:1;stroke-linecap:butt;stroke-linejoin:round;stroke-miterlimit:10;stroke-dasharray:none;stroke-opacity:1"
         d="m 492.79972,228.80714 0,0" /></g><g
       id="g770"><g
         clip-path="url(#clipPath774)"
         id="g772"><path
           id="path778"
           style="fill:none;stroke:#ffffff;stroke-width:1;stroke-linecap:round;stroke-linejoin:round;stroke-miterlimit:10;stroke-dasharray:none;stroke-opacity:1"
           d="m 492.79972,260.45 210.7548,0" /></g></g><g
       id="g780"><path
         id="path782"
         style="fill:#262626;fill-opacity:1;fill-rule:nonzero;stroke:#262626;stroke-width:1;stroke-linecap:butt;stroke-linejoin:round;stroke-miterlimit:10;stroke-dasharray:none;stroke-opacity:1"
         d="m 492.79972,260.45 0,0" /></g><g
       id="g784"><g
         clip-path="url(#clipPath788)"
         id="g786"><path
           id="path792"
           style="fill:#4878cf;fill-opacity:0.25;fill-rule:nonzero;stroke:#4878cf;stroke-width:0.30000001;stroke-linecap:butt;stroke-linejoin:round;stroke-miterlimit:10;stroke-dasharray:none;stroke-opacity:0.25"
           d="m 506.09489,39.046808 0,-0.0968 0.89003,0 0.89004,0 0.89004,0 0.89003,0 0.89004,0 0.89004,0 0.89004,0 0.89003,0 0.89004,0 0.89004,0 0.89003,0 0.89004,0 0.89004,0 0.89004,0 0.89003,0 0.89004,0 0.89004,0 0.89004,0 0.89003,0 0.89004,0 0.89004,0 0.89004,0 0.89003,0 0.89004,0 0.89004,0 0.89003,0 0.89004,0 0.89004,0 0.89003,0 0.89004,0 0.89004,0 0.89004,0 0.89003,0 0.89004,0 0.89004,0 0.89004,0 0.89003,0 0.89004,0 0.89004,0 0.89004,0 0.89003,0 0.89004,0 0.89004,0 0.89003,0 0.89004,0 0.89004,0 0.89004,0 0.89003,0 0.89004,0 0.89004,0 0.89004,0 0.89003,0 0.89004,0 0.89004,0 0.89003,0 0.89004,0 0.89004,0 0.89003,0 0.89004,0 0.89004,0 0.89004,0 0.89003,0 0.89004,0 0.89004,0 0.89004,0 0.89003,0 0.89004,0 0.89004,0 0.89003,0 0.89004,0 0.89004,0 0.89004,0 0.89003,0 0.89004,0 0.89004,0 0.89004,0 0.89003,0 0.89004,0 0.89004,0 0.89003,0 0.89004,0 0.89004,0 0.89004,0 0.89003,0 0.89004,0 0.89004,0 0.89003,0 0.89004,0 0.89004,0 0.89004,0 0.89003,0 0.89004,0 0.89004,0 0.89004,0 0.89003,0 0.89004,0 0.89004,0 0.89003,0 0.89004,0 0.89004,0 0.89004,0 0.89003,0 0.89004,0 0.89004,0 0.89004,0 0.89003,0 0.89004,0 0.89004,0 0.89004,0 0.89003,0 0.89004,0 0.89004,0 0.89003,0 0.89004,0 0.89004,0 0.89003,0 0.89004,0 0.89004,0 0.89004,0 0.89003,0 0.89004,0 0.89004,0 0.89004,0 0.89003,0 0.89004,0 0.89004,0 0.89003,0 0,0.05356 0,0 -0.89003,0.0052 -0.89004,0.04766 -0.89004,0.09915 -0.89003,0.16572 -0.89004,0.242006 -0.89004,0.310107 -0.89004,0.343236 -0.89003,0.31612 -0.89004,0.218917 -0.89004,0.06678 -0.89004,-0.102405 -0.89003,-0.242773 -0.89004,-0.319649 -0.89004,-0.322124 -0.89003,-0.262859 -0.89004,-0.167889 -0.89004,-0.06437 -0.89003,0.02736 -0.89004,0.09638 -0.89004,0.141154 -0.89004,0.168803 -0.89003,0.193091 -0.89004,0.22923 -0.89004,0.285964 -0.89004,0.358701 -0.89003,0.428051 -0.89004,0.465333 -0.89004,0.44274 -0.89004,0.344209 -0.89003,0.173587 -0.89004,-0.04235 -0.89004,-0.258201 -0.89003,-0.422173 -0.89004,-0.493229 -0.89004,-0.456295 -0.89004,-0.328231 -0.89003,-0.15136 -0.89004,0.02296 -0.89004,0.15389 -0.89004,0.225955 -0.89003,0.252724 -0.89004,0.267234 -0.89004,0.30305 -0.89003,0.375612 -0.89004,0.474486 -0.89004,0.571229 -0.89004,0.637346 -0.89003,0.660056 -0.89004,0.645418 -0.89004,0.608166 -0.89003,0.557421 -0.89004,0.490162 -0.89004,0.398061 -0.89004,0.282781 -0.89003,0.167195 -0.89004,0.09085 -0.89004,0.08811 -0.89004,0.161551 -0.89003,0.270542 -0.89004,0.347914 -0.89004,0.338331 -0.89003,0.2349 -0.89004,0.09013 -0.89004,-0.0054 -0.89004,0.03722 -0.89003,0.269779 -0.89004,0.689491 -0.89004,1.242055 -0.89004,1.838486 -0.89003,2.380209 -0.89004,2.788985 -0.89004,3.036223 -0.89003,3.160174 -0.89004,3.256996 -0.89004,3.440693 -0.89003,3.785811 -0.89004,4.282615 -0.89004,4.832491 -0.89004,5.29043 -0.89003,5.535137 -0.89004,5.532232 -0.89004,5.35863 -0.89004,5.17328 -0.89003,5.14352 -0.89004,5.36012 -0.89004,5.78414 -0.89003,6.25643 -0.89004,6.56695 -0.89004,6.54749 -0.89004,6.13903 -0.89003,5.40072 -0.89004,4.45836 -0.89004,3.42168 -0.89004,2.31747 -0.89003,1.08277 -0.89004,-0.36832 -0.89004,-2.04082 -0.89004,-3.78951 -0.89003,-5.34493 -0.89004,-6.43496 -0.89004,-6.93368 -0.89003,-6.94128 -0.89004,-6.73717 -0.89004,-6.62772 -0.89003,-6.77923 -0.89004,-7.13814 -0.89004,-7.48252 -0.89004,-7.563053 -0.89003,-7.240115 -0.89004,-6.540728 -0.89004,-5.62242 -0.89004,-4.688109 -0.89003,-3.907396 -0.89004,-3.374501 -0.89004,-3.101731 -0.89004,-3.033273 -0.89003,-3.067871 -0.89004,-3.087537 -0.89004,-2.991293 -0.89003,-2.72653 -0.89004,-2.304465 -0.89004,-1.790143 -0.89004,-1.27122 -0.89003,-0.822462 -0.89004,-0.483566 -0.89004,-0.257106 -0.89003,-0.120818 z" /></g></g><g
       id="g794"><g
         clip-path="url(#clipPath798)"
         id="g796"><path
           id="path802"
           style="fill:#6acc65;fill-opacity:0.25;fill-rule:nonzero;stroke:#6acc65;stroke-width:0.30000001;stroke-linecap:butt;stroke-linejoin:round;stroke-miterlimit:10;stroke-dasharray:none;stroke-opacity:0.25"
           d="m 508.97156,38.971318 0,-0.02131 1.35918,0 1.35917,0 1.35918,0 1.35917,0 1.35918,0 1.35918,0 1.35917,0 1.35918,0 1.35918,0 1.35917,0 1.35918,0 1.35917,0 1.35918,0 1.35918,0 1.35917,0 1.35918,0 1.35917,0 1.35918,0 1.35918,0 1.35917,0 1.35918,0 1.35918,0 1.35917,0 1.35918,0 1.35917,0 1.35918,0 1.35918,0 1.35917,0 1.35918,0 1.35917,0 1.35918,0 1.35918,0 1.35917,0 1.35918,0 1.35917,0 1.35918,0 1.35918,0 1.35917,0 1.35918,0 1.35917,0 1.35918,0 1.35918,0 1.35917,0 1.35918,0 1.35918,0 1.35917,0 1.35918,0 1.35917,0 1.35918,0 1.35918,0 1.35917,0 1.35918,0 1.35917,0 1.35918,0 1.35918,0 1.35917,0 1.35918,0 1.35918,0 1.35917,0 1.35918,0 1.35917,0 1.35918,0 1.35918,0 1.35917,0 1.35918,0 1.35917,0 1.35918,0 1.35918,0 1.35917,0 1.35918,0 1.35918,0 1.35917,0 1.35918,0 1.35917,0 1.35918,0 1.35918,0 1.35917,0 1.35918,0 1.35917,0 1.35918,0 1.35918,0 1.35917,0 1.35918,0 1.35917,0 1.35918,0 1.35918,0 1.35917,0 1.35918,0 1.35918,0 1.35917,0 1.35918,0 1.35917,0 1.35918,0 1.35918,0 1.35917,0 1.35918,0 1.35917,0 1.35918,0 1.35918,0 1.35917,0 1.35918,0 1.35918,0 1.35917,0 1.35918,0 1.35917,0 1.35918,0 1.35918,0 1.35917,0 1.35918,0 1.35918,0 1.35917,0 1.35918,0 1.35917,0 1.35918,0 1.35918,0 1.35917,0 1.35918,0 1.35917,0 1.35918,0 1.35918,0 1.35917,0 1.35918,0 1.35917,0 1.35918,0 1.35918,0 1.35917,0 1.35918,0 0,0.01701 0,0 -1.35918,0.02493 -1.35917,0.06895 -1.35918,0.140674 -1.35918,0.231413 -1.35917,0.304291 -1.35918,0.309637 -1.35917,0.222845 -1.35918,0.07046 -1.35918,-0.08757 -1.35917,-0.201803 -1.35918,-0.256409 -1.35917,-0.258465 -1.35918,-0.220969 -1.35918,-0.157914 -1.35917,-0.08243 -1.35918,-5.18e-4 -1.35917,0.08967 -1.35918,0.18428 -1.35918,0.256386 -1.35917,0.25999 -1.35918,0.165547 -1.35918,-9.9e-4 -1.35917,-0.161336 -1.35918,-0.237182 -1.35917,-0.203681 -1.35918,-0.09746 -1.35918,0.01585 -1.35917,0.0796 -1.35918,0.06992 -1.35918,0.0041 -1.35917,-0.07006 -1.35918,-0.103938 -1.35917,-0.07706 -1.35918,-0.006 -1.35918,0.0691 -1.35917,0.107136 -1.35918,0.08966 -1.35917,0.03631 -1.35918,-0.0019 -1.35918,0.02497 -1.35917,0.12934 -1.35918,0.276115 -1.35918,0.403077 -1.35917,0.451999 -1.35918,0.392704 -1.35917,0.240239 -1.35918,0.06227 -1.35918,-0.04587 -1.35917,-0.0256 -1.35918,0.09297 -1.35917,0.214673 -1.35918,0.258528 -1.35918,0.203157 -1.35917,0.0657 -1.35918,-0.122541 -1.35917,-0.298875 -1.35918,-0.361945 -1.35918,-0.233083 -1.35917,0.0591 -1.35918,0.372466 -1.35918,0.546643 -1.35917,0.514637 -1.35918,0.33669 -1.35917,0.143851 -1.35918,0.04903 -1.35918,0.08664 -1.35917,0.208509 -1.35918,0.33141 -1.35917,0.399429 -1.35918,0.406875 -1.35918,0.368491 -1.35917,0.289162 -1.35918,0.177142 -1.35918,0.06873 -1.35917,0.01527 -1.35918,0.05577 -1.35917,0.224763 -1.35918,0.56493 -1.35918,1.079638 -1.35917,1.670653 -1.35918,2.183578 -1.35917,2.553734 -1.35918,2.87642 -1.35918,3.288066 -1.35917,3.776055 -1.35918,4.146269 -1.35918,4.237861 -1.35917,4.196558 -1.35918,4.469965 -1.35917,5.424477 -1.35918,6.946014 -1.35918,8.487964 -1.35917,9.52924 -1.35918,9.90824 -1.35917,9.68956 -1.35918,8.85095 -1.35918,7.26155 -1.35917,4.93231 -1.35918,2.14137 -1.35917,-0.68977 -1.35918,-3.13667 -1.35918,-4.84261 -1.35917,-5.64891 -1.35918,-5.71762 -1.35917,-5.42568 -1.35918,-5.12339 -1.35918,-5.09532 -1.35917,-5.69524 -1.35918,-7.21097 -1.35918,-9.377857 -1.35917,-11.182227 -1.35918,-11.45656 -1.35917,-9.782772 -1.35918,-6.793349 -1.35918,-3.675396 -1.35917,-1.456346 -1.35918,-0.586943 -1.35917,-0.88289 -1.35918,-1.718198 -1.35918,-2.391129 -1.35917,-2.496138 -1.35918,-2.062124 -1.35918,-1.38961 -1.35917,-0.777151 -1.35918,-0.364377 -1.35917,-0.14367 -1.35918,-0.04576 z" /></g></g><g
       id="g804"><g
         clip-path="url(#clipPath808)"
         id="g806"><path
           id="path812"
           style="fill:none;stroke:#4878cf;stroke-width:1.75;stroke-linecap:round;stroke-linejoin:round;stroke-miterlimit:10;stroke-dasharray:none;stroke-opacity:1"
           d="m 506.09489,39.046808 0.89003,0.120818 0.89004,0.257106 0.89004,0.483566 0.89003,0.822462 0.89004,1.27122 0.89004,1.790143 0.89004,2.304465 1.78007,5.717823 4.45019,15.664913 0.89003,3.907396 0.89004,4.688109 0.89004,5.62242 1.78007,13.780843 2.67012,22.183708 5.34022,40.45404 0.89003,5.34493 0.89004,3.78951 0.89004,2.04082 0.89004,0.36832 0.89003,-1.08277 0.89004,-2.31747 0.89004,-3.42168 0.89004,-4.45836 0.89003,-5.40072 1.78008,-12.68652 1.78007,-12.82338 1.78008,-11.14426 3.56015,-21.207657 1.78007,-10.825567 1.78008,-9.115106 1.78007,-7.226504 2.67011,-9.453393 0.89004,-2.788985 0.89003,-2.380209 0.89004,-1.838486 0.89004,-1.242055 0.89004,-0.689491 0.89003,-0.269779 2.67012,-0.12191 1.78007,-0.573231 1.78007,-0.618456 1.78008,-0.249659 1.78007,-0.258041 1.78008,-0.680842 1.78007,-1.047583 5.34023,-3.596701 1.78007,-0.678662 2.67011,-0.745913 0.89004,-0.15389 0.89004,-0.02296 0.89003,0.15136 0.89004,0.328231 2.67011,1.371697 0.89004,0.258201 0.89004,0.04235 0.89003,-0.173587 1.78008,-0.786949 1.78007,-0.893384 1.78008,-0.644665 2.67011,-0.591124 1.78008,-0.237536 1.78007,0.03702 1.78007,0.430748 2.67011,0.884546 0.89004,0.102405 0.89004,-0.06678 1.78007,-0.535037 1.78008,-0.653343 1.78007,-0.407726 1.78008,-0.146808 0.89003,-0.0052 0,0" /></g></g><g
       id="g814"><g
         clip-path="url(#clipPath818)"
         id="g816"><path
           id="path822"
           style="fill:none;stroke:#6acc65;stroke-width:1.75;stroke-linecap:round;stroke-linejoin:round;stroke-miterlimit:10;stroke-dasharray:none;stroke-opacity:1"
           d="m 508.97156,38.971318 2.71835,0.189425 1.35918,0.364377 1.35917,0.777151 1.35918,1.38961 1.35918,2.062124 2.71835,4.887267 1.35918,1.718198 1.35917,0.88289 1.35918,0.586943 1.35917,1.456346 1.35918,3.675396 1.35918,6.793349 1.35917,9.782772 2.71835,22.638787 1.35918,9.377857 1.35918,7.21097 1.35917,5.69524 4.07753,15.64439 2.71835,11.36653 1.35918,4.84261 1.35918,3.13667 1.35917,0.68977 1.35918,-2.14137 1.35917,-4.93231 1.35918,-7.26155 1.35918,-8.85095 4.07752,-29.12704 1.35918,-8.487964 1.35918,-6.946014 1.35917,-5.424477 2.71835,-8.666523 2.71836,-8.38413 1.35917,-3.776055 1.35918,-3.288066 1.35918,-2.87642 1.35917,-2.553734 1.35918,-2.183578 1.35917,-1.670653 1.35918,-1.079638 1.35918,-0.56493 1.35917,-0.224763 5.43671,-0.316914 2.71835,-0.657653 4.07753,-1.137714 1.35917,-0.208509 4.07753,-0.279521 1.35918,-0.33669 4.07753,-1.433746 1.35917,-0.0591 1.35918,0.233083 2.71835,0.66082 1.35918,0.122541 1.35917,-0.0657 5.43671,-0.769332 4.07753,0.0092 1.35917,-0.240239 5.43671,-1.523895 2.71835,-0.154307 2.71835,-0.03443 5.43671,-0.259905 5.4367,0.246919 4.07753,-0.165376 2.71835,0.301146 2.71835,0.398518 1.35918,9.9e-4 2.71835,-0.425537 2.71836,-0.440666 2.71835,-0.08916 2.71835,0.240339 6.79588,1.025219 1.35918,-0.07046 2.71835,-0.532482 2.71835,-0.535704 2.71835,-0.209621 1.35918,-0.02493 0,0" /></g></g><g
       id="g824"><text
         id="text826"
         style="font-variant:normal;font-weight:normal;font-size:11px;font-family:'Liberation Sans';-inkscape-font-specification:LiberationSans;writing-mode:lr-tb;fill:#262626;fill-opacity:1;fill-rule:nonzero;stroke:none"
         transform="matrix(1,0,0,-1,558.08337,265.45)"><tspan
           id="tspan828"
           y="0"
           x="0 7.3369999 11 13.442 18.941999 25.058001 28.115999 34.231998 37.290001 43.405998 49.521999 55.638 61.754002 65.417 71.532997 74.591003 77.032997">Private nonprofit</tspan></text>
<text
         id="text830"
         style="font-variant:normal;font-weight:normal;font-size:9.35000038px;font-family:'Liberation Sans';-inkscape-font-specification:LiberationSans;writing-mode:lr-tb;fill:#262626;fill-opacity:1;fill-rule:nonzero;stroke:none"
         transform="matrix(1,0,0,-1,728.20321,152.31719)"><tspan
           id="tspan832"
           y="0"
           x="0 7.2743001 12.4729 17.671499 22.8701 28.068701">Gender</tspan></text>
<path
         id="path834"
         style="fill:none;stroke:#4878cf;stroke-width:1.75;stroke-linecap:round;stroke-linejoin:round;stroke-miterlimit:10;stroke-dasharray:none;stroke-opacity:1"
         d="m 713.17977,141.69219 20,0" /><text
         id="text836"
         style="font-variant:normal;font-weight:normal;font-size:10px;font-family:'Liberation Sans';-inkscape-font-specification:LiberationSans;writing-mode:lr-tb;fill:#262626;fill-opacity:1;fill-rule:nonzero;stroke:none"
         transform="matrix(1,0,0,-1,741.17977,138.19219)"><tspan
           id="tspan838"
           y="0"
           x="0 6.1100001 11.67 20 25.559999 27.780001">Female</tspan></text>
<path
         id="path840"
         style="fill:none;stroke:#6acc65;stroke-width:1.75;stroke-linecap:round;stroke-linejoin:round;stroke-miterlimit:10;stroke-dasharray:none;stroke-opacity:1"
         d="m 713.17977,127.36406 20,0" /><text
         id="text842"
         style="font-variant:normal;font-weight:normal;font-size:10px;font-family:'Liberation Sans';-inkscape-font-specification:LiberationSans;writing-mode:lr-tb;fill:#262626;fill-opacity:1;fill-rule:nonzero;stroke:none"
         transform="matrix(1,0,0,-1,741.17977,123.86406)"><tspan
           id="tspan844"
           y="0"
           x="0 8.3299999 13.89 16.110001">Male</tspan></text>
</g></g></svg>