<?xml version="1.0" encoding="UTF-8" standalone="no"?>
<svg
   xmlns:dc="http://purl.org/dc/elements/1.1/"
   xmlns:cc="http://creativecommons.org/ns#"
   xmlns:rdf="http://www.w3.org/1999/02/22-rdf-syntax-ns#"
   xmlns:svg="http://www.w3.org/2000/svg"
   xmlns="http://www.w3.org/2000/svg"
   viewBox="0 0 998.61621 350.77344"
   height="350.77344"
   width="998.61621"
   xml:space="preserve"
   version="1.1"
   id="svg2"><metadata
     id="metadata8"><rdf:RDF><cc:Work
         rdf:about=""><dc:format>image/svg+xml</dc:format><dc:type
           rdf:resource="http://purl.org/dc/dcmitype/StillImage" /></cc:Work></rdf:RDF></metadata><defs
     id="defs6"><clipPath
       id="clipPath20"
       clipPathUnits="userSpaceOnUse"><path
         id="path22"
         d="m 9.98125,38.95 210.24604,0 0,221.5 -210.24604,0 0,-221.5 z" /></clipPath><clipPath
       id="clipPath38"
       clipPathUnits="userSpaceOnUse"><path
         id="path40"
         d="m 9.98125,38.95 210.24604,0 0,221.5 -210.24604,0 0,-221.5 z" /></clipPath><clipPath
       id="clipPath56"
       clipPathUnits="userSpaceOnUse"><path
         id="path58"
         d="m 9.98125,38.95 210.24604,0 0,221.5 -210.24604,0 0,-221.5 z" /></clipPath><clipPath
       id="clipPath74"
       clipPathUnits="userSpaceOnUse"><path
         id="path76"
         d="m 9.98125,38.95 210.24604,0 0,221.5 -210.24604,0 0,-221.5 z" /></clipPath><clipPath
       id="clipPath92"
       clipPathUnits="userSpaceOnUse"><path
         id="path94"
         d="m 9.98125,38.95 210.24604,0 0,221.5 -210.24604,0 0,-221.5 z" /></clipPath><clipPath
       id="clipPath110"
       clipPathUnits="userSpaceOnUse"><path
         id="path112"
         d="m 9.98125,38.95 210.24604,0 0,221.5 -210.24604,0 0,-221.5 z" /></clipPath><clipPath
       id="clipPath132"
       clipPathUnits="userSpaceOnUse"><path
         id="path134"
         d="m 9.98125,38.95 210.24604,0 0,221.5 -210.24604,0 0,-221.5 z" /></clipPath><clipPath
       id="clipPath146"
       clipPathUnits="userSpaceOnUse"><path
         id="path148"
         d="m 9.98125,38.95 210.24604,0 0,221.5 -210.24604,0 0,-221.5 z" /></clipPath><clipPath
       id="clipPath160"
       clipPathUnits="userSpaceOnUse"><path
         id="path162"
         d="m 9.98125,38.95 210.24604,0 0,221.5 -210.24604,0 0,-221.5 z" /></clipPath><clipPath
       id="clipPath174"
       clipPathUnits="userSpaceOnUse"><path
         id="path176"
         d="m 9.98125,38.95 210.24604,0 0,221.5 -210.24604,0 0,-221.5 z" /></clipPath><clipPath
       id="clipPath188"
       clipPathUnits="userSpaceOnUse"><path
         id="path190"
         d="m 9.98125,38.95 210.24604,0 0,221.5 -210.24604,0 0,-221.5 z" /></clipPath><clipPath
       id="clipPath202"
       clipPathUnits="userSpaceOnUse"><path
         id="path204"
         d="m 9.98125,38.95 210.24604,0 0,221.5 -210.24604,0 0,-221.5 z" /></clipPath><clipPath
       id="clipPath216"
       clipPathUnits="userSpaceOnUse"><path
         id="path218"
         d="m 9.98125,38.95 210.24604,0 0,221.5 -210.24604,0 0,-221.5 z" /></clipPath><clipPath
       id="clipPath230"
       clipPathUnits="userSpaceOnUse"><path
         id="path232"
         d="m 9.98125,38.95 210.24604,0 0,221.5 -210.24604,0 0,-221.5 z" /></clipPath><clipPath
       id="clipPath240"
       clipPathUnits="userSpaceOnUse"><path
         id="path242"
         d="m 9.98125,38.95 210.24604,0 0,221.5 -210.24604,0 0,-221.5 z" /></clipPath><clipPath
       id="clipPath250"
       clipPathUnits="userSpaceOnUse"><path
         id="path252"
         d="m 9.98125,38.95 210.24604,0 0,221.5 -210.24604,0 0,-221.5 z" /></clipPath><clipPath
       id="clipPath260"
       clipPathUnits="userSpaceOnUse"><path
         id="path262"
         d="m 9.98125,38.95 210.24604,0 0,221.5 -210.24604,0 0,-221.5 z" /></clipPath><clipPath
       id="clipPath278"
       clipPathUnits="userSpaceOnUse"><path
         id="path280"
         d="m 250.80772,38.95 210.24605,0 0,221.5 -210.24605,0 0,-221.5 z" /></clipPath><clipPath
       id="clipPath296"
       clipPathUnits="userSpaceOnUse"><path
         id="path298"
         d="m 250.80772,38.95 210.24605,0 0,221.5 -210.24605,0 0,-221.5 z" /></clipPath><clipPath
       id="clipPath314"
       clipPathUnits="userSpaceOnUse"><path
         id="path316"
         d="m 250.80772,38.95 210.24605,0 0,221.5 -210.24605,0 0,-221.5 z" /></clipPath><clipPath
       id="clipPath332"
       clipPathUnits="userSpaceOnUse"><path
         id="path334"
         d="m 250.80772,38.95 210.24605,0 0,221.5 -210.24605,0 0,-221.5 z" /></clipPath><clipPath
       id="clipPath350"
       clipPathUnits="userSpaceOnUse"><path
         id="path352"
         d="m 250.80772,38.95 210.24605,0 0,221.5 -210.24605,0 0,-221.5 z" /></clipPath><clipPath
       id="clipPath368"
       clipPathUnits="userSpaceOnUse"><path
         id="path370"
         d="m 250.80772,38.95 210.24605,0 0,221.5 -210.24605,0 0,-221.5 z" /></clipPath><clipPath
       id="clipPath390"
       clipPathUnits="userSpaceOnUse"><path
         id="path392"
         d="m 250.80772,38.95 210.24605,0 0,221.5 -210.24605,0 0,-221.5 z" /></clipPath><clipPath
       id="clipPath404"
       clipPathUnits="userSpaceOnUse"><path
         id="path406"
         d="m 250.80772,38.95 210.24605,0 0,221.5 -210.24605,0 0,-221.5 z" /></clipPath><clipPath
       id="clipPath418"
       clipPathUnits="userSpaceOnUse"><path
         id="path420"
         d="m 250.80772,38.95 210.24605,0 0,221.5 -210.24605,0 0,-221.5 z" /></clipPath><clipPath
       id="clipPath432"
       clipPathUnits="userSpaceOnUse"><path
         id="path434"
         d="m 250.80772,38.95 210.24605,0 0,221.5 -210.24605,0 0,-221.5 z" /></clipPath><clipPath
       id="clipPath446"
       clipPathUnits="userSpaceOnUse"><path
         id="path448"
         d="m 250.80772,38.95 210.24605,0 0,221.5 -210.24605,0 0,-221.5 z" /></clipPath><clipPath
       id="clipPath460"
       clipPathUnits="userSpaceOnUse"><path
         id="path462"
         d="m 250.80772,38.95 210.24605,0 0,221.5 -210.24605,0 0,-221.5 z" /></clipPath><clipPath
       id="clipPath474"
       clipPathUnits="userSpaceOnUse"><path
         id="path476"
         d="m 250.80772,38.95 210.24605,0 0,221.5 -210.24605,0 0,-221.5 z" /></clipPath><clipPath
       id="clipPath488"
       clipPathUnits="userSpaceOnUse"><path
         id="path490"
         d="m 250.80772,38.95 210.24605,0 0,221.5 -210.24605,0 0,-221.5 z" /></clipPath><clipPath
       id="clipPath498"
       clipPathUnits="userSpaceOnUse"><path
         id="path500"
         d="m 250.80772,38.95 210.24605,0 0,221.5 -210.24605,0 0,-221.5 z" /></clipPath><clipPath
       id="clipPath508"
       clipPathUnits="userSpaceOnUse"><path
         id="path510"
         d="m 250.80772,38.95 210.24605,0 0,221.5 -210.24605,0 0,-221.5 z" /></clipPath><clipPath
       id="clipPath518"
       clipPathUnits="userSpaceOnUse"><path
         id="path520"
         d="m 250.80772,38.95 210.24605,0 0,221.5 -210.24605,0 0,-221.5 z" /></clipPath><clipPath
       id="clipPath536"
       clipPathUnits="userSpaceOnUse"><path
         id="path538"
         d="m 491.6342,38.95 210.24604,0 0,221.5 -210.24604,0 0,-221.5 z" /></clipPath><clipPath
       id="clipPath554"
       clipPathUnits="userSpaceOnUse"><path
         id="path556"
         d="m 491.6342,38.95 210.24604,0 0,221.5 -210.24604,0 0,-221.5 z" /></clipPath><clipPath
       id="clipPath572"
       clipPathUnits="userSpaceOnUse"><path
         id="path574"
         d="m 491.6342,38.95 210.24604,0 0,221.5 -210.24604,0 0,-221.5 z" /></clipPath><clipPath
       id="clipPath590"
       clipPathUnits="userSpaceOnUse"><path
         id="path592"
         d="m 491.6342,38.95 210.24604,0 0,221.5 -210.24604,0 0,-221.5 z" /></clipPath><clipPath
       id="clipPath608"
       clipPathUnits="userSpaceOnUse"><path
         id="path610"
         d="m 491.6342,38.95 210.24604,0 0,221.5 -210.24604,0 0,-221.5 z" /></clipPath><clipPath
       id="clipPath626"
       clipPathUnits="userSpaceOnUse"><path
         id="path628"
         d="m 491.6342,38.95 210.24604,0 0,221.5 -210.24604,0 0,-221.5 z" /></clipPath><clipPath
       id="clipPath648"
       clipPathUnits="userSpaceOnUse"><path
         id="path650"
         d="m 491.6342,38.95 210.24604,0 0,221.5 -210.24604,0 0,-221.5 z" /></clipPath><clipPath
       id="clipPath662"
       clipPathUnits="userSpaceOnUse"><path
         id="path664"
         d="m 491.6342,38.95 210.24604,0 0,221.5 -210.24604,0 0,-221.5 z" /></clipPath><clipPath
       id="clipPath676"
       clipPathUnits="userSpaceOnUse"><path
         id="path678"
         d="m 491.6342,38.95 210.24604,0 0,221.5 -210.24604,0 0,-221.5 z" /></clipPath><clipPath
       id="clipPath690"
       clipPathUnits="userSpaceOnUse"><path
         id="path692"
         d="m 491.6342,38.95 210.24604,0 0,221.5 -210.24604,0 0,-221.5 z" /></clipPath><clipPath
       id="clipPath704"
       clipPathUnits="userSpaceOnUse"><path
         id="path706"
         d="m 491.6342,38.95 210.24604,0 0,221.5 -210.24604,0 0,-221.5 z" /></clipPath><clipPath
       id="clipPath718"
       clipPathUnits="userSpaceOnUse"><path
         id="path720"
         d="m 491.6342,38.95 210.24604,0 0,221.5 -210.24604,0 0,-221.5 z" /></clipPath><clipPath
       id="clipPath732"
       clipPathUnits="userSpaceOnUse"><path
         id="path734"
         d="m 491.6342,38.95 210.24604,0 0,221.5 -210.24604,0 0,-221.5 z" /></clipPath><clipPath
       id="clipPath746"
       clipPathUnits="userSpaceOnUse"><path
         id="path748"
         d="m 491.6342,38.95 210.24604,0 0,221.5 -210.24604,0 0,-221.5 z" /></clipPath><clipPath
       id="clipPath756"
       clipPathUnits="userSpaceOnUse"><path
         id="path758"
         d="m 491.6342,38.95 210.24604,0 0,221.5 -210.24604,0 0,-221.5 z" /></clipPath><clipPath
       id="clipPath766"
       clipPathUnits="userSpaceOnUse"><path
         id="path768"
         d="m 491.6342,38.95 210.24604,0 0,221.5 -210.24604,0 0,-221.5 z" /></clipPath><clipPath
       id="clipPath776"
       clipPathUnits="userSpaceOnUse"><path
         id="path778"
         d="m 491.6342,38.95 210.24604,0 0,221.5 -210.24604,0 0,-221.5 z" /></clipPath></defs><g
     transform="matrix(1.25,0,0,-1.25,0,350.77344)"
     id="g10"><path
       id="path12"
       style="fill:#ffffff;fill-opacity:1;fill-rule:nonzero;stroke:none"
       d="m 0,0 798.89299,0 0,280.61875 L 0,280.61875 0,0 Z" /><path
       id="path14"
       style="fill:#eaeaf2;fill-opacity:1;fill-rule:nonzero;stroke:none"
       d="m 9.98125,38.95 210.24604,0 0,221.5 -210.24604,0 0,-221.5 z" /><g
       id="g16"><g
         clip-path="url(#clipPath20)"
         id="g18"><path
           id="path24"
           style="fill:none;stroke:#ffffff;stroke-width:1;stroke-linecap:round;stroke-linejoin:round;stroke-miterlimit:10;stroke-dasharray:none;stroke-opacity:1"
           d="m 9.98125,38.95 0,221.5" /></g></g><g
       id="g26"><path
         id="path28"
         style="fill:#262626;fill-opacity:1;fill-rule:nonzero;stroke:#262626;stroke-width:1;stroke-linecap:butt;stroke-linejoin:round;stroke-miterlimit:10;stroke-dasharray:none;stroke-opacity:1"
         d="m 9.98125,38.95 0,0" /><text
         id="text30"
         style="font-variant:normal;font-weight:normal;font-size:10px;font-family:'Liberation Sans';-inkscape-font-specification:LiberationSans;writing-mode:lr-tb;fill:#262626;fill-opacity:1;fill-rule:nonzero;stroke:none"
         transform="matrix(1,0,0,-1,7.2,24.7)"><tspan
           id="tspan32"
           y="0"
           x="0">0</tspan></text>
</g><g
       id="g34"><g
         clip-path="url(#clipPath38)"
         id="g36"><path
           id="path42"
           style="fill:none;stroke:#ffffff;stroke-width:1;stroke-linecap:round;stroke-linejoin:round;stroke-miterlimit:10;stroke-dasharray:none;stroke-opacity:1"
           d="m 52.030458,38.95 0,221.5" /></g></g><g
       id="g44"><path
         id="path46"
         style="fill:#262626;fill-opacity:1;fill-rule:nonzero;stroke:#262626;stroke-width:1;stroke-linecap:butt;stroke-linejoin:round;stroke-miterlimit:10;stroke-dasharray:none;stroke-opacity:1"
         d="m 52.030458,38.95 0,0" /><text
         id="text48"
         style="font-variant:normal;font-weight:normal;font-size:10px;font-family:'Liberation Sans';-inkscape-font-specification:LiberationSans;writing-mode:lr-tb;fill:#262626;fill-opacity:1;fill-rule:nonzero;stroke:none"
         transform="matrix(1,0,0,-1,43.967958,24.7)"><tspan
           id="tspan50"
           y="0"
           x="0 5.5599999 11.12">40k</tspan></text>
</g><g
       id="g52"><g
         clip-path="url(#clipPath56)"
         id="g54"><path
           id="path60"
           style="fill:none;stroke:#ffffff;stroke-width:1;stroke-linecap:round;stroke-linejoin:round;stroke-miterlimit:10;stroke-dasharray:none;stroke-opacity:1"
           d="m 94.079666,38.95 0,221.5" /></g></g><g
       id="g62"><path
         id="path64"
         style="fill:#262626;fill-opacity:1;fill-rule:nonzero;stroke:#262626;stroke-width:1;stroke-linecap:butt;stroke-linejoin:round;stroke-miterlimit:10;stroke-dasharray:none;stroke-opacity:1"
         d="m 94.079666,38.95 0,0" /><text
         id="text66"
         style="font-variant:normal;font-weight:normal;font-size:10px;font-family:'Liberation Sans';-inkscape-font-specification:LiberationSans;writing-mode:lr-tb;fill:#262626;fill-opacity:1;fill-rule:nonzero;stroke:none"
         transform="matrix(1,0,0,-1,86.017166,24.7)"><tspan
           id="tspan68"
           y="0"
           x="0 5.5599999 11.12">80k</tspan></text>
</g><g
       id="g70"><g
         clip-path="url(#clipPath74)"
         id="g72"><path
           id="path78"
           style="fill:none;stroke:#ffffff;stroke-width:1;stroke-linecap:round;stroke-linejoin:round;stroke-miterlimit:10;stroke-dasharray:none;stroke-opacity:1"
           d="m 136.12887,38.95 0,221.5" /></g></g><g
       id="g80"><path
         id="path82"
         style="fill:#262626;fill-opacity:1;fill-rule:nonzero;stroke:#262626;stroke-width:1;stroke-linecap:butt;stroke-linejoin:round;stroke-miterlimit:10;stroke-dasharray:none;stroke-opacity:1"
         d="m 136.12887,38.95 0,0" /><text
         id="text84"
         style="font-variant:normal;font-weight:normal;font-size:10px;font-family:'Liberation Sans';-inkscape-font-specification:LiberationSans;writing-mode:lr-tb;fill:#262626;fill-opacity:1;fill-rule:nonzero;stroke:none"
         transform="matrix(1,0,0,-1,125.28512,24.7)"><tspan
           id="tspan86"
           y="0"
           x="0 5.5599999 11.12 16.68">120k</tspan></text>
</g><g
       id="g88"><g
         clip-path="url(#clipPath92)"
         id="g90"><path
           id="path96"
           style="fill:none;stroke:#ffffff;stroke-width:1;stroke-linecap:round;stroke-linejoin:round;stroke-miterlimit:10;stroke-dasharray:none;stroke-opacity:1"
           d="m 178.17808,38.95 0,221.5" /></g></g><g
       id="g98"><path
         id="path100"
         style="fill:#262626;fill-opacity:1;fill-rule:nonzero;stroke:#262626;stroke-width:1;stroke-linecap:butt;stroke-linejoin:round;stroke-miterlimit:10;stroke-dasharray:none;stroke-opacity:1"
         d="m 178.17808,38.95 0,0" /><text
         id="text102"
         style="font-variant:normal;font-weight:normal;font-size:10px;font-family:'Liberation Sans';-inkscape-font-specification:LiberationSans;writing-mode:lr-tb;fill:#262626;fill-opacity:1;fill-rule:nonzero;stroke:none"
         transform="matrix(1,0,0,-1,167.33433,24.7)"><tspan
           id="tspan104"
           y="0"
           x="0 5.5599999 11.12 16.68">160k</tspan></text>
</g><g
       id="g106"><g
         clip-path="url(#clipPath110)"
         id="g108"><path
           id="path114"
           style="fill:none;stroke:#ffffff;stroke-width:1;stroke-linecap:round;stroke-linejoin:round;stroke-miterlimit:10;stroke-dasharray:none;stroke-opacity:1"
           d="m 220.22729,38.95 0,221.5" /></g></g><g
       id="g116"><path
         id="path118"
         style="fill:#262626;fill-opacity:1;fill-rule:nonzero;stroke:#262626;stroke-width:1;stroke-linecap:butt;stroke-linejoin:round;stroke-miterlimit:10;stroke-dasharray:none;stroke-opacity:1"
         d="m 220.22729,38.95 0,0" /><text
         id="text120"
         style="font-variant:normal;font-weight:normal;font-size:10px;font-family:'Liberation Sans';-inkscape-font-specification:LiberationSans;writing-mode:lr-tb;fill:#262626;fill-opacity:1;fill-rule:nonzero;stroke:none"
         transform="matrix(1,0,0,-1,209.38354,24.7)"><tspan
           id="tspan122"
           y="0"
           x="0 5.5599999 11.12 16.68">200k</tspan></text>
<text
         id="text124"
         style="font-variant:normal;font-weight:normal;font-size:11px;font-family:'Liberation Sans';-inkscape-font-specification:LiberationSans;writing-mode:lr-tb;fill:#262626;fill-opacity:1;fill-rule:nonzero;stroke:none"
         transform="matrix(1,0,0,-1,33.690208,9.48125)"><tspan
           id="tspan126"
           y="0"
           x="0 9.1630001 15.279 21.395 27.511 30.569 37.905998 44.021999 47.685001 53.800999 56.243 62.359001 68.474998 73.974998 77.032997 80.695999 86.811996 90.474998 93.532997 99.649002 102.707 105.765 111.881 115.544 118.602 124.718 130.834 133.892 141.229 147.345 153.461 157.12399">Mean Earnings ($) after 10 Years</tspan></text>
</g><g
       id="g128"><g
         clip-path="url(#clipPath132)"
         id="g130"><path
           id="path136"
           style="fill:none;stroke:#ffffff;stroke-width:1;stroke-linecap:round;stroke-linejoin:round;stroke-miterlimit:10;stroke-dasharray:none;stroke-opacity:1"
           d="m 9.98125,38.95 210.24604,0" /></g></g><g
       id="g138"><path
         id="path140"
         style="fill:#262626;fill-opacity:1;fill-rule:nonzero;stroke:#262626;stroke-width:1;stroke-linecap:butt;stroke-linejoin:round;stroke-miterlimit:10;stroke-dasharray:none;stroke-opacity:1"
         d="m 9.98125,38.95 0,0" /></g><g
       id="g142"><g
         clip-path="url(#clipPath146)"
         id="g144"><path
           id="path150"
           style="fill:none;stroke:#ffffff;stroke-width:1;stroke-linecap:round;stroke-linejoin:round;stroke-miterlimit:10;stroke-dasharray:none;stroke-opacity:1"
           d="m 9.98125,75.866667 210.24604,0" /></g></g><g
       id="g152"><path
         id="path154"
         style="fill:#262626;fill-opacity:1;fill-rule:nonzero;stroke:#262626;stroke-width:1;stroke-linecap:butt;stroke-linejoin:round;stroke-miterlimit:10;stroke-dasharray:none;stroke-opacity:1"
         d="m 9.98125,75.866667 0,0" /></g><g
       id="g156"><g
         clip-path="url(#clipPath160)"
         id="g158"><path
           id="path164"
           style="fill:none;stroke:#ffffff;stroke-width:1;stroke-linecap:round;stroke-linejoin:round;stroke-miterlimit:10;stroke-dasharray:none;stroke-opacity:1"
           d="m 9.98125,112.78333 210.24604,0" /></g></g><g
       id="g166"><path
         id="path168"
         style="fill:#262626;fill-opacity:1;fill-rule:nonzero;stroke:#262626;stroke-width:1;stroke-linecap:butt;stroke-linejoin:round;stroke-miterlimit:10;stroke-dasharray:none;stroke-opacity:1"
         d="m 9.98125,112.78333 0,0" /></g><g
       id="g170"><g
         clip-path="url(#clipPath174)"
         id="g172"><path
           id="path178"
           style="fill:none;stroke:#ffffff;stroke-width:1;stroke-linecap:round;stroke-linejoin:round;stroke-miterlimit:10;stroke-dasharray:none;stroke-opacity:1"
           d="m 9.98125,149.7 210.24604,0" /></g></g><g
       id="g180"><path
         id="path182"
         style="fill:#262626;fill-opacity:1;fill-rule:nonzero;stroke:#262626;stroke-width:1;stroke-linecap:butt;stroke-linejoin:round;stroke-miterlimit:10;stroke-dasharray:none;stroke-opacity:1"
         d="m 9.98125,149.7 0,0" /></g><g
       id="g184"><g
         clip-path="url(#clipPath188)"
         id="g186"><path
           id="path192"
           style="fill:none;stroke:#ffffff;stroke-width:1;stroke-linecap:round;stroke-linejoin:round;stroke-miterlimit:10;stroke-dasharray:none;stroke-opacity:1"
           d="m 9.98125,186.61667 210.24604,0" /></g></g><g
       id="g194"><path
         id="path196"
         style="fill:#262626;fill-opacity:1;fill-rule:nonzero;stroke:#262626;stroke-width:1;stroke-linecap:butt;stroke-linejoin:round;stroke-miterlimit:10;stroke-dasharray:none;stroke-opacity:1"
         d="m 9.98125,186.61667 0,0" /></g><g
       id="g198"><g
         clip-path="url(#clipPath202)"
         id="g200"><path
           id="path206"
           style="fill:none;stroke:#ffffff;stroke-width:1;stroke-linecap:round;stroke-linejoin:round;stroke-miterlimit:10;stroke-dasharray:none;stroke-opacity:1"
           d="m 9.98125,223.53333 210.24604,0" /></g></g><g
       id="g208"><path
         id="path210"
         style="fill:#262626;fill-opacity:1;fill-rule:nonzero;stroke:#262626;stroke-width:1;stroke-linecap:butt;stroke-linejoin:round;stroke-miterlimit:10;stroke-dasharray:none;stroke-opacity:1"
         d="m 9.98125,223.53333 0,0" /></g><g
       id="g212"><g
         clip-path="url(#clipPath216)"
         id="g214"><path
           id="path220"
           style="fill:none;stroke:#ffffff;stroke-width:1;stroke-linecap:round;stroke-linejoin:round;stroke-miterlimit:10;stroke-dasharray:none;stroke-opacity:1"
           d="m 9.98125,260.45 210.24604,0" /></g></g><g
       id="g222"><path
         id="path224"
         style="fill:#262626;fill-opacity:1;fill-rule:nonzero;stroke:#262626;stroke-width:1;stroke-linecap:butt;stroke-linejoin:round;stroke-miterlimit:10;stroke-dasharray:none;stroke-opacity:1"
         d="m 9.98125,260.45 0,0" /></g><g
       id="g226"><g
         clip-path="url(#clipPath230)"
         id="g228"><path
           id="path234"
           style="fill:#4878cf;fill-opacity:0.25;fill-rule:nonzero;stroke:#4878cf;stroke-width:0.30000001;stroke-linecap:butt;stroke-linejoin:round;stroke-miterlimit:10;stroke-dasharray:none;stroke-opacity:0.25"
           d="m 31.282655,38.967722 0,-0.01772 0.656178,0 0.656177,0 0.656178,0 0.656178,0 0.656177,0 0.656178,0 0.656178,0 0.656178,0 0.656177,0 0.656178,0 0.656178,0 0.656177,0 0.656178,0 0.656178,0 0.656177,0 0.656178,0 0.656178,0 0.656178,0 0.656177,0 0.656178,0 0.656178,0 0.656177,0 0.656178,0 0.656178,0 0.656178,0 0.656177,0 0.656178,0 0.656178,0 0.656177,0 0.656178,0 0.656178,0 0.656177,0 0.656178,0 0.656178,0 0.656178,0 0.656177,0 0.656178,0 0.656178,0 0.656177,0 0.656178,0 0.656178,0 0.656178,0 0.656177,0 0.656178,0 0.656178,0 0.656177,0 0.656178,0 0.656178,0 0.656177,0 0.656178,0 0.656178,0 0.656178,0 0.656177,0 0.656178,0 0.656178,0 0.656177,0 0.656178,0 0.656178,0 0.656178,0 0.656177,0 0.656178,0 0.656178,0 0.656177,0 0.656178,0 0.656178,0 0.656177,0 0.656178,0 0.656178,0 0.656178,0 0.656177,0 0.656178,0 0.656178,0 0.656177,0 0.656178,0 0.656178,0 0.656178,0 0.656177,0 0.656178,0 0.656178,0 0.656177,0 0.656178,0 0.656178,0 0.656177,0 0.656178,0 0.656178,0 0.656178,0 0.656177,0 0.656178,0 0.656178,0 0.656177,0 0.656178,0 0.656178,0 0.656178,0 0.656177,0 0.656178,0 0.656178,0 0.656177,0 0.656178,0 0.656178,0 0.656178,0 0.656177,0 0.656178,0 0.656178,0 0.656177,0 0.656174,0 0.65618,0 0.65618,0 0.65618,0 0.65618,0 0.65617,0 0.65618,0 0.65618,0 0.65618,0 0.65617,0 0.65618,0 0.65618,0 0.65618,0 0.65617,0 0.65618,0 0.65618,0 0.65618,0 0.65617,0 0.65618,0 0.65618,0 0.65618,0 0.65618,0 0.65617,0 0,0.01293 0,0 -0.65617,0.0069 -0.65618,0.0197 -0.65618,0.03753 -0.65618,0.06191 -0.65618,0.09132 -0.65617,0.120817 -0.65618,0.143045 -0.65618,0.150936 -0.65618,0.140944 -0.65617,0.114761 -0.65618,0.07831 -0.65618,0.03881 -0.65618,0.0024 -0.65617,-0.02651 -0.65618,-0.04424 -0.65618,-0.04841 -0.65618,-0.03989 -0.65617,-0.02451 -0.65618,-0.01152 -0.65618,-0.0084 -0.65618,-0.01567 -0.65618,-0.02537 -0.656174,-0.02615 -0.656177,-0.01045 -0.656178,0.0209 -0.656178,0.0603 -0.656177,0.09951 -0.656178,0.134803 -0.656178,0.166607 -0.656178,0.193923 -0.656177,0.209 -0.656178,0.19833 -0.656178,0.151138 -0.656177,0.06973 -0.656178,-0.02648 -0.656178,-0.107609 -0.656178,-0.14696 -0.656177,-0.133223 -0.656178,-0.07371 -0.656178,0.01222 -0.656177,0.104424 -0.656178,0.191076 -0.656178,0.271829 -0.656178,0.35532 -0.656177,0.453009 -0.656178,0.571062 -0.656178,0.702168 -0.656177,0.821224 -0.656178,0.889929 -0.656178,0.872273 -0.656177,0.755352 -0.656178,0.564126 -0.656178,0.360076 -0.656178,0.222489 -0.656177,0.22034 -0.656178,0.38644 -0.656178,0.702876 -0.656177,1.102079 -0.656178,1.483901 -0.656178,1.745453 -0.656178,1.81668 -0.656177,1.69159 -0.656178,1.44438 -0.656178,1.221551 -0.656177,1.204708 -0.656178,1.545939 -0.656178,2.290445 -0.656177,3.317486 -0.656178,4.339852 -0.656178,4.988824 -0.656178,4.969744 -0.656177,4.220148 -0.656178,2.976523 -0.656178,1.690667 -0.656177,0.824959 -0.656178,0.640388 -0.656178,1.104099 -0.656178,1.965277 -0.656177,2.933754 -0.656178,3.832016 -0.656178,4.62646 -0.656177,5.34611 -0.656178,5.98111 -0.656178,6.45556 -0.656177,6.69289 -0.656178,6.70927 -0.656178,6.64723 -0.656178,6.71431 -0.656177,7.06694 -0.656178,7.71957 -0.656178,8.53588 -0.656177,9.30023 -0.656178,9.82063 -0.656178,10.00318 -0.656178,9.86403 -0.656177,9.48215 -0.656178,8.92666 -0.656178,8.20029 -0.656177,7.22815 -0.656178,5.89329 -0.656178,4.09455 -0.656177,1.79027 -0.656178,-0.99624 -0.656178,-4.20251 -0.656178,-7.74838 L 45.062387,234.94594 44.406209,219.6445 43.750031,200.89261 43.093854,179.48086 42.437676,156.6422 41.781498,133.86927 41.12532,112.6154 40.469143,94.00008 39.812965,78.634252 39.156787,66.612309 38.50061,57.636825 37.844432,51.197851 37.188254,46.733367 36.532077,43.732174 35.875899,41.777215 35.219721,40.548603 34.563543,39.808912 33.907366,39.385795 33.251188,39.157709 32.59501,39.042783 l -0.656177,-0.05341 -0.656178,-0.02165 z" /></g></g><g
       id="g236"><g
         clip-path="url(#clipPath240)"
         id="g238"><path
           id="path244"
           style="fill:#6acc65;fill-opacity:0.25;fill-rule:nonzero;stroke:#6acc65;stroke-width:0.30000001;stroke-linecap:butt;stroke-linejoin:round;stroke-miterlimit:10;stroke-dasharray:none;stroke-opacity:0.25"
           d="m 30.22038,39.005187 0,-0.05518 0.893914,0 0.893913,0 0.893913,0 0.893913,0 0.893913,0 0.893913,0 0.893913,0 0.893913,0 0.893913,0 0.893913,0 0.893914,0 0.893913,0 0.893913,0 0.893913,0 0.893913,0 0.893913,0 0.893913,0 0.893913,0 0.893913,0 0.893913,0 0.893914,0 0.893913,0 0.893913,0 0.893913,0 0.893913,0 0.893913,0 0.893913,0 0.893913,0 0.893913,0 0.893913,0 0.893914,0 0.893913,0 0.893913,0 0.893913,0 0.893913,0 0.893913,0 0.893913,0 0.893913,0 0.893913,0 0.893914,0 0.893913,0 0.893913,0 0.893913,0 0.893913,0 0.893913,0 0.893913,0 0.893913,0 0.893913,0 0.893913,0 0.893914,0 0.893913,0 0.893913,0 0.893913,0 0.893913,0 0.893913,0 0.893913,0 0.893913,0 0.893913,0 0.893913,0 0.893914,0 0.893913,0 0.893913,0 0.893913,0 0.893913,0 0.893913,0 0.893913,0 0.893913,0 0.893913,0 0.893914,0 0.893913,0 0.893913,0 0.893913,0 0.893913,0 0.893913,0 0.893913,0 0.893913,0 0.893913,0 0.893913,0 0.893918,0 0.89391,0 0.89391,0 0.89392,0 0.89391,0 0.89391,0 0.89391,0 0.89392,0 0.89391,0 0.89391,0 0.89392,0 0.89391,0 0.89391,0 0.89392,0 0.89391,0 0.89391,0 0.89392,0 0.89391,0 0.89391,0 0.89391,0 0.89392,0 0.89391,0 0.89391,0 0.89392,0 0.89391,0 0.89391,0 0.89392,0 0.89391,0 0.89391,0 0.89392,0 0.89391,0 0.89391,0 0.89391,0 0.89392,0 0.89391,0 0.89391,0 0.89392,0 0.89391,0 0.89391,0 0.89392,0 0.89391,0 0.89391,0 0.89392,0 0.89391,0 0.89391,0 0.89391,0 0.89392,0 0.89391,0 0.89391,0 0,0.02136 0,0 -0.89391,6.5e-4 -0.89391,0.02358 -0.89392,0.05013 -0.89391,0.08266 -0.89391,0.112859 -0.89391,0.125191 -0.89392,0.106005 -0.89391,0.05553 -0.89391,-0.0068 -0.89392,-0.05125 -0.89391,-0.05585 -0.89391,-0.02174 -0.89392,0.02674 -0.89391,0.05667 -0.89391,0.04656 -0.89392,-0.0011 -0.89391,-0.06256 -0.89391,-0.108843 -0.89391,-0.122694 -0.89392,-0.104771 -0.89391,-0.06644 -0.89391,-0.01769 -0.89392,0.03935 -0.89391,0.106901 -0.89391,0.181358 -0.89392,0.245339 -0.89391,0.271324 -0.89391,0.238625 -0.89392,0.151992 -0.89391,0.04422 -0.89391,-0.04232 -0.89391,-0.07981 -0.89392,-0.06552 -0.89391,-0.01675 -0.89391,0.03765 -0.89392,0.0641 -0.89391,0.03636 -0.89391,-0.04669 -0.89392,-0.153555 -0.89391,-0.236208 -0.89391,-0.25981 -0.89392,-0.220281 -0.89391,-0.136632 -0.89391,-0.02979 -0.89391,0.09072 -0.89392,0.222417 -0.89391,0.355244 -0.89391,0.462746 -0.893918,0.510074 -0.893913,0.475596 -0.893913,0.369216 -0.893913,0.230545 -0.893913,0.106741 -0.893913,0.02791 -0.893913,-0.0017 -0.893913,0.0044 -0.893913,0.02777 -0.893913,0.05044 -0.893914,0.0567 -0.893913,0.03626 -0.893913,-0.0076 -0.893913,-0.05003 -0.893913,-0.04672 -0.893913,0.04958 -0.893913,0.261977 -0.893913,0.569708 -0.893913,0.912436 -0.893914,1.217154 -0.893913,1.424684 -0.893913,1.493984 -0.893913,1.392286 -0.893913,1.103033 -0.893913,0.663145 -0.893913,0.191094 -0.893913,-0.146946 -0.893913,-0.22913 -0.893913,-0.05253 -0.893914,0.284251 -0.893913,0.680141 -0.893913,1.121846 -0.893913,1.68469 -0.893913,2.449501 -0.893913,3.41682 -0.893913,4.496708 -0.893913,5.576993 -0.893913,6.591849 -0.893913,7.504 -0.893914,8.206106 -0.893913,8.465484 -0.893913,8.03547 -0.893913,6.88329 -0.893913,5.31152 -0.893913,3.81955 -0.893913,2.82204 -0.893913,2.48511 -0.893913,2.77511 -0.893914,3.58206 -0.893913,4.77705 -0.893913,6.22794 -0.893913,7.84422 -0.893913,9.60483 -0.893913,11.46774 -0.893913,13.19239 -0.893913,14.26669 -0.893913,14.08365 -0.893913,12.27112 -0.893914,8.9022 -0.893913,4.41196 -0.893913,-0.67778 L 45.416903,237.5384 44.52299,226.38333 43.629077,210.47692 42.735164,190.71388 41.841251,168.44364 40.947338,145.26036 40.053425,122.69187 39.159511,101.9728 38.265598,83.977966 37.371685,69.240876 36.477772,57.958011 35.583859,49.972448 34.689946,44.805482 33.796033,41.778118 32.90212,40.184014 32.008207,39.433998 31.114294,39.120343 30.22038,39.005187 Z" /></g></g><g
       id="g246"><g
         clip-path="url(#clipPath250)"
         id="g248"><path
           id="path254"
           style="fill:none;stroke:#4878cf;stroke-width:1.75;stroke-linecap:round;stroke-linejoin:round;stroke-miterlimit:10;stroke-dasharray:none;stroke-opacity:1"
           d="m 31.282655,38.967722 1.312355,0.07506 0.656178,0.114926 0.656178,0.228086 0.656177,0.423117 0.656178,0.739691 0.656178,1.228612 0.656178,1.954959 0.656177,3.001193 0.656178,4.464484 0.656178,6.438974 0.656177,8.975484 0.656178,12.021943 0.656178,15.365828 1.312355,39.869191 1.968533,67.02334 0.656178,18.75189 0.656178,15.30144 0.656177,11.51771 0.656178,7.74838 0.656178,4.20251 0.656178,0.99624 0.656177,-1.79027 0.656178,-4.09455 0.656178,-5.89329 1.312355,-15.42844 1.968533,-28.27284 1.968533,-29.12404 1.312356,-16.25545 2.624711,-27.13775 1.968533,-19.12956 1.312355,-9.97257 0.656178,-3.832015 0.656177,-2.933754 0.656178,-1.965277 0.656178,-1.104099 0.656178,-0.640388 0.656177,-0.824959 0.656178,-1.690667 0.656178,-2.976523 0.656177,-4.220148 1.968534,-14.29842 0.656177,-3.317486 0.656178,-2.290445 0.656178,-1.545939 1.312355,-2.426259 1.312355,-3.13597 1.312356,-3.562133 0.656178,-1.483901 0.656177,-1.102079 0.656178,-0.702876 0.656178,-0.38644 1.312355,-0.442829 0.656178,-0.360076 0.656178,-0.564126 1.312355,-1.627625 1.312355,-1.711153 1.312356,-1.27323 1.312355,-0.808329 1.312356,-0.462905 1.312355,-0.116641 1.312355,0.206936 1.312356,0.254569 1.312355,-0.04325 1.968533,-0.558468 1.968534,-0.495333 1.312355,-0.159809 1.968529,0.01571 7.21796,0.203396 1.96853,-0.334011 2.62471,-0.506118 1.96854,-0.11913 0.65617,-0.0069 0,0" /></g></g><g
       id="g256"><g
         clip-path="url(#clipPath260)"
         id="g258"><path
           id="path264"
           style="fill:none;stroke:#6acc65;stroke-width:1.75;stroke-linecap:round;stroke-linejoin:round;stroke-miterlimit:10;stroke-dasharray:none;stroke-opacity:1"
           d="m 30.22038,39.005187 0.893914,0.115156 0.893913,0.313655 0.893913,0.750016 0.893913,1.594104 0.893913,3.027364 0.893913,5.166966 0.893913,7.985563 0.893913,11.282865 0.893913,14.73709 0.893913,17.994834 1.787827,43.28756 1.787826,45.45352 0.893913,19.76304 0.893913,15.90641 0.893913,11.15507 0.893913,5.96545 0.893913,0.67778 0.893913,-4.41196 0.893914,-8.9022 0.893913,-12.27112 2.681739,-41.54273 0.893913,-11.46774 0.893913,-9.60483 0.893913,-7.84422 0.893913,-6.22794 0.893913,-4.77705 0.893914,-3.58206 2.681739,-8.08226 0.893913,-3.81955 0.893913,-5.31152 0.893913,-6.88329 3.575653,-32.211058 0.893913,-6.591849 0.893913,-5.576993 0.893913,-4.496708 0.893913,-3.41682 0.893913,-2.449501 0.893913,-1.68469 0.893913,-1.121846 0.893913,-0.680141 0.893914,-0.284251 0.893913,0.05253 1.787826,0.376076 0.893913,-0.191094 0.893913,-0.663145 0.893913,-1.103033 3.575653,-5.528108 0.893913,-0.912436 0.893913,-0.569708 0.893913,-0.261977 1.787826,-0.0029 1.787826,0.05759 7.151305,-0.30853 0.893913,-0.230545 1.787826,-0.844812 1.787828,-0.97282 0.89391,-0.355244 0.89392,-0.222417 0.89391,-0.09072 1.78782,0.166424 3.57566,0.869854 1.78782,0.01034 2.68174,-0.085 2.68174,0.187649 1.78783,-0.196212 3.57565,-0.936646 1.78783,-0.14625 1.78782,0.08413 3.57565,0.398873 2.68174,-0.102139 1.78783,-0.005 2.68174,0.113934 1.78783,-0.16154 2.68173,-0.320707 2.68174,-0.07437 0,0" /></g></g><g
       id="g266"><text
         id="text268"
         style="font-variant:normal;font-weight:normal;font-size:11px;font-family:'Liberation Sans';-inkscape-font-specification:LiberationSans;writing-mode:lr-tb;fill:#262626;fill-opacity:1;fill-rule:nonzero;stroke:none"
         transform="matrix(1,0,0,-1,100.1199,265.45)"><tspan
           id="tspan270"
           y="0"
           x="0 7.3369999 13.453 19.569 22.011 24.452999">Public</tspan></text>
<path
         id="path272"
         style="fill:#eaeaf2;fill-opacity:1;fill-rule:nonzero;stroke:none"
         d="m 250.80772,38.95 210.24605,0 0,221.5 -210.24605,0 0,-221.5 z" /></g><g
       id="g274"><g
         clip-path="url(#clipPath278)"
         id="g276"><path
           id="path282"
           style="fill:none;stroke:#ffffff;stroke-width:1;stroke-linecap:round;stroke-linejoin:round;stroke-miterlimit:10;stroke-dasharray:none;stroke-opacity:1"
           d="m 250.80772,38.95 0,221.5" /></g></g><g
       id="g284"><path
         id="path286"
         style="fill:#262626;fill-opacity:1;fill-rule:nonzero;stroke:#262626;stroke-width:1;stroke-linecap:butt;stroke-linejoin:round;stroke-miterlimit:10;stroke-dasharray:none;stroke-opacity:1"
         d="m 250.80772,38.95 0,0" /><text
         id="text288"
         style="font-variant:normal;font-weight:normal;font-size:10px;font-family:'Liberation Sans';-inkscape-font-specification:LiberationSans;writing-mode:lr-tb;fill:#262626;fill-opacity:1;fill-rule:nonzero;stroke:none"
         transform="matrix(1,0,0,-1,248.02647,24.7)"><tspan
           id="tspan290"
           y="0"
           x="0">0</tspan></text>
</g><g
       id="g292"><g
         clip-path="url(#clipPath296)"
         id="g294"><path
           id="path300"
           style="fill:none;stroke:#ffffff;stroke-width:1;stroke-linecap:round;stroke-linejoin:round;stroke-miterlimit:10;stroke-dasharray:none;stroke-opacity:1"
           d="m 292.85693,38.95 0,221.5" /></g></g><g
       id="g302"><path
         id="path304"
         style="fill:#262626;fill-opacity:1;fill-rule:nonzero;stroke:#262626;stroke-width:1;stroke-linecap:butt;stroke-linejoin:round;stroke-miterlimit:10;stroke-dasharray:none;stroke-opacity:1"
         d="m 292.85693,38.95 0,0" /><text
         id="text306"
         style="font-variant:normal;font-weight:normal;font-size:10px;font-family:'Liberation Sans';-inkscape-font-specification:LiberationSans;writing-mode:lr-tb;fill:#262626;fill-opacity:1;fill-rule:nonzero;stroke:none"
         transform="matrix(1,0,0,-1,284.79443,24.7)"><tspan
           id="tspan308"
           y="0"
           x="0 5.5599999 11.12">40k</tspan></text>
</g><g
       id="g310"><g
         clip-path="url(#clipPath314)"
         id="g312"><path
           id="path318"
           style="fill:none;stroke:#ffffff;stroke-width:1;stroke-linecap:round;stroke-linejoin:round;stroke-miterlimit:10;stroke-dasharray:none;stroke-opacity:1"
           d="m 334.90614,38.95 0,221.5" /></g></g><g
       id="g320"><path
         id="path322"
         style="fill:#262626;fill-opacity:1;fill-rule:nonzero;stroke:#262626;stroke-width:1;stroke-linecap:butt;stroke-linejoin:round;stroke-miterlimit:10;stroke-dasharray:none;stroke-opacity:1"
         d="m 334.90614,38.95 0,0" /><text
         id="text324"
         style="font-variant:normal;font-weight:normal;font-size:10px;font-family:'Liberation Sans';-inkscape-font-specification:LiberationSans;writing-mode:lr-tb;fill:#262626;fill-opacity:1;fill-rule:nonzero;stroke:none"
         transform="matrix(1,0,0,-1,326.84364,24.7)"><tspan
           id="tspan326"
           y="0"
           x="0 5.5599999 11.12">80k</tspan></text>
</g><g
       id="g328"><g
         clip-path="url(#clipPath332)"
         id="g330"><path
           id="path336"
           style="fill:none;stroke:#ffffff;stroke-width:1;stroke-linecap:round;stroke-linejoin:round;stroke-miterlimit:10;stroke-dasharray:none;stroke-opacity:1"
           d="m 376.95535,38.95 0,221.5" /></g></g><g
       id="g338"><path
         id="path340"
         style="fill:#262626;fill-opacity:1;fill-rule:nonzero;stroke:#262626;stroke-width:1;stroke-linecap:butt;stroke-linejoin:round;stroke-miterlimit:10;stroke-dasharray:none;stroke-opacity:1"
         d="m 376.95535,38.95 0,0" /><text
         id="text342"
         style="font-variant:normal;font-weight:normal;font-size:10px;font-family:'Liberation Sans';-inkscape-font-specification:LiberationSans;writing-mode:lr-tb;fill:#262626;fill-opacity:1;fill-rule:nonzero;stroke:none"
         transform="matrix(1,0,0,-1,366.1116,24.7)"><tspan
           id="tspan344"
           y="0"
           x="0 5.5599999 11.12 16.68">120k</tspan></text>
</g><g
       id="g346"><g
         clip-path="url(#clipPath350)"
         id="g348"><path
           id="path354"
           style="fill:none;stroke:#ffffff;stroke-width:1;stroke-linecap:round;stroke-linejoin:round;stroke-miterlimit:10;stroke-dasharray:none;stroke-opacity:1"
           d="m 419.00456,38.95 0,221.5" /></g></g><g
       id="g356"><path
         id="path358"
         style="fill:#262626;fill-opacity:1;fill-rule:nonzero;stroke:#262626;stroke-width:1;stroke-linecap:butt;stroke-linejoin:round;stroke-miterlimit:10;stroke-dasharray:none;stroke-opacity:1"
         d="m 419.00456,38.95 0,0" /><text
         id="text360"
         style="font-variant:normal;font-weight:normal;font-size:10px;font-family:'Liberation Sans';-inkscape-font-specification:LiberationSans;writing-mode:lr-tb;fill:#262626;fill-opacity:1;fill-rule:nonzero;stroke:none"
         transform="matrix(1,0,0,-1,408.16081,24.7)"><tspan
           id="tspan362"
           y="0"
           x="0 5.5599999 11.12 16.68">160k</tspan></text>
</g><g
       id="g364"><g
         clip-path="url(#clipPath368)"
         id="g366"><path
           id="path372"
           style="fill:none;stroke:#ffffff;stroke-width:1;stroke-linecap:round;stroke-linejoin:round;stroke-miterlimit:10;stroke-dasharray:none;stroke-opacity:1"
           d="m 461.05377,38.95 0,221.5" /></g></g><g
       id="g374"><path
         id="path376"
         style="fill:#262626;fill-opacity:1;fill-rule:nonzero;stroke:#262626;stroke-width:1;stroke-linecap:butt;stroke-linejoin:round;stroke-miterlimit:10;stroke-dasharray:none;stroke-opacity:1"
         d="m 461.05377,38.95 0,0" /><text
         id="text378"
         style="font-variant:normal;font-weight:normal;font-size:10px;font-family:'Liberation Sans';-inkscape-font-specification:LiberationSans;writing-mode:lr-tb;fill:#262626;fill-opacity:1;fill-rule:nonzero;stroke:none"
         transform="matrix(1,0,0,-1,450.21002,24.7)"><tspan
           id="tspan380"
           y="0"
           x="0 5.5599999 11.12 16.68">200k</tspan></text>
<text
         id="text382"
         style="font-variant:normal;font-weight:normal;font-size:11px;font-family:'Liberation Sans';-inkscape-font-specification:LiberationSans;writing-mode:lr-tb;fill:#262626;fill-opacity:1;fill-rule:nonzero;stroke:none"
         transform="matrix(1,0,0,-1,274.51668,9.48125)"><tspan
           id="tspan384"
           y="0"
           x="0 9.1630001 15.279 21.395 27.511 30.569 37.905998 44.021999 47.685001 53.800999 56.243 62.359001 68.474998 73.974998 77.032997 80.695999 86.811996 90.474998 93.532997 99.649002 102.707 105.765 111.881 115.544 118.602 124.718 130.834 133.892 141.229 147.345 153.461 157.12399">Mean Earnings ($) after 10 Years</tspan></text>
</g><g
       id="g386"><g
         clip-path="url(#clipPath390)"
         id="g388"><path
           id="path394"
           style="fill:none;stroke:#ffffff;stroke-width:1;stroke-linecap:round;stroke-linejoin:round;stroke-miterlimit:10;stroke-dasharray:none;stroke-opacity:1"
           d="m 250.80772,38.95 210.24605,0" /></g></g><g
       id="g396"><path
         id="path398"
         style="fill:#262626;fill-opacity:1;fill-rule:nonzero;stroke:#262626;stroke-width:1;stroke-linecap:butt;stroke-linejoin:round;stroke-miterlimit:10;stroke-dasharray:none;stroke-opacity:1"
         d="m 250.80772,38.95 0,0" /></g><g
       id="g400"><g
         clip-path="url(#clipPath404)"
         id="g402"><path
           id="path408"
           style="fill:none;stroke:#ffffff;stroke-width:1;stroke-linecap:round;stroke-linejoin:round;stroke-miterlimit:10;stroke-dasharray:none;stroke-opacity:1"
           d="m 250.80772,75.866667 210.24605,0" /></g></g><g
       id="g410"><path
         id="path412"
         style="fill:#262626;fill-opacity:1;fill-rule:nonzero;stroke:#262626;stroke-width:1;stroke-linecap:butt;stroke-linejoin:round;stroke-miterlimit:10;stroke-dasharray:none;stroke-opacity:1"
         d="m 250.80772,75.866667 0,0" /></g><g
       id="g414"><g
         clip-path="url(#clipPath418)"
         id="g416"><path
           id="path422"
           style="fill:none;stroke:#ffffff;stroke-width:1;stroke-linecap:round;stroke-linejoin:round;stroke-miterlimit:10;stroke-dasharray:none;stroke-opacity:1"
           d="m 250.80772,112.78333 210.24605,0" /></g></g><g
       id="g424"><path
         id="path426"
         style="fill:#262626;fill-opacity:1;fill-rule:nonzero;stroke:#262626;stroke-width:1;stroke-linecap:butt;stroke-linejoin:round;stroke-miterlimit:10;stroke-dasharray:none;stroke-opacity:1"
         d="m 250.80772,112.78333 0,0" /></g><g
       id="g428"><g
         clip-path="url(#clipPath432)"
         id="g430"><path
           id="path436"
           style="fill:none;stroke:#ffffff;stroke-width:1;stroke-linecap:round;stroke-linejoin:round;stroke-miterlimit:10;stroke-dasharray:none;stroke-opacity:1"
           d="m 250.80772,149.7 210.24605,0" /></g></g><g
       id="g438"><path
         id="path440"
         style="fill:#262626;fill-opacity:1;fill-rule:nonzero;stroke:#262626;stroke-width:1;stroke-linecap:butt;stroke-linejoin:round;stroke-miterlimit:10;stroke-dasharray:none;stroke-opacity:1"
         d="m 250.80772,149.7 0,0" /></g><g
       id="g442"><g
         clip-path="url(#clipPath446)"
         id="g444"><path
           id="path450"
           style="fill:none;stroke:#ffffff;stroke-width:1;stroke-linecap:round;stroke-linejoin:round;stroke-miterlimit:10;stroke-dasharray:none;stroke-opacity:1"
           d="m 250.80772,186.61667 210.24605,0" /></g></g><g
       id="g452"><path
         id="path454"
         style="fill:#262626;fill-opacity:1;fill-rule:nonzero;stroke:#262626;stroke-width:1;stroke-linecap:butt;stroke-linejoin:round;stroke-miterlimit:10;stroke-dasharray:none;stroke-opacity:1"
         d="m 250.80772,186.61667 0,0" /></g><g
       id="g456"><g
         clip-path="url(#clipPath460)"
         id="g458"><path
           id="path464"
           style="fill:none;stroke:#ffffff;stroke-width:1;stroke-linecap:round;stroke-linejoin:round;stroke-miterlimit:10;stroke-dasharray:none;stroke-opacity:1"
           d="m 250.80772,223.53333 210.24605,0" /></g></g><g
       id="g466"><path
         id="path468"
         style="fill:#262626;fill-opacity:1;fill-rule:nonzero;stroke:#262626;stroke-width:1;stroke-linecap:butt;stroke-linejoin:round;stroke-miterlimit:10;stroke-dasharray:none;stroke-opacity:1"
         d="m 250.80772,223.53333 0,0" /></g><g
       id="g470"><g
         clip-path="url(#clipPath474)"
         id="g472"><path
           id="path478"
           style="fill:none;stroke:#ffffff;stroke-width:1;stroke-linecap:round;stroke-linejoin:round;stroke-miterlimit:10;stroke-dasharray:none;stroke-opacity:1"
           d="m 250.80772,260.45 210.24605,0" /></g></g><g
       id="g480"><path
         id="path482"
         style="fill:#262626;fill-opacity:1;fill-rule:nonzero;stroke:#262626;stroke-width:1;stroke-linecap:butt;stroke-linejoin:round;stroke-miterlimit:10;stroke-dasharray:none;stroke-opacity:1"
         d="m 250.80772,260.45 0,0" /></g><g
       id="g484"><g
         clip-path="url(#clipPath488)"
         id="g486"><path
           id="path492"
           style="fill:#4878cf;fill-opacity:0.25;fill-rule:nonzero;stroke:#4878cf;stroke-width:0.30000001;stroke-linecap:butt;stroke-linejoin:round;stroke-miterlimit:10;stroke-dasharray:none;stroke-opacity:0.25"
           d="m 268.16354,39.402364 0,-0.45236 0.39715,0 0.39715,0 0.39715,0 0.39715,0 0.39715,0 0.39715,0 0.39715,0 0.39715,0 0.39715,0 0.39715,0 0.39715,0 0.39715,0 0.39714,0 0.39715,0 0.39715,0 0.39715,0 0.39715,0 0.39715,0 0.39715,0 0.39715,0 0.39715,0 0.39715,0 0.39715,0 0.39715,0 0.39715,0 0.39715,0 0.39715,0 0.39715,0 0.39715,0 0.39715,0 0.39715,0 0.39715,0 0.39715,0 0.39715,0 0.39715,0 0.39715,0 0.39715,0 0.39715,0 0.39715,0 0.39715,0 0.39715,0 0.39715,0 0.39715,0 0.39715,0 0.39715,0 0.39715,0 0.39715,0 0.39715,0 0.39715,0 0.39715,0 0.39715,0 0.39715,0 0.39715,0 0.39715,0 0.39714,0 0.39715,0 0.39715,0 0.39715,0 0.39715,0 0.39715,0 0.39715,0 0.39715,0 0.39715,0 0.39715,0 0.39715,0 0.39715,0 0.39715,0 0.39715,0 0.39715,0 0.39715,0 0.39715,0 0.39715,0 0.39715,0 0.39715,0 0.39715,0 0.39715,0 0.39715,0 0.39715,0 0.39715,0 0.39715,0 0.39715,0 0.39715,0 0.39715,0 0.39715,0 0.39715,0 0.39715,0 0.39715,0 0.39715,0 0.39715,0 0.39715,0 0.39715,0 0.39715,0 0.39715,0 0.39715,0 0.39714,0 0.39715,0 0.39716,0 0.39714,0 0.39715,0 0.39715,0 0.39715,0 0.39715,0 0.39715,0 0.39715,0 0.39715,0 0.39715,0 0.39715,0 0.39715,0 0.39715,0 0.39715,0 0.39715,0 0.39715,0 0.39715,0 0.39715,0 0.39715,0 0.39715,0 0.39715,0 0.39715,0 0.39715,0 0.39715,0 0.39715,0 0.39715,0 0.39715,0 0.39715,0 0.39715,0 0.39715,0 0.39715,0 0,0.721245 0,0 -0.39715,0.481846 -0.39715,0.782857 -0.39715,1.199685 -0.39715,1.753149 -0.39715,2.449611 -0.39715,3.272282 -0.39715,4.173565 -0.39715,5.071322 -0.39715,5.852148 -0.39715,6.383545 -0.39715,6.534799 -0.39715,6.203429 -0.39715,5.341447 -0.39715,3.974333 -0.39715,2.206398 -0.39715,0.209278 -0.39715,-1.805159 -0.39715,-3.621637 -0.39715,-5.059214 -0.39715,-6.000809 -0.39715,-6.407903 -0.39715,-6.318144 -0.39715,-5.828303 -0.39715,-5.068399 -0.39715,-4.174175 -0.39715,-3.264069 -0.39715,-2.424496 -0.39715,-1.704273 -0.39715,-1.116769 -0.39714,-0.647032 -0.39716,-0.260978 -0.39715,0.08558 -0.39714,0.439393 -0.39715,0.843977 -0.39715,1.335497 -0.39715,1.939619 -0.39715,2.669006 -0.39715,3.521076 -0.39715,4.475979 -0.39715,5.494973 -0.39715,6.519623 -0.39715,7.472611 -0.39715,8.261177 -0.39715,8.784389 -0.39715,8.945037 -0.39715,8.666 -0.39715,7.90955 -0.39715,6.69568 -0.39715,5.11483 -0.39715,3.32977 -0.39715,1.5628 -0.39715,0.0681 -0.39715,-0.90751 -0.39715,-1.16902 -0.39715,-0.61284 -0.39715,0.74592 -0.39715,2.76536 -0.39715,5.19066 -0.39715,7.68834 -0.39715,9.89567 -0.39715,11.47737 -0.39715,12.17955 -0.39715,11.87151 -0.39715,10.56694 -0.39715,8.42084 -0.39715,5.70183 -0.39715,2.74622 -0.39715,-0.0974 -0.39715,-2.5221 -0.39715,-4.30493 -0.39715,-5.33219 -0.39715,-5.60438 -0.39714,-5.22322 -0.39715,-4.36461 -0.39715,-3.24313 -0.39715,-2.07382 -0.39715,-1.03693 -0.39715,-0.25073 -0.39715,0.2431 -0.39715,0.47884 -0.39715,0.55045 -0.39715,0.58237 -0.39715,0.6936 -0.39715,0.96309 -0.39715,1.40486 -0.39715,1.95926 -0.39715,2.50308 -0.39715,2.8763 -0.39715,2.91926 -0.39715,2.51113 -0.39715,1.60053 -0.39715,0.22107 -0.39715,-1.51155 -0.39715,-3.4198 -0.39715,-5.29679 -0.39715,-6.94347 -0.39715,-8.20252 -0.39715,-8.98256 -0.39715,-9.26855 -0.39715,-9.1179 -0.39715,-8.64435 -0.39715,-7.99347 -0.39715,-7.31497 -0.39715,-6.73668 -0.39715,-6.34458 -0.39715,-6.1719 -0.39715,-6.19866 -0.39715,-6.361301 -0.39715,-6.569696 -0.39715,-6.727898 -0.39715,-6.753954 -0.39715,-6.594771 -0.39715,-6.233334 -0.39715,-5.687682 -0.39714,-5.00303 -0.39715,-4.239846 -0.39715,-3.461186 -0.39715,-2.722098 -0.39715,-2.062858 -0.39715,-1.506428 -0.39715,-1.059509 -0.39715,-0.715842 -0.39715,-0.460334 -0.39715,-0.272803 -0.39715,-0.130591 -0.39715,-0.0098 -0.39715,0.114476 z" /></g></g><g
       id="g494"><g
         clip-path="url(#clipPath498)"
         id="g496"><path
           id="path502"
           style="fill:#6acc65;fill-opacity:0.25;fill-rule:nonzero;stroke:#6acc65;stroke-width:0.30000001;stroke-linecap:butt;stroke-linejoin:round;stroke-miterlimit:10;stroke-dasharray:none;stroke-opacity:0.25"
           d="m 265.24441,39.006392 0,-0.05639 0.56396,0 0.56398,0 0.56397,0 0.56397,0 0.56397,0 0.56397,0 0.56397,0 0.56397,0 0.56397,0 0.56397,0 0.56397,0 0.56397,0 0.56397,0 0.56397,0 0.56397,0 0.56397,0 0.56397,0 0.56397,0 0.56397,0 0.56397,0 0.56397,0 0.56397,0 0.56397,0 0.56398,0 0.56397,0 0.56397,0 0.56397,0 0.56397,0 0.56397,0 0.56397,0 0.56397,0 0.56397,0 0.56397,0 0.56397,0 0.56397,0 0.56397,0 0.56397,0 0.56397,0 0.56397,0 0.56397,0 0.56397,0 0.56397,0 0.56397,0 0.56397,0 0.56397,0 0.56398,0 0.56397,0 0.56397,0 0.56397,0 0.56397,0 0.56397,0 0.56397,0 0.56397,0 0.56397,0 0.56397,0 0.56397,0 0.56397,0 0.56397,0 0.56397,0 0.56397,0 0.56397,0 0.56397,0 0.56397,0 0.56397,0 0.56397,0 0.56397,0 0.56397,0 0.56398,0 0.56397,0 0.56397,0 0.56397,0 0.56397,0 0.56397,0 0.56397,0 0.56397,0 0.56397,0 0.56397,0 0.56397,0 0.56397,0 0.56397,0 0.56397,0 0.56397,0 0.56397,0 0.56397,0 0.56397,0 0.56397,0 0.56397,0 0.56397,0 0.56397,0 0.56398,0 0.56397,0 0.56397,0 0.56397,0 0.56397,0 0.56397,0 0.56397,0 0.56397,0 0.56397,0 0.56397,0 0.56397,0 0.56397,0 0.56397,0 0.56397,0 0.56397,0 0.56397,0 0.56397,0 0.56397,0 0.56397,0 0.56397,0 0.56397,0 0.56397,0 0.56397,0 0.56398,0 0.56397,0 0.56397,0 0.56397,0 0.56397,0 0.56397,0 0.56397,0 0.56397,0 0.56397,0 0.56397,0 0.56397,0 0.56397,0 0.56397,0 0.56397,0 0.56397,0 0,0.03267 0,0 -0.56397,-0.0093 -0.56397,3.6e-5 -0.56397,0.0071 -0.56397,0.01363 -0.56397,0.02048 -0.56397,0.02798 -0.56397,0.03599 -0.56397,0.04395 -0.56397,0.05097 -0.56397,0.05595 -0.56397,0.05777 -0.56397,0.05552 -0.56397,0.04873 -0.56397,0.03754 -0.56398,0.02284 -0.56397,0.0062 -0.56397,-0.01033 -0.56397,-0.02408 -0.56397,-0.03215 -0.56397,-0.03109 -0.56397,-0.01651 -0.56397,0.01761 -0.56397,0.07998 -0.56397,0.182944 -0.56397,0.34332 -0.56397,0.582341 -0.56397,0.924409 -0.56397,1.394122 -0.56397,2.011374 -0.56397,2.784808 -0.56397,3.704504 -0.56397,4.735368 -0.56397,5.813191 -0.56397,6.845292 -0.56397,7.717121 -0.56397,8.305058 -0.56397,8.494137 -0.56398,8.197953 -0.56397,7.37691 -0.56397,6.05089 -0.56397,4.30274 -0.56397,2.27129 -0.56397,0.13378 -0.56397,-1.91911 -0.56397,-3.71128 -0.56397,-5.10706 -0.56397,-6.02914 -0.56397,-6.465465 -0.56397,-6.463367 -0.56397,-6.112998 -0.56397,-5.52369 -0.56397,-4.799087 -0.56397,-4.01636 -0.56397,-3.213651 -0.56397,-2.38761 -0.56397,-1.500587 -0.56397,-0.49521 -0.56397,0.686713 -0.56397,2.084244 -0.56398,3.699185 -0.56397,5.482513 -0.56397,7.328087 -0.56397,9.076274 -0.56397,10.529449 -0.56397,11.47947 -0.56397,11.74425 -0.56397,11.20704 -0.56397,9.84931 -0.56397,7.76803 -0.56397,5.17035 -0.56397,2.34438 -0.56397,-0.38871 -0.56397,-2.73058 -0.56397,-4.45634 -0.56397,-5.44795 -0.56397,-5.70343 -0.56397,-5.32189 -0.56397,-4.47009 -0.56397,-3.34086 -0.56397,-2.11371 -0.56397,-0.92608 -0.56398,0.14026 -0.56397,1.05793 -0.56397,1.84095 -0.56397,2.52545 -0.56397,3.14962 -0.56397,3.73758 -0.56397,4.28994 -0.56397,4.78193 -0.56397,5.16846 -0.56397,5.39388 -0.56397,5.40382 -0.56397,5.1566 -0.56397,4.6317 -0.56397,3.83388 -0.56397,2.7927 -0.56397,1.55745 -0.56397,0.18928 -0.56397,-1.24789 -0.56397,-2.69531 -0.56397,-4.10452 -0.56397,-5.43866 -0.56397,-6.67008 -0.56398,-7.7755 -0.56397,-8.73079 -0.56397,-9.50758 -0.56397,-10.0732 -0.56397,-10.39455 -0.56397,-10.44487 -0.56397,-10.21158 -0.56397,-9.702563 -0.56397,-8.949056 -0.56397,-8.003756 -0.56397,-6.934693 -0.56397,-5.816184 -0.56397,-4.719051 -0.56397,-3.70224 -0.56397,-2.807414 -0.56397,-2.057128 -0.56397,-1.456275 -0.56397,-0.995847 -0.56397,-0.657752 -0.56397,-0.419558 -0.56397,-0.258373 -0.56397,-0.153461 -0.56398,-0.08763 -0.56396,-0.0476 z" /></g></g><g
       id="g504"><g
         clip-path="url(#clipPath508)"
         id="g506"><path
           id="path512"
           style="fill:none;stroke:#4878cf;stroke-width:1.75;stroke-linecap:round;stroke-linejoin:round;stroke-miterlimit:10;stroke-dasharray:none;stroke-opacity:1"
           d="m 268.16354,39.402364 0.39715,-0.114476 0.39715,0.0098 0.39715,0.130591 0.39715,0.272803 0.39715,0.460334 0.39715,0.715842 0.39715,1.059509 0.39715,1.506428 0.39715,2.062858 0.7943,6.183284 0.79429,9.242876 1.19145,18.515787 2.3829,38.78341 1.19145,20.39622 1.19145,25.75572 1.19145,26.45363 0.7943,12.24026 0.39715,3.41981 0.39715,1.51155 0.39715,-0.22107 0.39715,-1.60053 0.7943,-5.43039 0.7943,-5.37938 0.7943,-3.36412 0.7943,-1.65669 1.19145,-1.61166 0.39715,-0.2431 0.39715,0.25073 0.39715,1.03693 0.39715,2.07382 0.39715,3.24313 0.79429,9.58783 1.19145,15.2415 0.39715,2.5221 0.39715,0.0974 0.39715,-2.74622 0.39715,-5.70183 0.7943,-18.98778 1.5886,-45.4241 0.39715,-7.68834 0.39715,-5.19067 0.39715,-2.76535 0.39715,-0.74592 0.39715,0.61284 0.7943,2.07652 0.39715,-0.0681 0.39715,-1.5628 0.39715,-3.32977 0.39715,-5.11483 0.7943,-14.60523 1.98575,-42.129215 0.7943,-12.014596 0.7943,-7.997055 0.7943,-4.608625 0.39715,-1.335497 0.39715,-0.843977 0.39714,-0.439393 0.39715,-0.08558 0.39716,0.260978 0.39714,0.647032 0.39715,1.116769 0.39715,1.704273 0.39715,2.424496 0.7943,7.438244 0.7943,10.896702 1.5886,23.78607 0.39715,3.621637 0.39715,1.805159 0.39715,-0.209278 0.39715,-2.206398 0.39715,-3.974333 0.7943,-11.544876 1.19145,-18.770492 0.7943,-9.244887 0.7943,-5.721893 0.39715,-1.753149 0.39715,-1.199685 0.39715,-0.782857 0.39715,-0.481846 0,0" /></g></g><g
       id="g514"><g
         clip-path="url(#clipPath518)"
         id="g516"><path
           id="path522"
           style="fill:none;stroke:#6acc65;stroke-width:1.75;stroke-linecap:round;stroke-linejoin:round;stroke-miterlimit:10;stroke-dasharray:none;stroke-opacity:1"
           d="m 265.24441,39.006392 1.12794,0.13523 1.12794,0.411834 0.56397,0.419558 0.56397,0.657752 0.56397,0.995847 0.56397,1.456275 0.56397,2.057128 0.56397,2.807414 0.56397,3.70224 0.56397,4.719051 1.12794,12.750877 1.12794,16.952812 1.69191,30.35901 1.69191,29.97533 1.12795,16.50629 1.12794,12.10874 0.56397,4.10452 0.56397,2.69531 0.56397,1.24789 0.56397,-0.18928 0.56397,-1.55745 0.56397,-2.7927 0.56397,-3.83388 1.12794,-9.7883 2.25588,-20.74809 1.12794,-8.02752 1.12794,-5.67507 0.56397,-1.84095 0.56397,-1.05793 0.56398,-0.14026 0.56397,0.92608 0.56397,2.11371 0.56397,3.34086 1.12794,9.79198 1.12794,11.15138 0.56397,4.45634 0.56397,2.73058 0.56397,0.38871 0.56397,-2.34438 0.56397,-5.17035 0.56397,-7.76803 1.12794,-21.05635 1.69191,-33.753166 1.12794,-16.404361 0.56397,-5.482513 0.56398,-3.699185 0.56397,-2.084244 0.56397,-0.686713 0.56397,0.49521 0.56397,1.500587 0.56397,2.38761 0.56397,3.213651 1.12794,8.815447 1.12794,11.636688 1.69191,18.957969 0.56397,5.10706 0.56397,3.71128 0.56397,1.91911 0.56397,-0.13378 0.56397,-2.27129 0.56397,-4.30274 0.56397,-6.05089 1.12795,-15.57486 1.69191,-24.516316 1.12794,-12.658483 0.56397,-4.735368 0.56397,-3.704504 0.56397,-2.784808 0.56397,-2.011374 0.56397,-1.394122 0.56397,-0.924409 0.56397,-0.582341 0.56397,-0.34332 1.12794,-0.262919 1.69191,0.02999 2.25588,0.06039 2.81986,-0.222398 3.38382,-0.235333 2.25588,-0.01148 0,0" /></g></g><g
       id="g524"><text
         id="text526"
         style="font-variant:normal;font-weight:normal;font-size:11px;font-family:'Liberation Sans';-inkscape-font-specification:LiberationSans;writing-mode:lr-tb;fill:#262626;fill-opacity:1;fill-rule:nonzero;stroke:none"
         transform="matrix(1,0,0,-1,316.75887,265.45)"><tspan
           id="tspan528"
           y="0"
           x="0 7.3369999 11 13.442 18.941999 25.058001 28.115999 34.231998 37.290001 40.348 46.464001 50.126999 53.790001 59.905998 63.569 69.684998 72.742996 75.184998">Private for­profit</tspan></text>
<path
         id="path530"
         style="fill:#eaeaf2;fill-opacity:1;fill-rule:nonzero;stroke:none"
         d="m 491.6342,38.95 210.24604,0 0,221.5 -210.24604,0 0,-221.5 z" /></g><g
       id="g532"><g
         clip-path="url(#clipPath536)"
         id="g534"><path
           id="path540"
           style="fill:none;stroke:#ffffff;stroke-width:1;stroke-linecap:round;stroke-linejoin:round;stroke-miterlimit:10;stroke-dasharray:none;stroke-opacity:1"
           d="m 491.6342,38.95 0,221.5" /></g></g><g
       id="g542"><path
         id="path544"
         style="fill:#262626;fill-opacity:1;fill-rule:nonzero;stroke:#262626;stroke-width:1;stroke-linecap:butt;stroke-linejoin:round;stroke-miterlimit:10;stroke-dasharray:none;stroke-opacity:1"
         d="m 491.6342,38.95 0,0" /><text
         id="text546"
         style="font-variant:normal;font-weight:normal;font-size:10px;font-family:'Liberation Sans';-inkscape-font-specification:LiberationSans;writing-mode:lr-tb;fill:#262626;fill-opacity:1;fill-rule:nonzero;stroke:none"
         transform="matrix(1,0,0,-1,488.85295,24.7)"><tspan
           id="tspan548"
           y="0"
           x="0">0</tspan></text>
</g><g
       id="g550"><g
         clip-path="url(#clipPath554)"
         id="g552"><path
           id="path558"
           style="fill:none;stroke:#ffffff;stroke-width:1;stroke-linecap:round;stroke-linejoin:round;stroke-miterlimit:10;stroke-dasharray:none;stroke-opacity:1"
           d="m 533.68341,38.95 0,221.5" /></g></g><g
       id="g560"><path
         id="path562"
         style="fill:#262626;fill-opacity:1;fill-rule:nonzero;stroke:#262626;stroke-width:1;stroke-linecap:butt;stroke-linejoin:round;stroke-miterlimit:10;stroke-dasharray:none;stroke-opacity:1"
         d="m 533.68341,38.95 0,0" /><text
         id="text564"
         style="font-variant:normal;font-weight:normal;font-size:10px;font-family:'Liberation Sans';-inkscape-font-specification:LiberationSans;writing-mode:lr-tb;fill:#262626;fill-opacity:1;fill-rule:nonzero;stroke:none"
         transform="matrix(1,0,0,-1,525.62091,24.7)"><tspan
           id="tspan566"
           y="0"
           x="0 5.5599999 11.12">40k</tspan></text>
</g><g
       id="g568"><g
         clip-path="url(#clipPath572)"
         id="g570"><path
           id="path576"
           style="fill:none;stroke:#ffffff;stroke-width:1;stroke-linecap:round;stroke-linejoin:round;stroke-miterlimit:10;stroke-dasharray:none;stroke-opacity:1"
           d="m 575.73262,38.95 0,221.5" /></g></g><g
       id="g578"><path
         id="path580"
         style="fill:#262626;fill-opacity:1;fill-rule:nonzero;stroke:#262626;stroke-width:1;stroke-linecap:butt;stroke-linejoin:round;stroke-miterlimit:10;stroke-dasharray:none;stroke-opacity:1"
         d="m 575.73262,38.95 0,0" /><text
         id="text582"
         style="font-variant:normal;font-weight:normal;font-size:10px;font-family:'Liberation Sans';-inkscape-font-specification:LiberationSans;writing-mode:lr-tb;fill:#262626;fill-opacity:1;fill-rule:nonzero;stroke:none"
         transform="matrix(1,0,0,-1,567.67012,24.7)"><tspan
           id="tspan584"
           y="0"
           x="0 5.5599999 11.12">80k</tspan></text>
</g><g
       id="g586"><g
         clip-path="url(#clipPath590)"
         id="g588"><path
           id="path594"
           style="fill:none;stroke:#ffffff;stroke-width:1;stroke-linecap:round;stroke-linejoin:round;stroke-miterlimit:10;stroke-dasharray:none;stroke-opacity:1"
           d="m 617.78182,38.95 0,221.5" /></g></g><g
       id="g596"><path
         id="path598"
         style="fill:#262626;fill-opacity:1;fill-rule:nonzero;stroke:#262626;stroke-width:1;stroke-linecap:butt;stroke-linejoin:round;stroke-miterlimit:10;stroke-dasharray:none;stroke-opacity:1"
         d="m 617.78182,38.95 0,0" /><text
         id="text600"
         style="font-variant:normal;font-weight:normal;font-size:10px;font-family:'Liberation Sans';-inkscape-font-specification:LiberationSans;writing-mode:lr-tb;fill:#262626;fill-opacity:1;fill-rule:nonzero;stroke:none"
         transform="matrix(1,0,0,-1,606.93807,24.7)"><tspan
           id="tspan602"
           y="0"
           x="0 5.5599999 11.12 16.68">120k</tspan></text>
</g><g
       id="g604"><g
         clip-path="url(#clipPath608)"
         id="g606"><path
           id="path612"
           style="fill:none;stroke:#ffffff;stroke-width:1;stroke-linecap:round;stroke-linejoin:round;stroke-miterlimit:10;stroke-dasharray:none;stroke-opacity:1"
           d="m 659.83103,38.95 0,221.5" /></g></g><g
       id="g614"><path
         id="path616"
         style="fill:#262626;fill-opacity:1;fill-rule:nonzero;stroke:#262626;stroke-width:1;stroke-linecap:butt;stroke-linejoin:round;stroke-miterlimit:10;stroke-dasharray:none;stroke-opacity:1"
         d="m 659.83103,38.95 0,0" /><text
         id="text618"
         style="font-variant:normal;font-weight:normal;font-size:10px;font-family:'Liberation Sans';-inkscape-font-specification:LiberationSans;writing-mode:lr-tb;fill:#262626;fill-opacity:1;fill-rule:nonzero;stroke:none"
         transform="matrix(1,0,0,-1,648.98728,24.7)"><tspan
           id="tspan620"
           y="0"
           x="0 5.5599999 11.12 16.68">160k</tspan></text>
</g><g
       id="g622"><g
         clip-path="url(#clipPath626)"
         id="g624"><path
           id="path630"
           style="fill:none;stroke:#ffffff;stroke-width:1;stroke-linecap:round;stroke-linejoin:round;stroke-miterlimit:10;stroke-dasharray:none;stroke-opacity:1"
           d="m 701.88024,38.95 0,221.5" /></g></g><g
       id="g632"><path
         id="path634"
         style="fill:#262626;fill-opacity:1;fill-rule:nonzero;stroke:#262626;stroke-width:1;stroke-linecap:butt;stroke-linejoin:round;stroke-miterlimit:10;stroke-dasharray:none;stroke-opacity:1"
         d="m 701.88024,38.95 0,0" /><text
         id="text636"
         style="font-variant:normal;font-weight:normal;font-size:10px;font-family:'Liberation Sans';-inkscape-font-specification:LiberationSans;writing-mode:lr-tb;fill:#262626;fill-opacity:1;fill-rule:nonzero;stroke:none"
         transform="matrix(1,0,0,-1,691.03649,24.7)"><tspan
           id="tspan638"
           y="0"
           x="0 5.5599999 11.12 16.68">200k</tspan></text>
<text
         id="text640"
         style="font-variant:normal;font-weight:normal;font-size:11px;font-family:'Liberation Sans';-inkscape-font-specification:LiberationSans;writing-mode:lr-tb;fill:#262626;fill-opacity:1;fill-rule:nonzero;stroke:none"
         transform="matrix(1,0,0,-1,515.34316,9.48125)"><tspan
           id="tspan642"
           y="0"
           x="0 9.1630001 15.279 21.395 27.511 30.569 37.905998 44.021999 47.685001 53.800999 56.243 62.359001 68.474998 73.974998 77.032997 80.695999 86.811996 90.474998 93.532997 99.649002 102.707 105.765 111.881 115.544 118.602 124.718 130.834 133.892 141.229 147.345 153.461 157.12399">Mean Earnings ($) after 10 Years</tspan></text>
</g><g
       id="g644"><g
         clip-path="url(#clipPath648)"
         id="g646"><path
           id="path652"
           style="fill:none;stroke:#ffffff;stroke-width:1;stroke-linecap:round;stroke-linejoin:round;stroke-miterlimit:10;stroke-dasharray:none;stroke-opacity:1"
           d="m 491.6342,38.95 210.24604,0" /></g></g><g
       id="g654"><path
         id="path656"
         style="fill:#262626;fill-opacity:1;fill-rule:nonzero;stroke:#262626;stroke-width:1;stroke-linecap:butt;stroke-linejoin:round;stroke-miterlimit:10;stroke-dasharray:none;stroke-opacity:1"
         d="m 491.6342,38.95 0,0" /></g><g
       id="g658"><g
         clip-path="url(#clipPath662)"
         id="g660"><path
           id="path666"
           style="fill:none;stroke:#ffffff;stroke-width:1;stroke-linecap:round;stroke-linejoin:round;stroke-miterlimit:10;stroke-dasharray:none;stroke-opacity:1"
           d="m 491.6342,75.866667 210.24604,0" /></g></g><g
       id="g668"><path
         id="path670"
         style="fill:#262626;fill-opacity:1;fill-rule:nonzero;stroke:#262626;stroke-width:1;stroke-linecap:butt;stroke-linejoin:round;stroke-miterlimit:10;stroke-dasharray:none;stroke-opacity:1"
         d="m 491.6342,75.866667 0,0" /></g><g
       id="g672"><g
         clip-path="url(#clipPath676)"
         id="g674"><path
           id="path680"
           style="fill:none;stroke:#ffffff;stroke-width:1;stroke-linecap:round;stroke-linejoin:round;stroke-miterlimit:10;stroke-dasharray:none;stroke-opacity:1"
           d="m 491.6342,112.78333 210.24604,0" /></g></g><g
       id="g682"><path
         id="path684"
         style="fill:#262626;fill-opacity:1;fill-rule:nonzero;stroke:#262626;stroke-width:1;stroke-linecap:butt;stroke-linejoin:round;stroke-miterlimit:10;stroke-dasharray:none;stroke-opacity:1"
         d="m 491.6342,112.78333 0,0" /></g><g
       id="g686"><g
         clip-path="url(#clipPath690)"
         id="g688"><path
           id="path694"
           style="fill:none;stroke:#ffffff;stroke-width:1;stroke-linecap:round;stroke-linejoin:round;stroke-miterlimit:10;stroke-dasharray:none;stroke-opacity:1"
           d="m 491.6342,149.7 210.24604,0" /></g></g><g
       id="g696"><path
         id="path698"
         style="fill:#262626;fill-opacity:1;fill-rule:nonzero;stroke:#262626;stroke-width:1;stroke-linecap:butt;stroke-linejoin:round;stroke-miterlimit:10;stroke-dasharray:none;stroke-opacity:1"
         d="m 491.6342,149.7 0,0" /></g><g
       id="g700"><g
         clip-path="url(#clipPath704)"
         id="g702"><path
           id="path708"
           style="fill:none;stroke:#ffffff;stroke-width:1;stroke-linecap:round;stroke-linejoin:round;stroke-miterlimit:10;stroke-dasharray:none;stroke-opacity:1"
           d="m 491.6342,186.61667 210.24604,0" /></g></g><g
       id="g710"><path
         id="path712"
         style="fill:#262626;fill-opacity:1;fill-rule:nonzero;stroke:#262626;stroke-width:1;stroke-linecap:butt;stroke-linejoin:round;stroke-miterlimit:10;stroke-dasharray:none;stroke-opacity:1"
         d="m 491.6342,186.61667 0,0" /></g><g
       id="g714"><g
         clip-path="url(#clipPath718)"
         id="g716"><path
           id="path722"
           style="fill:none;stroke:#ffffff;stroke-width:1;stroke-linecap:round;stroke-linejoin:round;stroke-miterlimit:10;stroke-dasharray:none;stroke-opacity:1"
           d="m 491.6342,223.53333 210.24604,0" /></g></g><g
       id="g724"><path
         id="path726"
         style="fill:#262626;fill-opacity:1;fill-rule:nonzero;stroke:#262626;stroke-width:1;stroke-linecap:butt;stroke-linejoin:round;stroke-miterlimit:10;stroke-dasharray:none;stroke-opacity:1"
         d="m 491.6342,223.53333 0,0" /></g><g
       id="g728"><g
         clip-path="url(#clipPath732)"
         id="g730"><path
           id="path736"
           style="fill:none;stroke:#ffffff;stroke-width:1;stroke-linecap:round;stroke-linejoin:round;stroke-miterlimit:10;stroke-dasharray:none;stroke-opacity:1"
           d="m 491.6342,260.45 210.24604,0" /></g></g><g
       id="g738"><path
         id="path740"
         style="fill:#262626;fill-opacity:1;fill-rule:nonzero;stroke:#262626;stroke-width:1;stroke-linecap:butt;stroke-linejoin:round;stroke-miterlimit:10;stroke-dasharray:none;stroke-opacity:1"
         d="m 491.6342,260.45 0,0" /></g><g
       id="g742"><g
         clip-path="url(#clipPath746)"
         id="g744"><path
           id="path750"
           style="fill:#4878cf;fill-opacity:0.25;fill-rule:nonzero;stroke:#4878cf;stroke-width:0.30000001;stroke-linecap:butt;stroke-linejoin:round;stroke-miterlimit:10;stroke-dasharray:none;stroke-opacity:0.25"
           d="m 506.60646,39.056549 0,-0.106545 1.005,0 1.005,0 1.005,0 1.005,0 1.005,0 1.00499,0 1.005,0 1.005,0 1.005,0 1.005,0 1.005,0 1.005,0 1.005,0 1.005,0 1.005,0 1.005,0 1.005,0 1.00499,0 1.005,0 1.005,0 1.005,0 1.005,0 1.005,0 1.005,0 1.005,0 1.005,0 1.005,0 1.005,0 1.00499,0 1.005,0 1.005,0 1.005,0 1.005,0 1.005,0 1.005,0 1.005,0 1.005,0 1.005,0 1.00499,0 1.005,0 1.005,0 1.005,0 1.005,0 1.005,0 1.005,0 1.005,0 1.005,0 1.005,0 1.005,0 1.005,0 1.00499,0 1.005,0 1.005,0 1.005,0 1.005,0 1.005,0 1.005,0 1.005,0 1.005,0 1.005,0 1.005,0 1.00499,0 1.005,0 1.005,0 1.005,0 1.005,0 1.005,0 1.005,0 1.005,0 1.005,0 1.005,0 1.005,0 1.005,0 1.00499,0 1.005,0 1.005,0 1.005,0 1.005,0 1.005,0 1.005,0 1.005,0 1.005,0 1.005,0 1.00499,0 1.005,0 1.005,0 1.005,0 1.005,0 1.005,0 1.005,0 1.005,0 1.005,0 1.005,0 1.005,0 1.005,0 1.00499,0 1.005,0 1.005,0 1.005,0 1.005,0 1.005,0 1.005,0 1.005,0 1.005,0 1.005,0 1.00499,0 1.005,0 1.005,0 1.005,0 1.005,0 1.005,0 1.005,0 1.005,0 1.005,0 1.005,0 1.005,0 1.005,0 1.005,0 1.00499,0 1.005,0 1.005,0 1.005,0 1.005,0 1.005,0 1.005,0 1.005,0 1.005,0 0,0.04325 0,0 -1.005,-0.0089 -1.005,0.02571 -1.005,0.06022 -1.005,0.09998 -1.005,0.137507 -1.005,0.156047 -1.005,0.138796 -1.005,0.08165 -1.00499,0.0011 -1.005,-0.07035 -1.005,-0.100221 -1.005,-0.07238 -1.005,0.0057 -1.005,0.10688 -1.005,0.195471 -1.005,0.239721 -1.005,0.22394 -1.005,0.155575 -1.005,0.0625 -1.005,-0.02073 -1.005,-0.07081 -1.00499,-0.08518 -1.005,-0.07527 -1.005,-0.04911 -1.005,-5.97e-4 -1.005,0.08201 -1.005,0.195532 -1.005,0.311079 -1.005,0.386893 -1.005,0.394995 -1.005,0.338183 -1.00499,0.244746 -1.005,0.149363 -1.005,0.07678 -1.005,0.03642 -1.005,0.02529 -1.005,0.03356 -1.005,0.0481 -1.005,0.05195 -1.005,0.02383 -1.005,-0.05379 -1.005,-0.176813 -1.005,-0.305921 -1.00499,-0.376954 -1.005,-0.336131 -1.005,-0.174149 -1.005,0.07159 -1.005,0.349071 -1.005,0.625321 -1.005,0.886337 -1.005,1.105893 -1.005,1.225026 -1.005,1.177061 -1.00499,0.942303 -1.005,0.578364 -1.005,0.192024 -1.005,-0.125226 -1.005,-0.343896 -1.005,-0.491165 -1.005,-0.604424 -1.005,-0.685006 -1.005,-0.689951 -1.005,-0.567895 -1.005,-0.306942 -1.005,0.05009 -1.00499,0.438268 -1.005,0.818583 -1.005,1.192064 -1.005,1.566373 -1.005,1.913971 -1.005,2.171359 -1.005,2.283782 -1.005,2.249439 -1.005,2.118709 -1.005,1.953982 -1.005,1.79541 -1.00499,1.663957 -1.005,1.587569 -1.005,1.616389 -1.005,1.817355 -1.005,2.265783 -1.005,3.040703 -1.005,4.200877 -1.005,5.723571 -1.005,7.438795 -1.005,9.02859 -1.005,10.12593 -1.005,10.46553 -1.00499,9.99823 -1.005,8.92107 -1.005,7.63071 -1.005,6.60729 -1.005,6.22387 -1.005,6.54012 -1.005,7.22085 -1.005,7.67287 -1.005,7.32462 -1.005,5.87277 -1.00499,3.39165 -1.005,0.30629 -1.005,-2.76077 -1.005,-5.26556 -1.005,-7.0378 -1.005,-8.37182 -1.005,-9.77083 -1.005,-11.49593 -1.005,-13.29755 -1.005,-14.57832 -1.005,-14.84285 -1.00499,-14.02911 -1.005,-12.461474 -1.005,-10.542735 -1.005,-8.509783 -1.005,-6.442463 -1.005,-4.436296 -1.005,-2.716708 -1.005,-1.568294 -1.005,-1.143042 -1.005,-1.321892 -1.005,-1.756719 -1.005,-2.066765 -1.00499,-2.038981 -1.005,-1.693074 -1.005,-1.19653 -1.005,-0.726388 -1.005,-0.380988 -1.005,-0.172121 z" /></g></g><g
       id="g752"><g
         clip-path="url(#clipPath756)"
         id="g754"><path
           id="path760"
           style="fill:#6acc65;fill-opacity:0.25;fill-rule:nonzero;stroke:#6acc65;stroke-width:0.30000001;stroke-linecap:butt;stroke-linejoin:round;stroke-miterlimit:10;stroke-dasharray:none;stroke-opacity:0.25"
           d="m 504.5865,38.972891 0,-0.02289 1.21477,0 1.21478,0 1.21477,0 1.21477,0 1.21478,0 1.21477,0 1.21478,0 1.21477,0 1.21477,0 1.21478,0 1.21477,0 1.21477,0 1.21478,0 1.21477,0 1.21477,0 1.21478,0 1.21477,0 1.21477,0 1.21478,0 1.21477,0 1.21478,0 1.21477,0 1.21477,0 1.21478,0 1.21477,0 1.21477,0 1.21478,0 1.21477,0 1.21478,0 1.21477,0 1.21477,0 1.21478,0 1.21477,0 1.21477,0 1.21478,0 1.21477,0 1.21477,0 1.21478,0 1.21477,0 1.21478,0 1.21477,0 1.21477,0 1.21478,0 1.21477,0 1.21477,0 1.21478,0 1.21477,0 1.21478,0 1.21477,0 1.21477,0 1.21478,0 1.21477,0 1.21477,0 1.21478,0 1.21477,0 1.21478,0 1.21477,0 1.21477,0 1.21478,0 1.21477,0 1.21477,0 1.21478,0 1.21477,0 1.21477,0 1.21478,0 1.21477,0 1.21478,0 1.21477,0 1.21477,0 1.21478,0 1.21477,0 1.21477,0 1.21478,0 1.21477,0 1.21478,0 1.21477,0 1.21477,0 1.21478,0 1.21477,0 1.21477,0 1.21478,0 1.21477,0 1.21477,0 1.21478,0 1.21477,0 1.21478,0 1.21477,0 1.21477,0 1.21478,0 1.21477,0 1.21477,0 1.21478,0 1.21477,0 1.21478,0 1.21477,0 1.21477,0 1.21478,0 1.21477,0 1.21477,0 1.21478,0 1.21477,0 1.21478,0 1.21477,0 1.21477,0 1.21478,0 1.21477,0 1.21477,0 1.21478,0 1.21477,0 1.21477,0 1.21478,0 1.21477,0 1.21478,0 1.21477,0 1.21477,0 1.21478,0 1.21477,0 1.21477,0 1.21478,0 1.21477,0 1.21477,0 1.21478,0 1.21477,0 1.21478,0 1.21477,0 1.21477,0 1.21478,0 0,0.01395 0,0 -1.21478,0.0055 -1.21477,0.01982 -1.21477,0.04016 -1.21478,0.07031 -1.21477,0.111564 -1.21478,0.162011 -1.21477,0.216202 -1.21477,0.265941 -1.21478,0.301999 -1.21477,0.316197 -1.21477,0.303233 -1.21478,0.262117 -1.21477,0.197204 -1.21477,0.118644 -1.21478,0.04154 -1.21477,-0.01702 -1.21478,-0.04329 -1.21477,-0.03303 -1.21477,0.0044 -1.21478,0.04808 -1.21477,0.07365 -1.21477,0.06527 -1.21478,0.02358 -1.21477,-0.03489 -1.21477,-0.08631 -1.21478,-0.110934 -1.21477,-0.100637 -1.21478,-0.06007 -1.21477,-0.0025 -1.21477,0.0562 -1.21478,0.101634 -1.21477,0.123467 -1.21477,0.116105 -1.21478,0.07974 -1.21477,0.02113 -1.21478,-0.04762 -1.21477,-0.113055 -1.21477,-0.164971 -1.21478,-0.198475 -1.21477,-0.212261 -1.21477,-0.205186 -1.21478,-0.174035 -1.21477,-0.113729 -1.21478,-0.01958 -1.21477,0.109273 -1.21477,0.265911 -1.21478,0.432581 -1.21477,0.580823 -1.21477,0.677004 -1.21478,0.693006 -1.21477,0.61802 -1.21477,0.46525 -1.21478,0.269369 -1.21477,0.07572 -1.21478,-0.07377 -1.21477,-0.152835 -1.21477,-0.15818 -1.21478,-0.109144 -1.21477,-0.03741 -1.21477,0.03158 -1.21478,0.09601 -1.21477,0.180437 -1.21478,0.317337 -1.21477,0.516774 -1.21477,0.745325 -1.21478,0.9317 -1.21477,0.998621 -1.21477,0.902164 -1.21478,0.655908 -1.21477,0.330036 -1.21477,0.03181 -1.21478,-0.12055 -1.21477,-0.02555 -1.21478,0.371436 -1.21477,1.049924 -1.21477,1.90472 -1.21478,2.773306 -1.21477,3.500276 -1.21477,4.010106 -1.21478,4.343668 -1.21477,4.627924 -1.21478,4.98838 -1.21477,5.455723 -1.21477,5.930501 -1.21478,6.237842 -1.21477,6.243778 -1.21477,5.95711 -1.21478,5.54441 -1.21477,5.24205 -1.21478,5.21947 -1.21477,5.4796 -1.21477,5.85408 -1.21478,6.08444 -1.21477,5.92899 -1.21477,5.23408 -1.21478,3.95458 -1.21477,2.15391 -1.21477,0.0132 -1.21478,-2.16338 -1.21477,-3.99212 -1.21478,-5.12484 -1.21477,-5.39355 -1.21477,-4.90231 -1.21478,-4.0073 -1.21477,-3.19155 -1.21477,-2.89269 -1.21478,-3.35148 -1.21477,-4.53066 -1.21478,-6.13055 -1.21477,-7.70069 -1.21477,-8.810095 -1.21478,-9.20435 -1.21477,-8.876589 -1.21477,-8.023143 -1.21478,-6.919564 -1.21477,-5.79366 -1.21477,-4.761254 -1.21478,-3.840004 -1.21477,-3.006974 -1.21477,-2.250006 -1.21478,-1.584092 -1.21477,-1.036887 -1.21478,-0.625963 -1.21477,-0.346794 -1.21477,-0.175717 -1.21478,-0.08094 -1.21477,-0.0328 z" /></g></g><g
       id="g762"><g
         clip-path="url(#clipPath766)"
         id="g764"><path
           id="path770"
           style="fill:none;stroke:#4878cf;stroke-width:1.75;stroke-linecap:round;stroke-linejoin:round;stroke-miterlimit:10;stroke-dasharray:none;stroke-opacity:1"
           d="m 506.60646,39.056549 1.005,0.172121 1.005,0.380988 1.005,0.726388 1.005,1.19653 1.005,1.693074 2.00999,4.105746 1.005,1.756719 3.015,4.033228 1.005,2.716708 1.005,4.436296 1.005,6.442463 1.005,8.509783 1.005,10.542735 1.005,12.461474 4.01999,56.747828 1.005,11.49593 1.005,9.77083 1.005,8.37182 1.005,7.0378 1.005,5.26556 1.005,2.76077 1.005,-0.30629 1.00499,-3.39165 1.005,-5.87277 4.02,-28.75846 2.01,-12.83116 1.005,-7.63071 1.005,-8.92107 4.01999,-39.618278 1.005,-7.438795 1.005,-5.723571 1.005,-4.200877 1.005,-3.040703 1.005,-2.265783 2.01,-3.433744 2.00999,-3.251526 2.01,-3.749392 2.01,-4.368148 2.01,-4.455141 1.005,-1.913971 1.005,-1.566373 1.005,-1.192064 1.005,-0.818583 1.00499,-0.438268 1.005,-0.05009 1.005,0.306942 2.01,1.257846 2.01,1.28943 1.005,0.491165 1.005,0.343896 1.005,0.125226 1.005,-0.192024 1.005,-0.578364 1.00499,-0.942303 3.015,-3.50798 1.005,-0.886337 1.005,-0.625321 1.005,-0.349071 1.005,-0.07159 1.005,0.174149 3.01499,1.019006 1.005,0.176813 2.01,0.02996 7.035,-0.421472 2.00999,-0.582929 3.015,-1.092967 1.005,-0.195532 2.01,-0.08141 6.02999,0.238604 2.01,-0.379515 2.01,-0.435192 2.01,-0.112543 4.01999,0.241829 2.01,-0.220447 3.015,-0.393533 3.015,-0.07701 0,0" /></g></g><g
       id="g772"><g
         clip-path="url(#clipPath776)"
         id="g774"><path
           id="path780"
           style="fill:none;stroke:#6acc65;stroke-width:1.75;stroke-linecap:round;stroke-linejoin:round;stroke-miterlimit:10;stroke-dasharray:none;stroke-opacity:1"
           d="m 504.5865,38.972891 2.42955,0.113736 1.21477,0.175717 1.21477,0.346794 1.21478,0.625963 1.21477,1.036887 1.21478,1.584092 1.21477,2.250006 1.21477,3.006974 1.21478,3.840004 1.21477,4.761254 1.21477,5.79366 1.21478,6.919564 1.21477,8.023143 3.64432,26.891035 1.21477,7.70069 1.21478,6.13055 1.21477,4.53066 1.21478,3.35148 1.21477,2.89269 1.21477,3.19155 1.21478,4.0073 1.21477,4.90231 2.42955,10.51839 1.21477,3.99212 1.21478,2.16338 1.21477,-0.0132 1.21477,-2.15391 1.21478,-3.95458 1.21477,-5.23408 4.85909,-23.34711 3.64433,-16.00593 2.42954,-12.200889 2.42955,-12.168343 2.42955,-10.444103 2.42955,-8.971592 1.21477,-4.010106 1.21477,-3.500276 1.21478,-2.773306 1.21477,-1.90472 1.21477,-1.049924 1.21478,-0.371436 3.64432,0.114284 1.21477,-0.330036 1.21478,-0.655908 4.85909,-3.57781 1.21477,-0.516774 1.21478,-0.317337 2.42955,-0.276444 2.42954,0.0058 4.8591,0.493927 1.21477,-0.07572 1.21478,-0.269369 1.21477,-0.46525 2.42955,-1.311026 2.42954,-1.257827 1.21478,-0.432581 1.21477,-0.265911 1.21477,-0.109273 2.42955,0.133307 8.50342,1.115605 2.42955,-0.100873 4.85909,-0.397407 2.42955,0.06252 4.85909,0.332771 3.64432,-0.162504 2.42955,-0.05252 4.8591,0.05181 2.42954,-0.315848 3.64432,-0.881547 2.42955,-0.56794 2.42955,-0.378213 2.42955,-0.181871 3.64432,-0.06545 0,0" /></g></g><g
       id="g782"><text
         id="text784"
         style="font-variant:normal;font-weight:normal;font-size:11px;font-family:'Liberation Sans';-inkscape-font-specification:LiberationSans;writing-mode:lr-tb;fill:#262626;fill-opacity:1;fill-rule:nonzero;stroke:none"
         transform="matrix(1,0,0,-1,556.66347,265.45)"><tspan
           id="tspan786"
           y="0"
           x="0 7.3369999 11 13.442 18.941999 25.058001 28.115999 34.231998 37.290001 43.405998 49.521999 55.638 61.754002 65.417 71.532997 74.591003 77.032997">Private nonprofit</tspan></text>
<text
         id="text788"
         style="font-variant:normal;font-weight:normal;font-size:9.35000038px;font-family:'Liberation Sans';-inkscape-font-specification:LiberationSans;writing-mode:lr-tb;fill:#262626;fill-opacity:1;fill-rule:nonzero;stroke:none"
         transform="matrix(1,0,0,-1,724.26018,152.31719)"><tspan
           id="tspan790"
           y="0"
           x="0 6.7507 11.9493 17.1479 22.3465 27.545099 32.743698 37.942299 43.1409 47.815899">Dependence</tspan></text>
<path
         id="path792"
         style="fill:none;stroke:#4878cf;stroke-width:1.75;stroke-linecap:round;stroke-linejoin:round;stroke-miterlimit:10;stroke-dasharray:none;stroke-opacity:1"
         d="m 711.83049,141.69219 20,0" /><text
         id="text794"
         style="font-variant:normal;font-weight:normal;font-size:10px;font-family:'Liberation Sans';-inkscape-font-specification:LiberationSans;writing-mode:lr-tb;fill:#262626;fill-opacity:1;fill-rule:nonzero;stroke:none"
         transform="matrix(1,0,0,-1,739.83049,138.19219)"><tspan
           id="tspan796"
           y="0"
           x="0 7.2199998 12.78 18.34 23.9 29.459999 35.02 40.580002 46.139999">Dependent</tspan></text>
<path
         id="path798"
         style="fill:none;stroke:#6acc65;stroke-width:1.75;stroke-linecap:round;stroke-linejoin:round;stroke-miterlimit:10;stroke-dasharray:none;stroke-opacity:1"
         d="m 711.83049,127.36406 20,0" /><text
         id="text800"
         style="font-variant:normal;font-weight:normal;font-size:10px;font-family:'Liberation Sans';-inkscape-font-specification:LiberationSans;writing-mode:lr-tb;fill:#262626;fill-opacity:1;fill-rule:nonzero;stroke:none"
         transform="matrix(1,0,0,-1,739.83049,123.86406)"><tspan
           id="tspan802"
           y="0"
           x="0 2.78 8.3400002 13.9 19.459999 25.02 30.58 36.139999 41.700001 47.259998">Independet</tspan></text>
</g></g></svg>