<?xml version="1.0" encoding="UTF-8" standalone="no"?>
<svg
   xmlns:dc="http://purl.org/dc/elements/1.1/"
   xmlns:cc="http://creativecommons.org/ns#"
   xmlns:rdf="http://www.w3.org/1999/02/22-rdf-syntax-ns#"
   xmlns:svg="http://www.w3.org/2000/svg"
   xmlns="http://www.w3.org/2000/svg"
   viewBox="0 0 979.40442 350.77344"
   height="350.77344"
   width="979.40442"
   xml:space="preserve"
   version="1.1"
   id="svg2"><metadata
     id="metadata8"><rdf:RDF><cc:Work
         rdf:about=""><dc:format>image/svg+xml</dc:format><dc:type
           rdf:resource="http://purl.org/dc/dcmitype/StillImage" /></cc:Work></rdf:RDF></metadata><defs
     id="defs6"><clipPath
       id="clipPath20"
       clipPathUnits="userSpaceOnUse"><path
         id="path22"
         d="m 9.98125,38.95 212.70138,0 0,221.5 -212.70138,0 0,-221.5 z" /></clipPath><clipPath
       id="clipPath38"
       clipPathUnits="userSpaceOnUse"><path
         id="path40"
         d="m 9.98125,38.95 212.70138,0 0,221.5 -212.70138,0 0,-221.5 z" /></clipPath><clipPath
       id="clipPath56"
       clipPathUnits="userSpaceOnUse"><path
         id="path58"
         d="m 9.98125,38.95 212.70138,0 0,221.5 -212.70138,0 0,-221.5 z" /></clipPath><clipPath
       id="clipPath74"
       clipPathUnits="userSpaceOnUse"><path
         id="path76"
         d="m 9.98125,38.95 212.70138,0 0,221.5 -212.70138,0 0,-221.5 z" /></clipPath><clipPath
       id="clipPath96"
       clipPathUnits="userSpaceOnUse"><path
         id="path98"
         d="m 9.98125,38.95 212.70138,0 0,221.5 -212.70138,0 0,-221.5 z" /></clipPath><clipPath
       id="clipPath110"
       clipPathUnits="userSpaceOnUse"><path
         id="path112"
         d="m 9.98125,38.95 212.70138,0 0,221.5 -212.70138,0 0,-221.5 z" /></clipPath><clipPath
       id="clipPath124"
       clipPathUnits="userSpaceOnUse"><path
         id="path126"
         d="m 9.98125,38.95 212.70138,0 0,221.5 -212.70138,0 0,-221.5 z" /></clipPath><clipPath
       id="clipPath138"
       clipPathUnits="userSpaceOnUse"><path
         id="path140"
         d="m 9.98125,38.95 212.70138,0 0,221.5 -212.70138,0 0,-221.5 z" /></clipPath><clipPath
       id="clipPath152"
       clipPathUnits="userSpaceOnUse"><path
         id="path154"
         d="m 9.98125,38.95 212.70138,0 0,221.5 -212.70138,0 0,-221.5 z" /></clipPath><clipPath
       id="clipPath166"
       clipPathUnits="userSpaceOnUse"><path
         id="path168"
         d="m 9.98125,38.95 212.70138,0 0,221.5 -212.70138,0 0,-221.5 z" /></clipPath><clipPath
       id="clipPath180"
       clipPathUnits="userSpaceOnUse"><path
         id="path182"
         d="m 9.98125,38.95 212.70138,0 0,221.5 -212.70138,0 0,-221.5 z" /></clipPath><clipPath
       id="clipPath194"
       clipPathUnits="userSpaceOnUse"><path
         id="path196"
         d="m 9.98125,38.95 212.70138,0 0,221.5 -212.70138,0 0,-221.5 z" /></clipPath><clipPath
       id="clipPath208"
       clipPathUnits="userSpaceOnUse"><path
         id="path210"
         d="m 9.98125,38.95 212.70138,0 0,221.5 -212.70138,0 0,-221.5 z" /></clipPath><clipPath
       id="clipPath222"
       clipPathUnits="userSpaceOnUse"><path
         id="path224"
         d="m 9.98125,38.95 212.70138,0 0,221.5 -212.70138,0 0,-221.5 z" /></clipPath><clipPath
       id="clipPath232"
       clipPathUnits="userSpaceOnUse"><path
         id="path234"
         d="m 9.98125,38.95 212.70138,0 0,221.5 -212.70138,0 0,-221.5 z" /></clipPath><clipPath
       id="clipPath242"
       clipPathUnits="userSpaceOnUse"><path
         id="path244"
         d="m 9.98125,38.95 212.70138,0 0,221.5 -212.70138,0 0,-221.5 z" /></clipPath><clipPath
       id="clipPath252"
       clipPathUnits="userSpaceOnUse"><path
         id="path254"
         d="m 9.98125,38.95 212.70138,0 0,221.5 -212.70138,0 0,-221.5 z" /></clipPath><clipPath
       id="clipPath270"
       clipPathUnits="userSpaceOnUse"><path
         id="path272"
         d="m 250.4172,38.95 212.70138,0 0,221.5 -212.70138,0 0,-221.5 z" /></clipPath><clipPath
       id="clipPath288"
       clipPathUnits="userSpaceOnUse"><path
         id="path290"
         d="m 250.4172,38.95 212.70138,0 0,221.5 -212.70138,0 0,-221.5 z" /></clipPath><clipPath
       id="clipPath306"
       clipPathUnits="userSpaceOnUse"><path
         id="path308"
         d="m 250.4172,38.95 212.70138,0 0,221.5 -212.70138,0 0,-221.5 z" /></clipPath><clipPath
       id="clipPath324"
       clipPathUnits="userSpaceOnUse"><path
         id="path326"
         d="m 250.4172,38.95 212.70138,0 0,221.5 -212.70138,0 0,-221.5 z" /></clipPath><clipPath
       id="clipPath346"
       clipPathUnits="userSpaceOnUse"><path
         id="path348"
         d="m 250.4172,38.95 212.70138,0 0,221.5 -212.70138,0 0,-221.5 z" /></clipPath><clipPath
       id="clipPath360"
       clipPathUnits="userSpaceOnUse"><path
         id="path362"
         d="m 250.4172,38.95 212.70138,0 0,221.5 -212.70138,0 0,-221.5 z" /></clipPath><clipPath
       id="clipPath374"
       clipPathUnits="userSpaceOnUse"><path
         id="path376"
         d="m 250.4172,38.95 212.70138,0 0,221.5 -212.70138,0 0,-221.5 z" /></clipPath><clipPath
       id="clipPath388"
       clipPathUnits="userSpaceOnUse"><path
         id="path390"
         d="m 250.4172,38.95 212.70138,0 0,221.5 -212.70138,0 0,-221.5 z" /></clipPath><clipPath
       id="clipPath402"
       clipPathUnits="userSpaceOnUse"><path
         id="path404"
         d="m 250.4172,38.95 212.70138,0 0,221.5 -212.70138,0 0,-221.5 z" /></clipPath><clipPath
       id="clipPath416"
       clipPathUnits="userSpaceOnUse"><path
         id="path418"
         d="m 250.4172,38.95 212.70138,0 0,221.5 -212.70138,0 0,-221.5 z" /></clipPath><clipPath
       id="clipPath430"
       clipPathUnits="userSpaceOnUse"><path
         id="path432"
         d="m 250.4172,38.95 212.70138,0 0,221.5 -212.70138,0 0,-221.5 z" /></clipPath><clipPath
       id="clipPath444"
       clipPathUnits="userSpaceOnUse"><path
         id="path446"
         d="m 250.4172,38.95 212.70138,0 0,221.5 -212.70138,0 0,-221.5 z" /></clipPath><clipPath
       id="clipPath458"
       clipPathUnits="userSpaceOnUse"><path
         id="path460"
         d="m 250.4172,38.95 212.70138,0 0,221.5 -212.70138,0 0,-221.5 z" /></clipPath><clipPath
       id="clipPath472"
       clipPathUnits="userSpaceOnUse"><path
         id="path474"
         d="m 250.4172,38.95 212.70138,0 0,221.5 -212.70138,0 0,-221.5 z" /></clipPath><clipPath
       id="clipPath482"
       clipPathUnits="userSpaceOnUse"><path
         id="path484"
         d="m 250.4172,38.95 212.70138,0 0,221.5 -212.70138,0 0,-221.5 z" /></clipPath><clipPath
       id="clipPath492"
       clipPathUnits="userSpaceOnUse"><path
         id="path494"
         d="m 250.4172,38.95 212.70138,0 0,221.5 -212.70138,0 0,-221.5 z" /></clipPath><clipPath
       id="clipPath502"
       clipPathUnits="userSpaceOnUse"><path
         id="path504"
         d="m 250.4172,38.95 212.70138,0 0,221.5 -212.70138,0 0,-221.5 z" /></clipPath><clipPath
       id="clipPath520"
       clipPathUnits="userSpaceOnUse"><path
         id="path522"
         d="m 490.85314,38.95 212.70138,0 0,221.5 -212.70138,0 0,-221.5 z" /></clipPath><clipPath
       id="clipPath538"
       clipPathUnits="userSpaceOnUse"><path
         id="path540"
         d="m 490.85314,38.95 212.70138,0 0,221.5 -212.70138,0 0,-221.5 z" /></clipPath><clipPath
       id="clipPath556"
       clipPathUnits="userSpaceOnUse"><path
         id="path558"
         d="m 490.85314,38.95 212.70138,0 0,221.5 -212.70138,0 0,-221.5 z" /></clipPath><clipPath
       id="clipPath574"
       clipPathUnits="userSpaceOnUse"><path
         id="path576"
         d="m 490.85314,38.95 212.70138,0 0,221.5 -212.70138,0 0,-221.5 z" /></clipPath><clipPath
       id="clipPath596"
       clipPathUnits="userSpaceOnUse"><path
         id="path598"
         d="m 490.85314,38.95 212.70138,0 0,221.5 -212.70138,0 0,-221.5 z" /></clipPath><clipPath
       id="clipPath610"
       clipPathUnits="userSpaceOnUse"><path
         id="path612"
         d="m 490.85314,38.95 212.70138,0 0,221.5 -212.70138,0 0,-221.5 z" /></clipPath><clipPath
       id="clipPath624"
       clipPathUnits="userSpaceOnUse"><path
         id="path626"
         d="m 490.85314,38.95 212.70138,0 0,221.5 -212.70138,0 0,-221.5 z" /></clipPath><clipPath
       id="clipPath638"
       clipPathUnits="userSpaceOnUse"><path
         id="path640"
         d="m 490.85314,38.95 212.70138,0 0,221.5 -212.70138,0 0,-221.5 z" /></clipPath><clipPath
       id="clipPath652"
       clipPathUnits="userSpaceOnUse"><path
         id="path654"
         d="m 490.85314,38.95 212.70138,0 0,221.5 -212.70138,0 0,-221.5 z" /></clipPath><clipPath
       id="clipPath666"
       clipPathUnits="userSpaceOnUse"><path
         id="path668"
         d="m 490.85314,38.95 212.70138,0 0,221.5 -212.70138,0 0,-221.5 z" /></clipPath><clipPath
       id="clipPath680"
       clipPathUnits="userSpaceOnUse"><path
         id="path682"
         d="m 490.85314,38.95 212.70138,0 0,221.5 -212.70138,0 0,-221.5 z" /></clipPath><clipPath
       id="clipPath694"
       clipPathUnits="userSpaceOnUse"><path
         id="path696"
         d="m 490.85314,38.95 212.70138,0 0,221.5 -212.70138,0 0,-221.5 z" /></clipPath><clipPath
       id="clipPath708"
       clipPathUnits="userSpaceOnUse"><path
         id="path710"
         d="m 490.85314,38.95 212.70138,0 0,221.5 -212.70138,0 0,-221.5 z" /></clipPath><clipPath
       id="clipPath722"
       clipPathUnits="userSpaceOnUse"><path
         id="path724"
         d="m 490.85314,38.95 212.70138,0 0,221.5 -212.70138,0 0,-221.5 z" /></clipPath><clipPath
       id="clipPath732"
       clipPathUnits="userSpaceOnUse"><path
         id="path734"
         d="m 490.85314,38.95 212.70138,0 0,221.5 -212.70138,0 0,-221.5 z" /></clipPath><clipPath
       id="clipPath742"
       clipPathUnits="userSpaceOnUse"><path
         id="path744"
         d="m 490.85314,38.95 212.70138,0 0,221.5 -212.70138,0 0,-221.5 z" /></clipPath><clipPath
       id="clipPath752"
       clipPathUnits="userSpaceOnUse"><path
         id="path754"
         d="m 490.85314,38.95 212.70138,0 0,221.5 -212.70138,0 0,-221.5 z" /></clipPath></defs><g
     transform="matrix(1.25,0,0,-1.25,0,350.77344)"
     id="g10"><path
       id="path12"
       style="fill:#ffffff;fill-opacity:1;fill-rule:nonzero;stroke:none"
       d="m 0,0 783.52352,0 0,280.61875 L 0,280.61875 0,0 Z" /><path
       id="path14"
       style="fill:#eaeaf2;fill-opacity:1;fill-rule:nonzero;stroke:none"
       d="m 9.98125,38.95 212.70138,0 0,221.5 -212.70138,0 0,-221.5 z" /><g
       id="g16"><g
         clip-path="url(#clipPath20)"
         id="g18"><path
           id="path24"
           style="fill:none;stroke:#ffffff;stroke-width:1;stroke-linecap:round;stroke-linejoin:round;stroke-miterlimit:10;stroke-dasharray:none;stroke-opacity:1"
           d="m 9.98125,38.95 0,221.5" /></g></g><g
       id="g26"><path
         id="path28"
         style="fill:#262626;fill-opacity:1;fill-rule:nonzero;stroke:#262626;stroke-width:1;stroke-linecap:butt;stroke-linejoin:round;stroke-miterlimit:10;stroke-dasharray:none;stroke-opacity:1"
         d="m 9.98125,38.95 0,0" /><text
         id="text30"
         style="font-variant:normal;font-weight:normal;font-size:10px;font-family:'Liberation Sans';-inkscape-font-specification:LiberationSans;writing-mode:lr-tb;fill:#262626;fill-opacity:1;fill-rule:nonzero;stroke:none"
         transform="matrix(1,0,0,-1,7.2,24.7)"><tspan
           id="tspan32"
           y="0"
           x="0">0</tspan></text>
</g><g
       id="g34"><g
         clip-path="url(#clipPath38)"
         id="g36"><path
           id="path42"
           style="fill:none;stroke:#ffffff;stroke-width:1;stroke-linecap:round;stroke-linejoin:round;stroke-miterlimit:10;stroke-dasharray:none;stroke-opacity:1"
           d="m 70.753074,38.95 0,221.5" /></g></g><g
       id="g44"><path
         id="path46"
         style="fill:#262626;fill-opacity:1;fill-rule:nonzero;stroke:#262626;stroke-width:1;stroke-linecap:butt;stroke-linejoin:round;stroke-miterlimit:10;stroke-dasharray:none;stroke-opacity:1"
         d="m 70.753074,38.95 0,0" /><text
         id="text48"
         style="font-variant:normal;font-weight:normal;font-size:10px;font-family:'Liberation Sans';-inkscape-font-specification:LiberationSans;writing-mode:lr-tb;fill:#262626;fill-opacity:1;fill-rule:nonzero;stroke:none"
         transform="matrix(1,0,0,-1,62.690574,24.7)"><tspan
           id="tspan50"
           y="0"
           x="0 5.5599999 11.12">10k</tspan></text>
</g><g
       id="g52"><g
         clip-path="url(#clipPath56)"
         id="g54"><path
           id="path60"
           style="fill:none;stroke:#ffffff;stroke-width:1;stroke-linecap:round;stroke-linejoin:round;stroke-miterlimit:10;stroke-dasharray:none;stroke-opacity:1"
           d="m 131.5249,38.95 0,221.5" /></g></g><g
       id="g62"><path
         id="path64"
         style="fill:#262626;fill-opacity:1;fill-rule:nonzero;stroke:#262626;stroke-width:1;stroke-linecap:butt;stroke-linejoin:round;stroke-miterlimit:10;stroke-dasharray:none;stroke-opacity:1"
         d="m 131.5249,38.95 0,0" /><text
         id="text66"
         style="font-variant:normal;font-weight:normal;font-size:10px;font-family:'Liberation Sans';-inkscape-font-specification:LiberationSans;writing-mode:lr-tb;fill:#262626;fill-opacity:1;fill-rule:nonzero;stroke:none"
         transform="matrix(1,0,0,-1,123.4624,24.7)"><tspan
           id="tspan68"
           y="0"
           x="0 5.5599999 11.12">20k</tspan></text>
</g><g
       id="g70"><g
         clip-path="url(#clipPath74)"
         id="g72"><path
           id="path78"
           style="fill:none;stroke:#ffffff;stroke-width:1;stroke-linecap:round;stroke-linejoin:round;stroke-miterlimit:10;stroke-dasharray:none;stroke-opacity:1"
           d="m 192.29672,38.95 0,221.5" /></g></g><g
       id="g80"><path
         id="path82"
         style="fill:#262626;fill-opacity:1;fill-rule:nonzero;stroke:#262626;stroke-width:1;stroke-linecap:butt;stroke-linejoin:round;stroke-miterlimit:10;stroke-dasharray:none;stroke-opacity:1"
         d="m 192.29672,38.95 0,0" /><text
         id="text84"
         style="font-variant:normal;font-weight:normal;font-size:10px;font-family:'Liberation Sans';-inkscape-font-specification:LiberationSans;writing-mode:lr-tb;fill:#262626;fill-opacity:1;fill-rule:nonzero;stroke:none"
         transform="matrix(1,0,0,-1,184.23422,24.7)"><tspan
           id="tspan86"
           y="0"
           x="0 5.5599999 11.12">30k</tspan></text>
<text
         id="text88"
         style="font-variant:normal;font-weight:normal;font-size:11px;font-family:'Liberation Sans';-inkscape-font-specification:LiberationSans;writing-mode:lr-tb;fill:#262626;fill-opacity:1;fill-rule:nonzero;stroke:none"
         transform="matrix(1,0,0,-1,30.347567,9.48125)"><tspan
           id="tspan90"
           y="0"
           x="0 7.9419999 14.058 23.221001 29.337 31.778999 37.895 40.952999 43.395 48.895 55.011002 58.069 67.232002 73.348 79.463997 81.905998 88.022003 94.138 97.195999 105.138 111.254 117.37 120.428 123.486 127.149 133.265 136.92799 139.98599 143.649 149.765 155.881 161.99699 168.11301">Cumulative Median Debt ($) (2013)</tspan></text>
</g><g
       id="g92"><g
         clip-path="url(#clipPath96)"
         id="g94"><path
           id="path100"
           style="fill:none;stroke:#ffffff;stroke-width:1;stroke-linecap:round;stroke-linejoin:round;stroke-miterlimit:10;stroke-dasharray:none;stroke-opacity:1"
           d="m 9.98125,38.95 212.70138,0" /></g></g><g
       id="g102"><path
         id="path104"
         style="fill:#262626;fill-opacity:1;fill-rule:nonzero;stroke:#262626;stroke-width:1;stroke-linecap:butt;stroke-linejoin:round;stroke-miterlimit:10;stroke-dasharray:none;stroke-opacity:1"
         d="m 9.98125,38.95 0,0" /></g><g
       id="g106"><g
         clip-path="url(#clipPath110)"
         id="g108"><path
           id="path114"
           style="fill:none;stroke:#ffffff;stroke-width:1;stroke-linecap:round;stroke-linejoin:round;stroke-miterlimit:10;stroke-dasharray:none;stroke-opacity:1"
           d="m 9.98125,66.6375 212.70138,0" /></g></g><g
       id="g116"><path
         id="path118"
         style="fill:#262626;fill-opacity:1;fill-rule:nonzero;stroke:#262626;stroke-width:1;stroke-linecap:butt;stroke-linejoin:round;stroke-miterlimit:10;stroke-dasharray:none;stroke-opacity:1"
         d="m 9.98125,66.6375 0,0" /></g><g
       id="g120"><g
         clip-path="url(#clipPath124)"
         id="g122"><path
           id="path128"
           style="fill:none;stroke:#ffffff;stroke-width:1;stroke-linecap:round;stroke-linejoin:round;stroke-miterlimit:10;stroke-dasharray:none;stroke-opacity:1"
           d="m 9.98125,94.325 212.70138,0" /></g></g><g
       id="g130"><path
         id="path132"
         style="fill:#262626;fill-opacity:1;fill-rule:nonzero;stroke:#262626;stroke-width:1;stroke-linecap:butt;stroke-linejoin:round;stroke-miterlimit:10;stroke-dasharray:none;stroke-opacity:1"
         d="m 9.98125,94.325 0,0" /></g><g
       id="g134"><g
         clip-path="url(#clipPath138)"
         id="g136"><path
           id="path142"
           style="fill:none;stroke:#ffffff;stroke-width:1;stroke-linecap:round;stroke-linejoin:round;stroke-miterlimit:10;stroke-dasharray:none;stroke-opacity:1"
           d="m 9.98125,122.0125 212.70138,0" /></g></g><g
       id="g144"><path
         id="path146"
         style="fill:#262626;fill-opacity:1;fill-rule:nonzero;stroke:#262626;stroke-width:1;stroke-linecap:butt;stroke-linejoin:round;stroke-miterlimit:10;stroke-dasharray:none;stroke-opacity:1"
         d="m 9.98125,122.0125 0,0" /></g><g
       id="g148"><g
         clip-path="url(#clipPath152)"
         id="g150"><path
           id="path156"
           style="fill:none;stroke:#ffffff;stroke-width:1;stroke-linecap:round;stroke-linejoin:round;stroke-miterlimit:10;stroke-dasharray:none;stroke-opacity:1"
           d="m 9.98125,149.7 212.70138,0" /></g></g><g
       id="g158"><path
         id="path160"
         style="fill:#262626;fill-opacity:1;fill-rule:nonzero;stroke:#262626;stroke-width:1;stroke-linecap:butt;stroke-linejoin:round;stroke-miterlimit:10;stroke-dasharray:none;stroke-opacity:1"
         d="m 9.98125,149.7 0,0" /></g><g
       id="g162"><g
         clip-path="url(#clipPath166)"
         id="g164"><path
           id="path170"
           style="fill:none;stroke:#ffffff;stroke-width:1;stroke-linecap:round;stroke-linejoin:round;stroke-miterlimit:10;stroke-dasharray:none;stroke-opacity:1"
           d="m 9.98125,177.3875 212.70138,0" /></g></g><g
       id="g172"><path
         id="path174"
         style="fill:#262626;fill-opacity:1;fill-rule:nonzero;stroke:#262626;stroke-width:1;stroke-linecap:butt;stroke-linejoin:round;stroke-miterlimit:10;stroke-dasharray:none;stroke-opacity:1"
         d="m 9.98125,177.3875 0,0" /></g><g
       id="g176"><g
         clip-path="url(#clipPath180)"
         id="g178"><path
           id="path184"
           style="fill:none;stroke:#ffffff;stroke-width:1;stroke-linecap:round;stroke-linejoin:round;stroke-miterlimit:10;stroke-dasharray:none;stroke-opacity:1"
           d="m 9.98125,205.075 212.70138,0" /></g></g><g
       id="g186"><path
         id="path188"
         style="fill:#262626;fill-opacity:1;fill-rule:nonzero;stroke:#262626;stroke-width:1;stroke-linecap:butt;stroke-linejoin:round;stroke-miterlimit:10;stroke-dasharray:none;stroke-opacity:1"
         d="m 9.98125,205.075 0,0" /></g><g
       id="g190"><g
         clip-path="url(#clipPath194)"
         id="g192"><path
           id="path198"
           style="fill:none;stroke:#ffffff;stroke-width:1;stroke-linecap:round;stroke-linejoin:round;stroke-miterlimit:10;stroke-dasharray:none;stroke-opacity:1"
           d="m 9.98125,232.7625 212.70138,0" /></g></g><g
       id="g200"><path
         id="path202"
         style="fill:#262626;fill-opacity:1;fill-rule:nonzero;stroke:#262626;stroke-width:1;stroke-linecap:butt;stroke-linejoin:round;stroke-miterlimit:10;stroke-dasharray:none;stroke-opacity:1"
         d="m 9.98125,232.7625 0,0" /></g><g
       id="g204"><g
         clip-path="url(#clipPath208)"
         id="g206"><path
           id="path212"
           style="fill:none;stroke:#ffffff;stroke-width:1;stroke-linecap:round;stroke-linejoin:round;stroke-miterlimit:10;stroke-dasharray:none;stroke-opacity:1"
           d="m 9.98125,260.45 212.70138,0" /></g></g><g
       id="g214"><path
         id="path216"
         style="fill:#262626;fill-opacity:1;fill-rule:nonzero;stroke:#262626;stroke-width:1;stroke-linecap:butt;stroke-linejoin:round;stroke-miterlimit:10;stroke-dasharray:none;stroke-opacity:1"
         d="m 9.98125,260.45 0,0" /></g><g
       id="g218"><g
         clip-path="url(#clipPath222)"
         id="g220"><path
           id="path226"
           style="fill:#4878cf;fill-opacity:0.25;fill-rule:nonzero;stroke:#4878cf;stroke-width:0.30000001;stroke-linecap:butt;stroke-linejoin:round;stroke-miterlimit:10;stroke-dasharray:none;stroke-opacity:0.25"
           d="m 2.840537,38.980016 0,-0.03001 1.463357,0 1.463357,0 1.463357,0 1.463357,0 1.463358,0 1.463357,0 1.463357,0 1.463357,0 1.463357,0 1.463358,0 1.463357,0 1.463357,0 1.463357,0 1.463357,0 1.463357,0 1.463358,0 1.463357,0 1.463357,0 1.463357,0 1.463357,0 1.463358,0 1.463357,0 1.463357,0 1.463357,0 1.463357,0 1.463358,0 1.463357,0 1.463357,0 1.463357,0 1.463357,0 1.463358,0 1.463357,0 1.463357,0 1.463357,0 1.463357,0 1.463357,0 1.463358,0 1.463357,0 1.463357,0 1.463357,0 1.463357,0 1.463358,0 1.463357,0 1.463357,0 1.463357,0 1.463357,0 1.463358,0 1.463357,0 1.463357,0 1.463357,0 1.463357,0 1.463357,0 1.463358,0 1.463357,0 1.463357,0 1.463357,0 1.463357,0 1.463358,0 1.463357,0 1.463357,0 1.463357,0 1.463357,0 1.463358,0 1.463357,0 1.463357,0 1.463357,0 1.463359,0 1.46336,0 1.46335,0 1.46336,0 1.46336,0 1.46335,0 1.46336,0 1.46336,0 1.46336,0 1.46335,0 1.46336,0 1.46336,0 1.46336,0 1.46335,0 1.46336,0 1.46336,0 1.46335,0 1.46336,0 1.46336,0 1.46335,0 1.46336,0 1.46336,0 1.46336,0 1.46335,0 1.46336,0 1.46336,0 1.46335,0 1.46336,0 1.46336,0 1.46336,0 1.46335,0 1.46336,0 1.46336,0 1.46336,0 1.46335,0 1.46336,0 1.46336,0 1.46335,0 1.46336,0 1.46336,0 1.46336,0 1.46335,0 1.46336,0 1.46336,0 1.46335,0 1.46336,0 1.46336,0 1.46336,0 1.46335,0 1.46336,0 1.46336,0 1.46335,0 1.46336,0 1.46336,0 1.46336,0 1.46335,0 1.46336,0 1.46336,0 1.46335,0 1.46336,0 1.46336,0 0,0.0228 0,0 -1.46336,9.58e-4 -1.46336,0.0084 -1.46335,0.01662 -1.46336,0.02687 -1.46336,0.04013 -1.46335,0.05717 -1.46336,0.0784 -1.46336,0.103876 -1.46336,0.133136 -1.46335,0.165249 -1.46336,0.198886 -1.46336,0.232568 -1.46335,0.265033 -1.46336,0.295684 -1.46336,0.325057 -1.46336,0.35518 -1.46335,0.389727 -1.46336,0.433862 -1.46336,0.493734 -1.46335,0.575621 -1.46336,0.684804 -1.46336,0.82429 -1.46336,0.993626 -1.46335,1.187996 -1.46336,1.397928 -1.46336,1.609775 -1.46335,1.807143 -1.46336,1.973154 -1.46336,2.093276 -1.46336,2.15818 -1.46335,2.165977 -1.46336,2.123222 -1.46336,2.044271 -1.46336,1.94901 -1.46335,1.859348 -1.46336,1.795251 -1.46336,1.771231 -1.46335,1.794046 -1.46336,1.862035 -1.46336,1.966089 -1.46336,2.091799 -1.46335,2.222204 -1.46336,2.340447 -1.46336,2.431961 -1.46335,2.485917 -1.46336,2.495967 -1.46336,2.46035 -1.46335,2.381439 -1.46336,2.264745 -1.46336,2.117442 -1.46336,1.94651 -1.46335,1.75681 -1.46336,1.54955 -1.46336,1.32165 -1.46336,1.06653 -1.46335,0.7762 -1.46336,0.44447 -1.46336,0.0706 -1.46335,-0.33802 -1.46336,-0.76433 -1.463359,-1.18277 -1.463357,-1.56233 -1.463357,-1.87096 -1.463357,-2.08073 -1.463358,-2.171689 -1.463357,-2.13407 -1.463357,-1.968137 -1.463357,-1.681981 -1.463357,-1.288238 -1.463358,-0.800851 -1.463357,-0.232957 -1.463357,0.403455 -1.463357,1.096149 -1.463357,1.830152 -1.463358,2.585196 -1.463357,3.334201 -1.463357,4.04357 -1.463357,4.67566 -1.463357,5.19281 -1.463357,5.56233 -1.463358,5.76113 -1.463357,5.77892 -1.463357,5.61924 -1.463357,5.29839 -1.463357,4.84232 -1.463358,4.2824 -1.463357,3.65106 -1.463357,2.97762 -1.463357,2.28545 -1.463357,1.58988 -1.463358,0.89772 -1.463357,0.20762 -1.463357,-0.4883 -1.463357,-1.20165 -1.463357,-1.94423 -1.463357,-2.72371 -1.463358,-3.53973 -1.463357,-4.38085 -1.463357,-5.22336 -1.463357,-6.03266 -1.463357,-6.76679 -1.463358,-7.38187 -1.463357,-7.83831 -1.463357,-8.10637 -1.463357,-8.170259 -1.463357,-8.029877 -1.463358,-7.700219 -1.463357,-7.2088 -1.463357,-6.591789 -1.463357,-5.889693 -1.463357,-5.14329 L 24.790894,54.540366 23.327537,50.877544 21.86418,47.891317 20.400823,45.513044 18.937466,43.663625 17.474109,42.260121 16.010751,41.221285 14.547394,40.471777 13.084037,39.94498 11.62068,39.584494 10.157323,39.344484 8.693965,39.189145 7.230608,39.091578 5.767251,39.03237 4.303894,38.998109 2.840537,38.980016 Z" /></g></g><g
       id="g228"><g
         clip-path="url(#clipPath232)"
         id="g230"><path
           id="path236"
           style="fill:#6acc65;fill-opacity:0.25;fill-rule:nonzero;stroke:#6acc65;stroke-width:0.30000001;stroke-linecap:butt;stroke-linejoin:round;stroke-miterlimit:10;stroke-dasharray:none;stroke-opacity:0.25"
           d="m 2.231991,39.007729 0,-0.05773 1.329098,0 1.329098,0 1.329098,0 1.329098,0 1.329098,0 1.329098,0 1.329098,0 1.329098,0 1.329098,0 1.329098,0 1.329098,0 1.329098,0 1.329098,0 1.329098,0 1.329098,0 1.329098,0 1.329098,0 1.329098,0 1.329098,0 1.329098,0 1.329098,0 1.329098,0 1.329098,0 1.329098,0 1.329098,0 1.329098,0 1.329098,0 1.329097,0 1.329098,0 1.329098,0 1.329098,0 1.329098,0 1.329098,0 1.329098,0 1.329098,0 1.329098,0 1.329098,0 1.329098,0 1.329098,0 1.329098,0 1.329098,0 1.329098,0 1.329098,0 1.329098,0 1.329098,0 1.329098,0 1.329098,0 1.329098,0 1.329098,0 1.329098,0 1.329098,0 1.329098,0 1.329098,0 1.329098,0 1.329098,0 1.329098,0 1.329098,0 1.329098,0 1.329098,0 1.329098,0 1.329098,0 1.329098,0 1.329098,0 1.329098,0 1.329098,0 1.329098,0 1.329098,0 1.329098,0 1.329098,0 1.329098,0 1.329098,0 1.329098,0 1.329098,0 1.329096,0 1.3291,0 1.3291,0 1.3291,0 1.32909,0 1.3291,0 1.3291,0 1.3291,0 1.3291,0 1.32909,0 1.3291,0 1.3291,0 1.3291,0 1.3291,0 1.32909,0 1.3291,0 1.3291,0 1.3291,0 1.3291,0 1.32909,0 1.3291,0 1.3291,0 1.3291,0 1.3291,0 1.32909,0 1.3291,0 1.3291,0 1.3291,0 1.3291,0 1.32909,0 1.3291,0 1.3291,0 1.3291,0 1.32909,0 1.3291,0 1.3291,0 1.3291,0 1.3291,0 1.32909,0 1.3291,0 1.3291,0 1.3291,0 1.3291,0 1.32909,0 1.3291,0 1.3291,0 1.3291,0 1.3291,0 1.3291,0 1.32909,0 1.3291,0 1.3291,0 1.3291,0 1.3291,0 0,0.05117 0,0 -1.3291,0.0091 -1.3291,0.02578 -1.3291,0.04656 -1.3291,0.0745 -1.32909,0.112852 -1.3291,0.164961 -1.3291,0.234147 -1.3291,0.323346 -1.3291,0.434635 -1.3291,0.568638 -1.32909,0.72391 -1.3291,0.896438 -1.3291,1.079368 -1.3291,1.263135 -1.3291,1.43608 -1.32909,1.585576 -1.3291,1.699608 -1.3291,1.768565 -1.3291,1.786993 -1.3291,1.75492 -1.32909,1.678448 -1.3291,1.569388 -1.3291,1.443878 -1.3291,1.320147 -1.32909,1.215773 -1.3291,1.144939 -1.3291,1.116172 -1.3291,1.131058 -1.3291,1.184158 -1.32909,1.264171 -1.3291,1.35613 -1.3291,1.444176 -1.3291,1.514428 -1.3291,1.557396 -1.32909,1.569525 -1.3291,1.553656 -1.3291,1.518354 -1.3291,1.476292 -1.3291,1.441958 -1.32909,1.429091 -1.3291,1.448195 -1.3291,1.504477 -1.3291,1.59645 -1.3291,1.715429 -1.32909,1.845954 -1.3291,1.96719 -1.3291,2.055183 -1.3291,2.085756 -1.3291,2.037735 -1.32909,1.896052 -1.3291,1.65432 -1.3291,1.3164 -1.3291,0.89672 -1.329096,0.41915 -1.329098,-0.0854 -1.329098,-0.58224 -1.329098,-1.03696 -1.329098,-1.41893 -1.329098,-1.70449 -1.329098,-1.879023 -1.329098,-1.937661 -1.329098,-1.884846 -1.329098,-1.73276 -1.329098,-1.499044 -1.329098,-1.204204 -1.329098,-0.869108 -1.329098,-0.512876 -1.329098,-0.151408 -1.329098,0.203413 -1.329098,0.543901 -1.329098,0.866235 -1.329098,1.169887 -1.329098,1.456971 -1.329098,1.731681 -1.329098,1.999925 -1.329098,2.269106 -1.329098,2.547961 -1.329098,2.8463 -1.329098,3.17438 -1.329098,3.54186 -1.329098,3.95616 -1.329098,4.42025 -1.329098,4.93017 -1.329098,5.47248 -1.329098,6.02229 -1.329098,6.54215 -1.329098,6.98274 -1.329098,7.28544 -1.329098,7.387 -1.329098,7.22636 -1.329098,6.75251 -1.329098,5.93268 -1.329098,4.75942 -1.329098,3.25518 -1.329098,1.47334 -1.329098,-0.5048 -1.329098,-2.57708 -1.329098,-4.63032 -1.329098,-6.55197 -1.329097,-8.24122 -1.329098,-9.61838 -1.329098,-10.63092 -1.329098,-11.2559 L 32.801245,128.10007 31.472147,116.71153 30.143049,105.73846 28.813951,95.42749 27.484853,85.961535 26.155755,77.460356 24.826657,69.985188 23.497559,63.546165 22.168461,58.111334 20.839363,53.6163 19.510265,49.973794 18.181167,47.082627 16.852069,44.835636 15.522971,43.12636 14.193873,41.85425 12.864775,40.92837 11.535677,40.269625 10.206579,39.811685 8.877481,39.500836 7.548383,39.295047 6.219285,39.162558 4.890187,39.080267 3.561089,39.032127 2.231991,39.007729 Z" /></g></g><g
       id="g238"><g
         clip-path="url(#clipPath242)"
         id="g240"><path
           id="path246"
           style="fill:none;stroke:#4878cf;stroke-width:1.75;stroke-linecap:round;stroke-linejoin:round;stroke-miterlimit:10;stroke-dasharray:none;stroke-opacity:1"
           d="m 2.840537,38.980016 4.390071,0.111562 2.926715,0.252906 1.463357,0.24001 1.463357,0.360486 1.463357,0.526797 1.463357,0.749508 1.463358,1.038836 1.463357,1.403504 1.463357,1.849419 1.463357,2.378273 1.463357,2.986227 1.463357,3.662822 1.463358,4.390267 1.463357,5.14329 1.463357,5.889693 1.463357,6.591789 2.926715,14.909019 5.853428,32.144816 1.463358,7.38187 1.463357,6.76679 1.463357,6.03266 1.463357,5.22336 1.463357,4.38085 1.463358,3.53973 1.463357,2.72371 1.463357,1.94423 1.463357,1.20165 1.463357,0.4883 1.463357,-0.20762 1.463358,-0.89772 1.463357,-1.58988 1.463357,-2.28545 1.463357,-2.97762 1.463357,-3.65106 1.463358,-4.2824 1.463357,-4.84232 2.926714,-10.91763 4.390072,-17.10238 1.463357,-5.19281 1.463357,-4.67566 1.463357,-4.04357 1.463357,-3.334201 1.463358,-2.585196 1.463357,-1.830152 1.463357,-1.096149 1.463357,-0.403455 1.463357,0.232957 1.463358,0.800851 1.463357,1.288238 1.463357,1.681981 2.926714,4.102207 2.926715,4.252419 1.463357,1.87096 1.463357,1.56233 1.463359,1.18277 1.46336,0.76433 1.46335,0.33802 1.46336,-0.0706 1.46336,-0.44447 1.46335,-0.7762 1.46336,-1.06653 1.46336,-1.32165 1.46336,-1.54955 1.46335,-1.75681 2.92672,-4.063952 2.92671,-4.646184 7.31679,-12.214642 2.92671,-4.314003 2.92672,-3.828124 5.85342,-7.219876 2.92672,-3.993281 7.31679,-10.513809 1.46335,-1.807143 1.46336,-1.609775 1.46336,-1.397928 1.46335,-1.187996 1.46336,-0.993626 1.46336,-0.82429 2.92671,-1.260425 2.92672,-0.927596 4.39007,-1.069964 4.39007,-0.793285 4.39007,-0.497271 4.39007,-0.239446 7.31679,-0.09299 0,0" /></g></g><g
       id="g248"><g
         clip-path="url(#clipPath252)"
         id="g250"><path
           id="path256"
           style="fill:none;stroke:#6acc65;stroke-width:1.75;stroke-linecap:round;stroke-linejoin:round;stroke-miterlimit:10;stroke-dasharray:none;stroke-opacity:1"
           d="m 2.231991,39.007729 3.987294,0.154829 2.658196,0.338278 1.329098,0.310849 1.329098,0.45794 1.329098,0.658745 1.329098,0.92588 1.329098,1.27211 1.329098,1.709276 1.329098,2.246991 1.329098,2.891167 1.329098,3.642506 1.329098,4.495034 1.329098,5.434831 1.329098,6.439023 1.329098,7.475168 1.329098,8.501179 1.329098,9.465955 2.658196,21.28404 5.316392,44.774 1.329098,9.61838 1.329097,8.24122 1.329098,6.55197 1.329098,4.63032 1.329098,2.57708 1.329098,0.5048 1.329098,-1.47334 1.329098,-3.25518 1.329098,-4.75942 1.329098,-5.93268 2.658196,-13.97887 3.987294,-21.65518 2.658196,-12.56444 1.329098,-5.47248 1.329098,-4.93017 1.329098,-4.42025 1.329098,-3.95616 1.329098,-3.54186 1.329098,-3.17438 1.329098,-2.8463 1.329098,-2.547964 1.329098,-2.269106 1.329098,-1.999925 1.329098,-1.731681 1.329098,-1.456971 1.329098,-1.169887 1.329098,-0.866235 1.329098,-0.543901 1.329098,-0.203413 1.329098,0.151408 1.329098,0.512876 1.329098,0.869108 1.329098,1.204204 1.329098,1.499044 2.658196,3.617606 2.658196,3.816687 1.329098,1.70449 1.329098,1.41893 1.329098,1.03696 1.329098,0.58224 1.329098,0.0854 1.329096,-0.41915 1.3291,-0.89672 1.3291,-1.3164 1.3291,-1.65432 2.65819,-3.93379 3.9873,-6.108129 2.65819,-3.561383 2.6582,-3.100927 6.64549,-7.31389 6.64549,-7.639181 2.65819,-2.620301 3.9873,-3.431388 2.65819,-2.360712 2.6582,-2.764025 2.65819,-3.247836 6.64549,-8.595662 1.3291,-1.43608 1.3291,-1.263135 1.3291,-1.079368 1.3291,-0.896438 1.32909,-0.72391 1.3291,-0.568638 2.6582,-0.757981 2.6582,-0.399108 3.98729,-0.233911 2.6582,-0.03487 0,0" /></g></g><g
       id="g258"><text
         id="text260"
         style="font-variant:normal;font-weight:normal;font-size:11px;font-family:'Liberation Sans';-inkscape-font-specification:LiberationSans;writing-mode:lr-tb;fill:#262626;fill-opacity:1;fill-rule:nonzero;stroke:none"
         transform="matrix(1,0,0,-1,101.34757,265.45)"><tspan
           id="tspan262"
           y="0"
           x="0 7.3369999 13.453 19.569 22.011 24.452999">Public</tspan></text>
<path
         id="path264"
         style="fill:#eaeaf2;fill-opacity:1;fill-rule:nonzero;stroke:none"
         d="m 250.41719,38.95 212.70139,0 0,221.5 -212.70139,0 0,-221.5 z" /></g><g
       id="g266"><g
         clip-path="url(#clipPath270)"
         id="g268"><path
           id="path274"
           style="fill:none;stroke:#ffffff;stroke-width:1;stroke-linecap:round;stroke-linejoin:round;stroke-miterlimit:10;stroke-dasharray:none;stroke-opacity:1"
           d="m 250.41719,38.95 0,221.5" /></g></g><g
       id="g276"><path
         id="path278"
         style="fill:#262626;fill-opacity:1;fill-rule:nonzero;stroke:#262626;stroke-width:1;stroke-linecap:butt;stroke-linejoin:round;stroke-miterlimit:10;stroke-dasharray:none;stroke-opacity:1"
         d="m 250.41719,38.95 0,0" /><text
         id="text280"
         style="font-variant:normal;font-weight:normal;font-size:10px;font-family:'Liberation Sans';-inkscape-font-specification:LiberationSans;writing-mode:lr-tb;fill:#262626;fill-opacity:1;fill-rule:nonzero;stroke:none"
         transform="matrix(1,0,0,-1,247.63595,24.7)"><tspan
           id="tspan282"
           y="0"
           x="0">0</tspan></text>
</g><g
       id="g284"><g
         clip-path="url(#clipPath288)"
         id="g286"><path
           id="path292"
           style="fill:none;stroke:#ffffff;stroke-width:1;stroke-linecap:round;stroke-linejoin:round;stroke-miterlimit:10;stroke-dasharray:none;stroke-opacity:1"
           d="m 311.18902,38.95 0,221.5" /></g></g><g
       id="g294"><path
         id="path296"
         style="fill:#262626;fill-opacity:1;fill-rule:nonzero;stroke:#262626;stroke-width:1;stroke-linecap:butt;stroke-linejoin:round;stroke-miterlimit:10;stroke-dasharray:none;stroke-opacity:1"
         d="m 311.18902,38.95 0,0" /><text
         id="text298"
         style="font-variant:normal;font-weight:normal;font-size:10px;font-family:'Liberation Sans';-inkscape-font-specification:LiberationSans;writing-mode:lr-tb;fill:#262626;fill-opacity:1;fill-rule:nonzero;stroke:none"
         transform="matrix(1,0,0,-1,303.12652,24.7)"><tspan
           id="tspan300"
           y="0"
           x="0 5.5599999 11.12">10k</tspan></text>
</g><g
       id="g302"><g
         clip-path="url(#clipPath306)"
         id="g304"><path
           id="path310"
           style="fill:none;stroke:#ffffff;stroke-width:1;stroke-linecap:round;stroke-linejoin:round;stroke-miterlimit:10;stroke-dasharray:none;stroke-opacity:1"
           d="m 371.96084,38.95 0,221.5" /></g></g><g
       id="g312"><path
         id="path314"
         style="fill:#262626;fill-opacity:1;fill-rule:nonzero;stroke:#262626;stroke-width:1;stroke-linecap:butt;stroke-linejoin:round;stroke-miterlimit:10;stroke-dasharray:none;stroke-opacity:1"
         d="m 371.96084,38.95 0,0" /><text
         id="text316"
         style="font-variant:normal;font-weight:normal;font-size:10px;font-family:'Liberation Sans';-inkscape-font-specification:LiberationSans;writing-mode:lr-tb;fill:#262626;fill-opacity:1;fill-rule:nonzero;stroke:none"
         transform="matrix(1,0,0,-1,363.89834,24.7)"><tspan
           id="tspan318"
           y="0"
           x="0 5.5599999 11.12">20k</tspan></text>
</g><g
       id="g320"><g
         clip-path="url(#clipPath324)"
         id="g322"><path
           id="path328"
           style="fill:none;stroke:#ffffff;stroke-width:1;stroke-linecap:round;stroke-linejoin:round;stroke-miterlimit:10;stroke-dasharray:none;stroke-opacity:1"
           d="m 432.73267,38.95 0,221.5" /></g></g><g
       id="g330"><path
         id="path332"
         style="fill:#262626;fill-opacity:1;fill-rule:nonzero;stroke:#262626;stroke-width:1;stroke-linecap:butt;stroke-linejoin:round;stroke-miterlimit:10;stroke-dasharray:none;stroke-opacity:1"
         d="m 432.73267,38.95 0,0" /><text
         id="text334"
         style="font-variant:normal;font-weight:normal;font-size:10px;font-family:'Liberation Sans';-inkscape-font-specification:LiberationSans;writing-mode:lr-tb;fill:#262626;fill-opacity:1;fill-rule:nonzero;stroke:none"
         transform="matrix(1,0,0,-1,424.67017,24.7)"><tspan
           id="tspan336"
           y="0"
           x="0 5.5599999 11.12">30k</tspan></text>
<text
         id="text338"
         style="font-variant:normal;font-weight:normal;font-size:11px;font-family:'Liberation Sans';-inkscape-font-specification:LiberationSans;writing-mode:lr-tb;fill:#262626;fill-opacity:1;fill-rule:nonzero;stroke:none"
         transform="matrix(1,0,0,-1,270.78351,9.48125)"><tspan
           id="tspan340"
           y="0"
           x="0 7.9419999 14.058 23.221001 29.337 31.778999 37.895 40.952999 43.395 48.895 55.011002 58.069 67.232002 73.348 79.463997 81.905998 88.022003 94.138 97.195999 105.138 111.254 117.37 120.428 123.486 127.149 133.265 136.92799 139.98599 143.649 149.765 155.881 161.99699 168.11301">Cumulative Median Debt ($) (2013)</tspan></text>
</g><g
       id="g342"><g
         clip-path="url(#clipPath346)"
         id="g344"><path
           id="path350"
           style="fill:none;stroke:#ffffff;stroke-width:1;stroke-linecap:round;stroke-linejoin:round;stroke-miterlimit:10;stroke-dasharray:none;stroke-opacity:1"
           d="m 250.41719,38.95 212.70139,0" /></g></g><g
       id="g352"><path
         id="path354"
         style="fill:#262626;fill-opacity:1;fill-rule:nonzero;stroke:#262626;stroke-width:1;stroke-linecap:butt;stroke-linejoin:round;stroke-miterlimit:10;stroke-dasharray:none;stroke-opacity:1"
         d="m 250.41719,38.95 0,0" /></g><g
       id="g356"><g
         clip-path="url(#clipPath360)"
         id="g358"><path
           id="path364"
           style="fill:none;stroke:#ffffff;stroke-width:1;stroke-linecap:round;stroke-linejoin:round;stroke-miterlimit:10;stroke-dasharray:none;stroke-opacity:1"
           d="m 250.41719,66.6375 212.70139,0" /></g></g><g
       id="g366"><path
         id="path368"
         style="fill:#262626;fill-opacity:1;fill-rule:nonzero;stroke:#262626;stroke-width:1;stroke-linecap:butt;stroke-linejoin:round;stroke-miterlimit:10;stroke-dasharray:none;stroke-opacity:1"
         d="m 250.41719,66.6375 0,0" /></g><g
       id="g370"><g
         clip-path="url(#clipPath374)"
         id="g372"><path
           id="path378"
           style="fill:none;stroke:#ffffff;stroke-width:1;stroke-linecap:round;stroke-linejoin:round;stroke-miterlimit:10;stroke-dasharray:none;stroke-opacity:1"
           d="m 250.41719,94.325 212.70139,0" /></g></g><g
       id="g380"><path
         id="path382"
         style="fill:#262626;fill-opacity:1;fill-rule:nonzero;stroke:#262626;stroke-width:1;stroke-linecap:butt;stroke-linejoin:round;stroke-miterlimit:10;stroke-dasharray:none;stroke-opacity:1"
         d="m 250.41719,94.325 0,0" /></g><g
       id="g384"><g
         clip-path="url(#clipPath388)"
         id="g386"><path
           id="path392"
           style="fill:none;stroke:#ffffff;stroke-width:1;stroke-linecap:round;stroke-linejoin:round;stroke-miterlimit:10;stroke-dasharray:none;stroke-opacity:1"
           d="m 250.41719,122.0125 212.70139,0" /></g></g><g
       id="g394"><path
         id="path396"
         style="fill:#262626;fill-opacity:1;fill-rule:nonzero;stroke:#262626;stroke-width:1;stroke-linecap:butt;stroke-linejoin:round;stroke-miterlimit:10;stroke-dasharray:none;stroke-opacity:1"
         d="m 250.41719,122.0125 0,0" /></g><g
       id="g398"><g
         clip-path="url(#clipPath402)"
         id="g400"><path
           id="path406"
           style="fill:none;stroke:#ffffff;stroke-width:1;stroke-linecap:round;stroke-linejoin:round;stroke-miterlimit:10;stroke-dasharray:none;stroke-opacity:1"
           d="m 250.41719,149.7 212.70139,0" /></g></g><g
       id="g408"><path
         id="path410"
         style="fill:#262626;fill-opacity:1;fill-rule:nonzero;stroke:#262626;stroke-width:1;stroke-linecap:butt;stroke-linejoin:round;stroke-miterlimit:10;stroke-dasharray:none;stroke-opacity:1"
         d="m 250.41719,149.7 0,0" /></g><g
       id="g412"><g
         clip-path="url(#clipPath416)"
         id="g414"><path
           id="path420"
           style="fill:none;stroke:#ffffff;stroke-width:1;stroke-linecap:round;stroke-linejoin:round;stroke-miterlimit:10;stroke-dasharray:none;stroke-opacity:1"
           d="m 250.41719,177.3875 212.70139,0" /></g></g><g
       id="g422"><path
         id="path424"
         style="fill:#262626;fill-opacity:1;fill-rule:nonzero;stroke:#262626;stroke-width:1;stroke-linecap:butt;stroke-linejoin:round;stroke-miterlimit:10;stroke-dasharray:none;stroke-opacity:1"
         d="m 250.41719,177.3875 0,0" /></g><g
       id="g426"><g
         clip-path="url(#clipPath430)"
         id="g428"><path
           id="path434"
           style="fill:none;stroke:#ffffff;stroke-width:1;stroke-linecap:round;stroke-linejoin:round;stroke-miterlimit:10;stroke-dasharray:none;stroke-opacity:1"
           d="m 250.41719,205.075 212.70139,0" /></g></g><g
       id="g436"><path
         id="path438"
         style="fill:#262626;fill-opacity:1;fill-rule:nonzero;stroke:#262626;stroke-width:1;stroke-linecap:butt;stroke-linejoin:round;stroke-miterlimit:10;stroke-dasharray:none;stroke-opacity:1"
         d="m 250.41719,205.075 0,0" /></g><g
       id="g440"><g
         clip-path="url(#clipPath444)"
         id="g442"><path
           id="path448"
           style="fill:none;stroke:#ffffff;stroke-width:1;stroke-linecap:round;stroke-linejoin:round;stroke-miterlimit:10;stroke-dasharray:none;stroke-opacity:1"
           d="m 250.41719,232.7625 212.70139,0" /></g></g><g
       id="g450"><path
         id="path452"
         style="fill:#262626;fill-opacity:1;fill-rule:nonzero;stroke:#262626;stroke-width:1;stroke-linecap:butt;stroke-linejoin:round;stroke-miterlimit:10;stroke-dasharray:none;stroke-opacity:1"
         d="m 250.41719,232.7625 0,0" /></g><g
       id="g454"><g
         clip-path="url(#clipPath458)"
         id="g456"><path
           id="path462"
           style="fill:none;stroke:#ffffff;stroke-width:1;stroke-linecap:round;stroke-linejoin:round;stroke-miterlimit:10;stroke-dasharray:none;stroke-opacity:1"
           d="m 250.41719,260.45 212.70139,0" /></g></g><g
       id="g464"><path
         id="path466"
         style="fill:#262626;fill-opacity:1;fill-rule:nonzero;stroke:#262626;stroke-width:1;stroke-linecap:butt;stroke-linejoin:round;stroke-miterlimit:10;stroke-dasharray:none;stroke-opacity:1"
         d="m 250.41719,260.45 0,0" /></g><g
       id="g468"><g
         clip-path="url(#clipPath472)"
         id="g470"><path
           id="path476"
           style="fill:#4878cf;fill-opacity:0.25;fill-rule:nonzero;stroke:#4878cf;stroke-width:0.30000001;stroke-linecap:butt;stroke-linejoin:round;stroke-miterlimit:10;stroke-dasharray:none;stroke-opacity:0.25"
           d="m 245.53712,39.00278 0,-0.05278 1.58419,0 1.58418,0 1.58419,0 1.58418,0 1.58419,0 1.58418,0 1.58418,0 1.58419,0 1.58418,0 1.58419,0 1.58418,0 1.58418,0 1.58419,0 1.58418,0 1.58419,0 1.58418,0 1.58418,0 1.58419,0 1.58418,0 1.58419,0 1.58418,0 1.58419,0 1.58418,0 1.58418,0 1.58419,0 1.58418,0 1.58419,0 1.58418,0 1.58418,0 1.58419,0 1.58418,0 1.58419,0 1.58418,0 1.58419,0 1.58418,0 1.58418,0 1.58419,0 1.58418,0 1.58419,0 1.58418,0 1.58418,0 1.58419,0 1.58418,0 1.58419,0 1.58418,0 1.58418,0 1.58419,0 1.58418,0 1.58419,0 1.58418,0 1.58419,0 1.58418,0 1.58418,0 1.58419,0 1.58418,0 1.58419,0 1.58418,0 1.58418,0 1.58419,0 1.58418,0 1.58419,0 1.58418,0 1.58419,0 1.58418,0 1.58418,0 1.58419,0 1.58418,0 1.58419,0 1.58418,0 1.58418,0 1.58419,0 1.58418,0 1.58419,0 1.58418,0 1.58419,0 1.58418,0 1.58418,0 1.58419,0 1.58418,0 1.58419,0 1.58418,0 1.58418,0 1.58419,0 1.58418,0 1.58419,0 1.58418,0 1.58418,0 1.58419,0 1.58418,0 1.58419,0 1.58418,0 1.58419,0 1.58418,0 1.58418,0 1.58419,0 1.58418,0 1.58419,0 1.58418,0 1.58418,0 1.58419,0 1.58418,0 1.58419,0 1.58418,0 1.58419,0 1.58418,0 1.58418,0 1.58419,0 1.58418,0 1.58419,0 1.58418,0 1.58418,0 1.58419,0 1.58418,0 1.58419,0 1.58418,0 1.58419,0 1.58418,0 1.58418,0 1.58419,0 1.58418,0 1.58419,0 1.58418,0 1.58418,0 1.58419,0 1.58418,0 1.58419,0 1.58418,0 0,0.0529 0,0 -1.58418,0.0109 -1.58419,0.02335 -1.58418,0.03889 -1.58419,0.05905 -1.58418,0.08552 -1.58418,0.120085 -1.58419,0.164582 -1.58418,0.220809 -1.58419,0.290402 -1.58418,0.374699 -1.58418,0.474587 -1.58419,0.590374 -1.58418,0.721704 -1.58419,0.867525 -1.58418,1.026135 -1.58419,1.195317 -1.58418,1.372552 -1.58418,1.555282 -1.58419,1.74121 -1.58418,1.928589 -1.58419,2.116452 -1.58418,2.304761 -1.58418,2.494435 -1.58419,2.687254 -1.58418,2.885623 -1.58419,3.092221 -1.58418,3.309568 -1.58419,3.539515 -1.58418,3.782715 -1.58418,4.03812 -1.58419,4.302507 -1.58418,4.570134 -1.58419,4.832522 -1.58418,5.078431 -1.58418,5.29412 -1.58419,5.46377 -1.58418,5.57033 -1.58419,5.5965 -1.58418,5.52603 -1.58419,5.34508 -1.58418,5.04362 -1.58418,4.61677 -1.58419,4.06578 -1.58418,3.39882 -1.58419,2.63107 -1.58418,1.78445 -1.58418,0.88669 -1.58419,-0.0302 -1.58418,-0.93172 -1.58419,-1.7834 -1.58418,-2.55302 -1.58418,-3.21299 -1.58419,-3.74237 -1.58418,-4.12827 -1.58419,-4.3665 -1.58418,-4.46137 -1.58419,-4.42473 -1.58418,-4.27423 -1.58418,-4.03123 -1.58419,-3.71845 -1.58418,-3.35801 -1.58419,-2.96975 -1.58418,-2.57033 -1.58418,-2.17298 -1.58419,-1.78791 -1.58418,-1.4231 -1.58419,-1.085219 -1.58418,-0.780434 -1.58419,-0.514738 -1.58418,-0.293874 -1.58418,-0.122753 -1.58419,-0.0046 -1.58418,0.06003 -1.58419,0.07372 -1.58418,0.04249 -1.58418,-0.02474 -1.58419,-0.117284 -1.58418,-0.224162 -1.58419,-0.335743 -1.58418,-0.445155 -1.58419,-0.549188 -1.58418,-0.64847 -1.58418,-0.746909 -1.58419,-0.850525 -1.58418,-0.965907 -1.58419,-1.098642 -1.58418,-1.251997 -1.58418,-1.426078 -1.58419,-1.617585 -1.58418,-1.820112 -1.58419,-2.0249 -1.58418,-2.221828 -1.58418,-2.40049 -1.58419,-2.551195 -1.58418,-2.665772 -1.58419,-2.73819 -1.58418,-2.764929 -1.58419,-2.745153 -1.58418,-2.680692 -1.58418,-2.575821 -1.58419,-2.436868 -1.58418,-2.271652 -1.58419,-2.088794 -1.58418,-1.896976 -1.58418,-1.704215 -1.58419,-1.517261 -1.58418,-1.341197 -1.58419,-1.179264 -1.58418,-1.032944 -1.58419,-0.902242 -1.58418,-0.786097 -1.58418,-0.682849 -1.58419,-0.590663 -1.58418,-0.507858 -1.58419,-0.433117 -1.58418,-0.365547 -1.58418,-0.304645 -1.58419,-0.250194 -1.58418,-0.202113 -1.58419,-0.160337 -1.58418,-0.124699 -1.58418,-0.09488 -1.58419,-0.07039 -1.58418,-0.05054 -1.58419,-0.03454 -1.58418,-0.02145 -1.58419,-0.01027 z" /></g></g><g
       id="g478"><g
         clip-path="url(#clipPath482)"
         id="g480"><path
           id="path486"
           style="fill:#6acc65;fill-opacity:0.25;fill-rule:nonzero;stroke:#6acc65;stroke-width:0.30000001;stroke-linecap:butt;stroke-linejoin:round;stroke-miterlimit:10;stroke-dasharray:none;stroke-opacity:0.25"
           d="m 240.46918,39.000078 0,-0.05008 1.56872,0 1.56872,0 1.56872,0 1.56872,0 1.56872,0 1.56872,0 1.56873,0 1.56872,0 1.56872,0 1.56872,0 1.56872,0 1.56872,0 1.56872,0 1.56873,0 1.56872,0 1.56872,0 1.56872,0 1.56872,0 1.56872,0 1.56872,0 1.56873,0 1.56872,0 1.56872,0 1.56872,0 1.56872,0 1.56872,0 1.56872,0 1.56872,0 1.56873,0 1.56872,0 1.56872,0 1.56872,0 1.56872,0 1.56872,0 1.56872,0 1.56873,0 1.56872,0 1.56872,0 1.56872,0 1.56872,0 1.56872,0 1.56872,0 1.56872,0 1.56873,0 1.56872,0 1.56872,0 1.56872,0 1.56872,0 1.56872,0 1.56872,0 1.56873,0 1.56872,0 1.56872,0 1.56872,0 1.56872,0 1.56872,0 1.56872,0 1.56872,0 1.56873,0 1.56872,0 1.56872,0 1.56872,0 1.56872,0 1.56872,0 1.56872,0 1.56873,0 1.56872,0 1.56872,0 1.56872,0 1.56872,0 1.56872,0 1.56872,0 1.56873,0 1.56872,0 1.56872,0 1.56872,0 1.56872,0 1.56872,0 1.56872,0 1.56872,0 1.56873,0 1.56872,0 1.56872,0 1.56872,0 1.56872,0 1.56872,0 1.56872,0 1.56873,0 1.56872,0 1.56872,0 1.56872,0 1.56872,0 1.56872,0 1.56872,0 1.56872,0 1.56873,0 1.56872,0 1.56872,0 1.56872,0 1.56872,0 1.56872,0 1.56872,0 1.56873,0 1.56872,0 1.56872,0 1.56872,0 1.56872,0 1.56872,0 1.56872,0 1.56873,0 1.56872,0 1.56872,0 1.56872,0 1.56872,0 1.56872,0 1.56872,0 1.56872,0 1.56873,0 1.56872,0 1.56872,0 1.56872,0 1.56872,0 1.56872,0 1.56872,0 1.56873,0 1.56872,0 1.56872,0 0,0.06241 0,0 -1.56872,0.02511 -1.56872,0.04139 -1.56873,0.06271 -1.56872,0.09073 -1.56872,0.127083 -1.56872,0.173257 -1.56872,0.230458 -1.56872,0.299382 -1.56872,0.380037 -1.56873,0.471565 -1.56872,0.572157 -1.56872,0.679073 -1.56872,0.788802 -1.56872,0.897367 -1.56872,1.00077 -1.56872,1.095513 -1.56872,1.17915 -1.56873,1.250775 -1.56872,1.311377 -1.56872,1.363997 -1.56872,1.413635 -1.56872,1.466919 -1.56872,1.53156 -1.56872,1.615659 -1.56873,1.726909 -1.56872,1.87182 -1.56872,2.054984 -1.56872,2.278461 -1.56872,2.541312 -1.56872,2.839285 -1.56872,3.164686 -1.56873,3.506428 -1.56872,3.850285 -1.56872,4.179386 -1.56872,4.474952 -1.56872,4.717337 -1.56872,4.887312 -1.56872,4.967609 -1.56872,4.94452 -1.56873,4.80963 -1.56872,4.56102 -1.56872,4.20435 -1.56872,3.75298 -1.56872,3.22745 -1.56872,2.65402 -1.56872,2.06233 -1.56873,1.48266 -1.56872,0.94282 -1.56872,0.46521 -1.56872,0.0645 -1.56872,-0.25364 -1.56872,-0.49296 -1.56872,-0.6654 -1.56872,-0.78905 -1.56873,-0.88525 -1.56872,-0.97531 -1.56872,-1.07727 -1.56872,-1.2034 -1.56872,-1.35847 -1.56872,-1.53919 -1.56872,-1.73482 -1.56873,-1.92868 -1.56872,-2.10044 -1.56872,-2.22852 -1.56872,-2.29268 -1.56872,-2.27601 -1.56872,-2.1666 -1.56872,-1.95854 -1.56873,-1.65259 -1.56872,-1.25644 -1.56872,-0.78492 -1.56872,-0.25985 -1.56872,0.29012 -1.56872,0.83037 -1.56872,1.32174 -1.56872,1.7229 -1.56873,1.99377 -1.56872,2.09954 -1.56872,2.01516 -1.56872,1.72925 -1.56872,1.24696 -1.56872,0.59091 -1.56872,-0.20013 -1.56873,-1.07482 -1.56872,-1.97468 -1.56872,-2.84057 -1.56872,-3.61902 -1.56872,-4.26774 -1.56872,-4.75892 -1.56872,-5.080578 -1.56872,-5.235431 -1.56873,-5.238179 -1.56872,-5.111612 -1.56872,-4.882613 -1.56872,-4.578586 -1.56872,-4.224881 -1.56872,-3.843304 -1.56872,-3.451629 -1.56873,-3.063838 -1.56872,-2.690683 -1.56872,-2.340305 -1.56872,-2.0187 -1.56872,-1.729944 -1.56872,-1.47627 -1.56872,-1.258072 -1.56872,-1.073981 -1.56873,-0.92107 -1.56872,-0.795238 -1.56872,-0.691709 -1.56872,-0.605565 -1.56872,-0.532267 L 264,41.225517 l -1.56872,-0.409999 -1.56873,-0.35638 -1.56872,-0.306243 -1.56872,-0.259364 -1.56872,-0.215963 -1.56872,-0.176455 -1.56872,-0.141253 -1.56872,-0.110618 -1.56873,-0.08459 -1.56872,-0.06294 -1.56872,-0.04523 -1.56872,-0.03079 -1.56872,-0.01883 -1.56872,-0.0084 -1.56872,0.0016 z" /></g></g><g
       id="g488"><g
         clip-path="url(#clipPath492)"
         id="g490"><path
           id="path496"
           style="fill:none;stroke:#4878cf;stroke-width:1.75;stroke-linecap:round;stroke-linejoin:round;stroke-miterlimit:10;stroke-dasharray:none;stroke-opacity:1"
           d="m 245.53712,39.00278 6.33674,0.116803 4.75255,0.289966 3.16837,0.36245 3.16837,0.554839 3.16837,0.798664 3.16837,1.098521 3.16836,1.468946 1.58419,0.902242 1.58418,1.032944 1.58419,1.179264 1.58418,1.341197 1.58419,1.517261 1.58418,1.704215 1.58418,1.896976 3.16837,4.360446 3.16837,5.012689 9.50511,16.145931 3.16836,4.622318 1.58419,2.0249 1.58418,1.820112 1.58419,1.617585 1.58418,1.426078 1.58418,1.251997 3.16837,2.064549 3.16837,1.597434 3.16837,1.197658 3.16837,0.780898 3.16837,0.341446 3.16836,-0.01775 4.75256,-0.129156 1.58418,0.122753 1.58418,0.293874 1.58419,0.514738 1.58418,0.780434 1.58419,1.085228 1.58418,1.4231 1.58419,1.78791 1.58418,2.17298 1.58418,2.57033 1.58419,2.96975 1.58418,3.35801 1.58419,3.71845 3.16836,8.30546 6.33674,17.38086 1.58419,3.74237 1.58418,3.21299 1.58418,2.55302 1.58419,1.7834 1.58418,0.93172 1.58419,0.0302 1.58418,-0.88669 1.58418,-1.78445 1.58419,-2.63107 1.58418,-3.39882 1.58419,-4.06578 1.58418,-4.61677 3.16837,-10.3887 7.92092,-27.45075 3.16837,-9.910962 3.16837,-8.872641 3.16836,-7.820835 3.16837,-6.849083 3.16837,-5.977844 3.16837,-5.181689 3.16837,-4.421213 1.58418,-1.928589 1.58419,-1.74121 1.58418,-1.555282 1.58418,-1.372552 1.58419,-1.195317 1.58418,-1.026135 1.58419,-0.867525 1.58418,-0.721704 3.16837,-1.064961 3.16837,-0.665101 3.16837,-0.385391 4.75255,-0.264657 4.75255,-0.07314 0,0" /></g></g><g
       id="g498"><g
         clip-path="url(#clipPath502)"
         id="g500"><path
           id="path506"
           style="fill:none;stroke:#6acc65;stroke-width:1.75;stroke-linecap:round;stroke-linejoin:round;stroke-miterlimit:10;stroke-dasharray:none;stroke-opacity:1"
           d="m 240.46918,39.000078 7.8436,0.101639 4.70617,0.258143 4.70616,0.533671 3.13744,0.565607 3.13745,0.766379 3.13744,1.000288 3.13744,1.297274 1.56872,0.795238 1.56873,0.92107 1.56872,1.073981 1.56872,1.258072 1.56872,1.47627 1.56872,1.729944 1.56872,2.0187 1.56872,2.340305 1.56872,2.690683 1.56873,3.063838 1.56872,3.451629 1.56872,3.843304 1.56872,4.224881 3.13744,9.461199 7.84361,25.424717 1.56872,4.26774 1.56872,3.61902 1.56872,2.84057 1.56872,1.97468 1.56873,1.07482 1.56872,0.20013 1.56872,-0.59091 1.56872,-1.24696 1.56872,-1.72925 4.70617,-6.10847 1.56872,-1.7229 1.56872,-1.32174 1.56872,-0.83037 1.56872,-0.29012 1.56872,0.25985 1.56872,0.78492 1.56872,1.25644 1.56873,1.65259 1.56872,1.95854 3.13744,4.44261 3.13744,4.5212 3.13745,4.02912 1.56872,1.73482 1.56872,1.53919 1.56872,1.35847 3.13744,2.28067 3.13745,1.86056 3.13744,1.45445 1.56872,0.49296 1.56872,0.25364 1.56872,-0.0645 1.56872,-0.46521 1.56872,-0.94282 1.56873,-1.48266 1.56872,-2.06233 1.56872,-2.65402 1.56872,-3.22745 1.56872,-3.75298 1.56872,-4.20435 3.13745,-9.37065 6.27488,-19.516775 3.13744,-8.654338 1.56872,-3.850285 1.56873,-3.506428 1.56872,-3.164686 1.56872,-2.839285 1.56872,-2.541312 1.56872,-2.278461 1.56872,-2.054984 3.13745,-3.598729 3.13744,-3.147219 3.13744,-2.880554 3.13744,-2.675374 3.13745,-2.429925 3.13744,-2.096283 3.13744,-1.686169 3.13744,-1.25123 3.13745,-0.851602 3.13744,-0.52984 3.13744,-0.30034 4.70617,-0.194835 1.56872,-0.02511 0,0" /></g></g><g
       id="g508"><text
         id="text510"
         style="font-variant:normal;font-weight:normal;font-size:11px;font-family:'Liberation Sans';-inkscape-font-specification:LiberationSans;writing-mode:lr-tb;fill:#262626;fill-opacity:1;fill-rule:nonzero;stroke:none"
         transform="matrix(1,0,0,-1,316.67414,265.45)"><tspan
           id="tspan512"
           y="0"
           x="0 7.3369999 11 13.442 18.941999 25.058001 28.115999 34.231998 37.290001 43.405998 49.521999 55.638 61.754002 65.417 71.532997 74.591003 77.032997">Private nonprofit</tspan></text>
<path
         id="path514"
         style="fill:#eaeaf2;fill-opacity:1;fill-rule:nonzero;stroke:none"
         d="m 490.85314,38.95 212.70138,0 0,221.5 -212.70138,0 0,-221.5 z" /></g><g
       id="g516"><g
         clip-path="url(#clipPath520)"
         id="g518"><path
           id="path524"
           style="fill:none;stroke:#ffffff;stroke-width:1;stroke-linecap:round;stroke-linejoin:round;stroke-miterlimit:10;stroke-dasharray:none;stroke-opacity:1"
           d="m 490.85314,38.95 0,221.5" /></g></g><g
       id="g526"><path
         id="path528"
         style="fill:#262626;fill-opacity:1;fill-rule:nonzero;stroke:#262626;stroke-width:1;stroke-linecap:butt;stroke-linejoin:round;stroke-miterlimit:10;stroke-dasharray:none;stroke-opacity:1"
         d="m 490.85314,38.95 0,0" /><text
         id="text530"
         style="font-variant:normal;font-weight:normal;font-size:10px;font-family:'Liberation Sans';-inkscape-font-specification:LiberationSans;writing-mode:lr-tb;fill:#262626;fill-opacity:1;fill-rule:nonzero;stroke:none"
         transform="matrix(1,0,0,-1,488.07189,24.7)"><tspan
           id="tspan532"
           y="0"
           x="0">0</tspan></text>
</g><g
       id="g534"><g
         clip-path="url(#clipPath538)"
         id="g536"><path
           id="path542"
           style="fill:none;stroke:#ffffff;stroke-width:1;stroke-linecap:round;stroke-linejoin:round;stroke-miterlimit:10;stroke-dasharray:none;stroke-opacity:1"
           d="m 551.62496,38.95 0,221.5" /></g></g><g
       id="g544"><path
         id="path546"
         style="fill:#262626;fill-opacity:1;fill-rule:nonzero;stroke:#262626;stroke-width:1;stroke-linecap:butt;stroke-linejoin:round;stroke-miterlimit:10;stroke-dasharray:none;stroke-opacity:1"
         d="m 551.62496,38.95 0,0" /><text
         id="text548"
         style="font-variant:normal;font-weight:normal;font-size:10px;font-family:'Liberation Sans';-inkscape-font-specification:LiberationSans;writing-mode:lr-tb;fill:#262626;fill-opacity:1;fill-rule:nonzero;stroke:none"
         transform="matrix(1,0,0,-1,543.56246,24.7)"><tspan
           id="tspan550"
           y="0"
           x="0 5.5599999 11.12">10k</tspan></text>
</g><g
       id="g552"><g
         clip-path="url(#clipPath556)"
         id="g554"><path
           id="path560"
           style="fill:none;stroke:#ffffff;stroke-width:1;stroke-linecap:round;stroke-linejoin:round;stroke-miterlimit:10;stroke-dasharray:none;stroke-opacity:1"
           d="m 612.39679,38.95 0,221.5" /></g></g><g
       id="g562"><path
         id="path564"
         style="fill:#262626;fill-opacity:1;fill-rule:nonzero;stroke:#262626;stroke-width:1;stroke-linecap:butt;stroke-linejoin:round;stroke-miterlimit:10;stroke-dasharray:none;stroke-opacity:1"
         d="m 612.39679,38.95 0,0" /><text
         id="text566"
         style="font-variant:normal;font-weight:normal;font-size:10px;font-family:'Liberation Sans';-inkscape-font-specification:LiberationSans;writing-mode:lr-tb;fill:#262626;fill-opacity:1;fill-rule:nonzero;stroke:none"
         transform="matrix(1,0,0,-1,604.33429,24.7)"><tspan
           id="tspan568"
           y="0"
           x="0 5.5599999 11.12">20k</tspan></text>
</g><g
       id="g570"><g
         clip-path="url(#clipPath574)"
         id="g572"><path
           id="path578"
           style="fill:none;stroke:#ffffff;stroke-width:1;stroke-linecap:round;stroke-linejoin:round;stroke-miterlimit:10;stroke-dasharray:none;stroke-opacity:1"
           d="m 673.16861,38.95 0,221.5" /></g></g><g
       id="g580"><path
         id="path582"
         style="fill:#262626;fill-opacity:1;fill-rule:nonzero;stroke:#262626;stroke-width:1;stroke-linecap:butt;stroke-linejoin:round;stroke-miterlimit:10;stroke-dasharray:none;stroke-opacity:1"
         d="m 673.16861,38.95 0,0" /><text
         id="text584"
         style="font-variant:normal;font-weight:normal;font-size:10px;font-family:'Liberation Sans';-inkscape-font-specification:LiberationSans;writing-mode:lr-tb;fill:#262626;fill-opacity:1;fill-rule:nonzero;stroke:none"
         transform="matrix(1,0,0,-1,665.10611,24.7)"><tspan
           id="tspan586"
           y="0"
           x="0 5.5599999 11.12">30k</tspan></text>
<text
         id="text588"
         style="font-variant:normal;font-weight:normal;font-size:11px;font-family:'Liberation Sans';-inkscape-font-specification:LiberationSans;writing-mode:lr-tb;fill:#262626;fill-opacity:1;fill-rule:nonzero;stroke:none"
         transform="matrix(1,0,0,-1,511.21946,9.48125)"><tspan
           id="tspan590"
           y="0"
           x="0 7.9419999 14.058 23.221001 29.337 31.778999 37.895 40.952999 43.395 48.895 55.011002 58.069 67.232002 73.348 79.463997 81.905998 88.022003 94.138 97.195999 105.138 111.254 117.37 120.428 123.486 127.149 133.265 136.92799 139.98599 143.649 149.765 155.881 161.99699 168.11301">Cumulative Median Debt ($) (2013)</tspan></text>
</g><g
       id="g592"><g
         clip-path="url(#clipPath596)"
         id="g594"><path
           id="path600"
           style="fill:none;stroke:#ffffff;stroke-width:1;stroke-linecap:round;stroke-linejoin:round;stroke-miterlimit:10;stroke-dasharray:none;stroke-opacity:1"
           d="m 490.85314,38.95 212.70138,0" /></g></g><g
       id="g602"><path
         id="path604"
         style="fill:#262626;fill-opacity:1;fill-rule:nonzero;stroke:#262626;stroke-width:1;stroke-linecap:butt;stroke-linejoin:round;stroke-miterlimit:10;stroke-dasharray:none;stroke-opacity:1"
         d="m 490.85314,38.95 0,0" /></g><g
       id="g606"><g
         clip-path="url(#clipPath610)"
         id="g608"><path
           id="path614"
           style="fill:none;stroke:#ffffff;stroke-width:1;stroke-linecap:round;stroke-linejoin:round;stroke-miterlimit:10;stroke-dasharray:none;stroke-opacity:1"
           d="m 490.85314,66.6375 212.70138,0" /></g></g><g
       id="g616"><path
         id="path618"
         style="fill:#262626;fill-opacity:1;fill-rule:nonzero;stroke:#262626;stroke-width:1;stroke-linecap:butt;stroke-linejoin:round;stroke-miterlimit:10;stroke-dasharray:none;stroke-opacity:1"
         d="m 490.85314,66.6375 0,0" /></g><g
       id="g620"><g
         clip-path="url(#clipPath624)"
         id="g622"><path
           id="path628"
           style="fill:none;stroke:#ffffff;stroke-width:1;stroke-linecap:round;stroke-linejoin:round;stroke-miterlimit:10;stroke-dasharray:none;stroke-opacity:1"
           d="m 490.85314,94.325 212.70138,0" /></g></g><g
       id="g630"><path
         id="path632"
         style="fill:#262626;fill-opacity:1;fill-rule:nonzero;stroke:#262626;stroke-width:1;stroke-linecap:butt;stroke-linejoin:round;stroke-miterlimit:10;stroke-dasharray:none;stroke-opacity:1"
         d="m 490.85314,94.325 0,0" /></g><g
       id="g634"><g
         clip-path="url(#clipPath638)"
         id="g636"><path
           id="path642"
           style="fill:none;stroke:#ffffff;stroke-width:1;stroke-linecap:round;stroke-linejoin:round;stroke-miterlimit:10;stroke-dasharray:none;stroke-opacity:1"
           d="m 490.85314,122.0125 212.70138,0" /></g></g><g
       id="g644"><path
         id="path646"
         style="fill:#262626;fill-opacity:1;fill-rule:nonzero;stroke:#262626;stroke-width:1;stroke-linecap:butt;stroke-linejoin:round;stroke-miterlimit:10;stroke-dasharray:none;stroke-opacity:1"
         d="m 490.85314,122.0125 0,0" /></g><g
       id="g648"><g
         clip-path="url(#clipPath652)"
         id="g650"><path
           id="path656"
           style="fill:none;stroke:#ffffff;stroke-width:1;stroke-linecap:round;stroke-linejoin:round;stroke-miterlimit:10;stroke-dasharray:none;stroke-opacity:1"
           d="m 490.85314,149.7 212.70138,0" /></g></g><g
       id="g658"><path
         id="path660"
         style="fill:#262626;fill-opacity:1;fill-rule:nonzero;stroke:#262626;stroke-width:1;stroke-linecap:butt;stroke-linejoin:round;stroke-miterlimit:10;stroke-dasharray:none;stroke-opacity:1"
         d="m 490.85314,149.7 0,0" /></g><g
       id="g662"><g
         clip-path="url(#clipPath666)"
         id="g664"><path
           id="path670"
           style="fill:none;stroke:#ffffff;stroke-width:1;stroke-linecap:round;stroke-linejoin:round;stroke-miterlimit:10;stroke-dasharray:none;stroke-opacity:1"
           d="m 490.85314,177.3875 212.70138,0" /></g></g><g
       id="g672"><path
         id="path674"
         style="fill:#262626;fill-opacity:1;fill-rule:nonzero;stroke:#262626;stroke-width:1;stroke-linecap:butt;stroke-linejoin:round;stroke-miterlimit:10;stroke-dasharray:none;stroke-opacity:1"
         d="m 490.85314,177.3875 0,0" /></g><g
       id="g676"><g
         clip-path="url(#clipPath680)"
         id="g678"><path
           id="path684"
           style="fill:none;stroke:#ffffff;stroke-width:1;stroke-linecap:round;stroke-linejoin:round;stroke-miterlimit:10;stroke-dasharray:none;stroke-opacity:1"
           d="m 490.85314,205.075 212.70138,0" /></g></g><g
       id="g686"><path
         id="path688"
         style="fill:#262626;fill-opacity:1;fill-rule:nonzero;stroke:#262626;stroke-width:1;stroke-linecap:butt;stroke-linejoin:round;stroke-miterlimit:10;stroke-dasharray:none;stroke-opacity:1"
         d="m 490.85314,205.075 0,0" /></g><g
       id="g690"><g
         clip-path="url(#clipPath694)"
         id="g692"><path
           id="path698"
           style="fill:none;stroke:#ffffff;stroke-width:1;stroke-linecap:round;stroke-linejoin:round;stroke-miterlimit:10;stroke-dasharray:none;stroke-opacity:1"
           d="m 490.85314,232.7625 212.70138,0" /></g></g><g
       id="g700"><path
         id="path702"
         style="fill:#262626;fill-opacity:1;fill-rule:nonzero;stroke:#262626;stroke-width:1;stroke-linecap:butt;stroke-linejoin:round;stroke-miterlimit:10;stroke-dasharray:none;stroke-opacity:1"
         d="m 490.85314,232.7625 0,0" /></g><g
       id="g704"><g
         clip-path="url(#clipPath708)"
         id="g706"><path
           id="path712"
           style="fill:none;stroke:#ffffff;stroke-width:1;stroke-linecap:round;stroke-linejoin:round;stroke-miterlimit:10;stroke-dasharray:none;stroke-opacity:1"
           d="m 490.85314,260.45 212.70138,0" /></g></g><g
       id="g714"><path
         id="path716"
         style="fill:#262626;fill-opacity:1;fill-rule:nonzero;stroke:#262626;stroke-width:1;stroke-linecap:butt;stroke-linejoin:round;stroke-miterlimit:10;stroke-dasharray:none;stroke-opacity:1"
         d="m 490.85314,260.45 0,0" /></g><g
       id="g718"><g
         clip-path="url(#clipPath722)"
         id="g720"><path
           id="path726"
           style="fill:#4878cf;fill-opacity:0.25;fill-rule:nonzero;stroke:#4878cf;stroke-width:0.30000001;stroke-linecap:butt;stroke-linejoin:round;stroke-miterlimit:10;stroke-dasharray:none;stroke-opacity:0.25"
           d="m 499.954,39.032048 0,-0.08205 1.08791,0 1.08791,0 1.0879,0 1.08791,0 1.08791,0 1.0879,0 1.08791,0 1.08791,0 1.0879,0 1.08791,0 1.08791,0 1.08791,0 1.0879,0 1.08791,0 1.08791,0 1.0879,0 1.08791,0 1.08791,0 1.0879,0 1.08791,0 1.08791,0 1.0879,0 1.08791,0 1.08791,0 1.0879,0 1.08791,0 1.08791,0 1.08791,0 1.0879,0 1.08791,0 1.08791,0 1.0879,0 1.08791,0 1.08791,0 1.08791,0 1.0879,0 1.08791,0 1.08791,0 1.0879,0 1.08791,0 1.08791,0 1.0879,0 1.08791,0 1.08791,0 1.0879,0 1.08791,0 1.08791,0 1.08791,0 1.0879,0 1.08791,0 1.0879,0 1.08791,0 1.08791,0 1.08791,0 1.0879,0 1.08791,0 1.08791,0 1.0879,0 1.08791,0 1.08791,0 1.0879,0 1.08791,0 1.08791,0 1.08791,0 1.0879,0 1.08791,0 1.08791,0 1.0879,0 1.08791,0 1.08791,0 1.0879,0 1.08791,0 1.08791,0 1.0879,0 1.08791,0 1.08791,0 1.08791,0 1.0879,0 1.08791,0 1.08791,0 1.0879,0 1.08791,0 1.08791,0 1.0879,0 1.08791,0 1.08791,0 1.0879,0 1.08791,0 1.08791,0 1.0879,0 1.08791,0 1.08791,0 1.08791,0 1.0879,0 1.08791,0 1.08791,0 1.0879,0 1.08791,0 1.08791,0 1.0879,0 1.08791,0 1.08791,0 1.08791,0 1.0879,0 1.08791,0 1.08791,0 1.0879,0 1.08791,0 1.08791,0 1.0879,0 1.08791,0 1.08791,0 1.0879,0 1.08791,0 1.08791,0 1.0879,0 1.08791,0 1.08791,0 1.08791,0 1.0879,0 1.08791,0 1.08791,0 1.0879,0 1.08791,0 1.08791,0 1.0879,0 1.08791,0 0,0.155694 0,0 -1.08791,0.156504 -1.0879,0.290276 -1.08791,0.492263 -1.08791,0.769953 -1.0879,1.1105 -1.08791,1.472224 -1.08791,1.784623 -1.0879,1.962446 -1.08791,1.933823 -1.08791,1.674015 -1.08791,1.229782 -1.0879,0.719862 -1.08791,0.30676 -1.08791,0.149398 -1.0879,0.356997 -1.08791,0.964447 -1.08791,1.937972 -1.0879,3.204061 -1.08791,4.683345 -1.08791,6.310138 -1.0879,8.026099 -1.08791,9.748318 -1.08791,11.32411 -1.0879,12.495942 -1.08791,12.90697 -1.08791,12.17289 -1.08791,10.01995 -1.0879,6.44641 -1.08791,1.82735 -1.08791,-3.11527 -1.0879,-7.50056 -1.08791,-10.57259 -1.08791,-11.95464 -1.0879,-11.75228 -1.08791,-10.45819 -1.08791,-8.711845 -1.08791,-7.033454 -1.0879,-5.648731 -1.08791,-4.458914 -1.08791,-3.133516 -1.0879,-1.257478 -1.08791,1.530194 -1.08791,5.429 -1.0879,10.386386 -1.08791,16.009898 -1.08791,21.50793 -1.0879,25.7313 -1.08791,27.38968 -1.08791,25.44456 -1.0879,19.56255 -1.08791,10.42352 -1.08791,-0.30354 -1.08791,-10.36468 -1.0879,-17.56575 -1.08791,-20.39943 -1.08791,-18.41986 -1.0879,-12.27296 -1.08791,-3.44929 -1.08791,6.09577 -1.0879,14.33711 -1.08791,19.54547 -1.08791,20.61537 -1.0879,17.31947 -1.08791,10.4015 -1.08791,1.41834 -1.08791,-7.67704 -1.0879,-15.0906 -1.08791,-19.6722 -1.08791,-21.13983 -1.0879,-19.9744 -1.08791,-17.07064 -1.08791,-13.32784 -1.0879,-9.36221 -1.08791,-5.43482 -1.08791,-1.57626 -1.08791,2.194 -1.0879,5.67874 -1.08791,8.44086 -1.0879,9.90201 -1.08791,9.56358 -1.08791,7.25332 -1.08791,3.27838 -1.0879,-1.60281 -1.08791,-6.39647 -1.08791,-10.19126 -1.0879,-12.43732 -1.08791,-13.06733 -1.08791,-12.42278 -1.0879,-11.045258 -1.08791,-9.446434 -1.08791,-7.956114 -1.0879,-6.688791 -1.08791,-5.604281 -1.08791,-4.604812 -1.08791,-3.615611 -1.0879,-2.623285 -1.08791,-1.673953 -1.08791,-0.847602 -1.0879,-0.225787 -1.08791,0.136225 -1.08791,0.227426 -1.08791,0.08659 -1.0879,-0.205706 -1.08791,-0.547008 -1.08791,-0.839211 -1.0879,-1.012571 -1.08791,-1.039255 -1.08791,-0.932771 -1.0879,-0.735597 -1.08791,-0.50163 -1.08791,-0.280448 -1.0879,-0.107486 -1.08791,-5.61e-4 -1.08791,0.0391 -1.0879,0.02333 -1.08791,-0.02776 -1.08791,-0.09126 -1.08791,-0.146889 -1.0879,-0.181228 -1.08791,-0.189567 -1.08791,-0.174979 -1.0879,-0.145295 -1.08791,-0.109378 -1.08791,-0.07402 -1.0879,-0.04213 -1.08791,-0.01201 -1.08791,0.0228 z" /></g></g><g
       id="g728"><g
         clip-path="url(#clipPath732)"
         id="g730"><path
           id="path736"
           style="fill:#6acc65;fill-opacity:0.25;fill-rule:nonzero;stroke:#6acc65;stroke-width:0.30000001;stroke-linecap:butt;stroke-linejoin:round;stroke-miterlimit:10;stroke-dasharray:none;stroke-opacity:0.25"
           d="m 492.05563,39.091275 0,-0.141274 1.15463,0 1.15463,0 1.15463,0 1.15463,0 1.15463,0 1.15463,0 1.15463,0 1.15462,0 1.15463,0 1.15463,0 1.15463,0 1.15463,0 1.15463,0 1.15463,0 1.15463,0 1.15463,0 1.15463,0 1.15463,0 1.15463,0 1.15463,0 1.15463,0 1.15462,0 1.15463,0 1.15463,0 1.15463,0 1.15463,0 1.15463,0 1.15463,0 1.15463,0 1.15463,0 1.15463,0 1.15463,0 1.15463,0 1.15463,0 1.15463,0 1.15462,0 1.15463,0 1.15463,0 1.15463,0 1.15463,0 1.15463,0 1.15463,0 1.15463,0 1.15463,0 1.15463,0 1.15463,0 1.15463,0 1.15463,0 1.15462,0 1.15463,0 1.15463,0 1.15463,0 1.15463,0 1.15463,0 1.15463,0 1.15463,0 1.15463,0 1.15463,0 1.15463,0 1.15463,0 1.15463,0 1.15463,0 1.15463,0 1.15462,0 1.15463,0 1.15463,0 1.15463,0 1.15463,0 1.15463,0 1.15463,0 1.15463,0 1.15463,0 1.15463,0 1.15463,0 1.15463,0 1.15462,0 1.15463,0 1.15463,0 1.15463,0 1.15463,0 1.15463,0 1.15463,0 1.15463,0 1.15463,0 1.15463,0 1.15463,0 1.15463,0 1.15463,0 1.15463,0 1.15462,0 1.15463,0 1.15463,0 1.15463,0 1.15463,0 1.15463,0 1.15463,0 1.15463,0 1.15463,0 1.15463,0 1.15463,0 1.15463,0 1.15463,0 1.15462,0 1.15463,0 1.15463,0 1.15463,0 1.15463,0 1.15463,0 1.15463,0 1.15463,0 1.15463,0 1.15463,0 1.15463,0 1.15463,0 1.15463,0 1.15463,0 1.15462,0 1.15463,0 1.15463,0 1.15463,0 1.15463,0 1.15463,0 1.15463,0 1.15463,0 1.15463,0 1.15463,0 1.15463,0 0,0.231147 0,0 -1.15463,0.146993 -1.15463,0.228647 -1.15463,0.341845 -1.15463,0.493018 -1.15463,0.686687 -1.15463,0.923798 -1.15463,1.200047 -1.15463,1.504552 -1.15463,1.819343 -1.15463,2.120124 -1.15462,2.378486 -1.15463,2.565519 -1.15463,2.656317 -1.15463,2.634554 -1.15463,2.496128 -1.15463,2.250965 -1.15463,1.922441 -1.15463,1.544429 -1.15463,1.156637 -1.15463,0.799279 -1.15463,0.508328 -1.15463,0.312322 -1.15463,0.231117 -1.15463,0.276304 -1.15462,0.452403 -1.15463,0.757709 -1.15463,1.183852 -1.15463,1.713894 -1.15463,2.319579 -1.15463,2.959299 -1.15463,3.578637 -1.15463,4.115083 -1.15463,4.507435 -1.15463,4.708788 -1.15463,4.700413 -1.15463,4.50261 -1.15463,4.17849 -1.15462,3.82789 -1.15463,3.57062 -1.15463,3.52117 -1.15463,3.76003 -1.15463,4.30767 -1.15463,5.10871 -1.15463,6.03093 -1.15463,6.88167 -1.15463,7.44002 -1.15463,7.49877 -1.15463,6.90788 -1.15463,5.60992 -1.15463,3.65894 -1.15463,1.21805 -1.15462,-1.46451 -1.15463,-4.09623 -1.15463,-6.38902 -1.15463,-8.10575 -1.15463,-9.09464 -1.15463,-9.30561 -1.15463,-8.78665 -1.15463,-7.66309 -1.15463,-6.1065 -1.15463,-4.30086 -1.15463,-2.4136 -1.15463,-0.57623 -1.15462,1.12299 -1.15463,2.63595 -1.15463,3.94366 -1.15463,5.04198 -1.15463,5.92808 -1.15463,6.59086 -1.15463,7.00739 -1.15463,7.14582 -1.15463,6.9736 -1.15463,6.4692 -1.15463,5.63373 -1.15463,4.49976 -1.15463,3.13421 -1.15463,1.63371 -1.15463,0.11265 -1.15462,-1.31409 -1.15463,-2.5501 -1.15463,-3.53364 -1.15463,-4.24718 -1.15463,-4.7176 -1.15463,-5.00722 -1.15463,-5.19755 -1.15463,-5.36976 -1.15463,-5.58651 -1.15463,-5.87942 -1.15463,-6.24421 -1.15463,-6.64453 -1.15463,-7.02237 -1.15462,-7.31237 -1.15463,-7.45646 -1.15463,-7.415519 -1.15463,-7.176143 -1.15463,-6.75151 -1.15463,-6.177209 -1.15463,-5.503362 -1.15463,-4.785281 -1.15463,-4.074638 -1.15463,-3.412797 -1.15463,-2.827129 -1.15463,-2.330464 -1.15463,-1.923053 -1.15463,-1.596141 -1.15462,-1.336036 -1.15463,-1.127767 -1.15463,-0.957771 -1.15463,-0.815346 -1.15463,-0.693019 -1.15463,-0.586153 -1.15463,-0.492142 -1.15463,-0.409586 -1.15463,-0.337611 -1.15463,-0.275466 -1.15463,-0.222335 -1.15463,-0.177322 -1.15463,-0.139503 -1.15463,-0.107972 -1.15462,-0.08185 -1.15463,-0.06026 -1.15463,-0.04224 -1.15463,-0.02663 -1.15463,-0.01192 -1.15463,0.0039 -1.15463,0.02354 -1.15463,0.05064 z" /></g></g><g
       id="g738"><g
         clip-path="url(#clipPath742)"
         id="g740"><path
           id="path746"
           style="fill:none;stroke:#4878cf;stroke-width:1.75;stroke-linecap:round;stroke-linejoin:round;stroke-miterlimit:10;stroke-dasharray:none;stroke-opacity:1"
           d="m 499.954,39.032048 3.26372,0.03134 3.26372,0.328693 5.43954,0.783924 2.17581,0.0044 2.17582,-0.03854 1.0879,0.107486 1.08791,0.280448 1.08791,0.50163 1.0879,0.735597 2.17582,1.972026 1.0879,1.012571 1.08791,0.839211 1.08791,0.547008 1.0879,0.205706 1.08791,-0.08659 2.17582,-0.363651 1.0879,0.225787 1.08791,0.847602 1.08791,1.673953 1.0879,2.623285 1.08791,3.615611 1.08791,4.604812 1.08791,5.604281 1.0879,6.688791 1.08791,7.956114 1.08791,9.446434 1.0879,11.045253 3.26372,37.92743 1.08791,10.19126 1.08791,6.39647 1.0879,1.60281 1.08791,-3.27838 1.08791,-7.25332 3.26372,-27.90645 1.0879,-5.67874 1.08791,-2.194 1.08791,1.57626 1.08791,5.43482 1.0879,9.36221 1.08791,13.32784 1.08791,17.07064 3.26372,60.78643 1.0879,15.0906 1.08791,7.67704 1.08791,-1.41834 1.08791,-10.4015 1.0879,-17.31947 2.17582,-40.16084 1.0879,-14.33711 1.08791,-6.09577 1.08791,3.44929 1.0879,12.27296 1.08791,18.41986 1.08791,20.39943 1.0879,17.56575 1.08791,10.36468 1.08791,0.30354 1.08791,-10.42352 1.0879,-19.56255 4.35163,-100.07347 1.08791,-16.009893 1.0879,-10.386386 1.08791,-5.429 1.08791,-1.530194 1.0879,1.257478 1.08791,3.133516 1.08791,4.458914 1.0879,5.648731 1.08791,7.033454 1.08791,8.71184 1.08791,10.45819 3.26372,34.27951 1.0879,7.50056 1.08791,3.11527 1.08791,-1.82735 1.0879,-6.44641 1.08791,-10.01995 4.35163,-48.899907 1.08791,-9.748318 1.0879,-8.026099 1.08791,-6.310138 1.08791,-4.683345 1.0879,-3.204061 1.08791,-1.937972 1.08791,-0.964447 1.0879,-0.356997 1.08791,-0.149398 1.08791,-0.30676 1.0879,-0.719862 1.08791,-1.229782 1.08791,-1.674015 3.26372,-5.680892 1.08791,-1.472224 1.0879,-1.1105 1.08791,-0.769953 1.08791,-0.492263 1.0879,-0.290276 1.08791,-0.156504 0,0" /></g></g><g
       id="g748"><g
         clip-path="url(#clipPath752)"
         id="g750"><path
           id="path756"
           style="fill:none;stroke:#6acc65;stroke-width:1.75;stroke-linecap:round;stroke-linejoin:round;stroke-miterlimit:10;stroke-dasharray:none;stroke-opacity:1"
           d="m 492.05563,39.091275 3.46389,-0.07808 4.61852,0.141055 3.46388,0.329327 2.30926,0.399657 2.30926,0.613077 2.30926,0.901728 2.30926,1.279172 1.15463,0.815346 1.15463,0.957771 1.15463,1.127767 1.15462,1.336036 1.15463,1.596141 1.15463,1.923053 1.15463,2.330464 1.15463,2.827129 1.15463,3.412797 1.15463,4.074638 1.15463,4.785281 1.15463,5.503362 2.30926,12.928719 6.92777,43.027395 2.30926,12.12363 2.30926,10.95627 2.30926,10.20477 1.15463,4.7176 1.15463,4.24718 1.15463,3.53364 1.15463,2.5501 1.15462,1.31409 1.15463,-0.11265 1.15463,-1.63371 1.15463,-3.13421 1.15463,-4.49976 1.15463,-5.63373 2.30926,-13.4428 3.46389,-20.74407 1.15463,-5.92808 1.15463,-5.04198 1.15463,-3.94366 1.15463,-2.63595 1.15462,-1.12299 1.15463,0.57623 1.15463,2.4136 1.15463,4.30086 1.15463,6.1065 1.15463,7.66309 4.61852,35.29265 1.15463,6.38902 1.15463,4.09623 1.15462,1.46451 1.15463,-1.21805 1.15463,-3.65894 1.15463,-5.60992 2.30926,-14.40665 2.30926,-14.32169 1.15463,-6.03093 1.15463,-5.10871 1.15463,-4.30767 2.30926,-7.2812 2.30925,-7.39851 2.30926,-8.6811 3.46389,-13.916639 1.15463,-4.115083 1.15463,-3.578637 1.15463,-2.959299 1.15463,-2.319579 1.15463,-1.713894 1.15463,-1.183852 1.15463,-0.757709 1.15462,-0.452403 3.46389,-0.819743 1.15463,-0.508328 1.15463,-0.799279 1.15463,-1.156637 1.15463,-1.544429 1.15463,-1.922441 1.15463,-2.250965 2.30926,-5.130682 2.30926,-5.221836 1.15462,-2.378486 1.15463,-2.120124 1.15463,-1.819343 1.15463,-1.504552 1.15463,-1.200047 1.15463,-0.923798 1.15463,-0.686687 1.15463,-0.493018 2.30926,-0.570492 1.15463,-0.146993 0,0" /></g></g><g
       id="g758"><text
         id="text760"
         style="font-variant:normal;font-weight:normal;font-size:11px;font-family:'Liberation Sans';-inkscape-font-specification:LiberationSans;writing-mode:lr-tb;fill:#262626;fill-opacity:1;fill-rule:nonzero;stroke:none"
         transform="matrix(1,0,0,-1,558.03196,265.45)"><tspan
           id="tspan762"
           y="0"
           x="0 7.3369999 11 13.442 18.941999 25.058001 28.115999 34.231998 37.290001 40.348 46.464001 50.126999 53.790001 59.905998 63.569 69.684998 72.742996 75.184998">Private for­profit</tspan></text>
<text
         id="text764"
         style="font-variant:normal;font-weight:normal;font-size:9.35000038px;font-family:'Liberation Sans';-inkscape-font-specification:LiberationSans;writing-mode:lr-tb;fill:#262626;fill-opacity:1;fill-rule:nonzero;stroke:none"
         transform="matrix(1,0,0,-1,728.20321,152.31719)"><tspan
           id="tspan766"
           y="0"
           x="0 7.2743001 12.4729 17.671499 22.8701 28.068701">Gender</tspan></text>
<path
         id="path768"
         style="fill:none;stroke:#4878cf;stroke-width:1.75;stroke-linecap:round;stroke-linejoin:round;stroke-miterlimit:10;stroke-dasharray:none;stroke-opacity:1"
         d="m 713.17977,141.69219 20,0" /><text
         id="text770"
         style="font-variant:normal;font-weight:normal;font-size:10px;font-family:'Liberation Sans';-inkscape-font-specification:LiberationSans;writing-mode:lr-tb;fill:#262626;fill-opacity:1;fill-rule:nonzero;stroke:none"
         transform="matrix(1,0,0,-1,741.17977,138.19219)"><tspan
           id="tspan772"
           y="0"
           x="0 6.1100001 11.67 20 25.559999 27.780001">Female</tspan></text>
<path
         id="path774"
         style="fill:none;stroke:#6acc65;stroke-width:1.75;stroke-linecap:round;stroke-linejoin:round;stroke-miterlimit:10;stroke-dasharray:none;stroke-opacity:1"
         d="m 713.17977,127.36406 20,0" /><text
         id="text776"
         style="font-variant:normal;font-weight:normal;font-size:10px;font-family:'Liberation Sans';-inkscape-font-specification:LiberationSans;writing-mode:lr-tb;fill:#262626;fill-opacity:1;fill-rule:nonzero;stroke:none"
         transform="matrix(1,0,0,-1,741.17977,123.86406)"><tspan
           id="tspan778"
           y="0"
           x="0 8.3299999 13.89 16.110001">Male</tspan></text>
</g></g></svg>