<?xml version="1.0" encoding="UTF-8" standalone="no"?>
<svg
   xmlns:dc="http://purl.org/dc/elements/1.1/"
   xmlns:cc="http://creativecommons.org/ns#"
   xmlns:rdf="http://www.w3.org/1999/02/22-rdf-syntax-ns#"
   xmlns:svg="http://www.w3.org/2000/svg"
   xmlns="http://www.w3.org/2000/svg"
   viewBox="0 0 1005.0202 350.77344"
   height="350.77344"
   width="1005.0202"
   xml:space="preserve"
   version="1.1"
   id="svg2"><metadata
     id="metadata8"><rdf:RDF><cc:Work
         rdf:about=""><dc:format>image/svg+xml</dc:format><dc:type
           rdf:resource="http://purl.org/dc/dcmitype/StillImage" /></cc:Work></rdf:RDF></metadata><defs
     id="defs6"><clipPath
       id="clipPath20"
       clipPathUnits="userSpaceOnUse"><path
         id="path22"
         d="m 9.98125,38.95 212.01677,0 0,221.5 -212.01677,0 0,-221.5 z" /></clipPath><clipPath
       id="clipPath38"
       clipPathUnits="userSpaceOnUse"><path
         id="path40"
         d="m 9.98125,38.95 212.01677,0 0,221.5 -212.01677,0 0,-221.5 z" /></clipPath><clipPath
       id="clipPath56"
       clipPathUnits="userSpaceOnUse"><path
         id="path58"
         d="m 9.98125,38.95 212.01677,0 0,221.5 -212.01677,0 0,-221.5 z" /></clipPath><clipPath
       id="clipPath74"
       clipPathUnits="userSpaceOnUse"><path
         id="path76"
         d="m 9.98125,38.95 212.01677,0 0,221.5 -212.01677,0 0,-221.5 z" /></clipPath><clipPath
       id="clipPath96"
       clipPathUnits="userSpaceOnUse"><path
         id="path98"
         d="m 9.98125,38.95 212.01677,0 0,221.5 -212.01677,0 0,-221.5 z" /></clipPath><clipPath
       id="clipPath110"
       clipPathUnits="userSpaceOnUse"><path
         id="path112"
         d="m 9.98125,38.95 212.01677,0 0,221.5 -212.01677,0 0,-221.5 z" /></clipPath><clipPath
       id="clipPath124"
       clipPathUnits="userSpaceOnUse"><path
         id="path126"
         d="m 9.98125,38.95 212.01677,0 0,221.5 -212.01677,0 0,-221.5 z" /></clipPath><clipPath
       id="clipPath138"
       clipPathUnits="userSpaceOnUse"><path
         id="path140"
         d="m 9.98125,38.95 212.01677,0 0,221.5 -212.01677,0 0,-221.5 z" /></clipPath><clipPath
       id="clipPath152"
       clipPathUnits="userSpaceOnUse"><path
         id="path154"
         d="m 9.98125,38.95 212.01677,0 0,221.5 -212.01677,0 0,-221.5 z" /></clipPath><clipPath
       id="clipPath166"
       clipPathUnits="userSpaceOnUse"><path
         id="path168"
         d="m 9.98125,38.95 212.01677,0 0,221.5 -212.01677,0 0,-221.5 z" /></clipPath><clipPath
       id="clipPath180"
       clipPathUnits="userSpaceOnUse"><path
         id="path182"
         d="m 9.98125,38.95 212.01677,0 0,221.5 -212.01677,0 0,-221.5 z" /></clipPath><clipPath
       id="clipPath194"
       clipPathUnits="userSpaceOnUse"><path
         id="path196"
         d="m 9.98125,38.95 212.01677,0 0,221.5 -212.01677,0 0,-221.5 z" /></clipPath><clipPath
       id="clipPath208"
       clipPathUnits="userSpaceOnUse"><path
         id="path210"
         d="m 9.98125,38.95 212.01677,0 0,221.5 -212.01677,0 0,-221.5 z" /></clipPath><clipPath
       id="clipPath222"
       clipPathUnits="userSpaceOnUse"><path
         id="path224"
         d="m 9.98125,38.95 212.01677,0 0,221.5 -212.01677,0 0,-221.5 z" /></clipPath><clipPath
       id="clipPath232"
       clipPathUnits="userSpaceOnUse"><path
         id="path234"
         d="m 9.98125,38.95 212.01677,0 0,221.5 -212.01677,0 0,-221.5 z" /></clipPath><clipPath
       id="clipPath242"
       clipPathUnits="userSpaceOnUse"><path
         id="path244"
         d="m 9.98125,38.95 212.01677,0 0,221.5 -212.01677,0 0,-221.5 z" /></clipPath><clipPath
       id="clipPath252"
       clipPathUnits="userSpaceOnUse"><path
         id="path254"
         d="m 9.98125,38.95 212.01677,0 0,221.5 -212.01677,0 0,-221.5 z" /></clipPath><clipPath
       id="clipPath270"
       clipPathUnits="userSpaceOnUse"><path
         id="path272"
         d="m 249.64331,38.95 212.01677,0 0,221.5 -212.01677,0 0,-221.5 z" /></clipPath><clipPath
       id="clipPath288"
       clipPathUnits="userSpaceOnUse"><path
         id="path290"
         d="m 249.64331,38.95 212.01677,0 0,221.5 -212.01677,0 0,-221.5 z" /></clipPath><clipPath
       id="clipPath306"
       clipPathUnits="userSpaceOnUse"><path
         id="path308"
         d="m 249.64331,38.95 212.01677,0 0,221.5 -212.01677,0 0,-221.5 z" /></clipPath><clipPath
       id="clipPath324"
       clipPathUnits="userSpaceOnUse"><path
         id="path326"
         d="m 249.64331,38.95 212.01677,0 0,221.5 -212.01677,0 0,-221.5 z" /></clipPath><clipPath
       id="clipPath346"
       clipPathUnits="userSpaceOnUse"><path
         id="path348"
         d="m 249.64331,38.95 212.01677,0 0,221.5 -212.01677,0 0,-221.5 z" /></clipPath><clipPath
       id="clipPath360"
       clipPathUnits="userSpaceOnUse"><path
         id="path362"
         d="m 249.64331,38.95 212.01677,0 0,221.5 -212.01677,0 0,-221.5 z" /></clipPath><clipPath
       id="clipPath374"
       clipPathUnits="userSpaceOnUse"><path
         id="path376"
         d="m 249.64331,38.95 212.01677,0 0,221.5 -212.01677,0 0,-221.5 z" /></clipPath><clipPath
       id="clipPath388"
       clipPathUnits="userSpaceOnUse"><path
         id="path390"
         d="m 249.64331,38.95 212.01677,0 0,221.5 -212.01677,0 0,-221.5 z" /></clipPath><clipPath
       id="clipPath402"
       clipPathUnits="userSpaceOnUse"><path
         id="path404"
         d="m 249.64331,38.95 212.01677,0 0,221.5 -212.01677,0 0,-221.5 z" /></clipPath><clipPath
       id="clipPath416"
       clipPathUnits="userSpaceOnUse"><path
         id="path418"
         d="m 249.64331,38.95 212.01677,0 0,221.5 -212.01677,0 0,-221.5 z" /></clipPath><clipPath
       id="clipPath430"
       clipPathUnits="userSpaceOnUse"><path
         id="path432"
         d="m 249.64331,38.95 212.01677,0 0,221.5 -212.01677,0 0,-221.5 z" /></clipPath><clipPath
       id="clipPath444"
       clipPathUnits="userSpaceOnUse"><path
         id="path446"
         d="m 249.64331,38.95 212.01677,0 0,221.5 -212.01677,0 0,-221.5 z" /></clipPath><clipPath
       id="clipPath458"
       clipPathUnits="userSpaceOnUse"><path
         id="path460"
         d="m 249.64331,38.95 212.01677,0 0,221.5 -212.01677,0 0,-221.5 z" /></clipPath><clipPath
       id="clipPath472"
       clipPathUnits="userSpaceOnUse"><path
         id="path474"
         d="m 249.64331,38.95 212.01677,0 0,221.5 -212.01677,0 0,-221.5 z" /></clipPath><clipPath
       id="clipPath482"
       clipPathUnits="userSpaceOnUse"><path
         id="path484"
         d="m 249.64331,38.95 212.01677,0 0,221.5 -212.01677,0 0,-221.5 z" /></clipPath><clipPath
       id="clipPath492"
       clipPathUnits="userSpaceOnUse"><path
         id="path494"
         d="m 249.64331,38.95 212.01677,0 0,221.5 -212.01677,0 0,-221.5 z" /></clipPath><clipPath
       id="clipPath502"
       clipPathUnits="userSpaceOnUse"><path
         id="path504"
         d="m 249.64331,38.95 212.01677,0 0,221.5 -212.01677,0 0,-221.5 z" /></clipPath><clipPath
       id="clipPath520"
       clipPathUnits="userSpaceOnUse"><path
         id="path522"
         d="m 489.30538,38.95 212.01677,0 0,221.5 -212.01677,0 0,-221.5 z" /></clipPath><clipPath
       id="clipPath538"
       clipPathUnits="userSpaceOnUse"><path
         id="path540"
         d="m 489.30538,38.95 212.01677,0 0,221.5 -212.01677,0 0,-221.5 z" /></clipPath><clipPath
       id="clipPath556"
       clipPathUnits="userSpaceOnUse"><path
         id="path558"
         d="m 489.30538,38.95 212.01677,0 0,221.5 -212.01677,0 0,-221.5 z" /></clipPath><clipPath
       id="clipPath574"
       clipPathUnits="userSpaceOnUse"><path
         id="path576"
         d="m 489.30538,38.95 212.01677,0 0,221.5 -212.01677,0 0,-221.5 z" /></clipPath><clipPath
       id="clipPath596"
       clipPathUnits="userSpaceOnUse"><path
         id="path598"
         d="m 489.30538,38.95 212.01677,0 0,221.5 -212.01677,0 0,-221.5 z" /></clipPath><clipPath
       id="clipPath610"
       clipPathUnits="userSpaceOnUse"><path
         id="path612"
         d="m 489.30538,38.95 212.01677,0 0,221.5 -212.01677,0 0,-221.5 z" /></clipPath><clipPath
       id="clipPath624"
       clipPathUnits="userSpaceOnUse"><path
         id="path626"
         d="m 489.30538,38.95 212.01677,0 0,221.5 -212.01677,0 0,-221.5 z" /></clipPath><clipPath
       id="clipPath638"
       clipPathUnits="userSpaceOnUse"><path
         id="path640"
         d="m 489.30538,38.95 212.01677,0 0,221.5 -212.01677,0 0,-221.5 z" /></clipPath><clipPath
       id="clipPath652"
       clipPathUnits="userSpaceOnUse"><path
         id="path654"
         d="m 489.30538,38.95 212.01677,0 0,221.5 -212.01677,0 0,-221.5 z" /></clipPath><clipPath
       id="clipPath666"
       clipPathUnits="userSpaceOnUse"><path
         id="path668"
         d="m 489.30538,38.95 212.01677,0 0,221.5 -212.01677,0 0,-221.5 z" /></clipPath><clipPath
       id="clipPath680"
       clipPathUnits="userSpaceOnUse"><path
         id="path682"
         d="m 489.30538,38.95 212.01677,0 0,221.5 -212.01677,0 0,-221.5 z" /></clipPath><clipPath
       id="clipPath694"
       clipPathUnits="userSpaceOnUse"><path
         id="path696"
         d="m 489.30538,38.95 212.01677,0 0,221.5 -212.01677,0 0,-221.5 z" /></clipPath><clipPath
       id="clipPath708"
       clipPathUnits="userSpaceOnUse"><path
         id="path710"
         d="m 489.30538,38.95 212.01677,0 0,221.5 -212.01677,0 0,-221.5 z" /></clipPath><clipPath
       id="clipPath722"
       clipPathUnits="userSpaceOnUse"><path
         id="path724"
         d="m 489.30538,38.95 212.01677,0 0,221.5 -212.01677,0 0,-221.5 z" /></clipPath><clipPath
       id="clipPath732"
       clipPathUnits="userSpaceOnUse"><path
         id="path734"
         d="m 489.30538,38.95 212.01677,0 0,221.5 -212.01677,0 0,-221.5 z" /></clipPath><clipPath
       id="clipPath742"
       clipPathUnits="userSpaceOnUse"><path
         id="path744"
         d="m 489.30538,38.95 212.01677,0 0,221.5 -212.01677,0 0,-221.5 z" /></clipPath><clipPath
       id="clipPath752"
       clipPathUnits="userSpaceOnUse"><path
         id="path754"
         d="m 489.30538,38.95 212.01677,0 0,221.5 -212.01677,0 0,-221.5 z" /></clipPath></defs><g
     transform="matrix(1.25,0,0,-1.25,0,350.77344)"
     id="g10"><path
       id="path12"
       style="fill:#ffffff;fill-opacity:1;fill-rule:nonzero;stroke:none"
       d="m 0,0 804.01615,0 0,280.61875 L 0,280.61875 0,0 Z" /><path
       id="path14"
       style="fill:#eaeaf2;fill-opacity:1;fill-rule:nonzero;stroke:none"
       d="m 9.98125,38.95 212.01677,0 0,221.5 -212.01677,0 0,-221.5 z" /><g
       id="g16"><g
         clip-path="url(#clipPath20)"
         id="g18"><path
           id="path24"
           style="fill:none;stroke:#ffffff;stroke-width:1;stroke-linecap:round;stroke-linejoin:round;stroke-miterlimit:10;stroke-dasharray:none;stroke-opacity:1"
           d="m 9.98125,38.95 0,221.5" /></g></g><g
       id="g26"><path
         id="path28"
         style="fill:#262626;fill-opacity:1;fill-rule:nonzero;stroke:#262626;stroke-width:1;stroke-linecap:butt;stroke-linejoin:round;stroke-miterlimit:10;stroke-dasharray:none;stroke-opacity:1"
         d="m 9.98125,38.95 0,0" /><text
         id="text30"
         style="font-variant:normal;font-weight:normal;font-size:10px;font-family:'Liberation Sans';-inkscape-font-specification:LiberationSans;writing-mode:lr-tb;fill:#262626;fill-opacity:1;fill-rule:nonzero;stroke:none"
         transform="matrix(1,0,0,-1,7.2,24.7)"><tspan
           id="tspan32"
           y="0"
           x="0">0</tspan></text>
</g><g
       id="g34"><g
         clip-path="url(#clipPath38)"
         id="g36"><path
           id="path42"
           style="fill:none;stroke:#ffffff;stroke-width:1;stroke-linecap:round;stroke-linejoin:round;stroke-miterlimit:10;stroke-dasharray:none;stroke-opacity:1"
           d="m 70.55747,38.95 0,221.5" /></g></g><g
       id="g44"><path
         id="path46"
         style="fill:#262626;fill-opacity:1;fill-rule:nonzero;stroke:#262626;stroke-width:1;stroke-linecap:butt;stroke-linejoin:round;stroke-miterlimit:10;stroke-dasharray:none;stroke-opacity:1"
         d="m 70.55747,38.95 0,0" /><text
         id="text48"
         style="font-variant:normal;font-weight:normal;font-size:10px;font-family:'Liberation Sans';-inkscape-font-specification:LiberationSans;writing-mode:lr-tb;fill:#262626;fill-opacity:1;fill-rule:nonzero;stroke:none"
         transform="matrix(1,0,0,-1,62.49497,24.7)"><tspan
           id="tspan50"
           y="0"
           x="0 5.5599999 11.12">10k</tspan></text>
</g><g
       id="g52"><g
         clip-path="url(#clipPath56)"
         id="g54"><path
           id="path60"
           style="fill:none;stroke:#ffffff;stroke-width:1;stroke-linecap:round;stroke-linejoin:round;stroke-miterlimit:10;stroke-dasharray:none;stroke-opacity:1"
           d="m 131.13369,38.95 0,221.5" /></g></g><g
       id="g62"><path
         id="path64"
         style="fill:#262626;fill-opacity:1;fill-rule:nonzero;stroke:#262626;stroke-width:1;stroke-linecap:butt;stroke-linejoin:round;stroke-miterlimit:10;stroke-dasharray:none;stroke-opacity:1"
         d="m 131.13369,38.95 0,0" /><text
         id="text66"
         style="font-variant:normal;font-weight:normal;font-size:10px;font-family:'Liberation Sans';-inkscape-font-specification:LiberationSans;writing-mode:lr-tb;fill:#262626;fill-opacity:1;fill-rule:nonzero;stroke:none"
         transform="matrix(1,0,0,-1,123.07119,24.7)"><tspan
           id="tspan68"
           y="0"
           x="0 5.5599999 11.12">20k</tspan></text>
</g><g
       id="g70"><g
         clip-path="url(#clipPath74)"
         id="g72"><path
           id="path78"
           style="fill:none;stroke:#ffffff;stroke-width:1;stroke-linecap:round;stroke-linejoin:round;stroke-miterlimit:10;stroke-dasharray:none;stroke-opacity:1"
           d="m 191.70991,38.95 0,221.5" /></g></g><g
       id="g80"><path
         id="path82"
         style="fill:#262626;fill-opacity:1;fill-rule:nonzero;stroke:#262626;stroke-width:1;stroke-linecap:butt;stroke-linejoin:round;stroke-miterlimit:10;stroke-dasharray:none;stroke-opacity:1"
         d="m 191.70991,38.95 0,0" /><text
         id="text84"
         style="font-variant:normal;font-weight:normal;font-size:10px;font-family:'Liberation Sans';-inkscape-font-specification:LiberationSans;writing-mode:lr-tb;fill:#262626;fill-opacity:1;fill-rule:nonzero;stroke:none"
         transform="matrix(1,0,0,-1,183.64741,24.7)"><tspan
           id="tspan86"
           y="0"
           x="0 5.5599999 11.12">30k</tspan></text>
<text
         id="text88"
         style="font-variant:normal;font-weight:normal;font-size:11px;font-family:'Liberation Sans';-inkscape-font-specification:LiberationSans;writing-mode:lr-tb;fill:#262626;fill-opacity:1;fill-rule:nonzero;stroke:none"
         transform="matrix(1,0,0,-1,30.00526,9.48125)"><tspan
           id="tspan90"
           y="0"
           x="0 7.9419999 14.058 23.221001 29.337 31.778999 37.895 40.952999 43.395 48.895 55.011002 58.069 67.232002 73.348 79.463997 81.905998 88.022003 94.138 97.195999 105.138 111.254 117.37 120.428 123.486 127.149 133.265 136.92799 139.98599 143.649 149.765 155.881 161.99699 168.11301">Cumulative Median Debt ($) (2013)</tspan></text>
</g><g
       id="g92"><g
         clip-path="url(#clipPath96)"
         id="g94"><path
           id="path100"
           style="fill:none;stroke:#ffffff;stroke-width:1;stroke-linecap:round;stroke-linejoin:round;stroke-miterlimit:10;stroke-dasharray:none;stroke-opacity:1"
           d="m 9.98125,38.95 212.01677,0" /></g></g><g
       id="g102"><path
         id="path104"
         style="fill:#262626;fill-opacity:1;fill-rule:nonzero;stroke:#262626;stroke-width:1;stroke-linecap:butt;stroke-linejoin:round;stroke-miterlimit:10;stroke-dasharray:none;stroke-opacity:1"
         d="m 9.98125,38.95 0,0" /></g><g
       id="g106"><g
         clip-path="url(#clipPath110)"
         id="g108"><path
           id="path114"
           style="fill:none;stroke:#ffffff;stroke-width:1;stroke-linecap:round;stroke-linejoin:round;stroke-miterlimit:10;stroke-dasharray:none;stroke-opacity:1"
           d="m 9.98125,66.6375 212.01677,0" /></g></g><g
       id="g116"><path
         id="path118"
         style="fill:#262626;fill-opacity:1;fill-rule:nonzero;stroke:#262626;stroke-width:1;stroke-linecap:butt;stroke-linejoin:round;stroke-miterlimit:10;stroke-dasharray:none;stroke-opacity:1"
         d="m 9.98125,66.6375 0,0" /></g><g
       id="g120"><g
         clip-path="url(#clipPath124)"
         id="g122"><path
           id="path128"
           style="fill:none;stroke:#ffffff;stroke-width:1;stroke-linecap:round;stroke-linejoin:round;stroke-miterlimit:10;stroke-dasharray:none;stroke-opacity:1"
           d="m 9.98125,94.325 212.01677,0" /></g></g><g
       id="g130"><path
         id="path132"
         style="fill:#262626;fill-opacity:1;fill-rule:nonzero;stroke:#262626;stroke-width:1;stroke-linecap:butt;stroke-linejoin:round;stroke-miterlimit:10;stroke-dasharray:none;stroke-opacity:1"
         d="m 9.98125,94.325 0,0" /></g><g
       id="g134"><g
         clip-path="url(#clipPath138)"
         id="g136"><path
           id="path142"
           style="fill:none;stroke:#ffffff;stroke-width:1;stroke-linecap:round;stroke-linejoin:round;stroke-miterlimit:10;stroke-dasharray:none;stroke-opacity:1"
           d="m 9.98125,122.0125 212.01677,0" /></g></g><g
       id="g144"><path
         id="path146"
         style="fill:#262626;fill-opacity:1;fill-rule:nonzero;stroke:#262626;stroke-width:1;stroke-linecap:butt;stroke-linejoin:round;stroke-miterlimit:10;stroke-dasharray:none;stroke-opacity:1"
         d="m 9.98125,122.0125 0,0" /></g><g
       id="g148"><g
         clip-path="url(#clipPath152)"
         id="g150"><path
           id="path156"
           style="fill:none;stroke:#ffffff;stroke-width:1;stroke-linecap:round;stroke-linejoin:round;stroke-miterlimit:10;stroke-dasharray:none;stroke-opacity:1"
           d="m 9.98125,149.7 212.01677,0" /></g></g><g
       id="g158"><path
         id="path160"
         style="fill:#262626;fill-opacity:1;fill-rule:nonzero;stroke:#262626;stroke-width:1;stroke-linecap:butt;stroke-linejoin:round;stroke-miterlimit:10;stroke-dasharray:none;stroke-opacity:1"
         d="m 9.98125,149.7 0,0" /></g><g
       id="g162"><g
         clip-path="url(#clipPath166)"
         id="g164"><path
           id="path170"
           style="fill:none;stroke:#ffffff;stroke-width:1;stroke-linecap:round;stroke-linejoin:round;stroke-miterlimit:10;stroke-dasharray:none;stroke-opacity:1"
           d="m 9.98125,177.3875 212.01677,0" /></g></g><g
       id="g172"><path
         id="path174"
         style="fill:#262626;fill-opacity:1;fill-rule:nonzero;stroke:#262626;stroke-width:1;stroke-linecap:butt;stroke-linejoin:round;stroke-miterlimit:10;stroke-dasharray:none;stroke-opacity:1"
         d="m 9.98125,177.3875 0,0" /></g><g
       id="g176"><g
         clip-path="url(#clipPath180)"
         id="g178"><path
           id="path184"
           style="fill:none;stroke:#ffffff;stroke-width:1;stroke-linecap:round;stroke-linejoin:round;stroke-miterlimit:10;stroke-dasharray:none;stroke-opacity:1"
           d="m 9.98125,205.075 212.01677,0" /></g></g><g
       id="g186"><path
         id="path188"
         style="fill:#262626;fill-opacity:1;fill-rule:nonzero;stroke:#262626;stroke-width:1;stroke-linecap:butt;stroke-linejoin:round;stroke-miterlimit:10;stroke-dasharray:none;stroke-opacity:1"
         d="m 9.98125,205.075 0,0" /></g><g
       id="g190"><g
         clip-path="url(#clipPath194)"
         id="g192"><path
           id="path198"
           style="fill:none;stroke:#ffffff;stroke-width:1;stroke-linecap:round;stroke-linejoin:round;stroke-miterlimit:10;stroke-dasharray:none;stroke-opacity:1"
           d="m 9.98125,232.7625 212.01677,0" /></g></g><g
       id="g200"><path
         id="path202"
         style="fill:#262626;fill-opacity:1;fill-rule:nonzero;stroke:#262626;stroke-width:1;stroke-linecap:butt;stroke-linejoin:round;stroke-miterlimit:10;stroke-dasharray:none;stroke-opacity:1"
         d="m 9.98125,232.7625 0,0" /></g><g
       id="g204"><g
         clip-path="url(#clipPath208)"
         id="g206"><path
           id="path212"
           style="fill:none;stroke:#ffffff;stroke-width:1;stroke-linecap:round;stroke-linejoin:round;stroke-miterlimit:10;stroke-dasharray:none;stroke-opacity:1"
           d="m 9.98125,260.45 212.01677,0" /></g></g><g
       id="g214"><path
         id="path216"
         style="fill:#262626;fill-opacity:1;fill-rule:nonzero;stroke:#262626;stroke-width:1;stroke-linecap:butt;stroke-linejoin:round;stroke-miterlimit:10;stroke-dasharray:none;stroke-opacity:1"
         d="m 9.98125,260.45 0,0" /></g><g
       id="g218"><g
         clip-path="url(#clipPath222)"
         id="g220"><path
           id="path226"
           style="fill:#4878cf;fill-opacity:0.25;fill-rule:nonzero;stroke:#4878cf;stroke-width:0.30000001;stroke-linecap:butt;stroke-linejoin:round;stroke-miterlimit:10;stroke-dasharray:none;stroke-opacity:0.25"
           d="m -0.362778,39.053802 0,-0.103801 1.456701,0 1.456701,0 1.456701,0 1.456701,0 1.456702,0 1.456701,0 1.456701,0 1.456701,0 1.456701,0 1.456702,0 1.456701,0 1.456701,0 1.456701,0 1.456702,0 1.456701,0 1.456701,0 1.456701,0 1.456701,0 1.456702,0 1.456701,0 1.456701,0 1.456701,0 1.456701,0 1.456702,0 1.456701,0 1.456701,0 1.456701,0 1.456701,0 1.456702,0 1.456701,0 1.456701,0 1.456701,0 1.456701,0 1.456702,0 1.456701,0 1.456701,0 1.456701,0 1.456702,0 1.456701,0 1.456701,0 1.456701,0 1.456701,0 1.456702,0 1.456701,0 1.456701,0 1.456701,0 1.456701,0 1.456702,0 1.456701,0 1.456701,0 1.456701,0 1.456701,0 1.456702,0 1.456701,0 1.456701,0 1.456701,0 1.456702,0 1.456701,0 1.456701,0 1.456701,0 1.456701,0 1.456702,0 1.456701,0 1.456701,0 1.456701,0 1.456701,0 1.456702,0 1.456701,0 1.456706,0 1.4567,0 1.4567,0 1.4567,0 1.4567,0 1.4567,0 1.4567,0 1.4567,0 1.45671,0 1.4567,0 1.4567,0 1.4567,0 1.4567,0 1.4567,0 1.4567,0 1.4567,0 1.4567,0 1.45671,0 1.4567,0 1.4567,0 1.4567,0 1.4567,0 1.4567,0 1.4567,0 1.4567,0 1.4567,0 1.45671,0 1.4567,0 1.4567,0 1.4567,0 1.4567,0 1.4567,0 1.4567,0 1.4567,0 1.45671,0 1.4567,0 1.4567,0 1.4567,0 1.4567,0 1.4567,0 1.4567,0 1.4567,0 1.45671,0 1.4567,0 1.4567,0 1.4567,0 1.4567,0 1.4567,0 1.4567,0 1.4567,0 1.4567,0 1.45671,0 1.4567,0 1.4567,0 1.4567,0 1.4567,0 1.4567,0 1.4567,0 1.4567,0 0,0.06386 0,0 -1.4567,-0.01928 -1.4567,-0.005 -1.4567,0.006 -1.4567,0.01609 -1.4567,0.02695 -1.4567,0.03981 -1.4567,0.05566 -1.45671,0.07534 -1.4567,0.09959 -1.4567,0.129177 -1.4567,0.164934 -1.4567,0.207879 -1.4567,0.259282 -1.4567,0.320706 -1.4567,0.393933 -1.4567,0.480775 -1.45671,0.582718 -1.4567,0.700406 -1.4567,0.833062 -1.4567,0.977919 -1.4567,1.129854 -1.4567,1.281374 -1.4567,1.423085 -1.4567,1.544684 -1.45671,1.636381 -1.4567,1.690542 -1.4567,1.70322 -1.4567,1.675201 -1.4567,1.612285 -1.4567,1.524617 -1.4567,1.425146 -1.4567,1.327481 -1.45671,1.243594 -1.4567,1.181876 -1.4567,1.145991 -1.4567,1.134775 -1.4567,1.143175 -1.4567,1.163989 -1.4567,1.189956 -1.4567,1.215713 -1.4567,1.239153 -1.45671,1.261931 -1.4567,1.288969 -1.4567,1.327151 -1.4567,1.383402 -1.4567,1.462555 -1.4567,1.565383 -1.4567,1.687137 -1.4567,1.816917 -1.4567,1.938061 -1.45671,2.029619 -1.4567,2.06884 -1.4567,2.034375 -1.4567,1.909768 -1.4567,1.686638 -1.4567,1.366974 -1.4567,0.964002 -1.4567,0.50136 -1.456706,0.01058 -1.456701,-0.47279 -1.456702,-0.913743 -1.456701,-1.282371 -1.456701,-1.557577 -1.456701,-1.729362 -1.456701,-1.799376 -1.456702,-1.77971 -1.456701,-1.690238 -1.456701,-1.555051 -1.456701,-1.39859 -1.456701,-1.242104 -1.456702,-1.100921 -1.456701,-0.982797 -1.456701,-0.887427 -1.456701,-0.806961 -1.456702,-0.727241 -1.456701,-0.629405 -1.456701,-0.491523 -1.456701,-0.290045 -1.456701,-9.74e-4 -1.456702,0.399124 -1.456701,0.931984 -1.456701,1.616089 -1.456701,2.464298 -1.456701,3.480568 -1.456702,4.655811 -1.456701,5.963441 -1.456701,7.355485 -1.456701,8.7604 -1.456701,10.08392 -1.456702,11.2139 -1.456701,12.02934 -1.456701,12.41341 -1.456701,12.26853 -1.456702,11.53151 -1.456701,10.18549 -1.456701,8.26669 -1.456701,5.86382 -1.456701,3.11004 -1.456702,0.16874 -1.456701,-2.78458 -1.456701,-5.58107 -1.456701,-8.07485 L 34.598051,184.12482 33.141349,172.37557 31.684648,159.54711 30.227947,146.14895 28.771246,132.65529 27.314545,119.48348 25.857843,106.98016 24.401142,95.414063 22.944441,84.974304 21.48774,75.773076 20.031039,67.851987 18.574337,61.191295 17.117636,55.721358 15.660935,51.335431 14.204234,47.902836 12.747532,45.281485 11.290831,43.328788 9.83413,41.910296 8.377429,40.905708 6.920728,40.212267 5.464026,39.745864 4.007325,39.440353 2.550624,39.245675 1.093923,39.125348 -0.362778,39.053802 Z" /></g></g><g
       id="g228"><g
         clip-path="url(#clipPath232)"
         id="g230"><path
           id="path236"
           style="fill:#6acc65;fill-opacity:0.25;fill-rule:nonzero;stroke:#6acc65;stroke-width:0.30000001;stroke-linecap:butt;stroke-linejoin:round;stroke-miterlimit:10;stroke-dasharray:none;stroke-opacity:0.25"
           d="m 0.332264,38.965349 0,-0.01535 1.537598,0 1.537598,0 1.537598,0 1.537598,0 1.537597,0 1.537598,0 1.537598,0 1.537598,0 1.537598,0 1.537597,0 1.537598,0 1.537598,0 1.537598,0 1.537597,0 1.537598,0 1.537598,0 1.537598,0 1.537598,0 1.537597,0 1.537598,0 1.537598,0 1.537598,0 1.537598,0 1.537597,0 1.537598,0 1.537598,0 1.537598,0 1.537597,0 1.537598,0 1.537598,0 1.537598,0 1.537598,0 1.537597,0 1.537598,0 1.537598,0 1.537598,0 1.537598,0 1.537597,0 1.537598,0 1.537598,0 1.537598,0 1.537598,0 1.537597,0 1.537598,0 1.537598,0 1.537598,0 1.537597,0 1.537598,0 1.537598,0 1.537598,0 1.537598,0 1.537597,0 1.537598,0 1.537598,0 1.537598,0 1.537598,0 1.537597,0 1.537598,0 1.537598,0 1.537598,0 1.537597,0 1.537598,0 1.537598,0 1.537598,0 1.537597,0 1.5376,0 1.5376,0 1.53759,0 1.5376,0 1.5376,0 1.5376,0 1.5376,0 1.53759,0 1.5376,0 1.5376,0 1.5376,0 1.53759,0 1.5376,0 1.5376,0 1.5376,0 1.5376,0 1.53759,0 1.5376,0 1.5376,0 1.5376,0 1.53759,0 1.5376,0 1.5376,0 1.5376,0 1.53759,0 1.5376,0 1.5376,0 1.5376,0 1.5376,0 1.53759,0 1.5376,0 1.5376,0 1.5376,0 1.5376,0 1.53759,0 1.5376,0 1.5376,0 1.5376,0 1.53759,0 1.5376,0 1.5376,0 1.5376,0 1.5376,0 1.53759,0 1.5376,0 1.5376,0 1.5376,0 1.53759,0 1.5376,0 1.5376,0 1.5376,0 1.5376,0 1.53759,0 1.5376,0 1.5376,0 1.5376,0 1.53759,0 1.5376,0 1.5376,0 1.5376,0 1.5376,0 1.53759,0 0,0.0113 0,0 -1.53759,4.5e-5 -1.5376,0.0037 -1.5376,0.0076 -1.5376,0.01238 -1.5376,0.0187 -1.53759,0.02706 -1.5376,0.03797 -1.5376,0.05197 -1.5376,0.06964 -1.53759,0.09161 -1.5376,0.118614 -1.5376,0.151479 -1.5376,0.191154 -1.5376,0.238664 -1.53759,0.295062 -1.5376,0.361342 -1.5376,0.438374 -1.5376,0.526824 -1.53759,0.62713 -1.5376,0.739468 -1.5376,0.863737 -1.5376,0.999509 -1.5376,1.145959 -1.53759,1.301772 -1.5376,1.465115 -1.5376,1.633692 -1.5376,1.804979 -1.53759,1.976599 -1.5376,2.146762 -1.5376,2.314619 -1.5376,2.480318 -1.5376,2.64466 -1.53759,2.808317 -1.5376,2.970785 -1.5376,3.129402 -1.5376,3.278744 -1.5376,3.410712 -1.53759,3.515319 -1.5376,3.581995 -1.5376,3.600948 -1.5376,3.564163 -1.53759,3.465712 -1.5376,3.301387 -1.5376,3.06806 -1.5376,2.76317 -1.53759,2.38515 -1.5376,1.93472 -1.5376,1.41709 -1.5376,0.84423 -1.5376,0.23663 -1.53759,-0.37681 -1.5376,-0.96065 -1.5376,-1.47677 -1.5376,-1.88966 -1.53759,-2.17153 -1.5376,-2.30663 -1.5376,-2.29347 -1.5376,-2.144655 -1.5376,-1.884459 -1.53759,-1.544625 -1.5376,-1.159596 -1.5376,-0.761798 -1.537597,-0.377819 -1.537598,-0.02584 -1.537598,0.285723 -1.537598,0.558405 -1.537597,0.803109 -1.537598,1.038704 -1.537598,1.289856 -1.537598,1.583828 -1.537597,1.946147 -1.537598,2.39517 -1.537598,2.93601 -1.537598,3.5551 -1.537598,4.21643 -1.537597,4.86152 -1.537598,5.41392 -1.537598,5.78865 -1.537598,5.90555 -1.537598,5.70425 -1.537597,5.15741 -1.537598,4.27915 -1.537598,3.12609 -1.537598,1.79016 -1.537597,0.38455 -1.537598,-0.97421 -1.537598,-2.18412 -1.537598,-3.17181 -1.537598,-3.9001 -1.537597,-4.36846 -1.537598,-4.6071 -1.537598,-4.66725 -1.537598,-4.60995 -1.537598,-4.49591 -1.537597,-4.37757 -1.537598,-4.29415 -1.537598,-4.26925 -1.537598,-4.3106 -1.537598,-4.41145 L 41.847405,97.474566 40.309807,92.765591 38.772209,87.917423 37.234611,82.976628 35.697014,78.014743 34.159416,73.120027 32.621818,68.387403 31.08422,63.908267 29.546622,59.761686 28.009025,56.008061 26.471427,52.685739 24.933829,49.810496 23.396231,47.37736 21.858633,45.364066 20.321036,43.735355 18.783438,42.447489 17.24584,41.452472 15.708242,40.701676 14.170645,40.148693 12.633047,39.751373 11.095449,39.473054 9.557851,39.283105 8.020253,39.156889 6.482656,39.075309 4.945058,39.024104 3.40746,38.99302 1.869862,38.974981 0.332264,38.965349 Z" /></g></g><g
       id="g238"><g
         clip-path="url(#clipPath242)"
         id="g240"><path
           id="path246"
           style="fill:none;stroke:#4878cf;stroke-width:1.75;stroke-linecap:round;stroke-linejoin:round;stroke-miterlimit:10;stroke-dasharray:none;stroke-opacity:1"
           d="m -0.362778,39.053802 2.913402,0.191873 2.913402,0.500189 1.456702,0.466403 1.456701,0.693441 1.456701,1.004588 1.456701,1.418492 1.456701,1.952697 1.456702,2.621351 1.456701,3.432595 1.456701,4.385927 1.456701,5.469937 1.456702,6.660692 1.456701,7.921089 1.456701,9.201228 1.456701,10.439759 1.456701,11.566097 2.913403,25.67513 4.370103,39.72028 1.456702,11.74925 1.456701,10.15456 1.456701,8.07485 1.456701,5.58107 1.456701,2.78458 1.456702,-0.16874 1.456701,-3.11004 1.456701,-5.86382 1.456701,-8.26669 1.456701,-10.18549 2.913403,-23.80004 2.913402,-24.44275 1.456702,-11.2139 1.456701,-10.08392 1.456701,-8.7604 1.456701,-7.355482 1.456701,-5.963441 1.456702,-4.655811 1.456701,-3.480568 1.456701,-2.464298 1.456701,-1.616089 1.456701,-0.931984 1.456702,-0.399124 1.456701,9.74e-4 1.456701,0.290045 1.456701,0.491523 2.913403,1.356646 2.913402,1.694388 2.913403,2.083718 1.456701,1.242104 1.456701,1.39859 2.913402,3.245289 4.370104,5.308448 1.456701,1.557577 1.456701,1.282371 1.456702,0.913743 1.456701,0.47279 1.456706,-0.01058 1.4567,-0.50136 1.4567,-0.964002 1.4567,-1.366974 1.4567,-1.686638 2.9134,-3.944143 4.37011,-6.03652 2.9134,-3.504054 2.9134,-3.027938 4.3701,-3.999522 5.82681,-4.906753 8.74021,-7.0134 2.9134,-2.752627 2.9134,-3.136902 7.28351,-8.250028 2.9134,-2.704459 1.4567,-1.129854 1.4567,-0.977919 1.4567,-0.833062 2.91341,-1.283124 2.9134,-0.874708 2.9134,-0.579988 2.9134,-0.372813 4.37011,-0.304108 5.8268,-0.138511 4.3701,0.01834 0,0" /></g></g><g
       id="g248"><g
         clip-path="url(#clipPath252)"
         id="g250"><path
           id="path256"
           style="fill:none;stroke:#6acc65;stroke-width:1.75;stroke-linecap:round;stroke-linejoin:round;stroke-miterlimit:10;stroke-dasharray:none;stroke-opacity:1"
           d="m 0.332264,38.965349 6.150392,0.10996 3.075195,0.207796 3.075196,0.468268 1.537598,0.39732 1.537597,0.552983 1.537598,0.750796 1.537598,0.995017 1.537598,1.287866 1.537597,1.628711 1.537598,2.013294 1.537598,2.433136 1.537598,2.875243 1.537598,3.322322 1.537597,3.753625 1.537598,4.146581 3.075196,9.21176 7.687989,24.354539 3.075195,8.964624 7.687989,21.74748 6.150391,18.25276 1.537598,3.9001 1.537598,3.17181 1.537598,2.18412 1.537598,0.97421 1.537597,-0.38455 1.537598,-1.79016 1.537598,-3.12609 1.537598,-4.27915 1.537597,-5.15741 6.150392,-22.81237 1.537597,-4.86152 1.537598,-4.21643 1.537598,-3.5551 1.537598,-2.93601 1.537598,-2.39517 1.537597,-1.946146 1.537598,-1.583828 1.537598,-1.289856 1.537598,-1.038704 1.537597,-0.803109 1.537598,-0.558405 1.537598,-0.285723 1.537598,0.02584 1.537597,0.377819 1.5376,0.761798 1.5376,1.159596 1.53759,1.544625 1.5376,1.884459 3.0752,4.438124 3.07519,4.47816 1.5376,1.88966 1.5376,1.47677 1.5376,0.96065 1.53759,0.37681 1.5376,-0.23663 1.5376,-0.84423 1.5376,-1.41709 1.5376,-1.93472 1.53759,-2.38515 1.5376,-2.76317 3.0752,-6.369446 4.61279,-10.630823 4.61279,-10.508026 3.0752,-6.408146 3.07519,-5.779102 3.0752,-5.124978 3.0752,-4.461381 3.07519,-3.781578 1.5376,-1.633692 1.5376,-1.465115 1.53759,-1.301772 1.5376,-1.145959 1.5376,-0.999509 3.0752,-1.603205 3.07519,-1.153954 3.0752,-0.799716 3.07519,-0.533726 3.0752,-0.342633 4.61279,-0.279866 6.15039,-0.135696 6.15039,-0.02363 0,0" /></g></g><g
       id="g258"><text
         id="text260"
         style="font-variant:normal;font-weight:normal;font-size:11px;font-family:'Liberation Sans';-inkscape-font-specification:LiberationSans;writing-mode:lr-tb;fill:#262626;fill-opacity:1;fill-rule:nonzero;stroke:none"
         transform="matrix(1,0,0,-1,101.00526,265.45)"><tspan
           id="tspan262"
           y="0"
           x="0 7.3369999 13.453 19.569 22.011 24.452999">Public</tspan></text>
<path
         id="path264"
         style="fill:#eaeaf2;fill-opacity:1;fill-rule:nonzero;stroke:none"
         d="m 249.64331,38.95 212.01677,0 0,221.5 -212.01677,0 0,-221.5 z" /></g><g
       id="g266"><g
         clip-path="url(#clipPath270)"
         id="g268"><path
           id="path274"
           style="fill:none;stroke:#ffffff;stroke-width:1;stroke-linecap:round;stroke-linejoin:round;stroke-miterlimit:10;stroke-dasharray:none;stroke-opacity:1"
           d="m 249.64331,38.95 0,221.5" /></g></g><g
       id="g276"><path
         id="path278"
         style="fill:#262626;fill-opacity:1;fill-rule:nonzero;stroke:#262626;stroke-width:1;stroke-linecap:butt;stroke-linejoin:round;stroke-miterlimit:10;stroke-dasharray:none;stroke-opacity:1"
         d="m 249.64331,38.95 0,0" /><text
         id="text280"
         style="font-variant:normal;font-weight:normal;font-size:10px;font-family:'Liberation Sans';-inkscape-font-specification:LiberationSans;writing-mode:lr-tb;fill:#262626;fill-opacity:1;fill-rule:nonzero;stroke:none"
         transform="matrix(1,0,0,-1,246.86206,24.7)"><tspan
           id="tspan282"
           y="0"
           x="0">0</tspan></text>
</g><g
       id="g284"><g
         clip-path="url(#clipPath288)"
         id="g286"><path
           id="path292"
           style="fill:none;stroke:#ffffff;stroke-width:1;stroke-linecap:round;stroke-linejoin:round;stroke-miterlimit:10;stroke-dasharray:none;stroke-opacity:1"
           d="m 310.21953,38.95 0,221.5" /></g></g><g
       id="g294"><path
         id="path296"
         style="fill:#262626;fill-opacity:1;fill-rule:nonzero;stroke:#262626;stroke-width:1;stroke-linecap:butt;stroke-linejoin:round;stroke-miterlimit:10;stroke-dasharray:none;stroke-opacity:1"
         d="m 310.21953,38.95 0,0" /><text
         id="text298"
         style="font-variant:normal;font-weight:normal;font-size:10px;font-family:'Liberation Sans';-inkscape-font-specification:LiberationSans;writing-mode:lr-tb;fill:#262626;fill-opacity:1;fill-rule:nonzero;stroke:none"
         transform="matrix(1,0,0,-1,302.15703,24.7)"><tspan
           id="tspan300"
           y="0"
           x="0 5.5599999 11.12">10k</tspan></text>
</g><g
       id="g302"><g
         clip-path="url(#clipPath306)"
         id="g304"><path
           id="path310"
           style="fill:none;stroke:#ffffff;stroke-width:1;stroke-linecap:round;stroke-linejoin:round;stroke-miterlimit:10;stroke-dasharray:none;stroke-opacity:1"
           d="m 370.79575,38.95 0,221.5" /></g></g><g
       id="g312"><path
         id="path314"
         style="fill:#262626;fill-opacity:1;fill-rule:nonzero;stroke:#262626;stroke-width:1;stroke-linecap:butt;stroke-linejoin:round;stroke-miterlimit:10;stroke-dasharray:none;stroke-opacity:1"
         d="m 370.79575,38.95 0,0" /><text
         id="text316"
         style="font-variant:normal;font-weight:normal;font-size:10px;font-family:'Liberation Sans';-inkscape-font-specification:LiberationSans;writing-mode:lr-tb;fill:#262626;fill-opacity:1;fill-rule:nonzero;stroke:none"
         transform="matrix(1,0,0,-1,362.73325,24.7)"><tspan
           id="tspan318"
           y="0"
           x="0 5.5599999 11.12">20k</tspan></text>
</g><g
       id="g320"><g
         clip-path="url(#clipPath324)"
         id="g322"><path
           id="path328"
           style="fill:none;stroke:#ffffff;stroke-width:1;stroke-linecap:round;stroke-linejoin:round;stroke-miterlimit:10;stroke-dasharray:none;stroke-opacity:1"
           d="m 431.37197,38.95 0,221.5" /></g></g><g
       id="g330"><path
         id="path332"
         style="fill:#262626;fill-opacity:1;fill-rule:nonzero;stroke:#262626;stroke-width:1;stroke-linecap:butt;stroke-linejoin:round;stroke-miterlimit:10;stroke-dasharray:none;stroke-opacity:1"
         d="m 431.37197,38.95 0,0" /><text
         id="text334"
         style="font-variant:normal;font-weight:normal;font-size:10px;font-family:'Liberation Sans';-inkscape-font-specification:LiberationSans;writing-mode:lr-tb;fill:#262626;fill-opacity:1;fill-rule:nonzero;stroke:none"
         transform="matrix(1,0,0,-1,423.30947,24.7)"><tspan
           id="tspan336"
           y="0"
           x="0 5.5599999 11.12">30k</tspan></text>
<text
         id="text338"
         style="font-variant:normal;font-weight:normal;font-size:11px;font-family:'Liberation Sans';-inkscape-font-specification:LiberationSans;writing-mode:lr-tb;fill:#262626;fill-opacity:1;fill-rule:nonzero;stroke:none"
         transform="matrix(1,0,0,-1,269.66732,9.48125)"><tspan
           id="tspan340"
           y="0"
           x="0 7.9419999 14.058 23.221001 29.337 31.778999 37.895 40.952999 43.395 48.895 55.011002 58.069 67.232002 73.348 79.463997 81.905998 88.022003 94.138 97.195999 105.138 111.254 117.37 120.428 123.486 127.149 133.265 136.92799 139.98599 143.649 149.765 155.881 161.99699 168.11301">Cumulative Median Debt ($) (2013)</tspan></text>
</g><g
       id="g342"><g
         clip-path="url(#clipPath346)"
         id="g344"><path
           id="path350"
           style="fill:none;stroke:#ffffff;stroke-width:1;stroke-linecap:round;stroke-linejoin:round;stroke-miterlimit:10;stroke-dasharray:none;stroke-opacity:1"
           d="m 249.64331,38.95 212.01677,0" /></g></g><g
       id="g352"><path
         id="path354"
         style="fill:#262626;fill-opacity:1;fill-rule:nonzero;stroke:#262626;stroke-width:1;stroke-linecap:butt;stroke-linejoin:round;stroke-miterlimit:10;stroke-dasharray:none;stroke-opacity:1"
         d="m 249.64331,38.95 0,0" /></g><g
       id="g356"><g
         clip-path="url(#clipPath360)"
         id="g358"><path
           id="path364"
           style="fill:none;stroke:#ffffff;stroke-width:1;stroke-linecap:round;stroke-linejoin:round;stroke-miterlimit:10;stroke-dasharray:none;stroke-opacity:1"
           d="m 249.64331,66.6375 212.01677,0" /></g></g><g
       id="g366"><path
         id="path368"
         style="fill:#262626;fill-opacity:1;fill-rule:nonzero;stroke:#262626;stroke-width:1;stroke-linecap:butt;stroke-linejoin:round;stroke-miterlimit:10;stroke-dasharray:none;stroke-opacity:1"
         d="m 249.64331,66.6375 0,0" /></g><g
       id="g370"><g
         clip-path="url(#clipPath374)"
         id="g372"><path
           id="path378"
           style="fill:none;stroke:#ffffff;stroke-width:1;stroke-linecap:round;stroke-linejoin:round;stroke-miterlimit:10;stroke-dasharray:none;stroke-opacity:1"
           d="m 249.64331,94.325 212.01677,0" /></g></g><g
       id="g380"><path
         id="path382"
         style="fill:#262626;fill-opacity:1;fill-rule:nonzero;stroke:#262626;stroke-width:1;stroke-linecap:butt;stroke-linejoin:round;stroke-miterlimit:10;stroke-dasharray:none;stroke-opacity:1"
         d="m 249.64331,94.325 0,0" /></g><g
       id="g384"><g
         clip-path="url(#clipPath388)"
         id="g386"><path
           id="path392"
           style="fill:none;stroke:#ffffff;stroke-width:1;stroke-linecap:round;stroke-linejoin:round;stroke-miterlimit:10;stroke-dasharray:none;stroke-opacity:1"
           d="m 249.64331,122.0125 212.01677,0" /></g></g><g
       id="g394"><path
         id="path396"
         style="fill:#262626;fill-opacity:1;fill-rule:nonzero;stroke:#262626;stroke-width:1;stroke-linecap:butt;stroke-linejoin:round;stroke-miterlimit:10;stroke-dasharray:none;stroke-opacity:1"
         d="m 249.64331,122.0125 0,0" /></g><g
       id="g398"><g
         clip-path="url(#clipPath402)"
         id="g400"><path
           id="path406"
           style="fill:none;stroke:#ffffff;stroke-width:1;stroke-linecap:round;stroke-linejoin:round;stroke-miterlimit:10;stroke-dasharray:none;stroke-opacity:1"
           d="m 249.64331,149.7 212.01677,0" /></g></g><g
       id="g408"><path
         id="path410"
         style="fill:#262626;fill-opacity:1;fill-rule:nonzero;stroke:#262626;stroke-width:1;stroke-linecap:butt;stroke-linejoin:round;stroke-miterlimit:10;stroke-dasharray:none;stroke-opacity:1"
         d="m 249.64331,149.7 0,0" /></g><g
       id="g412"><g
         clip-path="url(#clipPath416)"
         id="g414"><path
           id="path420"
           style="fill:none;stroke:#ffffff;stroke-width:1;stroke-linecap:round;stroke-linejoin:round;stroke-miterlimit:10;stroke-dasharray:none;stroke-opacity:1"
           d="m 249.64331,177.3875 212.01677,0" /></g></g><g
       id="g422"><path
         id="path424"
         style="fill:#262626;fill-opacity:1;fill-rule:nonzero;stroke:#262626;stroke-width:1;stroke-linecap:butt;stroke-linejoin:round;stroke-miterlimit:10;stroke-dasharray:none;stroke-opacity:1"
         d="m 249.64331,177.3875 0,0" /></g><g
       id="g426"><g
         clip-path="url(#clipPath430)"
         id="g428"><path
           id="path434"
           style="fill:none;stroke:#ffffff;stroke-width:1;stroke-linecap:round;stroke-linejoin:round;stroke-miterlimit:10;stroke-dasharray:none;stroke-opacity:1"
           d="m 249.64331,205.075 212.01677,0" /></g></g><g
       id="g436"><path
         id="path438"
         style="fill:#262626;fill-opacity:1;fill-rule:nonzero;stroke:#262626;stroke-width:1;stroke-linecap:butt;stroke-linejoin:round;stroke-miterlimit:10;stroke-dasharray:none;stroke-opacity:1"
         d="m 249.64331,205.075 0,0" /></g><g
       id="g440"><g
         clip-path="url(#clipPath444)"
         id="g442"><path
           id="path448"
           style="fill:none;stroke:#ffffff;stroke-width:1;stroke-linecap:round;stroke-linejoin:round;stroke-miterlimit:10;stroke-dasharray:none;stroke-opacity:1"
           d="m 249.64331,232.7625 212.01677,0" /></g></g><g
       id="g450"><path
         id="path452"
         style="fill:#262626;fill-opacity:1;fill-rule:nonzero;stroke:#262626;stroke-width:1;stroke-linecap:butt;stroke-linejoin:round;stroke-miterlimit:10;stroke-dasharray:none;stroke-opacity:1"
         d="m 249.64331,232.7625 0,0" /></g><g
       id="g454"><g
         clip-path="url(#clipPath458)"
         id="g456"><path
           id="path462"
           style="fill:none;stroke:#ffffff;stroke-width:1;stroke-linecap:round;stroke-linejoin:round;stroke-miterlimit:10;stroke-dasharray:none;stroke-opacity:1"
           d="m 249.64331,260.45 212.01677,0" /></g></g><g
       id="g464"><path
         id="path466"
         style="fill:#262626;fill-opacity:1;fill-rule:nonzero;stroke:#262626;stroke-width:1;stroke-linecap:butt;stroke-linejoin:round;stroke-miterlimit:10;stroke-dasharray:none;stroke-opacity:1"
         d="m 249.64331,260.45 0,0" /></g><g
       id="g468"><g
         clip-path="url(#clipPath472)"
         id="g470"><path
           id="path476"
           style="fill:#4878cf;fill-opacity:0.25;fill-rule:nonzero;stroke:#4878cf;stroke-width:0.30000001;stroke-linecap:butt;stroke-linejoin:round;stroke-miterlimit:10;stroke-dasharray:none;stroke-opacity:0.25"
           d="m 234.456,38.996064 0,-0.04606 1.67295,0 1.67294,0 1.67294,0 1.67294,0 1.67294,0 1.67295,0 1.67294,0 1.67294,0 1.67294,0 1.67295,0 1.67294,0 1.67294,0 1.67295,0 1.67294,0 1.67294,0 1.67294,0 1.67295,0 1.67294,0 1.67294,0 1.67294,0 1.67295,0 1.67294,0 1.67294,0 1.67294,0 1.67295,0 1.67294,0 1.67294,0 1.67294,0 1.67295,0 1.67294,0 1.67294,0 1.67294,0 1.67295,0 1.67294,0 1.67294,0 1.67295,0 1.67294,0 1.67294,0 1.67294,0 1.67295,0 1.67294,0 1.67294,0 1.67294,0 1.67295,0 1.67294,0 1.67294,0 1.67294,0 1.67295,0 1.67294,0 1.67294,0 1.67294,0 1.67295,0 1.67294,0 1.67294,0 1.67294,0 1.67295,0 1.67294,0 1.67294,0 1.67295,0 1.67294,0 1.67294,0 1.67294,0 1.67295,0 1.67294,0 1.67294,0 1.67294,0 1.67295,0 1.67294,0 1.67294,0 1.67294,0 1.67295,0 1.67294,0 1.67294,0 1.67294,0 1.67295,0 1.67294,0 1.67294,0 1.67294,0 1.67295,0 1.67294,0 1.67294,0 1.67294,0 1.67295,0 1.67294,0 1.67294,0 1.67295,0 1.67294,0 1.67294,0 1.67294,0 1.67295,0 1.67294,0 1.67294,0 1.67294,0 1.67295,0 1.67294,0 1.67294,0 1.67294,0 1.67295,0 1.67294,0 1.67294,0 1.67294,0 1.67295,0 1.67294,0 1.67294,0 1.67295,0 1.67294,0 1.67294,0 1.67294,0 1.67295,0 1.67294,0 1.67294,0 1.67294,0 1.67295,0 1.67294,0 1.67294,0 1.67294,0 1.67295,0 1.67294,0 1.67294,0 1.67294,0 1.67295,0 1.67294,0 1.67294,0 1.67295,0 1.67294,0 1.67294,0 1.67294,0 0,0.04911 0,0 -1.67294,0.01283 -1.67294,0.02426 -1.67294,0.03849 -1.67295,0.05671 -1.67294,0.08015 -1.67294,0.109984 -1.67295,0.147303 -1.67294,0.193006 -1.67294,0.247703 -1.67294,0.311633 -1.67295,0.384594 -1.67294,0.465927 -1.67294,0.554564 -1.67294,0.649131 -1.67295,0.74814 -1.67294,0.85021 -1.67294,0.954344 -1.67294,1.060187 -1.67295,1.168241 -1.67294,1.279995 -1.67294,1.397936 -1.67294,1.525421 -1.67295,1.66637 -1.67294,1.82483 -1.67294,2.004402 -1.67295,2.207593 -1.67294,2.435148 -1.67294,2.685453 -1.67294,2.9541 -1.67295,3.233669 -1.67294,3.513837 -1.67294,3.781799 -1.67294,4.023033 -1.67295,4.222305 -1.67294,4.36484 -1.67294,4.437515 -1.67294,4.429928 -1.67295,4.335235 -1.67294,4.15069 -1.67294,3.8778 -1.67294,3.52228 -1.67295,3.09367 -1.67294,2.60488 -1.67294,2.07163 -1.67295,1.5118 -1.67294,0.94491 -1.67294,0.39124 -1.67294,-0.12883 -1.67295,-0.59593 -1.67294,-0.99269 -1.67294,-1.30512 -1.67294,-1.5236 -1.67295,-1.64412 -1.67294,-1.6688 -1.67294,-1.60626 -1.67294,-1.47116 -1.67295,-1.28314 -1.67294,-1.06521 -1.67294,-0.84147 -1.67294,-0.63475 -1.67295,-0.46407 -1.67294,-0.34247 -1.67294,-0.27552 -1.67294,-0.26061 -1.67295,-0.2872 -1.67294,-0.3382 -1.67294,-0.39202 -1.67294,-0.42543 -1.67295,-0.41654 -1.67294,-0.34787 -1.67294,-0.20898 -1.67295,0.002 -1.67294,0.27545 -1.67294,0.5939 -1.67294,0.92964 -1.67295,1.24859 -1.67294,1.51325 -1.67294,1.68643 -1.67294,1.73551 -1.67295,1.63621 -1.67294,1.37588 -1.67294,0.95556 -1.67294,0.39029 -1.67295,-0.29194 -1.67294,-1.05304 -1.67294,-1.84864 -1.67294,-2.63255 -1.67295,-3.36122 -1.67294,-3.99742 -1.67294,-4.5129 -1.67294,-4.889783 -1.67295,-5.120589 -1.67294,-5.207393 -1.67294,-5.160135 -1.67295,-4.994713 -1.67294,-4.731022 -1.67294,-4.391196 -1.67294,-3.998097 -1.67295,-3.574087 -1.67294,-3.140005 -1.67294,-2.714316 -1.67294,-2.312401 -1.67295,-1.94603 -1.67294,-1.62304 -1.67294,-1.347301 -1.67294,-1.118974 -1.67295,-0.935068 -1.67294,-0.790233 -1.67294,-0.677669 -1.67294,-0.590072 -1.67295,-0.520454 -1.67294,-0.462777 -1.67294,-0.412338 -1.67294,-0.365907 -1.67295,-0.321641 -1.67294,-0.278837 -1.67294,-0.237613 -1.67295,-0.198555 -1.67294,-0.162415 -1.67294,-0.129871 -1.67294,-0.101383 -1.67295,-0.07711 -1.67294,-0.05693 -1.67294,-0.04042 -1.67294,-0.02699 -1.67294,-0.01587 -1.67295,-0.0062 z" /></g></g><g
       id="g478"><g
         clip-path="url(#clipPath482)"
         id="g480"><path
           id="path486"
           style="fill:#6acc65;fill-opacity:0.25;fill-rule:nonzero;stroke:#6acc65;stroke-width:0.30000001;stroke-linecap:butt;stroke-linejoin:round;stroke-miterlimit:10;stroke-dasharray:none;stroke-opacity:0.25"
           d="m 233.78536,38.97159 0,-0.02159 1.94562,0 1.94563,0 1.94563,0 1.94563,0 1.94562,0 1.94563,0 1.94563,0 1.94563,0 1.94562,0 1.94563,0 1.94563,0 1.94563,0 1.94562,0 1.94563,0 1.94563,0 1.94562,0 1.94563,0 1.94563,0 1.94562,0 1.94563,0 1.94563,0 1.94563,0 1.94562,0 1.94563,0 1.94563,0 1.94563,0 1.94562,0 1.94563,0 1.94563,0 1.94562,0 1.94563,0 1.94563,0 1.94563,0 1.94562,0 1.94563,0 1.94563,0 1.94563,0 1.94562,0 1.94563,0 1.94563,0 1.94562,0 1.94563,0 1.94563,0 1.94563,0 1.94562,0 1.94563,0 1.94563,0 1.94563,0 1.94562,0 1.94563,0 1.94563,0 1.94562,0 1.94563,0 1.94563,0 1.94563,0 1.94562,0 1.94563,0 1.94563,0 1.94562,0 1.94563,0 1.94563,0 1.94563,0 1.94562,0 1.94563,0 1.94563,0 1.94563,0 1.94562,0 1.94563,0 1.94563,0 1.94562,0 1.94563,0 1.94563,0 1.94563,0 1.94562,0 1.94563,0 1.94563,0 1.94563,0 1.94562,0 1.94563,0 1.94563,0 1.94562,0 1.94563,0 1.94563,0 1.94563,0 1.94562,0 1.94563,0 1.94563,0 1.94563,0 1.94562,0 1.94563,0 1.94563,0 1.94562,0 1.94563,0 1.94563,0 1.94563,0 1.94562,0 1.94563,0 1.94563,0 1.94562,0 1.94563,0 1.94563,0 1.94563,0 1.94562,0 1.94563,0 1.94563,0 1.94563,0 1.94562,0 1.94563,0 1.94563,0 1.94562,0 1.94563,0 1.94563,0 1.94563,0 1.94562,0 1.94563,0 1.94563,0 1.94563,0 1.94562,0 1.94563,0 1.94563,0 1.94562,0 1.94563,0 1.94563,0 1.94563,0 1.94562,0 1.94563,0 1.94563,0 0,0.02104 0,0 -1.94563,0.0046 -1.94563,0.01024 -1.94562,0.01686 -1.94563,0.02492 -1.94563,0.03469 -1.94563,0.04619 -1.94562,0.05912 -1.94563,0.07281 -1.94563,0.08623 -1.94562,0.09803 -1.94563,0.106675 -1.94563,0.110711 -1.94563,0.108998 -1.94562,0.101031 -1.94563,0.08722 -1.94563,0.06905 -1.94563,0.04923 -1.94562,0.03158 -1.94563,0.0209 -1.94563,0.02278 -1.94562,0.04329 -1.94563,0.08875 -1.94563,0.165471 -1.94563,0.279567 -1.94562,0.436601 -1.94563,0.641215 -1.94563,0.89657 -1.94563,1.203623 -1.94562,1.560316 -1.94563,1.960771 -1.94563,2.394701 -1.94562,2.84723 -1.94563,3.29932 -1.94563,3.728924 -1.94563,4.112852 -1.94562,4.429165 -1.94563,4.65983 -1.94563,4.793169 -1.94562,4.825713 -1.94563,4.763072 -1.94563,4.619647 -1.94563,4.417138 -1.94562,4.18204 -1.94563,3.94247 -1.94563,3.72465 -1.94563,3.5496 -1.94562,3.43018 -1.94563,3.3691 -1.94563,3.35781 -1.94562,3.3769 -1.94563,3.39753 -1.94563,3.38442 -1.94563,3.29991 -1.94562,3.10866 -1.94563,2.78268 -1.94563,2.30586 -1.94563,1.67722 -1.94562,0.91259 -1.94563,0.0441 -1.94563,-0.88285 -1.94562,-1.81381 -1.94563,-2.69173 -1.94563,-3.4632 -1.94563,-4.08468 -1.94562,-4.5271 -1.94563,-4.77873 -1.94563,-4.84564 -1.94563,-4.74976 -1.94562,-4.52492 -1.94563,-4.21147 -1.94563,-3.85007 -1.94562,-3.475929 -1.94563,-3.114011 -1.94563,-2.776416 -1.94563,-2.462152 -1.94562,-2.159572 -1.94563,-1.85097 -1.94563,-1.518552 -1.94562,-1.1505 -1.94563,-0.745937 -1.94563,-0.31768 -1.94563,0.107863 -1.94562,0.493684 -1.94563,0.797568 -1.94563,0.978911 -1.94563,1.005682 -1.94562,0.860324 -1.94563,0.543519 -1.94563,0.07517 -1.94562,-0.507557 -1.94563,-1.154745 -1.94563,-1.810116 -1.94563,-2.418125 -1.94562,-2.930699 -1.94563,-3.312533 -1.94563,-3.54426 -1.94563,-3.62312 -1.94562,-3.561307 -1.94563,-3.38248 -1.94563,-3.117234 -1.94562,-2.798356 -1.94563,-2.456676 -1.94563,-2.117995 -1.94563,-1.801385 -1.94562,-1.518781 -1.94563,-1.27563 -1.94563,-1.072206 -1.94563,-0.905205 -1.94562,-0.769311 -1.94563,-0.658477 -1.94563,-0.56688 -1.94562,-0.489508 -1.94563,-0.422425 -1.94563,-0.362834 -1.94562,-0.30896 -1.94563,-0.259862 -1.94563,-0.215195 -1.94563,-0.174976 -1.94562,-0.139373 -1.94563,-0.108536 -1.94563,-0.08249 -1.94563,-0.06106 -1.94562,-0.0439 -1.94563,-0.03048 -1.94563,-0.02016 -1.94563,-0.01223 -1.94562,-0.0059 z" /></g></g><g
       id="g488"><g
         clip-path="url(#clipPath492)"
         id="g490"><path
           id="path496"
           style="fill:none;stroke:#4878cf;stroke-width:1.75;stroke-linecap:round;stroke-linejoin:round;stroke-miterlimit:10;stroke-dasharray:none;stroke-opacity:1"
           d="m 234.456,38.996064 6.69177,0.08947 5.01883,0.235421 5.01883,0.490841 3.34588,0.51645 3.34589,0.687548 3.34588,0.875115 3.34589,1.110526 3.34588,1.467902 1.67295,0.935068 1.67294,1.118974 1.67294,1.347301 1.67294,1.62304 1.67295,1.94603 1.67294,2.312401 1.67294,2.714316 1.67294,3.140005 1.67295,3.574087 1.67294,3.998097 1.67294,4.391196 3.34589,9.725735 6.69177,20.377893 1.67294,4.5129 1.67294,3.99742 1.67295,3.36122 1.67294,2.63255 1.67294,1.84864 1.67294,1.05304 1.67295,0.29194 1.67294,-0.39029 1.67294,-0.95556 1.67294,-1.37588 6.69177,-6.5714 1.67295,-1.24859 1.67294,-0.92964 1.67294,-0.5939 1.67294,-0.27545 1.67295,-0.002 1.67294,0.20898 3.34589,0.76441 3.34588,0.81745 3.34589,0.6254 5.01882,0.8786 1.67295,0.46407 1.67294,0.63475 1.67294,0.84147 1.67294,1.06521 1.67295,1.28314 3.34588,3.07742 3.34589,3.31292 1.67294,1.5236 1.67294,1.30512 1.67294,0.99269 1.67295,0.59593 1.67294,0.12883 1.67294,-0.39124 1.67294,-0.94491 1.67295,-1.5118 1.67294,-2.07163 1.67294,-2.60488 1.67295,-3.09367 1.67294,-3.52228 3.34588,-8.02849 10.03766,-25.812849 3.34588,-7.295636 1.67295,-3.233669 1.67294,-2.9541 1.67294,-2.685453 1.67294,-2.435148 1.67295,-2.207593 1.67294,-2.004402 3.34589,-3.4912 3.34588,-2.923357 3.34589,-2.448236 3.34588,-2.014531 3.34589,-1.59835 3.34588,-1.203695 3.34589,-0.850521 3.34588,-0.559336 3.34589,-0.340309 5.01883,-0.246848 5.01882,-0.07558 0,0" /></g></g><g
       id="g498"><g
         clip-path="url(#clipPath502)"
         id="g500"><path
           id="path506"
           style="fill:none;stroke:#6acc65;stroke-width:1.75;stroke-linecap:round;stroke-linejoin:round;stroke-miterlimit:10;stroke-dasharray:none;stroke-opacity:1"
           d="m 233.78536,38.97159 9.72813,0.11271 5.83689,0.252085 3.89125,0.314349 3.89126,0.475057 3.89125,0.671794 3.89125,0.911933 3.89126,1.225357 1.94562,0.769311 1.94563,0.905205 1.94563,1.072206 1.94563,1.27563 1.94562,1.518781 1.94563,1.801385 1.94563,2.117995 1.94563,2.456676 1.94562,2.798356 1.94563,3.117234 3.89125,6.943787 3.89126,7.16738 1.94563,3.312533 1.94562,2.930699 1.94563,2.418125 1.94563,1.810116 1.94563,1.154745 1.94562,0.507557 1.94563,-0.07517 1.94563,-0.543519 1.94562,-0.860324 3.89126,-1.984593 1.94563,-0.797568 1.94562,-0.493684 1.94563,-0.107863 1.94563,0.31768 1.94563,0.745937 1.94562,1.1505 1.94563,1.518552 1.94563,1.85097 1.94562,2.159572 1.94563,2.462152 1.94563,2.776416 1.94563,3.114011 1.94562,3.475935 1.94563,3.85007 1.94563,4.21147 3.89125,9.27468 3.89126,9.62437 1.94562,4.5271 1.94563,4.08468 1.94563,3.4632 1.94563,2.69173 1.94562,1.81381 1.94563,0.88285 1.94563,-0.0441 1.94562,-0.91259 1.94563,-1.67722 1.94563,-2.30586 1.94563,-2.78268 3.89125,-6.40857 13.61939,-23.86554 3.89126,-7.66712 3.89125,-8.599184 3.89126,-9.382719 5.83688,-14.278712 1.94562,-4.429165 1.94563,-4.112852 1.94563,-3.728924 1.94563,-3.29932 1.94562,-2.84723 1.94563,-2.394701 1.94563,-1.960771 1.94562,-1.560316 1.94563,-1.203623 1.94563,-0.89657 1.94563,-0.641215 1.94562,-0.436601 1.94563,-0.279567 3.89126,-0.254217 15.56501,-0.42508 11.67377,-0.583455 7.78251,-0.164923 5.83688,-0.03173 0,0" /></g></g><g
       id="g508"><text
         id="text510"
         style="font-variant:normal;font-weight:normal;font-size:11px;font-family:'Liberation Sans';-inkscape-font-specification:LiberationSans;writing-mode:lr-tb;fill:#262626;fill-opacity:1;fill-rule:nonzero;stroke:none"
         transform="matrix(1,0,0,-1,315.55795,265.45)"><tspan
           id="tspan512"
           y="0"
           x="0 7.3369999 11 13.442 18.941999 25.058001 28.115999 34.231998 37.290001 43.405998 49.521999 55.638 61.754002 65.417 71.532997 74.591003 77.032997">Private nonprofit</tspan></text>
<path
         id="path514"
         style="fill:#eaeaf2;fill-opacity:1;fill-rule:nonzero;stroke:none"
         d="m 489.30538,38.95 212.01677,0 0,221.5 -212.01677,0 0,-221.5 z" /></g><g
       id="g516"><g
         clip-path="url(#clipPath520)"
         id="g518"><path
           id="path524"
           style="fill:none;stroke:#ffffff;stroke-width:1;stroke-linecap:round;stroke-linejoin:round;stroke-miterlimit:10;stroke-dasharray:none;stroke-opacity:1"
           d="m 489.30538,38.95 0,221.5" /></g></g><g
       id="g526"><path
         id="path528"
         style="fill:#262626;fill-opacity:1;fill-rule:nonzero;stroke:#262626;stroke-width:1;stroke-linecap:butt;stroke-linejoin:round;stroke-miterlimit:10;stroke-dasharray:none;stroke-opacity:1"
         d="m 489.30538,38.95 0,0" /><text
         id="text530"
         style="font-variant:normal;font-weight:normal;font-size:10px;font-family:'Liberation Sans';-inkscape-font-specification:LiberationSans;writing-mode:lr-tb;fill:#262626;fill-opacity:1;fill-rule:nonzero;stroke:none"
         transform="matrix(1,0,0,-1,486.52413,24.7)"><tspan
           id="tspan532"
           y="0"
           x="0">0</tspan></text>
</g><g
       id="g534"><g
         clip-path="url(#clipPath538)"
         id="g536"><path
           id="path542"
           style="fill:none;stroke:#ffffff;stroke-width:1;stroke-linecap:round;stroke-linejoin:round;stroke-miterlimit:10;stroke-dasharray:none;stroke-opacity:1"
           d="m 549.8816,38.95 0,221.5" /></g></g><g
       id="g544"><path
         id="path546"
         style="fill:#262626;fill-opacity:1;fill-rule:nonzero;stroke:#262626;stroke-width:1;stroke-linecap:butt;stroke-linejoin:round;stroke-miterlimit:10;stroke-dasharray:none;stroke-opacity:1"
         d="m 549.8816,38.95 0,0" /><text
         id="text548"
         style="font-variant:normal;font-weight:normal;font-size:10px;font-family:'Liberation Sans';-inkscape-font-specification:LiberationSans;writing-mode:lr-tb;fill:#262626;fill-opacity:1;fill-rule:nonzero;stroke:none"
         transform="matrix(1,0,0,-1,541.8191,24.7)"><tspan
           id="tspan550"
           y="0"
           x="0 5.5599999 11.12">10k</tspan></text>
</g><g
       id="g552"><g
         clip-path="url(#clipPath556)"
         id="g554"><path
           id="path560"
           style="fill:none;stroke:#ffffff;stroke-width:1;stroke-linecap:round;stroke-linejoin:round;stroke-miterlimit:10;stroke-dasharray:none;stroke-opacity:1"
           d="m 610.45782,38.95 0,221.5" /></g></g><g
       id="g562"><path
         id="path564"
         style="fill:#262626;fill-opacity:1;fill-rule:nonzero;stroke:#262626;stroke-width:1;stroke-linecap:butt;stroke-linejoin:round;stroke-miterlimit:10;stroke-dasharray:none;stroke-opacity:1"
         d="m 610.45782,38.95 0,0" /><text
         id="text566"
         style="font-variant:normal;font-weight:normal;font-size:10px;font-family:'Liberation Sans';-inkscape-font-specification:LiberationSans;writing-mode:lr-tb;fill:#262626;fill-opacity:1;fill-rule:nonzero;stroke:none"
         transform="matrix(1,0,0,-1,602.39532,24.7)"><tspan
           id="tspan568"
           y="0"
           x="0 5.5599999 11.12">20k</tspan></text>
</g><g
       id="g570"><g
         clip-path="url(#clipPath574)"
         id="g572"><path
           id="path578"
           style="fill:none;stroke:#ffffff;stroke-width:1;stroke-linecap:round;stroke-linejoin:round;stroke-miterlimit:10;stroke-dasharray:none;stroke-opacity:1"
           d="m 671.03404,38.95 0,221.5" /></g></g><g
       id="g580"><path
         id="path582"
         style="fill:#262626;fill-opacity:1;fill-rule:nonzero;stroke:#262626;stroke-width:1;stroke-linecap:butt;stroke-linejoin:round;stroke-miterlimit:10;stroke-dasharray:none;stroke-opacity:1"
         d="m 671.03404,38.95 0,0" /><text
         id="text584"
         style="font-variant:normal;font-weight:normal;font-size:10px;font-family:'Liberation Sans';-inkscape-font-specification:LiberationSans;writing-mode:lr-tb;fill:#262626;fill-opacity:1;fill-rule:nonzero;stroke:none"
         transform="matrix(1,0,0,-1,662.97154,24.7)"><tspan
           id="tspan586"
           y="0"
           x="0 5.5599999 11.12">30k</tspan></text>
<text
         id="text588"
         style="font-variant:normal;font-weight:normal;font-size:11px;font-family:'Liberation Sans';-inkscape-font-specification:LiberationSans;writing-mode:lr-tb;fill:#262626;fill-opacity:1;fill-rule:nonzero;stroke:none"
         transform="matrix(1,0,0,-1,509.32939,9.48125)"><tspan
           id="tspan590"
           y="0"
           x="0 7.9419999 14.058 23.221001 29.337 31.778999 37.895 40.952999 43.395 48.895 55.011002 58.069 67.232002 73.348 79.463997 81.905998 88.022003 94.138 97.195999 105.138 111.254 117.37 120.428 123.486 127.149 133.265 136.92799 139.98599 143.649 149.765 155.881 161.99699 168.11301">Cumulative Median Debt ($) (2013)</tspan></text>
</g><g
       id="g592"><g
         clip-path="url(#clipPath596)"
         id="g594"><path
           id="path600"
           style="fill:none;stroke:#ffffff;stroke-width:1;stroke-linecap:round;stroke-linejoin:round;stroke-miterlimit:10;stroke-dasharray:none;stroke-opacity:1"
           d="m 489.30538,38.95 212.01677,0" /></g></g><g
       id="g602"><path
         id="path604"
         style="fill:#262626;fill-opacity:1;fill-rule:nonzero;stroke:#262626;stroke-width:1;stroke-linecap:butt;stroke-linejoin:round;stroke-miterlimit:10;stroke-dasharray:none;stroke-opacity:1"
         d="m 489.30538,38.95 0,0" /></g><g
       id="g606"><g
         clip-path="url(#clipPath610)"
         id="g608"><path
           id="path614"
           style="fill:none;stroke:#ffffff;stroke-width:1;stroke-linecap:round;stroke-linejoin:round;stroke-miterlimit:10;stroke-dasharray:none;stroke-opacity:1"
           d="m 489.30538,66.6375 212.01677,0" /></g></g><g
       id="g616"><path
         id="path618"
         style="fill:#262626;fill-opacity:1;fill-rule:nonzero;stroke:#262626;stroke-width:1;stroke-linecap:butt;stroke-linejoin:round;stroke-miterlimit:10;stroke-dasharray:none;stroke-opacity:1"
         d="m 489.30538,66.6375 0,0" /></g><g
       id="g620"><g
         clip-path="url(#clipPath624)"
         id="g622"><path
           id="path628"
           style="fill:none;stroke:#ffffff;stroke-width:1;stroke-linecap:round;stroke-linejoin:round;stroke-miterlimit:10;stroke-dasharray:none;stroke-opacity:1"
           d="m 489.30538,94.325 212.01677,0" /></g></g><g
       id="g630"><path
         id="path632"
         style="fill:#262626;fill-opacity:1;fill-rule:nonzero;stroke:#262626;stroke-width:1;stroke-linecap:butt;stroke-linejoin:round;stroke-miterlimit:10;stroke-dasharray:none;stroke-opacity:1"
         d="m 489.30538,94.325 0,0" /></g><g
       id="g634"><g
         clip-path="url(#clipPath638)"
         id="g636"><path
           id="path642"
           style="fill:none;stroke:#ffffff;stroke-width:1;stroke-linecap:round;stroke-linejoin:round;stroke-miterlimit:10;stroke-dasharray:none;stroke-opacity:1"
           d="m 489.30538,122.0125 212.01677,0" /></g></g><g
       id="g644"><path
         id="path646"
         style="fill:#262626;fill-opacity:1;fill-rule:nonzero;stroke:#262626;stroke-width:1;stroke-linecap:butt;stroke-linejoin:round;stroke-miterlimit:10;stroke-dasharray:none;stroke-opacity:1"
         d="m 489.30538,122.0125 0,0" /></g><g
       id="g648"><g
         clip-path="url(#clipPath652)"
         id="g650"><path
           id="path656"
           style="fill:none;stroke:#ffffff;stroke-width:1;stroke-linecap:round;stroke-linejoin:round;stroke-miterlimit:10;stroke-dasharray:none;stroke-opacity:1"
           d="m 489.30538,149.7 212.01677,0" /></g></g><g
       id="g658"><path
         id="path660"
         style="fill:#262626;fill-opacity:1;fill-rule:nonzero;stroke:#262626;stroke-width:1;stroke-linecap:butt;stroke-linejoin:round;stroke-miterlimit:10;stroke-dasharray:none;stroke-opacity:1"
         d="m 489.30538,149.7 0,0" /></g><g
       id="g662"><g
         clip-path="url(#clipPath666)"
         id="g664"><path
           id="path670"
           style="fill:none;stroke:#ffffff;stroke-width:1;stroke-linecap:round;stroke-linejoin:round;stroke-miterlimit:10;stroke-dasharray:none;stroke-opacity:1"
           d="m 489.30538,177.3875 212.01677,0" /></g></g><g
       id="g672"><path
         id="path674"
         style="fill:#262626;fill-opacity:1;fill-rule:nonzero;stroke:#262626;stroke-width:1;stroke-linecap:butt;stroke-linejoin:round;stroke-miterlimit:10;stroke-dasharray:none;stroke-opacity:1"
         d="m 489.30538,177.3875 0,0" /></g><g
       id="g676"><g
         clip-path="url(#clipPath680)"
         id="g678"><path
           id="path684"
           style="fill:none;stroke:#ffffff;stroke-width:1;stroke-linecap:round;stroke-linejoin:round;stroke-miterlimit:10;stroke-dasharray:none;stroke-opacity:1"
           d="m 489.30538,205.075 212.01677,0" /></g></g><g
       id="g686"><path
         id="path688"
         style="fill:#262626;fill-opacity:1;fill-rule:nonzero;stroke:#262626;stroke-width:1;stroke-linecap:butt;stroke-linejoin:round;stroke-miterlimit:10;stroke-dasharray:none;stroke-opacity:1"
         d="m 489.30538,205.075 0,0" /></g><g
       id="g690"><g
         clip-path="url(#clipPath694)"
         id="g692"><path
           id="path698"
           style="fill:none;stroke:#ffffff;stroke-width:1;stroke-linecap:round;stroke-linejoin:round;stroke-miterlimit:10;stroke-dasharray:none;stroke-opacity:1"
           d="m 489.30538,232.7625 212.01677,0" /></g></g><g
       id="g700"><path
         id="path702"
         style="fill:#262626;fill-opacity:1;fill-rule:nonzero;stroke:#262626;stroke-width:1;stroke-linecap:butt;stroke-linejoin:round;stroke-miterlimit:10;stroke-dasharray:none;stroke-opacity:1"
         d="m 489.30538,232.7625 0,0" /></g><g
       id="g704"><g
         clip-path="url(#clipPath708)"
         id="g706"><path
           id="path712"
           style="fill:none;stroke:#ffffff;stroke-width:1;stroke-linecap:round;stroke-linejoin:round;stroke-miterlimit:10;stroke-dasharray:none;stroke-opacity:1"
           d="m 489.30538,260.45 212.01677,0" /></g></g><g
       id="g714"><path
         id="path716"
         style="fill:#262626;fill-opacity:1;fill-rule:nonzero;stroke:#262626;stroke-width:1;stroke-linecap:butt;stroke-linejoin:round;stroke-miterlimit:10;stroke-dasharray:none;stroke-opacity:1"
         d="m 489.30538,260.45 0,0" /></g><g
       id="g718"><g
         clip-path="url(#clipPath722)"
         id="g720"><path
           id="path726"
           style="fill:#4878cf;fill-opacity:0.25;fill-rule:nonzero;stroke:#4878cf;stroke-width:0.30000001;stroke-linecap:butt;stroke-linejoin:round;stroke-miterlimit:10;stroke-dasharray:none;stroke-opacity:0.25"
           d="m 488.36422,39.000747 0,-0.05075 1.17016,0 1.17015,0 1.17016,0 1.17016,0 1.17016,0 1.17015,0 1.17016,0 1.17016,0 1.17016,0 1.17016,0 1.17015,0 1.17016,0 1.17016,0 1.17016,0 1.17015,0 1.17016,0 1.17016,0 1.17016,0 1.17016,0 1.17015,0 1.17016,0 1.17016,0 1.17016,0 1.17015,0 1.17016,0 1.17016,0 1.17016,0 1.17016,0 1.17015,0 1.17016,0 1.17016,0 1.17016,0 1.17015,0 1.17016,0 1.17016,0 1.17016,0 1.17015,0 1.17016,0 1.17016,0 1.17016,0 1.17016,0 1.17015,0 1.17016,0 1.17016,0 1.17016,0 1.17016,0 1.17015,0 1.17016,0 1.17016,0 1.17016,0 1.17015,0 1.17016,0 1.17016,0 1.17016,0 1.17015,0 1.17016,0 1.17016,0 1.17016,0 1.17016,0 1.17015,0 1.17016,0 1.17016,0 1.17016,0 1.17016,0 1.17015,0 1.17016,0 1.17016,0 1.17016,0 1.17015,0 1.17016,0 1.17016,0 1.17016,0 1.17016,0 1.17015,0 1.17016,0 1.17016,0 1.17016,0 1.17015,0 1.17016,0 1.17016,0 1.17016,0 1.17015,0 1.17016,0 1.17016,0 1.17016,0 1.17016,0 1.17015,0 1.17016,0 1.17016,0 1.17016,0 1.17015,0 1.17016,0 1.17016,0 1.17016,0 1.17015,0 1.17016,0 1.17016,0 1.17016,0 1.17016,0 1.17015,0 1.17016,0 1.17016,0 1.17016,0 1.17015,0 1.17016,0 1.17016,0 1.17016,0 1.17016,0 1.17015,0 1.17016,0 1.17016,0 1.17016,0 1.17015,0 1.17016,0 1.17016,0 1.17016,0 1.17016,0 1.17015,0 1.17016,0 1.17016,0 1.17016,0 1.17015,0 1.17016,0 1.17016,0 1.17016,0 1.17016,0 1.17015,0 0,0.07755 0,0 -1.17015,0.05171 -1.17016,0.08698 -1.17016,0.136133 -1.17016,0.201814 -1.17016,0.284717 -1.17015,0.382432 -1.17016,0.488445 -1.17016,0.591818 -1.17016,0.677932 -1.17015,0.730576 -1.17016,0.735282 -1.17016,0.683314 -1.17016,0.575397 -1.17016,0.424086 -1.17015,0.253847 -1.17016,0.09848 -1.17016,-0.0039 -1.17016,-0.01749 -1.17015,0.08422 -1.17016,0.312309 -1.17016,0.658205 -1.17016,1.092294 -1.17016,1.565821 -1.17015,2.016418 -1.17016,2.377039 -1.17016,2.587463 -1.17016,2.606673 -1.17015,2.423715 -1.17016,2.064583 -1.17016,1.593199 -1.17016,1.10601 -1.17016,0.72119 -1.17015,0.564474 -1.17016,0.753675 -1.17016,1.383023 -1.17016,2.507259 -1.17015,4.125124 -1.17016,6.163042 -1.17016,8.462533 -1.17016,10.777691 -1.17015,12.79025 -1.17016,14.14747 -1.17016,14.52151 -1.17016,13.68087 -1.17016,11.55665 -1.17015,8.28338 -1.17016,4.19885 -1.17016,-0.20256 -1.17016,-4.35437 -1.17015,-7.72001 -1.17016,-9.88716 -1.17016,-10.63248 -1.17016,-9.94497 -1.17015,-8.00896 -1.17016,-5.15715 -1.17016,-1.80868 -1.17016,1.59453 -1.17016,4.64499 -1.17015,7.01666 -1.17016,8.50009 -1.17016,9.02363 -1.17016,8.65691 -1.17015,7.59328 -1.17016,6.11061 -1.17016,4.51625 -1.17016,3.08647 -1.17016,2.01479 -1.17015,1.38101 -1.17016,1.14803 -1.17016,1.1855 -1.17016,1.31269 -1.17016,1.34869 -1.17015,1.1574 -1.17016,0.67753 -1.17016,-0.0688 -1.17016,-0.98866 -1.17015,-1.9492 -1.17016,-2.81714 -1.17016,-3.49726 -1.17016,-3.95901 -1.17015,-4.24348 -1.17016,-4.44931 -1.17016,-4.70111 -1.17016,-5.11049 -1.17016,-5.74124 -1.17015,-6.58838 -1.17016,-7.57702 -1.17016,-8.57966 -1.17016,-9.44623 -1.17016,-10.03769 -1.17015,-10.25447 -1.17016,-10.053731 -1.17016,-9.452659 -1.17016,-8.519985 -1.17015,-7.359076 -1.17016,-6.087957 -1.17016,-4.820547 -1.17016,-3.652153 -1.17015,-2.650617 -1.17016,-1.853093 -1.17016,-1.267591 -1.17016,-0.878023 -1.17016,-0.651381 -1.17015,-0.545787 -1.17016,-0.518158 -1.17016,-0.530475 -1.17016,-0.55385 -1.17015,-0.570063 -1.17016,-0.570767 -1.17016,-0.555034 -1.17016,-0.526207 -1.17016,-0.489 -1.17015,-0.447493 -1.17016,-0.40426 -1.17016,-0.360439 -1.17016,-0.316356 -1.17015,-0.272221 -1.17016,-0.228603 -1.17016,-0.186537 -1.17016,-0.147339 -1.17016,-0.112261 -1.17015,-0.08216 -1.17016,-0.0573 -1.17016,-0.03722 -1.17016,-0.02082 -1.17015,-0.0063 -1.17016,0.0086 z" /></g></g><g
       id="g728"><g
         clip-path="url(#clipPath732)"
         id="g730"><path
           id="path736"
           style="fill:#6acc65;fill-opacity:0.25;fill-rule:nonzero;stroke:#6acc65;stroke-width:0.30000001;stroke-linecap:butt;stroke-linejoin:round;stroke-miterlimit:10;stroke-dasharray:none;stroke-opacity:0.25"
           d="m 495.37518,39.014025 0,-0.06402 1.29819,0 1.29819,0 1.29819,0 1.29819,0 1.29819,0 1.29819,0 1.29819,0 1.29819,0 1.29819,0 1.2982,0 1.29819,0 1.29818,0 1.2982,0 1.29819,0 1.29819,0 1.29819,0 1.29819,0 1.29819,0 1.29819,0 1.29819,0 1.29819,0 1.29819,0 1.29819,0 1.29819,0 1.29819,0 1.29819,0 1.29819,0 1.29819,0 1.29819,0 1.29819,0 1.29819,0 1.29819,0 1.29819,0 1.29819,0 1.29819,0 1.29819,0 1.29819,0 1.29819,0 1.29819,0 1.29819,0 1.29819,0 1.29819,0 1.29819,0 1.29819,0 1.29819,0 1.29819,0 1.29819,0 1.29819,0 1.29819,0 1.29819,0 1.29819,0 1.29819,0 1.29819,0 1.29819,0 1.2982,0 1.29819,0 1.29819,0 1.29819,0 1.29819,0 1.29819,0 1.29819,0 1.29819,0 1.29819,0 1.29819,0 1.29819,0 1.29819,0 1.29819,0 1.29819,0 1.29819,0 1.29819,0 1.29819,0 1.29819,0 1.29819,0 1.29819,0 1.29819,0 1.29819,0 1.29819,0 1.29819,0 1.29819,0 1.29819,0 1.29819,0 1.29819,0 1.29819,0 1.29819,0 1.29819,0 1.29819,0 1.29819,0 1.29819,0 1.29819,0 1.29819,0 1.29819,0 1.29819,0 1.29819,0 1.29819,0 1.29819,0 1.29819,0 1.2982,0 1.29818,0 1.29819,0 1.29819,0 1.2982,0 1.29819,0 1.29819,0 1.29819,0 1.29819,0 1.29819,0 1.29819,0 1.29819,0 1.29819,0 1.29819,0 1.29819,0 1.29819,0 1.29819,0 1.29819,0 1.29819,0 1.29819,0 1.29819,0 1.29819,0 1.29819,0 1.29819,0 1.29819,0 1.29819,0 1.29819,0 1.29819,0 1.29819,0 1.29819,0 1.29819,0 0,0.119638 0,0 -1.29819,0.116401 -1.29819,0.213796 -1.29819,0.360495 -1.29819,0.562909 -1.29819,0.813814 -1.29819,1.085612 -1.29819,1.328296 -1.29819,1.476148 -1.29819,1.464379 -1.29819,1.25194 -1.29819,0.841898 -1.29819,0.289381 -1.29819,-0.308911 -1.29819,-0.841501 -1.29819,-1.215095 -1.29819,-1.380267 -1.29819,-1.339903 -1.29819,-1.138478 -1.29819,-0.838297 -1.29819,-0.493168 -1.29819,-0.129252 -1.29819,0.260882 -1.29819,0.709552 -1.29819,1.253223 -1.29819,1.905813 -1.29819,2.635516 -1.2982,3.356273 -1.29819,3.942887 -1.29819,4.270874 -1.29818,4.270107 -1.2982,3.97081 -1.29819,3.518384 -1.29819,3.143368 -1.29819,3.090712 -1.29819,3.529669 -1.29819,4.47398 -1.29819,5.739823 -1.29819,6.959969 -1.29819,7.660558 -1.29819,7.39122 -1.29819,5.87866 -1.29819,3.15367 -1.29819,-0.40486 -1.29819,-4.14401 -1.29819,-7.31675 -1.29819,-9.30552 -1.29819,-9.801343 -1.29819,-8.870512 -1.29819,-6.890425 -1.29819,-4.391633 -1.29819,-1.872091 -1.29819,0.353314 -1.29819,2.229239 -1.29819,3.950071 -1.29819,5.869943 -1.29819,8.351064 -1.29819,11.583233 -1.29819,15.42596 -1.29819,19.33825 -1.29819,22.45351 -1.29819,23.81459 -1.29819,22.71332 -1.29819,19.00876 -1.29819,13.27286 -1.29819,6.663 -1.29819,0.53914 -1.29819,-4.02413 -1.29819,-6.61174 -1.29819,-7.55188 -1.29819,-7.6731 -1.29819,-7.8619 -1.29819,-8.64255 -1.2982,-9.97576 -1.29819,-11.34785 -1.29819,-12.0722 -1.29819,-11.63241 -1.29819,-9.90228 -1.29819,-7.16461 -1.29819,-3.96065 -1.29819,-0.87526 -1.29819,1.63056 -1.29819,3.28072 -1.29819,3.95125 -1.29819,3.60652 -1.29819,2.26851 -1.29819,0.0424 -1.29819,-2.83185 -1.29819,-5.9603 -1.29819,-8.84935 -1.29819,-11.02676 -1.29819,-12.176 -1.29819,-12.218503 -1.29819,-11.30834 -1.29819,-9.751038 -1.29819,-7.89359 -1.29819,-6.03529 -1.29819,-4.384961 -1.29819,-3.059851 -1.29819,-2.104518 -1.29819,-1.509901 -1.29819,-1.225439 -1.29819,-1.16848 -1.29819,-1.237815 -1.29819,-1.333232 -1.29819,-1.376217 -1.29819,-1.324172 -1.29819,-1.173065 -1.29819,-0.948842 -1.29819,-0.692649 -1.29819,-0.446142 -1.29819,-0.241335 -1.29819,-0.0962 -1.29819,-0.01478 -1.29819,0.01013 -1.2982,-0.0067 -1.29818,-0.04675 -1.29819,-0.09208 -1.2982,-0.128464 -1.29819,-0.147697 -1.29819,-0.148046 -1.29819,-0.132891 -1.29819,-0.108323 -1.29819,-0.08057 -1.29819,-0.05406 -1.29819,-0.0304 -1.29819,-0.008 -1.29819,0.01793 z" /></g></g><g
       id="g738"><g
         clip-path="url(#clipPath742)"
         id="g740"><path
           id="path746"
           style="fill:none;stroke:#4878cf;stroke-width:1.75;stroke-linecap:round;stroke-linejoin:round;stroke-miterlimit:10;stroke-dasharray:none;stroke-opacity:1"
           d="m 488.36422,39.000747 4.68063,0.05579 3.51047,0.251724 2.34032,0.333876 2.34031,0.500824 2.34032,0.676795 2.34031,0.851753 3.51048,1.570241 5.85079,2.743313 2.34031,1.197168 1.17016,0.878023 1.17016,1.267591 1.17016,1.853093 1.17015,2.650617 1.17016,3.652153 1.17016,4.820547 1.17016,6.087957 1.17015,7.359076 1.17016,8.519985 2.34032,19.506387 2.34031,20.29216 2.34032,18.02589 1.17016,7.57702 1.17015,6.58838 1.17016,5.74124 2.34032,9.8116 2.34031,8.69279 1.17016,3.95901 1.17016,3.49726 1.17016,2.81714 1.17015,1.9492 1.17016,0.98866 1.17016,0.0688 1.17016,-0.67753 1.17015,-1.1574 2.34032,-2.66138 3.51047,-3.71454 1.17016,-2.01479 1.17016,-3.08647 1.17016,-4.51625 1.17016,-6.11061 1.17015,-7.59328 3.51048,-26.18063 1.17015,-7.01666 1.17016,-4.64499 1.17016,-1.59453 1.17016,1.80868 1.17016,5.15715 1.17015,8.00896 3.51048,30.46461 1.17015,7.72001 1.17016,4.35437 1.17016,0.20256 1.17016,-4.19885 1.17015,-8.28338 1.17016,-11.55665 2.34032,-28.20238 1.17016,-14.14747 1.17015,-12.79025 1.17016,-10.777688 1.17016,-8.462533 1.17016,-6.163042 1.17015,-4.125124 1.17016,-2.507259 1.17016,-1.383023 1.17016,-0.753675 1.17015,-0.564474 1.17016,-0.72119 1.17016,-1.10601 1.17016,-1.593199 1.17016,-2.064583 2.34031,-5.030388 2.34032,-4.964502 1.17015,-2.016418 1.17016,-1.565821 1.17016,-1.092294 1.17016,-0.658205 1.17016,-0.312309 2.34031,-0.06673 2.34032,-0.09458 1.17015,-0.253847 1.17016,-0.424086 2.34032,-1.258711 3.51047,-2.14379 2.34032,-1.080263 2.34031,-0.667149 2.34032,-0.337947 2.34031,-0.138688 0,0" /></g></g><g
       id="g748"><g
         clip-path="url(#clipPath752)"
         id="g750"><path
           id="path756"
           style="fill:none;stroke:#6acc65;stroke-width:1.75;stroke-linecap:round;stroke-linejoin:round;stroke-miterlimit:10;stroke-dasharray:none;stroke-opacity:1"
           d="m 495.37518,39.014025 3.89457,0.02049 3.89457,0.242951 7.78914,0.695925 5.19277,0.107512 1.29819,0.241335 1.29819,0.446142 1.29819,0.692649 1.29819,0.948842 1.29819,1.173065 5.19276,5.271436 2.59638,2.393919 1.29819,1.509901 1.29819,2.104518 1.29819,3.059851 1.29819,4.384961 1.29819,6.03529 1.29819,7.89359 1.29819,9.751038 2.59638,23.52685 1.29819,12.176 1.29819,11.02676 1.29819,8.84935 1.29819,5.9603 1.29819,2.83185 1.29819,-0.0424 1.29819,-2.26851 1.29819,-3.60652 1.29819,-3.95125 1.29819,-3.28072 1.29819,-1.63056 1.29819,0.87526 1.29819,3.96065 1.29819,7.16461 1.29819,9.90228 3.89457,35.05246 1.2982,9.97576 1.29819,8.64255 3.89457,23.08688 1.29819,6.61174 1.29819,4.02413 1.29819,-0.53914 1.29819,-6.663 1.29819,-13.27286 1.29819,-19.00876 3.89457,-68.98142 1.29819,-19.33825 1.29819,-15.42596 1.29819,-11.58324 1.29819,-8.351064 1.29819,-5.869943 1.29819,-3.950071 1.29819,-2.229239 1.29819,-0.353314 1.29819,1.872091 1.29819,4.391633 1.29819,6.890425 1.29819,8.870512 2.59638,19.10687 1.29819,7.31675 1.29819,4.14401 1.29819,0.40486 1.29819,-3.15367 1.29819,-5.87866 3.89457,-22.011754 1.29819,-5.739823 1.29819,-4.47398 1.29819,-3.529669 2.59638,-6.23408 1.29819,-3.518384 2.59638,-8.240917 2.59638,-8.213761 1.2982,-3.356273 1.29819,-2.635516 1.29819,-1.905813 1.29819,-1.253223 1.29819,-0.709552 1.29819,-0.260882 1.29819,0.129252 1.29819,0.493168 1.29819,0.838297 1.29819,1.138478 3.89457,3.935265 1.29819,0.841501 1.29819,0.308911 1.29819,-0.289381 1.29819,-0.841898 1.29819,-1.25194 3.89457,-4.268823 1.29819,-1.085612 1.29819,-0.813814 1.29819,-0.562909 1.29819,-0.360495 2.59638,-0.330197 0,0" /></g></g><g
       id="g758"><text
         id="text760"
         style="font-variant:normal;font-weight:normal;font-size:11px;font-family:'Liberation Sans';-inkscape-font-specification:LiberationSans;writing-mode:lr-tb;fill:#262626;fill-opacity:1;fill-rule:nonzero;stroke:none"
         transform="matrix(1,0,0,-1,556.14189,265.45)"><tspan
           id="tspan762"
           y="0"
           x="0 7.3369999 11 13.442 18.941999 25.058001 28.115999 34.231998 37.290001 40.348 46.464001 50.126999 53.790001 59.905998 63.569 69.684998 72.742996 75.184998">Private for­profit</tspan></text>
<text
         id="text764"
         style="font-variant:normal;font-weight:normal;font-size:9.35000038px;font-family:'Liberation Sans';-inkscape-font-specification:LiberationSans;writing-mode:lr-tb;fill:#262626;fill-opacity:1;fill-rule:nonzero;stroke:none"
         transform="matrix(1,0,0,-1,726.60208,152.31719)"><tspan
           id="tspan766"
           y="0"
           x="0 6.7507 11.9493 17.1479 22.3465 27.545099 32.743698 37.942299 43.1409 47.815899">Dependence</tspan></text>
<path
         id="path768"
         style="fill:none;stroke:#4878cf;stroke-width:1.75;stroke-linecap:round;stroke-linejoin:round;stroke-miterlimit:10;stroke-dasharray:none;stroke-opacity:1"
         d="m 711.39115,141.69219 20,0" /><text
         id="text770"
         style="font-variant:normal;font-weight:normal;font-size:10px;font-family:'Liberation Sans';-inkscape-font-specification:LiberationSans;writing-mode:lr-tb;fill:#262626;fill-opacity:1;fill-rule:nonzero;stroke:none"
         transform="matrix(1,0,0,-1,739.39115,138.19219)"><tspan
           id="tspan772"
           y="0"
           x="0 7.2199998 12.78 18.34 23.9 29.459999 35.02 40.580002 46.139999">Dependent</tspan></text>
<path
         id="path774"
         style="fill:none;stroke:#6acc65;stroke-width:1.75;stroke-linecap:round;stroke-linejoin:round;stroke-miterlimit:10;stroke-dasharray:none;stroke-opacity:1"
         d="m 711.39115,127.36406 20,0" /><text
         id="text776"
         style="font-variant:normal;font-weight:normal;font-size:10px;font-family:'Liberation Sans';-inkscape-font-specification:LiberationSans;writing-mode:lr-tb;fill:#262626;fill-opacity:1;fill-rule:nonzero;stroke:none"
         transform="matrix(1,0,0,-1,739.39115,123.86406)"><tspan
           id="tspan778"
           y="0"
           x="0 2.78 8.3400002 13.9 19.459999 25.02 30.58 36.139999 41.700001 47.259998 52.82">Independent</tspan></text>
</g></g></svg>