<?xml version="1.0" encoding="UTF-8" standalone="no"?>
<svg
   xmlns:dc="http://purl.org/dc/elements/1.1/"
   xmlns:cc="http://creativecommons.org/ns#"
   xmlns:rdf="http://www.w3.org/1999/02/22-rdf-syntax-ns#"
   xmlns:svg="http://www.w3.org/2000/svg"
   xmlns="http://www.w3.org/2000/svg"
   viewBox="0 0 540 360"
   height="360"
   width="540"
   xml:space="preserve"
   version="1.1"
   id="svg2"><metadata
     id="metadata8"><rdf:RDF><cc:Work
         rdf:about=""><dc:format>image/svg+xml</dc:format><dc:type
           rdf:resource="http://purl.org/dc/dcmitype/StillImage" /></cc:Work></rdf:RDF></metadata><defs
     id="defs6"><clipPath
       id="clipPath20"
       clipPathUnits="userSpaceOnUse"><path
         id="path22"
         d="m 19.06875,42.6 393.8625,0 0,234.6 -393.8625,0 0,-234.6 z" /></clipPath><clipPath
       id="clipPath40"
       clipPathUnits="userSpaceOnUse"><path
         id="path42"
         d="m 19.06875,42.6 393.8625,0 0,234.6 -393.8625,0 0,-234.6 z" /></clipPath><clipPath
       id="clipPath60"
       clipPathUnits="userSpaceOnUse"><path
         id="path62"
         d="m 19.06875,42.6 393.8625,0 0,234.6 -393.8625,0 0,-234.6 z" /></clipPath><clipPath
       id="clipPath80"
       clipPathUnits="userSpaceOnUse"><path
         id="path82"
         d="m 19.06875,42.6 393.8625,0 0,234.6 -393.8625,0 0,-234.6 z" /></clipPath><clipPath
       id="clipPath100"
       clipPathUnits="userSpaceOnUse"><path
         id="path102"
         d="m 19.06875,42.6 393.8625,0 0,234.6 -393.8625,0 0,-234.6 z" /></clipPath><clipPath
       id="clipPath120"
       clipPathUnits="userSpaceOnUse"><path
         id="path122"
         d="m 19.06875,42.6 393.8625,0 0,234.6 -393.8625,0 0,-234.6 z" /></clipPath><clipPath
       id="clipPath140"
       clipPathUnits="userSpaceOnUse"><path
         id="path142"
         d="m 19.06875,42.6 393.8625,0 0,234.6 -393.8625,0 0,-234.6 z" /></clipPath><clipPath
       id="clipPath160"
       clipPathUnits="userSpaceOnUse"><path
         id="path162"
         d="m 19.06875,42.6 393.8625,0 0,234.6 -393.8625,0 0,-234.6 z" /></clipPath><clipPath
       id="clipPath184"
       clipPathUnits="userSpaceOnUse"><path
         id="path186"
         d="m 19.06875,42.6 393.8625,0 0,234.6 -393.8625,0 0,-234.6 z" /></clipPath><clipPath
       id="clipPath200"
       clipPathUnits="userSpaceOnUse"><path
         id="path202"
         d="m 19.06875,42.6 393.8625,0 0,234.6 -393.8625,0 0,-234.6 z" /></clipPath><clipPath
       id="clipPath216"
       clipPathUnits="userSpaceOnUse"><path
         id="path218"
         d="m 19.06875,42.6 393.8625,0 0,234.6 -393.8625,0 0,-234.6 z" /></clipPath><clipPath
       id="clipPath232"
       clipPathUnits="userSpaceOnUse"><path
         id="path234"
         d="m 19.06875,42.6 393.8625,0 0,234.6 -393.8625,0 0,-234.6 z" /></clipPath><clipPath
       id="clipPath248"
       clipPathUnits="userSpaceOnUse"><path
         id="path250"
         d="m 19.06875,42.6 393.8625,0 0,234.6 -393.8625,0 0,-234.6 z" /></clipPath><clipPath
       id="clipPath264"
       clipPathUnits="userSpaceOnUse"><path
         id="path266"
         d="m 19.06875,42.6 393.8625,0 0,234.6 -393.8625,0 0,-234.6 z" /></clipPath><clipPath
       id="clipPath280"
       clipPathUnits="userSpaceOnUse"><path
         id="path282"
         d="m 19.06875,42.6 393.8625,0 0,234.6 -393.8625,0 0,-234.6 z" /></clipPath><clipPath
       id="clipPath296"
       clipPathUnits="userSpaceOnUse"><path
         id="path298"
         d="m 19.06875,42.6 393.8625,0 0,234.6 -393.8625,0 0,-234.6 z" /></clipPath><clipPath
       id="clipPath312"
       clipPathUnits="userSpaceOnUse"><path
         id="path314"
         d="m 19.06875,42.6 393.8625,0 0,234.6 -393.8625,0 0,-234.6 z" /></clipPath><clipPath
       id="clipPath322"
       clipPathUnits="userSpaceOnUse"><path
         id="path324"
         d="m 19.06875,42.6 393.8625,0 0,234.6 -393.8625,0 0,-234.6 z" /></clipPath><clipPath
       id="clipPath332"
       clipPathUnits="userSpaceOnUse"><path
         id="path334"
         d="m 19.06875,42.6 393.8625,0 0,234.6 -393.8625,0 0,-234.6 z" /></clipPath><clipPath
       id="clipPath342"
       clipPathUnits="userSpaceOnUse"><path
         id="path344"
         d="m 19.06875,42.6 393.8625,0 0,234.6 -393.8625,0 0,-234.6 z" /></clipPath><clipPath
       id="clipPath352"
       clipPathUnits="userSpaceOnUse"><path
         id="path354"
         d="m 19.06875,42.6 393.8625,0 0,234.6 -393.8625,0 0,-234.6 z" /></clipPath><clipPath
       id="clipPath362"
       clipPathUnits="userSpaceOnUse"><path
         id="path364"
         d="m 19.06875,42.6 393.8625,0 0,234.6 -393.8625,0 0,-234.6 z" /></clipPath></defs><g
     transform="matrix(1.25,0,0,-1.25,0,360)"
     id="g10"><path
       id="path12"
       style="fill:#ffffff;fill-opacity:1;fill-rule:nonzero;stroke:none"
       d="M 0,0 432,0 432,288 0,288 0,0 Z" /><path
       id="path14"
       style="fill:#eaeaf2;fill-opacity:1;fill-rule:nonzero;stroke:none"
       d="m 19.06875,42.6 393.8625,0 0,234.6 -393.8625,0 0,-234.6 z" /><g
       id="g16"><g
         clip-path="url(#clipPath20)"
         id="g18"><path
           id="path24"
           style="fill:none;stroke:#ffffff;stroke-width:1;stroke-linecap:round;stroke-linejoin:round;stroke-miterlimit:10;stroke-dasharray:none;stroke-opacity:1"
           d="m 19.06875,42.6 0,234.6" /></g></g><g
       id="g26"><path
         id="path28"
         style="fill:#262626;fill-opacity:1;fill-rule:nonzero;stroke:#262626;stroke-width:1;stroke-linecap:butt;stroke-linejoin:round;stroke-miterlimit:10;stroke-dasharray:none;stroke-opacity:1"
         d="m 19.06875,42.6 0,0" /><path
         id="path30"
         style="fill:#262626;fill-opacity:1;fill-rule:nonzero;stroke:#262626;stroke-width:1;stroke-linecap:butt;stroke-linejoin:round;stroke-miterlimit:10;stroke-dasharray:none;stroke-opacity:1"
         d="m 19.06875,277.2 0,0" /><text
         id="text32"
         style="font-variant:normal;font-weight:normal;font-size:10px;font-family:'Liberation Sans';-inkscape-font-specification:LiberationSans;writing-mode:lr-tb;fill:#262626;fill-opacity:1;fill-rule:nonzero;stroke:none"
         transform="matrix(1,0,0,-1,10.725,28.35)"><tspan
           id="tspan34"
           y="0"
           x="0 5.5599999 11.12">200</tspan></text>
</g><g
       id="g36"><g
         clip-path="url(#clipPath40)"
         id="g38"><path
           id="path44"
           style="fill:none;stroke:#ffffff;stroke-width:1;stroke-linecap:round;stroke-linejoin:round;stroke-miterlimit:10;stroke-dasharray:none;stroke-opacity:1"
           d="m 75.334821,42.6 0,234.6" /></g></g><g
       id="g46"><path
         id="path48"
         style="fill:#262626;fill-opacity:1;fill-rule:nonzero;stroke:#262626;stroke-width:1;stroke-linecap:butt;stroke-linejoin:round;stroke-miterlimit:10;stroke-dasharray:none;stroke-opacity:1"
         d="m 75.334821,42.6 0,0" /><path
         id="path50"
         style="fill:#262626;fill-opacity:1;fill-rule:nonzero;stroke:#262626;stroke-width:1;stroke-linecap:butt;stroke-linejoin:round;stroke-miterlimit:10;stroke-dasharray:none;stroke-opacity:1"
         d="m 75.334821,277.2 0,0" /><text
         id="text52"
         style="font-variant:normal;font-weight:normal;font-size:10px;font-family:'Liberation Sans';-inkscape-font-specification:LiberationSans;writing-mode:lr-tb;fill:#262626;fill-opacity:1;fill-rule:nonzero;stroke:none"
         transform="matrix(1,0,0,-1,66.991071,28.35)"><tspan
           id="tspan54"
           y="0"
           x="0 5.5599999 11.12">300</tspan></text>
</g><g
       id="g56"><g
         clip-path="url(#clipPath60)"
         id="g58"><path
           id="path64"
           style="fill:none;stroke:#ffffff;stroke-width:1;stroke-linecap:round;stroke-linejoin:round;stroke-miterlimit:10;stroke-dasharray:none;stroke-opacity:1"
           d="m 131.60089,42.6 0,234.6" /></g></g><g
       id="g66"><path
         id="path68"
         style="fill:#262626;fill-opacity:1;fill-rule:nonzero;stroke:#262626;stroke-width:1;stroke-linecap:butt;stroke-linejoin:round;stroke-miterlimit:10;stroke-dasharray:none;stroke-opacity:1"
         d="m 131.60089,42.6 0,0" /><path
         id="path70"
         style="fill:#262626;fill-opacity:1;fill-rule:nonzero;stroke:#262626;stroke-width:1;stroke-linecap:butt;stroke-linejoin:round;stroke-miterlimit:10;stroke-dasharray:none;stroke-opacity:1"
         d="m 131.60089,277.2 0,0" /><text
         id="text72"
         style="font-variant:normal;font-weight:normal;font-size:10px;font-family:'Liberation Sans';-inkscape-font-specification:LiberationSans;writing-mode:lr-tb;fill:#262626;fill-opacity:1;fill-rule:nonzero;stroke:none"
         transform="matrix(1,0,0,-1,123.25714,28.35)"><tspan
           id="tspan74"
           y="0"
           x="0 5.5599999 11.12">400</tspan></text>
</g><g
       id="g76"><g
         clip-path="url(#clipPath80)"
         id="g78"><path
           id="path84"
           style="fill:none;stroke:#ffffff;stroke-width:1;stroke-linecap:round;stroke-linejoin:round;stroke-miterlimit:10;stroke-dasharray:none;stroke-opacity:1"
           d="m 187.86696,42.6 0,234.6" /></g></g><g
       id="g86"><path
         id="path88"
         style="fill:#262626;fill-opacity:1;fill-rule:nonzero;stroke:#262626;stroke-width:1;stroke-linecap:butt;stroke-linejoin:round;stroke-miterlimit:10;stroke-dasharray:none;stroke-opacity:1"
         d="m 187.86696,42.6 0,0" /><path
         id="path90"
         style="fill:#262626;fill-opacity:1;fill-rule:nonzero;stroke:#262626;stroke-width:1;stroke-linecap:butt;stroke-linejoin:round;stroke-miterlimit:10;stroke-dasharray:none;stroke-opacity:1"
         d="m 187.86696,277.2 0,0" /><text
         id="text92"
         style="font-variant:normal;font-weight:normal;font-size:10px;font-family:'Liberation Sans';-inkscape-font-specification:LiberationSans;writing-mode:lr-tb;fill:#262626;fill-opacity:1;fill-rule:nonzero;stroke:none"
         transform="matrix(1,0,0,-1,179.52321,28.35)"><tspan
           id="tspan94"
           y="0"
           x="0 5.5599999 11.12">500</tspan></text>
</g><g
       id="g96"><g
         clip-path="url(#clipPath100)"
         id="g98"><path
           id="path104"
           style="fill:none;stroke:#ffffff;stroke-width:1;stroke-linecap:round;stroke-linejoin:round;stroke-miterlimit:10;stroke-dasharray:none;stroke-opacity:1"
           d="m 244.13304,42.6 0,234.6" /></g></g><g
       id="g106"><path
         id="path108"
         style="fill:#262626;fill-opacity:1;fill-rule:nonzero;stroke:#262626;stroke-width:1;stroke-linecap:butt;stroke-linejoin:round;stroke-miterlimit:10;stroke-dasharray:none;stroke-opacity:1"
         d="m 244.13304,42.6 0,0" /><path
         id="path110"
         style="fill:#262626;fill-opacity:1;fill-rule:nonzero;stroke:#262626;stroke-width:1;stroke-linecap:butt;stroke-linejoin:round;stroke-miterlimit:10;stroke-dasharray:none;stroke-opacity:1"
         d="m 244.13304,277.2 0,0" /><text
         id="text112"
         style="font-variant:normal;font-weight:normal;font-size:10px;font-family:'Liberation Sans';-inkscape-font-specification:LiberationSans;writing-mode:lr-tb;fill:#262626;fill-opacity:1;fill-rule:nonzero;stroke:none"
         transform="matrix(1,0,0,-1,235.78929,28.35)"><tspan
           id="tspan114"
           y="0"
           x="0 5.5599999 11.12">600</tspan></text>
</g><g
       id="g116"><g
         clip-path="url(#clipPath120)"
         id="g118"><path
           id="path124"
           style="fill:none;stroke:#ffffff;stroke-width:1;stroke-linecap:round;stroke-linejoin:round;stroke-miterlimit:10;stroke-dasharray:none;stroke-opacity:1"
           d="m 300.39911,42.6 0,234.6" /></g></g><g
       id="g126"><path
         id="path128"
         style="fill:#262626;fill-opacity:1;fill-rule:nonzero;stroke:#262626;stroke-width:1;stroke-linecap:butt;stroke-linejoin:round;stroke-miterlimit:10;stroke-dasharray:none;stroke-opacity:1"
         d="m 300.39911,42.6 0,0" /><path
         id="path130"
         style="fill:#262626;fill-opacity:1;fill-rule:nonzero;stroke:#262626;stroke-width:1;stroke-linecap:butt;stroke-linejoin:round;stroke-miterlimit:10;stroke-dasharray:none;stroke-opacity:1"
         d="m 300.39911,277.2 0,0" /><text
         id="text132"
         style="font-variant:normal;font-weight:normal;font-size:10px;font-family:'Liberation Sans';-inkscape-font-specification:LiberationSans;writing-mode:lr-tb;fill:#262626;fill-opacity:1;fill-rule:nonzero;stroke:none"
         transform="matrix(1,0,0,-1,292.05536,28.35)"><tspan
           id="tspan134"
           y="0"
           x="0 5.5599999 11.12">700</tspan></text>
</g><g
       id="g136"><g
         clip-path="url(#clipPath140)"
         id="g138"><path
           id="path144"
           style="fill:none;stroke:#ffffff;stroke-width:1;stroke-linecap:round;stroke-linejoin:round;stroke-miterlimit:10;stroke-dasharray:none;stroke-opacity:1"
           d="m 356.66518,42.6 0,234.6" /></g></g><g
       id="g146"><path
         id="path148"
         style="fill:#262626;fill-opacity:1;fill-rule:nonzero;stroke:#262626;stroke-width:1;stroke-linecap:butt;stroke-linejoin:round;stroke-miterlimit:10;stroke-dasharray:none;stroke-opacity:1"
         d="m 356.66518,42.6 0,0" /><path
         id="path150"
         style="fill:#262626;fill-opacity:1;fill-rule:nonzero;stroke:#262626;stroke-width:1;stroke-linecap:butt;stroke-linejoin:round;stroke-miterlimit:10;stroke-dasharray:none;stroke-opacity:1"
         d="m 356.66518,277.2 0,0" /><text
         id="text152"
         style="font-variant:normal;font-weight:normal;font-size:10px;font-family:'Liberation Sans';-inkscape-font-specification:LiberationSans;writing-mode:lr-tb;fill:#262626;fill-opacity:1;fill-rule:nonzero;stroke:none"
         transform="matrix(1,0,0,-1,348.32143,28.35)"><tspan
           id="tspan154"
           y="0"
           x="0 5.5599999 11.12">800</tspan></text>
</g><g
       id="g156"><g
         clip-path="url(#clipPath160)"
         id="g158"><path
           id="path164"
           style="fill:none;stroke:#ffffff;stroke-width:1;stroke-linecap:round;stroke-linejoin:round;stroke-miterlimit:10;stroke-dasharray:none;stroke-opacity:1"
           d="m 412.93125,42.6 0,234.6" /></g></g><g
       id="g166"><path
         id="path168"
         style="fill:#262626;fill-opacity:1;fill-rule:nonzero;stroke:#262626;stroke-width:1;stroke-linecap:butt;stroke-linejoin:round;stroke-miterlimit:10;stroke-dasharray:none;stroke-opacity:1"
         d="m 412.93125,42.6 0,0" /><path
         id="path170"
         style="fill:#262626;fill-opacity:1;fill-rule:nonzero;stroke:#262626;stroke-width:1;stroke-linecap:butt;stroke-linejoin:round;stroke-miterlimit:10;stroke-dasharray:none;stroke-opacity:1"
         d="m 412.93125,277.2 0,0" /><text
         id="text172"
         style="font-variant:normal;font-weight:normal;font-size:10px;font-family:'Liberation Sans';-inkscape-font-specification:LiberationSans;writing-mode:lr-tb;fill:#262626;fill-opacity:1;fill-rule:nonzero;stroke:none"
         transform="matrix(1,0,0,-1,404.5875,28.35)"><tspan
           id="tspan174"
           y="0"
           x="0 5.5599999 11.12">900</tspan></text>
<text
         id="text176"
         style="font-variant:normal;font-weight:normal;font-size:11px;font-family:'Liberation Sans';-inkscape-font-specification:LiberationSans;writing-mode:lr-tb;fill:#262626;fill-opacity:1;fill-rule:nonzero;stroke:none"
         transform="matrix(1,0,0,-1,171.92969,13.303125)"><tspan
           id="tspan178"
           y="0"
           x="0 7.3369999 14.674 21.395 24.452999 31.790001 37.290001 43.405998 47.069 53.185001 56.243 59.905998 66.022003 72.138 78.253998 84.370003">SAT Score (2013)</tspan></text>
</g><g
       id="g180"><g
         clip-path="url(#clipPath184)"
         id="g182"><path
           id="path188"
           style="fill:none;stroke:#ffffff;stroke-width:1;stroke-linecap:round;stroke-linejoin:round;stroke-miterlimit:10;stroke-dasharray:none;stroke-opacity:1"
           d="m 19.06875,42.6 393.8625,0" /></g></g><g
       id="g190"><path
         id="path192"
         style="fill:#262626;fill-opacity:1;fill-rule:nonzero;stroke:#262626;stroke-width:1;stroke-linecap:butt;stroke-linejoin:round;stroke-miterlimit:10;stroke-dasharray:none;stroke-opacity:1"
         d="m 19.06875,42.6 0,0" /><path
         id="path194"
         style="fill:#262626;fill-opacity:1;fill-rule:nonzero;stroke:#262626;stroke-width:1;stroke-linecap:butt;stroke-linejoin:round;stroke-miterlimit:10;stroke-dasharray:none;stroke-opacity:1"
         d="m 412.93125,42.6 0,0" /></g><g
       id="g196"><g
         clip-path="url(#clipPath200)"
         id="g198"><path
           id="path204"
           style="fill:none;stroke:#ffffff;stroke-width:1;stroke-linecap:round;stroke-linejoin:round;stroke-miterlimit:10;stroke-dasharray:none;stroke-opacity:1"
           d="m 19.06875,76.114286 393.8625,0" /></g></g><g
       id="g206"><path
         id="path208"
         style="fill:#262626;fill-opacity:1;fill-rule:nonzero;stroke:#262626;stroke-width:1;stroke-linecap:butt;stroke-linejoin:round;stroke-miterlimit:10;stroke-dasharray:none;stroke-opacity:1"
         d="m 19.06875,76.114286 0,0" /><path
         id="path210"
         style="fill:#262626;fill-opacity:1;fill-rule:nonzero;stroke:#262626;stroke-width:1;stroke-linecap:butt;stroke-linejoin:round;stroke-miterlimit:10;stroke-dasharray:none;stroke-opacity:1"
         d="m 412.93125,76.114286 0,0" /></g><g
       id="g212"><g
         clip-path="url(#clipPath216)"
         id="g214"><path
           id="path220"
           style="fill:none;stroke:#ffffff;stroke-width:1;stroke-linecap:round;stroke-linejoin:round;stroke-miterlimit:10;stroke-dasharray:none;stroke-opacity:1"
           d="m 19.06875,109.62857 393.8625,0" /></g></g><g
       id="g222"><path
         id="path224"
         style="fill:#262626;fill-opacity:1;fill-rule:nonzero;stroke:#262626;stroke-width:1;stroke-linecap:butt;stroke-linejoin:round;stroke-miterlimit:10;stroke-dasharray:none;stroke-opacity:1"
         d="m 19.06875,109.62857 0,0" /><path
         id="path226"
         style="fill:#262626;fill-opacity:1;fill-rule:nonzero;stroke:#262626;stroke-width:1;stroke-linecap:butt;stroke-linejoin:round;stroke-miterlimit:10;stroke-dasharray:none;stroke-opacity:1"
         d="m 412.93125,109.62857 0,0" /></g><g
       id="g228"><g
         clip-path="url(#clipPath232)"
         id="g230"><path
           id="path236"
           style="fill:none;stroke:#ffffff;stroke-width:1;stroke-linecap:round;stroke-linejoin:round;stroke-miterlimit:10;stroke-dasharray:none;stroke-opacity:1"
           d="m 19.06875,143.14286 393.8625,0" /></g></g><g
       id="g238"><path
         id="path240"
         style="fill:#262626;fill-opacity:1;fill-rule:nonzero;stroke:#262626;stroke-width:1;stroke-linecap:butt;stroke-linejoin:round;stroke-miterlimit:10;stroke-dasharray:none;stroke-opacity:1"
         d="m 19.06875,143.14286 0,0" /><path
         id="path242"
         style="fill:#262626;fill-opacity:1;fill-rule:nonzero;stroke:#262626;stroke-width:1;stroke-linecap:butt;stroke-linejoin:round;stroke-miterlimit:10;stroke-dasharray:none;stroke-opacity:1"
         d="m 412.93125,143.14286 0,0" /></g><g
       id="g244"><g
         clip-path="url(#clipPath248)"
         id="g246"><path
           id="path252"
           style="fill:none;stroke:#ffffff;stroke-width:1;stroke-linecap:round;stroke-linejoin:round;stroke-miterlimit:10;stroke-dasharray:none;stroke-opacity:1"
           d="m 19.06875,176.65714 393.8625,0" /></g></g><g
       id="g254"><path
         id="path256"
         style="fill:#262626;fill-opacity:1;fill-rule:nonzero;stroke:#262626;stroke-width:1;stroke-linecap:butt;stroke-linejoin:round;stroke-miterlimit:10;stroke-dasharray:none;stroke-opacity:1"
         d="m 19.06875,176.65714 0,0" /><path
         id="path258"
         style="fill:#262626;fill-opacity:1;fill-rule:nonzero;stroke:#262626;stroke-width:1;stroke-linecap:butt;stroke-linejoin:round;stroke-miterlimit:10;stroke-dasharray:none;stroke-opacity:1"
         d="m 412.93125,176.65714 0,0" /></g><g
       id="g260"><g
         clip-path="url(#clipPath264)"
         id="g262"><path
           id="path268"
           style="fill:none;stroke:#ffffff;stroke-width:1;stroke-linecap:round;stroke-linejoin:round;stroke-miterlimit:10;stroke-dasharray:none;stroke-opacity:1"
           d="m 19.06875,210.17143 393.8625,0" /></g></g><g
       id="g270"><path
         id="path272"
         style="fill:#262626;fill-opacity:1;fill-rule:nonzero;stroke:#262626;stroke-width:1;stroke-linecap:butt;stroke-linejoin:round;stroke-miterlimit:10;stroke-dasharray:none;stroke-opacity:1"
         d="m 19.06875,210.17143 0,0" /><path
         id="path274"
         style="fill:#262626;fill-opacity:1;fill-rule:nonzero;stroke:#262626;stroke-width:1;stroke-linecap:butt;stroke-linejoin:round;stroke-miterlimit:10;stroke-dasharray:none;stroke-opacity:1"
         d="m 412.93125,210.17143 0,0" /></g><g
       id="g276"><g
         clip-path="url(#clipPath280)"
         id="g278"><path
           id="path284"
           style="fill:none;stroke:#ffffff;stroke-width:1;stroke-linecap:round;stroke-linejoin:round;stroke-miterlimit:10;stroke-dasharray:none;stroke-opacity:1"
           d="m 19.06875,243.68571 393.8625,0" /></g></g><g
       id="g286"><path
         id="path288"
         style="fill:#262626;fill-opacity:1;fill-rule:nonzero;stroke:#262626;stroke-width:1;stroke-linecap:butt;stroke-linejoin:round;stroke-miterlimit:10;stroke-dasharray:none;stroke-opacity:1"
         d="m 19.06875,243.68571 0,0" /><path
         id="path290"
         style="fill:#262626;fill-opacity:1;fill-rule:nonzero;stroke:#262626;stroke-width:1;stroke-linecap:butt;stroke-linejoin:round;stroke-miterlimit:10;stroke-dasharray:none;stroke-opacity:1"
         d="m 412.93125,243.68571 0,0" /></g><g
       id="g292"><g
         clip-path="url(#clipPath296)"
         id="g294"><path
           id="path300"
           style="fill:none;stroke:#ffffff;stroke-width:1;stroke-linecap:round;stroke-linejoin:round;stroke-miterlimit:10;stroke-dasharray:none;stroke-opacity:1"
           d="m 19.06875,277.2 393.8625,0" /></g></g><g
       id="g302"><path
         id="path304"
         style="fill:#262626;fill-opacity:1;fill-rule:nonzero;stroke:#262626;stroke-width:1;stroke-linecap:butt;stroke-linejoin:round;stroke-miterlimit:10;stroke-dasharray:none;stroke-opacity:1"
         d="m 19.06875,277.2 0,0" /><path
         id="path306"
         style="fill:#262626;fill-opacity:1;fill-rule:nonzero;stroke:#262626;stroke-width:1;stroke-linecap:butt;stroke-linejoin:round;stroke-miterlimit:10;stroke-dasharray:none;stroke-opacity:1"
         d="m 412.93125,277.2 0,0" /></g><g
       id="g308"><g
         clip-path="url(#clipPath312)"
         id="g310"><path
           id="path316"
           style="fill:#4c72b0;fill-opacity:0.25;fill-rule:nonzero;stroke:#4c72b0;stroke-width:0.30000001;stroke-linecap:butt;stroke-linejoin:round;stroke-miterlimit:10;stroke-dasharray:none;stroke-opacity:0.25"
           d="m 77.034666,42.620778 0,-0.02078 2.378938,0 2.378937,0 2.378938,0 2.378937,0 2.378938,0 2.378938,0 2.378937,0 2.378938,0 2.378938,0 2.378935,0 2.37894,0 2.37894,0 2.37894,0 2.37893,0 2.37894,0 2.37894,0 2.37894,0 2.37893,0 2.37894,0 2.37894,0 2.37894,0 2.37893,0 2.37894,0 2.37894,0 2.37894,0 2.37893,0 2.37894,0 2.37894,0 2.37894,0 2.37893,0 2.37894,0 2.37894,0 2.37894,0 2.37893,0 2.37894,0 2.37894,0 2.37894,0 2.37894,0 2.37893,0 2.37894,0 2.37894,0 2.37894,0 2.37893,0 2.37894,0 2.37894,0 2.37894,0 2.37893,0 2.37894,0 2.37894,0 2.37894,0 2.37893,0 2.37894,0 2.37894,0 2.37894,0 2.37894,0 2.37893,0 2.37894,0 2.37894,0 2.37894,0 2.37893,0 2.37894,0 2.37894,0 2.37894,0 2.37893,0 2.37894,0 2.37894,0 2.37894,0 2.37894,0 2.37893,0 2.37894,0 2.37894,0 2.37893,0 2.37894,0 2.37894,0 2.37894,0 2.37894,0 2.37893,0 2.37894,0 2.37894,0 2.37894,0 2.37893,0 2.37894,0 2.37894,0 2.37894,0 2.37893,0 2.37894,0 2.37894,0 2.37894,0 2.37893,0 2.37894,0 2.37894,0 2.37894,0 2.37893,0 2.37894,0 2.37894,0 2.37894,0 2.37894,0 2.37893,0 2.37894,0 2.37894,0 2.37894,0 2.37893,0 2.37894,0 2.37894,0 2.37894,0 2.37893,0 2.37894,0 2.37894,0 2.37894,0 2.37893,0 2.37894,0 2.37894,0 2.37894,0 2.37894,0 2.37893,0 2.37894,0 2.37894,0 2.37894,0 2.37893,0 2.37894,0 2.37894,0 2.37894,0 2.37893,0 2.37894,0 2.37894,0 2.37894,0 2.37894,0 0,0.01991 0,0 -2.37894,0.0091 -2.37894,0.02142 -2.37894,0.03908 -2.37894,0.06494 -2.37893,0.101874 -2.37894,0.152601 -2.37894,0.219572 -2.37894,0.305041 -2.37893,0.411331 -2.37894,0.541109 -2.37894,0.697289 -2.37894,0.882134 -2.37893,1.095298 -2.37894,1.33115 -2.37894,1.576345 -2.37894,1.809002 -2.37894,2.000729 -2.37893,2.121771 -2.37894,2.14828 -2.37894,2.069564 -2.37894,1.892749 -2.37893,1.643051 -2.37894,1.35928 -2.37894,1.085865 -2.37894,0.863688 -2.37893,0.722174 -2.37894,0.674317 -2.37894,0.715381 -2.37894,0.825074 -2.37893,0.972511 -2.37894,1.122876 -2.37894,1.244476 -2.37894,1.3146 -2.37894,1.32279 -2.37893,1.270773 -2.37894,1.169486 -2.37894,1.034704 -2.37894,0.883291 -2.37893,0.731585 -2.37894,0.59609 -2.37894,0.495305 -2.37894,0.450674 -2.37893,0.484957 -2.37894,0.617546 -2.37894,0.857949 -2.37894,1.200036 -2.37893,1.619901 -2.37894,2.079264 -2.37894,2.534058 -2.37894,2.945684 -2.37893,3.29099 -2.37894,3.567467 -2.37894,3.79226 -2.37894,3.99596 -2.37894,4.21399 -2.37893,4.47806 -2.37894,4.80922 -2.37894,5.21271 -2.37893,5.6751 -2.37894,6.16462 -2.37894,6.63666 -2.37894,7.04454 -2.37894,7.35329 -2.37893,7.55107 -2.37894,7.65221 -2.37894,7.68914 -2.37894,7.69536 -2.37893,7.68666 -2.37894,7.64943 -2.37894,7.54159 -2.37894,7.30571 -2.37893,6.88823 -2.37894,6.25616 -2.37894,5.40544 -2.37894,4.35936 -2.37894,3.16041 -2.37893,1.86055 -2.37894,0.51309 -2.37894,-0.83322 -2.37894,-2.13871 -2.37893,-3.37685 -2.37894,-4.53692 -2.37894,-5.62287 -2.37894,-6.64703 -2.37893,-7.61898 -2.37894,-8.53359 -2.37894,-9.36322 -2.37894,-10.0589 -2.37893,-10.56189 -2.37894,-10.82244 -2.37894,-10.81874 -2.37894,-10.56837 -2.37894,-10.12648 -2.37893,-9.57075 -2.37894,-8.9786 -2.37894,-8.40549 -2.37894,-7.8724 -2.37893,-7.367002 -2.37894,-6.856463 -2.37894,-6.306361 -2.37894,-5.697573 -2.37893,-5.035441 -2.37894,-4.348777 -2.37894,-3.680545 -2.37894,-3.074623 -2.37893,-2.563713 -2.37894,-2.16215 -2.37894,-1.865072 -2.37894,-1.653006 -2.37893,-1.49939 -2.37894,-1.378063 -2.37894,-1.268567 -2.37894,-1.158271 -2.37893,-1.041811 -2.37894,-0.919002 -2.37894,-0.792546 -2.37894,-0.666334 -2.378935,-0.544509 -2.378938,-0.431021 -2.378938,-0.32932 -2.378937,-0.242008 -2.378938,-0.170486 -2.378938,-0.114763 -2.378937,-0.07353 -2.378938,-0.04447 -2.378937,-0.0247 -2.378938,-0.01116 z" /></g></g><g
       id="g318"><g
         clip-path="url(#clipPath322)"
         id="g320"><path
           id="path326"
           style="fill:#55a868;fill-opacity:0.25;fill-rule:nonzero;stroke:#55a868;stroke-width:0.30000001;stroke-linecap:butt;stroke-linejoin:round;stroke-miterlimit:10;stroke-dasharray:none;stroke-opacity:0.25"
           d="m 63.569156,42.624433 0,-0.02443 2.378334,0 2.378334,0 2.378334,0 2.378333,0 2.378334,0 2.378334,0 2.378333,0 2.378334,0 2.378334,0 2.378334,0 2.378333,0 2.378334,0 2.378334,0 2.378334,0 2.378333,0 2.378338,0 2.37833,0 2.37833,0 2.37834,0 2.37833,0 2.37834,0 2.37833,0 2.37833,0 2.37834,0 2.37833,0 2.37833,0 2.37834,0 2.37833,0 2.37833,0 2.37834,0 2.37833,0 2.37834,0 2.37833,0 2.37833,0 2.37834,0 2.37833,0 2.37833,0 2.37834,0 2.37833,0 2.37834,0 2.37833,0 2.37833,0 2.37834,0 2.37833,0 2.37833,0 2.37834,0 2.37833,0 2.37833,0 2.37834,0 2.37833,0 2.37834,0 2.37833,0 2.37833,0 2.37834,0 2.37833,0 2.37833,0 2.37834,0 2.37833,0 2.37834,0 2.37833,0 2.37833,0 2.37834,0 2.37833,0 2.37833,0 2.37834,0 2.37833,0 2.37834,0 2.37833,0 2.37833,0 2.37834,0 2.37833,0 2.37833,0 2.37834,0 2.37833,0 2.37834,0 2.37833,0 2.37833,0 2.37834,0 2.37833,0 2.37833,0 2.37834,0 2.37833,0 2.37834,0 2.37833,0 2.37833,0 2.37834,0 2.37833,0 2.37833,0 2.37834,0 2.37833,0 2.37834,0 2.37833,0 2.37833,0 2.37834,0 2.37833,0 2.37833,0 2.37834,0 2.37833,0 2.37834,0 2.37833,0 2.37833,0 2.37834,0 2.37833,0 2.37833,0 2.37834,0 2.37833,0 2.37834,0 2.37833,0 2.37833,0 2.37834,0 2.37833,0 2.37833,0 2.37834,0 2.37833,0 2.37833,0 2.37834,0 2.37833,0 2.37834,0 2.37833,0 2.37833,0 2.37834,0 2.37833,0 2.37834,0 2.37833,0 2.37833,0 2.37834,0 2.37833,0 0,0.0334 0,0 -2.37833,0.02419 -2.37834,0.0468 -2.37833,0.08106 -2.37833,0.13144 -2.37834,0.201952 -2.37833,0.295191 -2.37834,0.411386 -2.37833,0.547875 -2.37833,0.699349 -2.37834,0.859103 -2.37833,1.020955 -2.37834,1.181071 -2.37833,1.338676 -2.37833,1.494861 -2.37834,1.649558 -2.37833,1.797796 -2.37833,1.927171 -2.37834,2.018397 -2.37833,2.049673 -2.37833,2.00387 -2.37834,1.875807 -2.37833,1.676479 -2.37834,1.431988 -2.37833,1.177192 -2.37833,0.946411 -2.37834,0.764775 -2.37833,0.643409 -2.37833,0.579671 -2.37834,0.561385 -2.37833,0.572465 -2.37834,0.59743 -2.37833,0.623606 -2.37833,0.641628 -2.37834,0.64577 -2.37833,0.635427 -2.37833,0.617715 -2.37834,0.60969 -2.37833,0.638095 -2.37834,0.735167 -2.37833,0.930814 -2.37833,1.243506 -2.37834,1.673291 -2.37833,2.199995 -2.37833,2.787669 -2.37834,3.393681 -2.37833,3.978786 -2.37834,4.514154 -2.37833,4.982927 -2.37833,5.37676 -2.37834,5.69051 -2.37833,5.91908 -2.37833,6.0593 -2.37834,6.11665 -2.37833,6.11291 -2.37834,6.08971 -2.37833,6.10318 -2.37833,6.209 -2.37834,6.44204 -2.37833,6.79825 -2.37833,7.22725 -2.37834,7.64011 -2.37833,7.93118 -2.37834,8.00658 -2.37833,7.80935 -2.37833,7.33268 -2.37834,6.61826 -2.37833,5.74186 -2.37833,4.79268 -2.37834,3.85324 -2.37833,2.98443 -2.37834,2.21721 -2.37833,1.55046 -2.37833,0.95391 -2.37834,0.37499 -2.37833,-0.25089 -2.37833,-0.98789 -2.37834,-1.88621 -2.37833,-2.96954 -2.37834,-4.22584 -2.37833,-5.60356 -2.37833,-7.01563 -2.37834,-8.35234 -2.37833,-9.50158 -2.37833,-10.37238 -2.37834,-10.9149 -2.37833,-11.13048 -2.37833,-11.06766 -2.37834,-10.80545 -2.37833,-10.4295 -2.37834,-10.00931 -2.37833,-9.58373 -2.37833,-9.15789 -2.37834,-8.71112 -2.37833,-8.211371 -2.37833,-7.630729 -2.37834,-6.957448 -2.37833,-6.201583 -2.37834,-5.39373 -2.37833,-4.578108 -2.37833,-3.802486 -2.37834,-3.10789 -2.37833,-2.520773 -2.37833,-2.049415 -2.37834,-1.685077 -2.37833,-1.406996 -2.37833,-1.189459 -2.37834,-1.008717 -2.37833,-0.847926 -2.37834,-0.699108 -2.37833,-0.562161 -2.37833,-0.441764 -2.378338,-0.343554 -2.378333,-0.270877 -2.378334,-0.223043 -2.378334,-0.195362 -2.378334,-0.180617 -2.378333,-0.171191 -2.378334,-0.16101 -2.378334,-0.146672 -2.378334,-0.127556 -2.378333,-0.105111 -2.378334,-0.08176 -2.378334,-0.05987 -2.378333,-0.041 -2.378334,-0.02568 -2.378334,-0.01335 -2.378334,-0.0026 z" /></g></g><g
       id="g328"><g
         clip-path="url(#clipPath332)"
         id="g330"><path
           id="path336"
           style="fill:#c44e52;fill-opacity:0.25;fill-rule:nonzero;stroke:#c44e52;stroke-width:0.30000001;stroke-linecap:butt;stroke-linejoin:round;stroke-miterlimit:10;stroke-dasharray:none;stroke-opacity:0.25"
           d="m 71.659525,42.641704 0,-0.0417 2.29523,0 2.295231,0 2.29523,0 2.29523,0 2.295231,0 2.29523,0 2.29523,0 2.295231,0 2.29523,0 2.29523,0 2.295231,0 2.29523,0 2.295231,0 2.29523,0 2.29523,0 2.29523,0 2.29523,0 2.29523,0 2.29523,0 2.29523,0 2.29523,0 2.29523,0 2.29523,0 2.29523,0 2.29523,0 2.29523,0 2.29523,0 2.29523,0 2.29523,0 2.29523,0 2.29524,0 2.29523,0 2.29523,0 2.29523,0 2.29523,0 2.29523,0 2.29523,0 2.29523,0 2.29523,0 2.29523,0 2.29523,0 2.29523,0 2.29523,0 2.29523,0 2.29523,0 2.29523,0 2.29523,0 2.29523,0 2.29523,0 2.29523,0 2.29523,0 2.29523,0 2.29523,0 2.29523,0 2.29523,0 2.29523,0 2.29523,0 2.29523,0 2.29523,0 2.29524,0 2.29523,0 2.29523,0 2.29523,0 2.29523,0 2.29523,0 2.29523,0 2.29523,0 2.29523,0 2.29523,0 2.29523,0 2.29523,0 2.29523,0 2.29523,0 2.29523,0 2.29523,0 2.29523,0 2.29523,0 2.29523,0 2.29523,0 2.29523,0 2.29523,0 2.29523,0 2.29523,0 2.29523,0 2.29523,0 2.29523,0 2.29524,0 2.29522,0 2.29524,0 2.29523,0 2.29523,0 2.29523,0 2.29523,0 2.29523,0 2.29523,0 2.29523,0 2.29523,0 2.29523,0 2.29523,0 2.29523,0 2.29523,0 2.29523,0 2.29523,0 2.29523,0 2.29523,0 2.29523,0 2.29523,0 2.29523,0 2.29523,0 2.29523,0 2.29523,0 2.29523,0 2.29523,0 2.29523,0 2.29523,0 2.29523,0 2.29523,0 2.29524,0 2.29523,0 2.29523,0 2.29523,0 2.29523,0 2.29523,0 2.29523,0 2.29523,0 2.29523,0 2.29523,0 0,0.05086 0,0 -2.29523,0.03019 -2.29523,0.05949 -2.29523,0.102466 -2.29523,0.165001 -2.29523,0.253016 -2.29523,0.371729 -2.29523,0.524717 -2.29523,0.712904 -2.29523,0.933609 -2.29524,1.179805 -2.29523,1.43965 -2.29523,1.696457 -2.29523,1.9293 -2.29523,2.114631 -2.29523,2.229185 -2.29523,2.254141 -2.29523,2.179815 -2.29523,2.009621 -2.29523,1.761625 -2.29523,1.466599 -2.29523,1.16246 -2.29523,0.886443 -2.29523,0.667332 -2.29523,0.520087 -2.29523,0.444367 -2.29523,0.426929 -2.29523,0.446681 -2.29523,0.480528 -2.29523,0.508438 -2.29523,0.516922 -2.29523,0.500795 -2.29523,0.463464 -2.29523,0.415959 -2.29523,0.374679 -2.29523,0.35786 -2.29523,0.381085 -2.29523,0.452693 -2.29523,0.570474 -2.29524,0.721047 -2.29522,0.882767 -2.29524,1.031868 -2.29523,1.150297 -2.29523,1.23272 -2.29523,1.290205 -2.29523,1.348946 -2.29523,1.44409 -2.29523,1.610466 -2.29523,1.873095 -2.29523,2.240398 -2.29523,2.702019 -2.29523,3.231475 -2.29523,3.792466 -2.29523,4.34673 -2.29523,4.86143 -2.29523,5.31442 -2.29523,5.69694 -2.29523,6.01327 -2.29523,6.27803 -2.29523,6.51137 -2.29523,6.73321 -2.29523,6.95719 -2.29523,7.18555 -2.29523,7.40616 -2.29523,7.59208 -2.29523,7.70469 -2.29523,7.69998 -2.29523,7.53781 -2.29524,7.19243 -2.29523,6.66191 -2.29523,5.97368 -2.29523,5.18312 -2.29523,4.36412 -2.29523,3.59256 -2.29523,2.92701 -2.29523,2.39192 -2.29523,1.9695 -2.29523,1.6034 -2.29523,1.21395 -2.29523,0.72027 -2.29523,0.0628 -2.29523,-0.78122 -2.29523,-1.79302 -2.29523,-2.91944 -2.29523,-4.08814 -2.29523,-5.22576 -2.29523,-6.27354 -2.29523,-7.19633 -2.29523,-7.98392 -2.29523,-8.64521 -2.29523,-9.19853 -2.29523,-9.66063 -2.29523,-10.03797 -2.29523,-10.32223 -2.29523,-10.49128 -2.29523,-10.51507 -2.29523,-10.36504 -2.29524,-10.02409 -2.29523,-9.4945 -2.29523,-8.800881 -2.29523,-7.987649 -2.29523,-7.111219 -2.29523,-6.229461 -2.29523,-5.391379 -2.29523,-4.629911 -2.29523,-3.959548 -2.29523,-3.378857 -2.29523,-2.876427 -2.29523,-2.43784 -2.29523,-2.051288 -2.29523,-1.710323 -2.29523,-1.413456 -2.29523,-1.1616 -2.29523,-0.954899 -2.29523,-0.790458 -2.295231,-0.661823 -2.29523,-0.560125 -2.295231,-0.476157 -2.29523,-0.402416 -2.29523,-0.334306 -2.295231,-0.270258 -2.29523,-0.21093 -2.29523,-0.157993 -2.295231,-0.112992 -2.29523,-0.07659 -2.29523,-0.04826 -2.295231,-0.02638 -2.29523,-0.0084 z" /></g></g><g
       id="g338"><g
         clip-path="url(#clipPath342)"
         id="g340"><path
           id="path346"
           style="fill:none;stroke:#4c72b0;stroke-width:1.75;stroke-linecap:round;stroke-linejoin:round;stroke-miterlimit:10;stroke-dasharray:none;stroke-opacity:1"
           d="m 77.034666,42.620778 9.51575,0.153854 4.757876,0.285249 4.757875,0.571328 2.378938,0.431021 2.378935,0.544509 2.37894,0.666334 2.37894,0.792546 2.37894,0.919002 4.75787,2.200082 4.75788,2.64663 2.37893,1.49939 2.37894,1.653006 2.37894,1.865072 2.37894,2.16215 2.37893,2.563713 2.37894,3.074623 2.37894,3.680545 2.37894,4.348777 2.37893,5.035441 2.37894,5.697573 2.37894,6.306361 2.37894,6.856463 2.37893,7.367003 2.37894,7.8724 2.37894,8.40549 2.37894,8.9786 2.37893,9.57075 4.75788,20.69485 7.13681,32.20307 2.37894,10.0589 2.37894,9.36322 2.37894,8.53359 2.37893,7.61898 2.37894,6.64703 2.37894,5.62287 2.37894,4.53692 2.37893,3.37685 2.37894,2.13871 2.37894,0.83322 2.37894,-0.51309 2.37893,-1.86055 2.37894,-3.16041 2.37894,-4.35936 2.37894,-5.40544 2.37894,-6.25616 2.37893,-6.88823 4.75788,-14.8473 16.65256,-53.27716 2.37894,-7.04454 2.37894,-6.63666 2.37894,-6.16462 2.37893,-5.6751 2.37894,-5.21271 2.37894,-4.80922 2.37893,-4.47806 4.75788,-8.20995 2.37894,-3.79226 2.37894,-3.567468 2.37893,-3.29099 2.37894,-2.945684 2.37894,-2.534058 2.37894,-2.079264 2.37893,-1.619901 2.37894,-1.200036 2.37894,-0.857949 2.37894,-0.617546 9.51575,-2.027026 2.37893,-0.731585 2.37894,-0.883291 2.37894,-1.034704 4.75787,-2.440259 7.13682,-3.881866 2.37894,-1.122876 2.37893,-0.972511 4.75788,-1.540455 4.75787,-1.396491 2.37894,-0.863688 2.37894,-1.085865 2.37894,-1.35928 2.37893,-1.643051 2.37894,-1.892749 9.51575,-8.340344 2.37894,-1.809002 2.37894,-1.576345 2.37894,-1.33115 2.37893,-1.095298 2.37894,-0.882134 2.37894,-0.697289 2.37894,-0.541109 4.75787,-0.716372 4.75788,-0.372173 7.13681,-0.205891 4.75788,-0.03047 0,0" /></g></g><g
       id="g348"><g
         clip-path="url(#clipPath352)"
         id="g350"><path
           id="path356"
           style="fill:none;stroke:#55a868;stroke-width:1.75;stroke-linecap:round;stroke-linejoin:round;stroke-miterlimit:10;stroke-dasharray:none;stroke-opacity:1"
           d="m 63.569156,42.624433 9.513335,0.08259 7.135001,0.246745 9.513335,0.606429 7.135002,0.599022 4.756671,0.614431 2.37833,0.441764 2.37833,0.562161 2.37834,0.699108 2.37833,0.847926 2.37834,1.008717 2.37833,1.189459 2.37833,1.406996 2.37834,1.685077 2.37833,2.049415 2.37833,2.520773 2.37834,3.10789 2.37833,3.802486 2.37833,4.578108 2.37834,5.39373 2.37833,6.201583 2.37834,6.957448 2.37833,7.630729 2.37833,8.21137 2.37834,8.71112 4.75666,18.74162 4.75667,20.43881 4.75667,21.87311 4.75667,22.04538 2.37833,10.37238 2.37833,9.50158 2.37834,8.35234 2.37833,7.01563 2.37833,5.60356 2.37834,4.22584 2.37833,2.96954 2.37834,1.88621 2.37833,0.98789 2.37833,0.25089 2.37834,-0.37499 2.37833,-0.95391 2.37833,-1.55046 2.37834,-2.21721 2.37833,-2.98443 2.37834,-3.85324 2.37833,-4.79268 2.37833,-5.74186 2.37834,-6.61826 2.37833,-7.33268 9.51334,-31.38722 2.37833,-7.22725 2.37833,-6.79825 4.75667,-12.65104 14.27,-36.40083 2.37834,-5.69051 2.37833,-5.37676 2.37833,-4.982926 2.37834,-4.514154 2.37833,-3.978786 2.37834,-3.393681 2.37833,-2.787669 2.37833,-2.199995 2.37834,-1.673291 2.37833,-1.243506 2.37833,-0.930814 4.75667,-1.373262 11.89167,-3.15023 7.135,-1.793501 7.135,-1.784465 2.37834,-0.764775 2.37833,-0.946411 2.37833,-1.177192 2.37834,-1.431988 2.37833,-1.676479 4.75667,-3.879677 4.75667,-4.06807 4.75666,-3.724967 2.37834,-1.649558 2.37833,-1.494861 2.37833,-1.338676 2.37834,-1.181071 2.37833,-1.020955 2.37834,-0.859103 2.37833,-0.699349 2.37833,-0.547875 2.37834,-0.411386 4.75667,-0.497143 4.75666,-0.212499 4.75667,-0.07099 0,0" /></g></g><g
       id="g358"><g
         clip-path="url(#clipPath362)"
         id="g360"><path
           id="path366"
           style="fill:none;stroke:#c44e52;stroke-width:1.75;stroke-linecap:round;stroke-linejoin:round;stroke-miterlimit:10;stroke-dasharray:none;stroke-opacity:1"
           d="m 71.659525,42.641704 6.885691,0.08299 4.590461,0.189579 4.59046,0.368923 4.590461,0.604564 4.590461,0.878573 4.590461,1.221948 2.29523,0.790458 2.29523,0.954899 2.29523,1.1616 2.29523,1.413456 2.29523,1.710323 2.29523,2.051288 2.29523,2.43784 2.29523,2.876427 2.29523,3.378857 2.29523,3.959548 2.29523,4.629911 2.29523,5.391379 2.29523,6.229461 2.29523,7.111219 2.29523,7.987649 2.29523,8.800874 2.29523,9.4945 4.59047,20.38913 6.88569,31.32858 4.59046,19.6986 2.29523,9.19853 2.29523,8.64521 2.29523,7.98392 2.29523,7.19633 2.29523,6.27354 2.29523,5.22576 2.29523,4.08814 2.29523,2.91944 2.29523,1.79302 2.29523,0.78122 2.29523,-0.0628 2.29523,-0.72027 2.29523,-1.21395 2.29523,-1.6034 2.29523,-1.9695 2.29523,-2.39192 2.29523,-2.92701 2.29523,-3.59256 2.29523,-4.36412 2.29523,-5.18312 2.29523,-5.97368 2.29523,-6.66191 4.59047,-14.73024 6.88569,-22.99675 4.59046,-14.59171 4.59046,-13.6904 4.59046,-12.7894 2.29523,-6.01327 2.29523,-5.69694 2.29523,-5.31442 2.29523,-4.86143 2.29523,-4.34673 2.29523,-3.792459 2.29523,-3.231475 2.29523,-2.702019 2.29523,-2.240398 2.29523,-1.873095 2.29523,-1.610466 4.59046,-2.793036 4.59046,-2.522925 4.59047,-2.182165 2.29522,-0.882767 2.29524,-0.721047 2.29523,-0.570474 4.59046,-0.833778 6.88569,-1.148498 6.88569,-1.481181 6.88569,-1.435647 6.88569,-1.391383 2.29523,-0.667332 2.29523,-0.886443 2.29523,-1.16246 2.29523,-1.466599 2.29523,-1.761625 2.29523,-2.009621 9.18092,-8.777772 2.29523,-1.9293 2.29523,-1.696457 2.29523,-1.43965 2.29524,-1.179805 2.29523,-0.933609 2.29523,-0.712904 2.29523,-0.524717 2.29523,-0.371729 4.59046,-0.418017 4.59046,-0.161958 2.29523,-0.03019 0,0" /></g></g><g
       id="g368"><path
         id="path370"
         style="fill:none;stroke:#4c72b0;stroke-width:1.75;stroke-linecap:round;stroke-linejoin:round;stroke-miterlimit:10;stroke-dasharray:none;stroke-opacity:1"
         d="m 344.82187,264.45 20,0" /><text
         id="text372"
         style="font-variant:normal;font-weight:normal;font-size:10px;font-family:'Liberation Sans';-inkscape-font-specification:LiberationSans;writing-mode:lr-tb;fill:#262626;fill-opacity:1;fill-rule:nonzero;stroke:none"
         transform="matrix(1,0,0,-1,372.82187,260.95)"><tspan
           id="tspan374"
           y="0"
           x="0 8.3299999 13.89 16.67">Math</tspan></text>
<path
         id="path376"
         style="fill:none;stroke:#55a868;stroke-width:1.75;stroke-linecap:round;stroke-linejoin:round;stroke-miterlimit:10;stroke-dasharray:none;stroke-opacity:1"
         d="m 344.82187,250.12187 20,0" /><text
         id="text378"
         style="font-variant:normal;font-weight:normal;font-size:10px;font-family:'Liberation Sans';-inkscape-font-specification:LiberationSans;writing-mode:lr-tb;fill:#262626;fill-opacity:1;fill-rule:nonzero;stroke:none"
         transform="matrix(1,0,0,-1,372.82187,246.62187)"><tspan
           id="tspan380"
           y="0"
           x="0 6.6700001 12.23 15.56 21.120001 26.68">Verbal</tspan></text>
<path
         id="path382"
         style="fill:none;stroke:#c44e52;stroke-width:1.75;stroke-linecap:round;stroke-linejoin:round;stroke-miterlimit:10;stroke-dasharray:none;stroke-opacity:1"
         d="m 344.82187,235.79375 20,0" /><text
         id="text384"
         style="font-variant:normal;font-weight:normal;font-size:10px;font-family:'Liberation Sans';-inkscape-font-specification:LiberationSans;writing-mode:lr-tb;fill:#262626;fill-opacity:1;fill-rule:nonzero;stroke:none"
         transform="matrix(1,0,0,-1,372.82187,232.29375)"><tspan
           id="tspan386"
           y="0"
           x="0 9.4399996 12.77 14.99 17.77 19.99 25.549999">Writing</tspan></text>
</g></g></svg>